<svg fill="none" height="27" viewBox="0 0 27 27" width="27" xmlns="http://www.w3.org/2000/svg" xmlns:xlink="http://www.w3.org/1999/xlink"><mask id="a" fill="#fff"><path d="m10.6559 12.8032-8.86684 1.5425 1.54252 8.8668 8.86682-1.5425z" fill="#fff"/></mask><mask id="b" fill="#fff"><path d="m5.32752 21.1593 2.73668-.4761c.15508-.027.27602-.1022.36283-.2255.0868-.1234.11657-.2624.08929-.4171-.02698-.1551-.10215-.276-.22552-.3628s-.26238-.1166-.41703-.0893l-2.73668.4761c-.15508.027-.27602.1021-.36283.2255-.0868.1234-.11657.2624-.08929.417.02698.1551.10216.2761.22553.3629.12336.0868.26237.1165.41702.0893zm-.38086-2.1894 4.37868-.7617c.15508-.027.27602-.1022.36282-.2255.08681-.1234.11658-.2624.0893-.4171-.02698-.155-.10216-.276-.22553-.3628s-.26238-.1166-.41703-.0893l-4.37868.7618c-.15507.0269-.27602.1021-.36282.2255-.08681.1233-.11657.2624-.08929.417.02697.1551.10215.276.22552.3628s.26238.1166.41703.0893zm-.38087-2.1893 4.37868-.7618c.15508-.0269.27602-.1021.36283-.2255.0868-.1233.11657-.2624.08929-.417-.02698-.1551-.10215-.276-.22552-.3628s-.26238-.1166-.41703-.0893l-4.37868.7617c-.15508.027-.27602.1022-.36283.2255-.08681.1234-.11657.2624-.08929.4171.02698.155.10215.276.22552.3628s.26238.1166.41703.0893zm-.4994 6.8537c-.30104.0523-.57749-.0101-.82937-.1873-.25189-.1773-.4038-.4162-.45574-.717l-1.33303-7.6627c-.05237-.301.01006-.5775.18729-.8293.17723-.2519.41621-.4038.71694-.4558l7.66272-1.333c.301-.0524.5775.01.8293.1873.2519.1772.4038.4162.4558.7169l1.333 7.6627c.0524.301-.01.5775-.1873.8294-.1772.2519-.4162.4038-.7169.4557zm-.19044-1.0947 7.66265-1.3331-1.333-7.6626-7.66268 1.333z" fill="#fff"/></mask><g stroke="#213551"><g stroke-width="1.5"><path d="m17.5978 4.00963-7.1979.17406c-.2209.00534-.3956.1887-.3902.40955l.1412 5.84006c.0078.3215.3726.5029.6336.3149l1.3639-.98222c.0654-.0471.1436-.07334.2241-.07529l5.3595-.1296c.2209-.00534.3956-.18871.3902-.40955l-.1149-4.7517c-.0053-.22085-.1887-.39555-.4095-.39021z" stroke-linecap="round" stroke-linejoin="round"/><path d="m12.9492 6.88379.0517-.00125m2.3408-.05661-.0564.00137" stroke-linecap="round" stroke-linejoin="round"/><path d="m25.9906 16.3962c-.0024.269-.0478.6184-.1326 1.0548-.0798.4377-.1638.8111-.2499 1.1324l-.0905.4578c-.3142 1.1725-.6252 2.0131-.9128 2.5271-.2541.4484-.6271.6813-1.1128.6947-.2535.0066-.6962-.0603-1.3644-.205-.6597-.1365-1.2587-.2798-1.8084-.4271l-.8031-.1808c-2.0939-.561-3.3752-.9962-3.8497-1.284-.4139-.2544-.6206-.6426-.6164-1.1579.0025-.2691.0479-.6185.1327-1.0548.0798-.4377.1638-.8112.2499-1.1324l.0905-.4578c.3142-1.1726.6251-2.0132.9128-2.5272.2541-.4484.6271-.6813 1.1127-.6946.2535-.0067.6962.0603 1.3645.2049.6596.1366 1.2586.2799 1.8083.4272l.8032.1807c2.0938.5611 3.3752.9962 3.8497 1.2841.4139.2543.6205.6425.6163 1.1579z"/><path d="m21.8051 18.2225-2.3709.7145c-.15.0452-.2914-.0919-.2509-.2432l.6749-2.5188c.0406-.1514.2316-.1994.3389-.0852l1.6961 1.8042c.1017.1082.0541.2857-.0881.3285z" fill="#f9f9f9"/></g><path d="m10.6559 12.8032-8.86684 1.5425 1.54252 8.8668 8.86682-1.5425z" mask="url(#a)" stroke-linecap="round" stroke-linejoin="round" stroke-width="2"/><path d="m5.32752 21.1593 2.73668-.4761c.15508-.027.27602-.1022.36283-.2255.0868-.1234.11657-.2624.08929-.4171-.02698-.1551-.10215-.276-.22552-.3628s-.26238-.1166-.41703-.0893l-2.73668.4761c-.15508.027-.27602.1021-.36283.2255-.0868.1234-.11657.2624-.08929.417.02698.1551.10216.2761.22553.3629.12336.0868.26237.1165.41702.0893zm-.38086-2.1894 4.37868-.7617c.15508-.027.27602-.1022.36282-.2255.08681-.1234.11658-.2624.0893-.4171-.02698-.155-.10216-.276-.22553-.3628s-.26238-.1166-.41703-.0893l-4.37868.7618c-.15507.0269-.27602.1021-.36282.2255-.08681.1233-.11657.2624-.08929.417.02697.1551.10215.276.22552.3628s.26238.1166.41703.0893zm-.38087-2.1893 4.37868-.7618c.15508-.0269.27602-.1021.36283-.2255.0868-.1233.11657-.2624.08929-.417-.02698-.1551-.10215-.276-.22552-.3628s-.26238-.1166-.41703-.0893l-4.37868.7617c-.15508.027-.27602.1022-.36283.2255-.08681.1234-.11657.2624-.08929.4171.02698.155.10215.276.22552.3628s.26238.1166.41703.0893zm-.4994 6.8537c-.30104.0523-.57749-.0101-.82937-.1873-.25189-.1773-.4038-.4162-.45574-.717l-1.33303-7.6627c-.05237-.301.01006-.5775.18729-.8293.17723-.2519.41621-.4038.71694-.4558l7.66272-1.333c.301-.0524.5775.01.8293.1873.2519.1772.4038.4162.4558.7169l1.333 7.6627c.0524.301-.01.5775-.1873.8294-.1772.2519-.4162.4038-.7169.4557zm-.19044-1.0947 7.66265-1.3331-1.333-7.6626-7.66268 1.333z" fill="#213551" mask="url(#b)" stroke-width="2"/></g></svg>