<svg fill="none" height="27" viewBox="0 0 27 27" width="27" xmlns="http://www.w3.org/2000/svg" xmlns:xlink="http://www.w3.org/1999/xlink"><clipPath id="a"><path d="m0 0h27v27h-27z"/></clipPath><g clip-path="url(#a)"><g stroke="#213551" stroke-linecap="round" stroke-linejoin="round"><path d="m22.8909 4.32536c-2.1589-3.48362-7.6577-1.52727-8.4967 1.86862l2.8917 4.79332c4.9688.6951 7.24-4.02367 5.605-6.66194z" fill="#d94e4c"/><path d="m14.3946 8.21042 1.0273 1.71186c-.6157-.06082-1.2706.06146-1.8848.26322-1.0975.3605-2.1826 1.0145-2.9009 1.5861-.1357-.184-.2481-.3732-.3269-.5391-.012-.0254-.0229-.0495-.0327-.0721 1.8191-.6561 3.0104-1.46 3.6849-2.28332.1787-.21812.3234-.44192.4331-.66666zm-4.1938 2.71848c0 .0001.0001.0009.0002.0026-.0002-.0018-.0002-.0026-.0002-.0026z" fill="#213551"/><path d="m5.52882 19.907c-.34549.2896-.57818 1.1518-.2889 1.7598.3616.76 16.75878 2.4324 17.87168-1.7853"/></g><path d="m13.697 14.7359c-.4882-.4739-.7832-1.3214-1.1572-1.3025-.2647.0134-.3349.273-.4416.5157-.168.3819.2072.6746.0631 1.0661-.2212.6008-.671.9293-1.2048 1.1019-.6473.2094-1.41824.1894-2.05483.1476-.10806-.0071-.23909-.0275-.35711-.0495-.21017-.039-.39578-.1569-.53276-.321l-.09263-.111c-.54852-.6572-1.61548-.3663-1.75447.4784l-.49762 3.0242c-.00433.0263-.004.0531.00096.0793.01622.0856.07966.1545.16392.1767 1.63756.4316 3.9355.808 6.11444 1.0496 1.9482.216 3.8013.3243 5.0021.268 4.3188-.1255 5.7162-.5861 6.1397-1.3055.0145-.0246.0266-.0502.037-.0768.0515-.1327.2038-.5686.1-.8404-.0896-.2346-.3256-.3664-.4497-.4215-.0515-.0228-.1049-.0345-.1606-.0429-.7495-.1126-6.4457-1.0361-8.9179-3.4364z" fill="#408053"/><path d="m18.0315 16.483-1.0208 1.4075m-.2777-2.0149-.9877 1.412m-.3064-2.0876-.9985 1.4042m-3.4839-.4871c-.6473.2094-1.41824.1894-2.05483.1476-.10806-.0071-.23909-.0275-.35711-.0495-.21017-.039-.39578-.1569-.53276-.321l-.09263-.111c-.54852-.6572-1.61548-.3663-1.75447.4784l-.49762 3.0242c-.00433.0263-.004.0531.00096.0793.01622.0856.07966.1545.16392.1767 1.63756.4316 3.9355.808 6.11444 1.0496m-.9899-4.4743c.5338-.1726.9836-.5011 1.2048-1.1019.1441-.3915-.2311-.6842-.0631-1.0661.1067-.2427.1769-.5023.4416-.5157.374-.0189.669.8286 1.1572 1.3025 2.4722 2.4003 8.1684 3.3238 8.9179 3.4364.0557.0084.1091.0201.1606.0429.1241.0551.3601.1869.4497.4215.1038.2718-.0485.7077-.1.8404-.0104.0266-.0225.0522-.037.0768-.4235.7194-1.8209 1.18-6.1397 1.3055-1.2008.0563-3.0539-.052-5.0021-.268m-.9899-4.4743 1.5234 1.8578c.2365.2884.2928.6844.1462 1.0273l-.6797 1.5892" stroke="#213551" stroke-linecap="round" stroke-linejoin="round"/><path d="m9.92654 2.13196-7.36404 3.12585 2.73512 6.44349 1.38171-2.15833 5.41697-2.29937z" fill="#ffb547" stroke="#213551" stroke-linecap="round" stroke-linejoin="round"/><path d="m6.29688 6.67188.04756-.02019m2.15533-.91489-.05193.02204" stroke="#213551" stroke-linecap="round" stroke-linejoin="round" stroke-width="1.5"/></g></svg>