<svg fill="none" height="27" viewBox="0 0 27 27" width="27" xmlns="http://www.w3.org/2000/svg" xmlns:xlink="http://www.w3.org/1999/xlink"><clipPath id="a"><path d="m0 0h27v27h-27z"/></clipPath><g clip-path="url(#a)"><path d="m6.56788 20.738c-.34549.2897-.57818 1.1518-.2889 1.7598.36161.76 16.75882 2.4324 17.87172-1.7852" stroke="#213551" stroke-linecap="round" stroke-linejoin="round" stroke-width="1.5"/><path d="m19.0706 17.3141-1.0208 1.4074m-.2778-2.0148-.9876 1.4119m-.3065-2.0876-.9985 1.4043m-3.4838-.4871c-.6473.2093-1.4183.1894-2.05487.1476-.10806-.0071-.23909-.0276-.35711-.0495-.21017-.039-.39578-.1569-.53275-.321l-.09264-.111c-.54852-.6572-1.61548-.3663-1.75447.4784l-.49762 3.0241c-.00433.0263-.004.0532.00096.0794.01622.0856.07966.1545.16392.1767 1.63756.4316 3.93548.808 6.11438 1.0496m-.9898-4.4743c.5338-.1726.9836-.5012 1.2047-1.1019.1441-.3915-.231-.6842-.063-1.0661.1067-.2427.1769-.5023.4416-.5157.3739-.0189.669.8285 1.1571 1.3025 2.4722 2.4003 8.1685 3.3237 8.9179 3.4363.0558.0084.1092.0201.1607.043.124.0551.3601.1869.4497.4215.1038.2718-.0486.7076-.1001.8404-.0103.0266-.0224.0522-.0369.0768-.4235.7194-1.8209 1.18-6.1398 1.3055-1.2007.0563-3.0538-.052-5.0021-.268m-.9898-4.4743 1.5234 1.8577c.2365.2884.2928.6845.1461 1.0274l-.6797 1.5892" stroke="#213551" stroke-linecap="round" stroke-linejoin="round" stroke-width="1.5"/><path d="m19.8122 6.59047c0-.29128 0-.58255.0001-.87383l-.2964.29631c.3198-.00002.6378-.00004.9576-.00007.5038-.00003 1.0094-.00007 1.5133-.0001.1172-.00001.2343-.00002.3515-.00002l-.2963-.29628v.87384l.2963-.29632c-.3197.00002-.6378.00005-.9575.00007-.5039.00003-1.0095.00007-1.5133.0001-.1172.00001-.2344.00002-.3516.00003-.1557.00001-.3021.13645-.2963.29631.0067.1607.1306.29628.2963.29627.3197-.00002.6378-.00004.9575-.00006.5039-.00004 1.0094-.00007 1.5133-.00011.1172-.00001.2344-.00001.3515-.00002.1591-.00001.2963-.13561.2964-.29632 0-.29127 0-.58254 0-.87383 0-.15903-.1355-.29628-.2963-.29627-.3197.00002-.6377.00004-.9575.00007-.5038.00003-1.0094.00007-1.5133.0001-.1172.00001-.2343.00002-.3515.00002-.159.00002-.2963.13561-.2963.29632 0 .29127-.0001.58254-.0001.87383 0 .15568.1364.30215.2963.29627.1599-.00754.2963-.13059.2963-.29631z" fill="#213551"/><path d="m19.2196 6.59051c-.0058-.15986.1406-.2963.2963-.29631l.3516-.00003c.5038-.00003 1.0094-.00007 1.5133-.0001.3197-.00002.6378-.00005.9575-.00007l-.2963.29632c0-.29129 0-.58256 0-.87384l.2963.29628c-.1172 0-.2343.00001-.3515.00002-.5039.00003-1.0095.00007-1.5133.0001-.3198.00003-.6378.00005-.9576.00007l.2964-.29631c-.0001.29128-.0001.58255-.0001.87383 0 .16572-.1364.28877-.2963.29631m-.2963-.29627c.0067.1607.1306.29628.2963.29627m-.2963-.29627c0-.29129.0001-.58256.0001-.87383 0-.16071.1373-.2963.2963-.29632.1172 0 .2343-.00001.3515-.00002.5039-.00003 1.0095-.00007 1.5133-.0001.3198-.00003.6378-.00005.9575-.00007.1608-.00001.2963.13724.2963.29627v.87383c-.0001.16071-.1373.29631-.2964.29632-.1171.00001-.2343.00001-.3515.00002-.5039.00004-1.0094.00007-1.5133.00011-.3197.00002-.6378.00004-.9575.00006m-.2963-.29627c0 .15568.1364.30215.2963.29627" stroke="#213551" stroke-linejoin="round" stroke-width=".5"/><path d="m19.5171 6.01253c.3197-.00002.6378-.00004.9575-.00006.5039-.00004 1.0094-.00007 1.5133-.00011.1172-.00001.2344-.00001.3515-.00002.1591-.00001.2964-.13561.2964-.29632 0-.29127.0142-.58505-.072-.86713-.1355-.43859-.446-.82106-.8578-1.02694-.4185-.20923-.924-.25105-1.3643-.08193-.4294.16492-.7944.48636-.9752.91491-.0954.22599-.1456.45869-.1465.70392v.35823c.0008.15485.1381.30217.2971.29545.1607-.00671.2963-.1306.2963-.29633v-.30132c0-.04687-.0008-.09458.0017-.14229.0008-.0226.0025-.04603.005-.06863.0009-.01088.0025-.0226.0034-.03348-.0067.077-.0059.04269-.0025.02427.0083-.05022.0184-.09876.0318-.14731.0109-.04269.0259-.08454.041-.12639.0151-.0452-.0084.02176-.01.02511.0066-.01172.0108-.02595.0159-.03767.01-.02176.0209-.04436.0318-.06696.0209-.04101.0443-.08119.0694-.1197.0118-.01841.0243-.03599.0369-.05357.0075-.01088.031-.04101 0-.00167-.0343.04436.0033-.00335.0109-.01256.0586-.07031.1238-.1356.1942-.1942.01-.00837.0217-.01674.0318-.02511-.0025.00251-.0645.04604-.0243.01925.0176-.01256.0352-.02511.0536-.03683.0401-.02679.0828-.05106.1272-.07367.0201-.01004.0393-.01925.0586-.02846.01-.00502.0201-.00837.0301-.01339.0444-.01926-.0226.0092-.0251.01004.0477-.01423.0938-.03348.1415-.04604.0435-.01172.087-.02177.1305-.02847.0084-.00168.0243-.00251.0335-.00502-.0586.02176-.0452.00502-.0159.00251.026-.00252.0511-.00419.0779-.00587.0435-.00167.087-.00168.1305-.00001.0226.00084.0461.00251.0687.00502.0142.00084.0284.00502.0427.00418-.0218 0-.0628-.0092-.0159-.00083.0937.01506.1841.04183.2728.07363.0385.01339-.0711-.03096-.0176-.00753.0101.00502.0201.00837.0302.01339.0192.0092.0393.01925.0585.02845.0436.02176.0854.04687.1273.07365.0184.01172.036.02427.0535.03682.0168.01172.0427.03599-.0242-.01925.0083.0067.0167.01339.0251.02009.0376.03097.0736.06361.1079.09792.0302.03013.0595.06277.0871.09541.0083.01005.0176.02093.0251.03181.0243.02929-.0402-.05524-.0193-.02427.0134.02008.0285.04017.0419.06026.0251.0385.0485.07867.0703.11885.01.02008.0201.0385.0284.05858.0059.01256.0118.02511.0168.03683.0209.04604-.0201-.05189-.0076-.01757.0176.04938.0352.09876.0477.14981.0067.02679.0126.05441.0184.08203.0051.02511.0076.11467.0067.02511.0017.06863.0101.13726.0101.2059v.33983l.2963-.29631c-.3198.00002-.6378.00005-.9576.00007-.5038.00003-1.0094.00007-1.5133.0001-.1171.00001-.2343.00002-.3515.00003-.1557.00001-.3022.13645-.2963.29631.0025.15986.1264.29546.2921.29545z" fill="#213551"/><g stroke="#213551"><path d="m19.5171 6.01253c.3197-.00002.6378-.00004.9575-.00006.5039-.00004 1.0094-.00007 1.5133-.00011.1172-.00001.2344-.00001.3515-.00002.1591-.00001.2964-.13561.2964-.29632 0-.29127.0142-.58505-.072-.86713-.1355-.43859-.446-.82106-.8578-1.02694-.4185-.20923-.924-.25105-1.3643-.08193-.4294.16492-.7944.48636-.9752.91491-.0954.22599-.1456.45869-.1465.70392v.35823c.0008.15485.1381.30217.2971.29545zm0 0c.1607-.00671.2963-.1306.2963-.29633v-.30132c0-.04687-.0008-.09458.0017-.14229.0008-.0226.0025-.04603.005-.06863.0009-.01088.0025-.0226.0034-.03348-.0067.07701-.0059.04269-.0025.02427.0083-.05022.0184-.09876.0318-.14731.0109-.04269.0259-.08454.041-.12639.0151-.0452-.0084.02176-.01.02511.0066-.01172.0108-.02595.0159-.03767.01-.02176.0209-.04436.0318-.06696.0209-.04101.0443-.08119.0694-.1197.0118-.01841.0243-.03599.0369-.05357.0075-.01088.031-.04101 0-.00167-.0343.04436.0033-.00335.0109-.01256.0586-.07031.1238-.1356.1942-.1942.01-.00837.0217-.01674.0318-.02511-.0025.00251-.0645.04604-.0243.01925.0176-.01256.0352-.02511.0536-.03683.0401-.02679.0828-.05106.1272-.07367.0201-.01004.0393-.01925.0586-.02846.01-.00502.0201-.00837.0301-.01339.0444-.01926-.0226.0092-.0251.01004.0477-.01423.0938-.03348.1415-.04604.0435-.01172.087-.02177.1305-.02847.0084-.00168.0243-.00251.0335-.00502-.0586.02176-.0452.00502-.0159.00251.026-.00252.0511-.00419.0779-.00587.0435-.00167.087-.00168.1305-.00001.0226.00084.0461.00251.0687.00502.0142.00084.0284.00502.0427.00418-.0218 0-.0628-.0092-.0159-.00083.0937.01506.1841.04183.2728.07363.0385.01339-.0711-.03096-.0176-.00753.0101.00502.0201.00837.0302.01339.0192.0092.0393.01925.0585.02845.0436.02176.0854.04687.1273.07365.0184.01172.036.02427.0535.03682.0168.01172.0427.03599-.0242-.01925.0083.0067.0167.01339.0251.02009.0376.03097.0736.06361.1079.09792.0302.03013.0595.06277.0871.09541.0083.01005.0176.02093.0251.03181.0243.02929-.0402-.05524-.0193-.02427.0134.02008.0285.04017.0419.06026.0251.0385.0485.07867.0703.11885.01.02008.0201.0385.0284.05858.0059.01256.0118.02511.0168.03683.0209.04604-.0201-.05189-.0076-.01757.0176.04938.0352.09876.0477.14981.0067.02679.0126.05441.0184.08203.0051.02511.0076.11467.0067.02511.0017.06863.0101.13726.0101.2059v.33983l.2963-.29631c-.3198.00002-.6378.00005-.9576.00007-.5038.00003-1.0094.00007-1.5133.0001-.1171.00001-.2343.00002-.3515.00003-.1557.00001-.3022.13645-.2963.29631.0025.15987.1264.29546.2921.29545z" stroke-linejoin="round" stroke-width=".5"/><path d="m19.0235 8.3056c.9893-.05196 1.982-.0604 2.9721-.03116.2796.00835.5591.02006.8379.03594.1548.0092.303-.14231.2963-.29631-.0067-.1674-.1306-.28625-.2963-.29628-.9835-.05432-1.9694-.06431-2.9538-.03746-.2854.00755-.5717.01929-.8562.03437-.154.00839-.303.1306-.2964.29632.0076.15149.1314.30382.2963.29461z" fill="#213551" stroke-linejoin="round" stroke-width=".5"/><path d="m23.3882 9.31643c-.4436-.03011-.8872-.05016-1.33-.06269-.4235-.0117-.8479-.00747-1.2714-.01582-.1549-.0025-.3022.13813-.2963.29632.0067.16237.1305.29294.2962.29627.4236.00834.8479.00413 1.2715.01581.4444.01254.888.03259 1.3299.06269.1549.01087.3022-.14315.2964-.29631-.0067-.16907-.1306-.28456-.2963-.29627z" fill="#213551" stroke-linejoin="round" stroke-width=".5"/><path d="m18.4668 9.90844c.878-.0578 1.7586-.08131 2.6382-.07718.2687.00082.5382.00581.8069.01166.1548.00417.303-.13897.2963-.29632-.0075-.16321-.1305-.29126-.2963-.29627-.888-.02086-1.7769-.01411-2.665.02362-.2603.0109-.5206.02513-.7809.04274-.154.01005-.303.12891-.2963.29631.0075.1515.1322.30634.2971.29544z" fill="#213551" stroke-linejoin="round" stroke-width=".5"/><path d="m22.0532 6.66605c.0745.21343.1481.42602.2217.64029.1774.51223.3549 1.02445.5339 1.53669.2143.6177.4285 1.23537.6436 1.85227.1849.5331.3707 1.0671.5556 1.6003.0904.2594.1716.5231.2703.7792.0017.0033.0025.0075.0042.0109.026-.0946.0511-.19.077-.2846-.3532.2846-.7064.5692-1.0605.8546-.0511.0411-.1021.0821-.1532.1231h.4185c-.3532-.2846-.7064-.5691-1.0604-.8545-.051-.041-.1021-.082-.1532-.1231-.1355-.1088-.282-.1096-.4185.0001-.3532.2846-.7064.5692-1.0605.8546-.051.041-.1021.082-.1532.1231.139 0 .2796-.0001.4185-.0001-.3532-.2845-.7064-.5691-1.0604-.8545-.051-.041-.1021-.082-.1531-.123-.1356-.1088-.2821-.1096-.4185 0-.3533.2846-.7065.5692-1.0606.8547-.051.041-.1021.082-.1532.123h.4186c-.3532-.2846-.7064-.5691-1.0605-.8545-.051-.041-.1021-.082-.1531-.123.0259.0946.051.19.077.2845.0745-.2134.1481-.426.2218-.6403.1775-.5122.355-1.0245.5341-1.5367.2143-.6178.4286-1.23547.6438-1.85236.185-.53318.3709-1.06721.5559-1.60039.0904-.25948.1875-.51727.2704-.77927.0008-.00418.0025-.00753.0042-.01088-.0955.07366-.1909.14733-.2863.22099.3197-.00003.6378-.00005.9575-.00007.5039-.00003 1.0095-.00007 1.5133-.0001.1172-.00001.2344-.00002.3516-.00003.1556-.00001.3021-.13645.2963-.29631-.0067-.1607-.1306-.29629-.2963-.29627-.3197.00002-.6378.00004-.9575.00006-.5039.00004-1.0095.00007-1.5133.00011-.1172 0-.2344.00001-.3516.00002-.1389.00001-.2427.09544-.2862.22098-.0745.21344-.1482.42605-.2219.64033-.1774.51226-.3549 1.0245-.5341 1.53676-.2143.61773-.4286 1.23543-.6438 1.85233-.185.5332-.3708 1.0672-.5558 1.6004-.0905.2595-.1892.5173-.2704.7792-.0009.0042-.0026.0076-.0042.0109-.0302.0887.0033.2243.0769.2846.3532.2845.7064.5691 1.0605.8545.051.041.1021.082.1531.123.1356.1088.2821.1096.4185 0 .3533-.2846.7065-.5692 1.0606-.8547.051-.041.1021-.082.1531-.123-.1389 0-.2795 0-.4185 0 .3532.2846.7064.5691 1.0604.8545.0511.041.1021.082.1532.123.1356.1088.2821.1097.4185 0 .3532-.2846.7065-.5692 1.0605-.8546.0511-.041.1022-.0821.1532-.1231-.1389 0-.2795 0-.4185.0001.3532.2845.7064.5691 1.0604.8545.0511.041.1021.082.1532.123.1356.1088.2821.1096.4185 0 .3532-.2847.7065-.5693 1.0605-.8547.0511-.041.1021-.082.1532-.123.0745-.0595.1072-.1959.077-.2846-.0745-.2134-.1481-.426-.2217-.6403-.1774-.5122-.3548-1.0245-.5339-1.5367-.2143-.6177-.4285-1.23537-.6436-1.85223-.1849-.53315-.3707-1.06715-.5556-1.60031-.0904-.25947-.1783-.51977-.2703-.77923-.0017-.00335-.0025-.00753-.0042-.01088-.0502-.14563-.2009-.26113-.3616-.2109-.1431.04437-.2653.20508-.2109.3616z" fill="#213551" stroke-linejoin="round" stroke-width=".5"/><path d="m20.0009 13.0864c.0301-.2142.0594-.4277.0896-.6419.0711-.5114.1432-1.022.2152-1.5343.0862-.6185.1733-1.23624.2596-1.85477.0753-.53569.1499-1.07222.2252-1.6079.036-.25864.0729-.51812.1089-.77674.0008-.00419.0008-.00754.0017-.01172.0109-.07952.0125-.14815-.0285-.22097-.0368-.06361-.1096-.1247-.1824-.14061-.1415-.03095-.3382.0469-.3616.21095-.0302.21427-.0595.42771-.0896.64198-.0712.51141-.1432 1.02198-.2152 1.53423-.0863.61855-.1734 1.23627-.2596 1.85485-.0754.5356-.1499 1.0722-.2253 1.6079-.036.2586-.0728.5181-.1089.7767-.0008.0042-.0008.0075-.0016.0117-.0109.0795-.0126.1482.0284.221.0368.0636.1097.1247.1825.1406.1414.0309.3381-.0469.3616-.211z" fill="#213551" stroke-linejoin="round" stroke-width=".5"/><path d="m22.4392 13.011c-.0251-.2126-.0502-.4251-.0745-.6386-.0593-.5114-.1196-1.022-.179-1.5334-.0728-.6185-.1455-1.23703-.2166-1.85557-.0628-.53483-.1255-1.06968-.1874-1.60534-.031-.26031-.0602-.52062-.092-.78175-.0009-.00419-.0009-.00753-.0017-.01172-.0092-.08119-.0268-.14898-.087-.20924-.0511-.05106-.1356-.09039-.2093-.08704-.1448.00587-.3155.13144-.2963.29632.0251.21259.0502.42518.0745.63863.0593.5114.1196 1.02198.179 1.53336.0727.61854.1455 1.23708.2166 1.85565.0627.5348.1255 1.0696.1874 1.6053.0309.2603.0602.5206.092.7818.0009.0041.0009.0075.0017.0117.0092.0812.0268.149.087.2092.0511.0511.1356.0904.2093.0871.1448-.0059.3147-.1323.2963-.2964z" fill="#213551" stroke-linejoin="round" stroke-width=".5"/><path d="m2.17211 17.8241 6.97242-8.30945" stroke-width="1.5"/><path d="m14.9756 8.50889c-1.7166 2.04571-4.3646 2.37071-5.89765 1.08437-1.533-1.28634-1.67279-3.95055.0438-5.9963 1.71655-2.04574 4.36455-2.37072 5.89755-1.08437 1.5331 1.28634 1.6728 3.95055-.0437 5.9963z" stroke-width="1.5"/><path d="m9.95898 2.47168 5.80972 4.87489" stroke-width="1.5"/><path d="m15.748 3.43848-5.6312 6.71112" stroke-width="1.5"/><path d="m8.17578 4.59668 5.80962 4.87489" stroke-width="1.5"/><path d="m13.752 2.09277-5.27543 6.28695" stroke-width="1.5"/></g><rect fill="#213551" height="4.08203" rx=".5" transform="matrix(.76604444 .64278761 -.64278761 .76604444 9.832407 .780682)" width="2.48633" x="3.84375" y="13.8975"/></g></svg>