<svg fill="none" height="27" viewBox="0 0 27 27" width="27" xmlns="http://www.w3.org/2000/svg" xmlns:xlink="http://www.w3.org/1999/xlink"><clipPath id="a"><path d="m0 0h27v27h-27z"/></clipPath><g clip-path="url(#a)"><path d="m6.56788 20.738c-.34549.2897-.57818 1.1518-.2889 1.7598.36161.76 16.75882 2.4324 17.87172-1.7852" stroke="#213551" stroke-linecap="round" stroke-linejoin="round"/><path d="m14.736 15.567c-.4881-.474-.7832-1.3214-1.1571-1.3025-.2647.0134-.3349.273-.4416.5157-.168.3819.2071.6746.063 1.0661-.2211.6007-.6709.9293-1.2047 1.1019-.6473.2093-1.4183.1894-2.05487.1476-.10806-.0071-.23909-.0276-.35711-.0495-.21017-.039-.39578-.1569-.53275-.321l-.09264-.111c-.54852-.6572-1.61548-.3663-1.75447.4784l-.49762 3.0241c-.00433.0263-.004.0532.00096.0794.01622.0856.07966.1545.16392.1767 1.63756.4316 3.93548.808 6.11438 1.0496 1.9483.216 3.8014.3243 5.0021.268 4.3189-.1255 5.7163-.5861 6.1398-1.3055.0145-.0246.0266-.0502.0369-.0768.0515-.1328.2039-.5686.1001-.8404-.0896-.2346-.3257-.3664-.4497-.4215-.0515-.0229-.1049-.0346-.1607-.043-.7494-.1126-6.4457-1.036-8.9179-3.4363z" fill="#247aae"/><path d="m19.0706 17.3141-1.0208 1.4074m-.2778-2.0148-.9876 1.4119m-.3065-2.0876-.9985 1.4043m-3.4838-.4871c-.6473.2093-1.4183.1894-2.05487.1476-.10806-.0071-.23909-.0276-.35711-.0495-.21017-.039-.39578-.1569-.53275-.321l-.09264-.111c-.54852-.6572-1.61548-.3663-1.75447.4784l-.49762 3.0241c-.00433.0263-.004.0532.00096.0794.01622.0856.07966.1545.16392.1767 1.63756.4316 3.93548.808 6.11438 1.0496m-.9898-4.4743c.5338-.1726.9836-.5012 1.2047-1.1019.1441-.3915-.231-.6842-.063-1.0661.1067-.2427.1769-.5023.4416-.5157.3739-.0189.669.8285 1.1571 1.3025 2.4722 2.4003 8.1685 3.3237 8.9179 3.4363.0558.0084.1092.0201.1607.043.124.0551.3601.1869.4497.4215.1038.2718-.0486.7076-.1001.8404-.0103.0266-.0224.0522-.0369.0768-.4235.7194-1.8209 1.18-6.1398 1.3055-1.2007.0563-3.0538-.052-5.0021-.268m-.9898-4.4743 1.5234 1.8577c.2365.2884.2928.6845.1461 1.0274l-.6797 1.5892" stroke="#213551" stroke-linecap="round" stroke-linejoin="round"/><path d="m19.8123 6.59135c0-.29127 0-.58254 0-.87382l-.2963.2963c.3197-.00001.6378-.00002.9575-.00004.5039-.00002 1.0094-.00004 1.5133-.00006.1172-.00001.2344-.00001.3515-.00002l-.2963-.29627v.87381l.2963-.2963c-.3197.00002-.6378.00003-.9575.00004-.5039.00003-1.0094.00005-1.5133.00007-.1171 0-.2343.00001-.3515.00001-.1557.00001-.3021.13644-.2963.2963.0067.1607.1306.29628.2963.29627.3197-.00001.6378-.00002.9575-.00004.5039-.00002 1.0094-.00004 1.5133-.00006.1171-.00001.2343-.00001.3515-.00002.159 0 .2963-.13559.2963-.29629 0-.29127 0-.58253 0-.87382 0-.15902-.1356-.29627-.2963-.29627-.3197.00002-.6377.00003-.9575.00004-.5038.00002-1.0094.00005-1.5132.00007-.1172 0-.2344.00001-.3515.00001-.1591.00001-.2963.1356-.2963.2963-.0001.29127-.0001.58253-.0001.87381 0 .15568.1364.30214.2963.29627.1599-.00754.2963-.13057.2963-.29629z" fill="#213551"/><path d="m19.2197 6.59137c-.0058-.15986.1406-.29629.2963-.2963.1172 0 .2344-.00001.3515-.00001.5039-.00002 1.0094-.00004 1.5133-.00007.3197-.00001.6378-.00002.9575-.00004l-.2963.2963c0-.29128 0-.58254 0-.87381l.2963.29627c-.1171.00001-.2343.00001-.3515.00002-.5039.00002-1.0094.00004-1.5133.00006-.3197.00002-.6378.00003-.9575.00004l.2963-.2963v.87382c0 .16572-.1364.28875-.2963.29629m-.2963-.29627c.0067.1607.1306.29628.2963.29627m-.2963-.29627c0-.29128 0-.58254.0001-.87381 0-.1607.1372-.29629.2963-.2963.1171 0 .2343-.00001.3515-.00001.5038-.00002 1.0094-.00005 1.5132-.00007.3198-.00001.6378-.00002.9575-.00004.1607 0 .2963.13725.2963.29627v.87382c0 .1607-.1373.29629-.2963.29629-.1172.00001-.2344.00001-.3515.00002-.5039.00002-1.0094.00004-1.5133.00006-.3197.00002-.6378.00003-.9575.00004m-.2963-.29627c0 .15568.1364.30214.2963.29627" stroke="#213551" stroke-linejoin="round" stroke-width=".5"/><path d="m19.5172 6.01339c.3197-.00001.6378-.00003.9575-.00004.5039-.00002 1.0094-.00004 1.5133-.00006.1171-.00001.2343-.00001.3515-.00002.159 0 .2963-.1356.2963-.2963 0-.29126.0142-.58504-.072-.86712-.1355-.43857-.446-.82105-.8578-1.02693-.4185-.20923-.924-.25107-1.3643-.08196-.4294.1649-.7943.48633-.9751.91485-.0954.22599-.1457.45868-.1465.70391v.35822c.0008.15484.1381.30216.2971.29545.1607-.0067.2963-.13059.2963-.29631v-.30131c0-.04687-.0008-.09458.0017-.14229.0008-.0226.0025-.04604.005-.06863.0008-.01088.0025-.0226.0033-.03348-.0066.077-.0058.04268-.0025.02427.0084-.05022.0185-.09876.0318-.14731.0109-.04269.026-.08454.0411-.12639.015-.04519-.0084.02177-.0101.02511.0067-.01172.0109-.02594.0159-.03766.0101-.02176.021-.04436.0318-.06696.021-.04101.0444-.08119.0695-.11969.0117-.01842.0243-.03599.0368-.05357.0076-.01088.031-.04101 0-.00167-.0343.04436.0034-.00335.0109-.01256.0586-.07031.1239-.1356.1942-.1942.0101-.00837.0218-.01674.0318-.02511-.0025.00251-.0644.04604-.0242.01926.0175-.01256.0351-.02512.0535-.03683.0402-.02679.0829-.05106.1272-.07366.0201-.01005.0394-.01926.0586-.02846.0101-.00503.0201-.00837.0302-.0134.0443-.01925-.0226.00921-.0251.01005.0477-.01423.0937-.03348.1414-.04604.0435-.01172.0871-.02177.1306-.02847.0083-.00167.0242-.00251.0335-.00502-.0586.02177-.0452.00502-.0159.00251.0259-.00251.051-.00419.0778-.00586.0435-.00168.087-.00168.1306-.00001.0226.00084.046.00251.0686.00502.0142.00084.0285.00503.0427.00419-.0218 0-.0628-.00921-.0159-.00084.0937.01506.1841.04184.2728.07364.0385.01339-.0711-.03097-.0176-.00753.0101.00502.0201.00836.0302.01339.0192.0092.0393.01925.0586.02845.0435.02176.0853.04687.1272.07365.0184.01172.036.02427.0535.03683.0168.01171.0427.03598-.0242-.01925.0083.00669.0167.01339.0251.02008.0376.03097.0736.06361.108.09793.0301.03013.0594.06277.087.09541.0084.01004.0176.02092.0251.0318.0243.02929-.0402-.05524-.0192-.02427.0133.02009.0284.04017.0418.06026.0251.0385.0485.07867.0703.11885.01.02009.0201.0385.0285.05859.0058.01255.0117.0251.0167.03682.0209.04603-.0201-.05189-.0075-.01757.0175.04938.0351.09876.0477.14981.0067.02679.0125.05441.0184.08202.005.02511.0075.11467.0067.02511.0016.06864.01.13727.01.2059v.33983l.2963-.2963c-.3197.00001-.6378.00003-.9575.00004-.5039.00002-1.0094.00004-1.5133.00007-.1172 0-.2343 0-.3515.00001-.1557.00001-.3022.13644-.2963.2963.0025.15986.1264.29546.2921.29545z" fill="#213551"/><g stroke="#213551"><path d="m19.5172 6.01339c.3197-.00001.6378-.00003.9575-.00004.5039-.00002 1.0094-.00004 1.5133-.00006.1171-.00001.2343-.00001.3515-.00002.159 0 .2963-.1356.2963-.2963 0-.29126.0142-.58504-.072-.86712-.1355-.43857-.446-.82105-.8578-1.02693-.4185-.20923-.924-.25107-1.3643-.08196-.4294.1649-.7943.48633-.9751.91485-.0954.22599-.1457.45868-.1465.70391v.35822c.0008.15484.1381.30216.2971.29545zm0 0c.1607-.0067.2963-.13059.2963-.29631v-.30131c0-.04687-.0008-.09458.0017-.14229.0008-.0226.0025-.04604.005-.06863.0008-.01088.0025-.0226.0033-.03348-.0066.077-.0058.04268-.0025.02427.0084-.05022.0185-.09876.0318-.14731.0109-.04269.026-.08454.0411-.12639.015-.04519-.0084.02177-.0101.02511.0067-.01172.0109-.02594.0159-.03766.0101-.02176.021-.04436.0318-.06696.021-.04101.0444-.08119.0695-.11969.0117-.01842.0243-.03599.0368-.05357.0076-.01088.031-.04101 0-.00167-.0343.04436.0034-.00335.0109-.01256.0586-.07031.1239-.1356.1942-.1942.0101-.00837.0218-.01674.0318-.02511-.0025.00251-.0644.04604-.0242.01926.0175-.01256.0351-.02512.0535-.03683.0402-.02679.0829-.05106.1272-.07366.0201-.01005.0394-.01926.0586-.02846.0101-.00503.0201-.00837.0302-.0134.0443-.01925-.0226.00921-.0251.01005.0477-.01423.0937-.03348.1414-.04604.0435-.01172.0871-.02177.1306-.02847.0083-.00167.0242-.00251.0335-.00502-.0586.02177-.0452.00502-.0159.00251.0259-.00251.051-.00419.0778-.00586.0435-.00168.087-.00168.1306-.00001.0226.00084.046.00251.0686.00502.0142.00084.0285.00503.0427.00419-.0218 0-.0628-.00921-.0159-.00084.0937.01506.1841.04184.2728.07364.0385.01339-.0711-.03097-.0176-.00753.0101.00502.0201.00836.0302.01339.0192.0092.0393.01925.0586.02845.0435.02176.0853.04687.1272.07365.0184.01172.036.02427.0535.03683.0168.01171.0427.03598-.0242-.01925.0083.00669.0167.01339.0251.02008.0376.03097.0736.06361.108.09793.0301.03013.0594.06277.087.09541.0084.01004.0176.02092.0251.0318.0243.02929-.0402-.05524-.0192-.02427.0133.02009.0284.04017.0418.06026.0251.0385.0485.07867.0703.11885.01.02008.0201.0385.0285.05859.0058.01255.0117.0251.0167.03682.0209.04603-.0201-.05189-.0075-.01757.0175.04938.0351.09876.0477.14981.0067.02679.0125.05441.0184.08202.005.02511.0075.11467.0067.02511.0016.06864.01.13727.01.2059v.33983l.2963-.2963c-.3197.00001-.6378.00003-.9575.00004-.5039.00002-1.0094.00004-1.5133.00007-.1172 0-.2343 0-.3515.00001-.1557.00001-.3022.13644-.2963.2963.0025.15986.1264.29546.2921.29545z" stroke-linejoin="round" stroke-width=".5"/><path d="m19.0236 8.30646c.9893-.05194 1.9819-.06035 2.9721-.03108.2795.00835.5591.02007.8378.03596.1548.0092.303-.1423.2963-.2963-.0067-.1674-.1306-.28624-.2963-.29627-.9834-.05435-1.9694-.06437-2.9537-.03754-.2854.00754-.5717.01927-.8562.03435-.1541.00837-.303.13058-.2963.29629.0075.1515.1314.30383.2962.29461z" fill="#213551" stroke-linejoin="round" stroke-width=".5"/><path d="m23.3882 9.31642c-.4436-.03011-.8872-.05017-1.33-.06272-.4235-.01171-.8478-.00749-1.2713-.01585-.1549-.0025-.3022.13812-.2963.2963.0066.16237.1305.29294.2962.29627.4235.00836.8479.00416 1.2714.01585.4444.01255.888.03261 1.33.06273.1548.01087.3021-.14314.2963-.2963-.0067-.16907-.1306-.28456-.2963-.29628z" fill="#213551" stroke-linejoin="round" stroke-width=".5"/><path d="m18.4669 9.90931c.878-.05778 1.7585-.08127 2.6382-.07711.2686.00083.5381.00583.8068.01168.1549.00417.303-.13896.2963-.2963-.0075-.16321-.1305-.29126-.2963-.29628-.888-.02088-1.7769-.01415-2.6649.02355-.2603.01089-.5206.02512-.7809.04272-.154.01005-.303.1289-.2963.29629.0075.1515.1322.30634.2971.29545z" fill="#213551" stroke-linejoin="round" stroke-width=".5"/><path d="m22.0551 6.66601c.0745.21343.1482.42602.2218.64029.1774.51222.3548 1.02444.5339 1.53667.2143.61769.4285 1.23533.6436 1.85223.1849.5331.3707 1.0671.5557 1.6003.0904.2594.1716.5231.2703.7792.0017.0033.0025.0075.0042.0109.0259-.0946.051-.19.077-.2846-.3532.2846-.7064.5692-1.0605.8546-.051.041-.1021.082-.1532.123h.4185c-.3532-.2846-.7064-.5691-1.0604-.8545-.051-.041-.1021-.082-.1531-.123-.1356-.1088-.2821-.1097-.4185 0-.3533.2846-.7065.5692-1.0605.8546-.0511.041-.1021.082-.1532.123h.4185c-.3532-.2845-.7064-.5691-1.0604-.8545-.0511-.041-.1021-.082-.1532-.123-.1356-.1088-.282-.1097-.4185 0-.3532.2846-.7064.5692-1.0604.8546-.0511.041-.1022.082-.1532.123h.4185c-.3532-.2845-.7064-.5691-1.0604-.8545-.0511-.041-.1021-.082-.1532-.123.0259.0946.0511.19.077.2845.0745-.2134.1482-.426.2218-.6403.1775-.5122.3549-1.0244.5341-1.5367.2143-.6177.4285-1.23536.6437-1.85223.185-.53317.3708-1.06717.5558-1.60034.0904-.25947.1875-.51725.2704-.77924.0008-.00418.0025-.00753.0042-.01088-.0954.07366-.1909.14732-.2863.22097.3197-.00001.6378-.00003.9575-.00004.5039-.00002 1.0094-.00004 1.5133-.00006.1172-.00001.2343-.00001.3515-.00002.1557-.00001.3022-.13644.2963-.2963-.0067-.1607-.1305-.29628-.2963-.29627-.3197.00001-.6377.00003-.9575.00004-.5038.00002-1.0094.00004-1.5132.00006-.1172.00001-.2344.00001-.3516.00002-.1389.00001-.2427.09543-.2862.22097-.0745.21343-.1482.42603-.2218.6403-.1775.51224-.3549 1.02447-.5341 1.53672-.2143.6177-.4286 1.23538-.6437 1.8523-.185.5331-.3708 1.0671-.5558 1.6003-.0904.2595-.1892.5173-.2704.7792-.0008.0042-.0025.0076-.0042.0109-.0301.0887.0033.2243.077.2846.3532.2845.7064.5691 1.0604.8545.0511.041.1021.082.1532.123.1356.1088.282.1096.4185 0 .3532-.2846.7064-.5692 1.0604-.8546.0511-.041.1022-.082.1532-.123-.1389 0-.2795 0-.4185 0 .3532.2845.7064.5691 1.0604.8545.0511.041.1021.082.1532.123.1356.1088.2821.1096.4185 0 .3532-.2846.7064-.5692 1.0605-.8546.051-.041.1021-.082.1531-.123-.1389 0-.2795 0-.4185 0 .3532.2845.7064.5691 1.0605.8545.051.041.1021.082.1531.123.1356.1088.2821.1096.4185 0 .3532-.2846.7065-.5692 1.0605-.8546.0511-.041.1021-.082.1532-.1231.0745-.0594.1071-.1958.077-.2845-.0745-.2134-.1482-.426-.2218-.6403-.1774-.5122-.3548-1.0244-.5339-1.5367-.2143-.6177-.4285-1.23533-.6436-1.85218-.1849-.53315-.3707-1.06714-.5557-1.60029-.0904-.25946-.1782-.51976-.2703-.77921-.0017-.00335-.0025-.00754-.0042-.01088-.0502-.14564-.2008-.26114-.3615-.21091-.1432.04437-.2654.20507-.211.36158z" fill="#213551" stroke-linejoin="round" stroke-width=".5"/><path d="m20.0011 13.0863c.0301-.2143.0594-.4277.0895-.642.0712-.5114.1432-1.022.2152-1.5342.0862-.6185.1733-1.23624.2595-1.85475.0754-.53567.1499-1.07218.2253-1.60786.036-.25862.0728-.5181.1088-.77672.0008-.00418.0008-.00753.0017-.01172.0109-.07951.0125-.14814-.0285-.22096-.0368-.06361-.1096-.1247-.1824-.14061-.1415-.03096-.3382.04689-.3616.21094-.0302.21426-.0595.42769-.0896.64196-.0711.5114-.1431 1.02195-.2151 1.53419-.0863.61853-.1733 1.23624-.2596 1.85473-.0753.5357-.1499 1.0722-.2252 1.6079-.036.2586-.0728.5181-.1089.7767-.0008.0042-.0008.0075-.0016.0117-.0109.0795-.0126.1482.0284.221.0368.0636.1097.1247.1825.1406.1414.0309.3381-.0469.3616-.2109z" fill="#213551" stroke-linejoin="round" stroke-width=".5"/><path d="m22.4374 13.0119c-.0251-.2126-.0502-.4252-.0745-.6386-.0594-.5114-.1196-1.022-.179-1.5334-.0728-.6185-.1456-1.23703-.2167-1.85555-.0628-.53483-.1255-1.06966-.1875-1.60531-.0309-.2603-.0602-.52061-.092-.78174-.0008-.00418-.0008-.00753-.0017-.01172-.0092-.08118-.0267-.14898-.087-.20924-.0511-.05105-.1356-.09039-.2092-.08704-.1448.00587-.3156.13143-.2963.2963.0251.21259.0502.42518.0744.63862.0594.51139.1197 1.02196.1791 1.53334.0728.61852.1456 1.23704.2167 1.85554.0627.5349.1255 1.0697.1874 1.6053.0309.2603.0602.5206.092.7818.0009.0042.0009.0075.0017.0117.0092.0812.0268.149.087.2092.0511.0511.1356.0904.2093.0871.1448-.0059.3147-.1323.2963-.2963z" fill="#213551" stroke-linejoin="round" stroke-width=".5"/></g><path d="m2.17211 17.8241 6.97242-8.30945" stroke="#408053" stroke-width="1.5"/><path d="m14.9756 8.50889c-1.7166 2.04571-4.3646 2.37071-5.89765 1.08437-1.533-1.28634-1.67279-3.95055.0438-5.9963 1.71655-2.04574 4.36455-2.37072 5.89755-1.08437 1.5331 1.28634 1.6728 3.95055-.0437 5.9963z" stroke="#213551" stroke-width="1.5"/><path d="m9.95898 2.47168 5.80972 4.87489" stroke="#213551" stroke-width="1.5"/><path d="m15.748 3.43848-5.6312 6.71112" stroke="#213551" stroke-width="1.5"/><path d="m8.17578 4.59668 5.80962 4.87489" stroke="#213551" stroke-width="1.5"/><path d="m13.752 2.09277-5.27543 6.28695" stroke="#213551" stroke-width="1.5"/><rect fill="#213551" height="4.08203" rx=".5" transform="matrix(.76604444 .64278761 -.64278761 .76604444 9.832407 .780682)" width="2.48633" x="3.84375" y="13.8975"/></g></svg>