<svg fill="none" height="27" viewBox="0 0 27 27" width="27" xmlns="http://www.w3.org/2000/svg" xmlns:xlink="http://www.w3.org/1999/xlink"><clipPath id="a"><path d="m0 0h27v27h-27z"/></clipPath><g clip-path="url(#a)" stroke="#213551" stroke-linecap="round" stroke-linejoin="round" stroke-width="1.5"><path d="m22.8909 4.32536c-2.1589-3.48362-7.6577-1.52727-8.4967 1.86862l2.8917 4.79332c4.9688.6951 7.24-4.02367 5.605-6.66194z"/><path d="m14.3993 8.704.5728.95459c-.5131.01623-1.0307.13094-1.513.28939-.1948.06402-.3891.13692-.5811.21672.5352-.36053.9583-.74032 1.2769-1.12919.089-.10856.1705-.21926.2444-.33151zm-3.7739 2.5937c.1897-.0723.3726-.1463.5488-.222-.1703.112-.3312.2249-.4806.3363-.0241-.0386-.0469-.0768-.0682-.1143zm-.1766-.3993c-.0006-.0034-.0003-.0026.0003.0017-.0001-.0006-.0003-.0012-.0003-.0017z" fill="#213551"/><path d="m5.52882 19.907c-.34549.2896-.57818 1.1518-.2889 1.7598.3616.76 16.75878 2.4324 17.87168-1.7853"/><path d="m18.0315 16.483-1.0208 1.4075m-.2777-2.0149-.9877 1.412m-.3064-2.0876-.9985 1.4042m-3.4839-.4871c-.6473.2094-1.41824.1894-2.05483.1476-.10806-.0071-.23909-.0275-.35711-.0495-.21017-.039-.39578-.1569-.53276-.321l-.09263-.111c-.54852-.6572-1.61548-.3663-1.75447.4784l-.49762 3.0242c-.00433.0263-.004.0531.00096.0793.01622.0856.07966.1545.16392.1767 1.63756.4316 3.9355.808 6.11444 1.0496m-.9899-4.4743c.5338-.1726.9836-.5011 1.2048-1.1019.1441-.3915-.2311-.6842-.0631-1.0661.1067-.2427.1769-.5023.4416-.5157.374-.0189.669.8286 1.1572 1.3025 2.4722 2.4003 8.1684 3.3238 8.9179 3.4364.0557.0084.1091.0201.1606.0429.1241.0551.3601.1869.4497.4215.1038.2718-.0485.7077-.1.8404-.0104.0266-.0225.0522-.037.0768-.4235.7194-1.8209 1.18-6.1397 1.3055-1.2008.0563-3.0539-.052-5.0021-.268m-.9899-4.4743 1.5234 1.8578c.2365.2884.2928.6844.1462 1.0273l-.6797 1.5892"/><path d="m9.92654 2.13196-7.36404 3.12585 2.73512 6.44349 1.38171-2.15833 5.41697-2.29937z"/><path d="m6.29688 6.67188.04756-.02019m2.15533-.91489-.05193.02204"/></g></svg>