<svg fill="none" height="27" viewBox="0 0 27 27" width="27" xmlns="http://www.w3.org/2000/svg"><g stroke="#213551"><g stroke-linecap="round" stroke-linejoin="round" stroke-width="1.5"><path d="m9.25676 14.8883c.08108-1.61-.93692-1.61-1.56839-1.61-.57691.0229-1.5226.047-1.5226 1.6347 0 1.3472.25652 1.3232.53807 1.7186 0 0-.02011.7965-.53807.7473-.51797-.0492-1.78882-.0444-1.78882 1.2121v2.5245c.18304.6263 1.82451 1.4983 5.12075 1.1129.03481-.1586 0-.5964 0-1.8945 0-1.298.965-1.6642 1.5608-1.5808.2127-.1174-.2819-1.0929-.7525-1.2834"/><path d="m17.7918 14.8883c-.0811-1.61.937-1.61 1.5685-1.61.5769.0229 1.5227.047 1.5227 1.6347 0 1.3472-.2566 1.3232-.5382 1.7186 0 0 .0202.7965.5382.7473s1.7889-.0444 1.7889 1.2121v2.5245c-.1831.6263-1.7908 1.4935-5.0872 1.1081v-2.2268c0-1.1326-.9728-1.2437-1.5948-1.2437-.2127-.1174.2819-1.0929.7525-1.2834"/><path d="m11.6268 15.6492c-.1004-1.9929 1.1599-1.993 1.9416-1.993.7143.0284 1.885.0583 1.885 2.0237 0 1.6677-.3176 1.638-.6661 2.1274 0 0 .1714.9251.8126.8642.6413-.0609 2.0681.006 2.0681 1.5614v3.1252c-.2266.7753-1.849 1.8489-5.9297 1.3717-1.4641-.2838-2.12811-.7647-2.3421-1.2636v-3.0326c0-.7521.34898-1.3529.9316-1.5887.9065-.3669.5334.0628 1.4105-.1734.227-.1665.8332-.6871.3408-1.1196-.5534-.4863-.4796-1.5205-.4524-1.9022z"/></g><g stroke-width="1.3"><path d="m13.0236 3.96352c.1496-.46065.8013-.46065.951.00001l.364 1.12028c.067.20601.2589.34549.4756.34549h1.1779c.4844 0 .6857.61981.2939.90451l-.953.69238c-.1752.12732-.2486.353-.1816.55902l.364 1.12028c.1497.46066-.3776.84372-.7694.55902l-.953-.69238c-.1753-.12732-.4126-.12732-.5878 0l-.953.69238c-.3918.2847-.9191-.09836-.7694-.55902l.364-1.12028c.0669-.20602-.0064-.4317-.1816-.55902l-.953-.69238c-.3919-.2847-.1905-.90451.2939-.90451h1.1779c.2166 0 .4086-.13948.4756-.34549z"/><path d="m19.9787 6.34269c.1198-.36852.6411-.36852.7609.00001l.3471 1.06824c.0535.1648.2071.27639.3804.27639h1.1232c.3875 0 .5486.49584.2351.72361l-.9087.6602c-.1402.10186-.1988.28241-.1453.44722l.3471 1.06824c.1197.3685-.3021.675-.6155.4472l-.9087-.6602c-.1402-.1019-.3301-.1019-.4703 0l-.9087.6602c-.3135.2278-.7352-.0787-.6155-.4472l.3471-1.06824c.0535-.16481-.0051-.34536-.1453-.44722l-.9087-.6602c-.3135-.22777-.1524-.72361.2351-.72361h1.1232c.1733 0 .3269-.11159.3804-.27639z"/><path d="m6.25998 6.39348c.11974-.36853.6411-.36853.76084 0l.34709 1.06824c.05355.16481.20714.27639.38043.27639h1.12321c.38749 0 .5486.49585.23511.72361l-.9087.66021c-.14019.10185-.19885.2824-.1453.44721l.34709 1.06826c.11974.3685-.30205.675-.61554.4472l-.9087-.6602c-.14019-.1019-.33003-.1019-.47023 0l-.9087.6602c-.31348.2278-.73527-.0787-.61553-.4472l.34709-1.06826c.05355-.16481-.00511-.34536-.14531-.44721l-.9087-.66021c-.31348-.22776-.15237-.72361.23512-.72361h1.12321c.17329 0 .32687-.11158.38042-.27639z"/></g></g></svg>