<svg fill="none" height="27" viewBox="0 0 27 27" width="27" xmlns="http://www.w3.org/2000/svg" xmlns:xlink="http://www.w3.org/1999/xlink"><mask id="a" fill="#fff"><path d="m22.6954 8.47634v2.93716c.0065.128-.0121.256-.0544.376-.0424.12-.1078.2292-.1918.3209-.0841.0916-.1852.1636-.2968.2114s-.2313.0704-.3515.0663h-.368l1.2861 6.6582c.0416.136.0464.2818.0138.4206-.0325.1388-.1011.265-.1979.3641-.0805.1276-.1906.2308-.3196.2995-.129.0688-.2725.1008-.4166.0929h-1.8404v3.9164c0 .2602-.0969.5097-.2695.6936-.1726.184-.4066.2873-.6507.2873s-.4781-.1033-.6507-.2873c-.1726-.1839-.2695-.4334-.2695-.6936v-3.9164h-.9188v1.9617c0 .2602-.0969.5097-.2695.6936-.1726.184-.4066.2873-.6507.2873-.244 0-.4781-.1033-.6507-.2873-.1725-.1839-.2695-.4334-.2695-.6936v-1.9617h-3.6742v1.9617c0 .2602-.097.5097-.2695.6936-.1726.184-.4067.2873-.6507.2873-.2441 0-.4782-.1033-.6507-.2873-.1726-.1839-.26955-.4334-.26955-.6936v-1.9617h-.91874v3.9164c0 .2602-.09695.5097-.26952.6936-.17258.184-.40663.2873-.65069.2873s-.47813-.1033-.6507-.2873c-.17257-.1839-.26951-.4334-.26951-.6936v-3.9117h-1.84043c-.14404.0079-.28755-.0241-.41656-.0929-.129-.0687-.23911-.1719-.31961-.2995-.09676-.0991-.16536-.2253-.19791-.3641s-.02774-.2846.01386-.4206l1.28609-6.6582h-.36809c-.12258.0079-.24534-.012-.36016-.0584-.11483-.0465-.21911-.1183-.30595-.2109-.08683-.0926-.15425-.2037-.1978-.3261s-.06224-.2532-.05483-.3839v-2.93716c-.00741-.13067.01128-.26152.05483-.38391.04355-.1224.11097-.23355.1978-.32611.08684-.09256.19112-.16443.30595-.21085.11482-.04642.23758-.06634.36016-.05844h1.28609l.5514-3.13333c.03811-.22716.15223-.43189.32118-.57619s.38126-.21838.59756-.20851h11.02193c.2163-.00987.4286.06421.5976.20851.1689.1443.2831.34903.3212.57619l.5514 3.13333h1.2861c.1225-.0079.2453.01202.3601.05844.1149.04642.2191.11829.306.21085.0868.09256.1542.20371.1978.32611.0435.12239.0622.25324.0548.38391z" fill="#fff"/></mask><g stroke="#213551"><path d="m22.6954 8.47634v2.93716c.0065.128-.0121.256-.0544.376-.0424.12-.1078.2292-.1918.3209-.0841.0916-.1852.1636-.2968.2114s-.2313.0704-.3515.0663h-.368l1.2861 6.6582c.0416.136.0464.2818.0138.4206-.0325.1388-.1011.265-.1979.3641-.0805.1276-.1906.2308-.3196.2995-.129.0688-.2725.1008-.4166.0929h-1.8404v3.9164c0 .2602-.0969.5097-.2695.6936-.1726.184-.4066.2873-.6507.2873s-.4781-.1033-.6507-.2873c-.1726-.1839-.2695-.4334-.2695-.6936v-3.9164h-.9188v1.9617c0 .2602-.0969.5097-.2695.6936-.1726.184-.4066.2873-.6507.2873-.244 0-.4781-.1033-.6507-.2873-.1725-.1839-.2695-.4334-.2695-.6936v-1.9617h-3.6742v1.9617c0 .2602-.097.5097-.2695.6936-.1726.184-.4067.2873-.6507.2873-.2441 0-.4782-.1033-.6507-.2873-.1726-.1839-.26955-.4334-.26955-.6936v-1.9617h-.91874v3.9164c0 .2602-.09695.5097-.26952.6936-.17258.184-.40663.2873-.65069.2873s-.47813-.1033-.6507-.2873c-.17257-.1839-.26951-.4334-.26951-.6936v-3.9117h-1.84043c-.14404.0079-.28755-.0241-.41656-.0929-.129-.0687-.23911-.1719-.31961-.2995-.09676-.0991-.16536-.2253-.19791-.3641s-.02774-.2846.01386-.4206l1.28609-6.6582h-.36809c-.12258.0079-.24534-.012-.36016-.0584-.11483-.0465-.21911-.1183-.30595-.2109-.08683-.0926-.15425-.2037-.1978-.3261s-.06224-.2532-.05483-.3839v-2.93716c-.00741-.13067.01128-.26152.05483-.38391.04355-.1224.11097-.23355.1978-.32611.08684-.09256.19112-.16443.30595-.21085.11482-.04642.23758-.06634.36016-.05844h1.28609l.5514-3.13333c.03811-.22716.15223-.43189.32118-.57619s.38126-.21838.59756-.20851h11.02193c.2163-.00987.4286.06421.5976.20851.1689.1443.2831.34903.3212.57619l.5514 3.13333h1.2861c.1225-.0079.2453.01202.3601.05844.1149.04642.2191.11829.306.21085.0868.09256.1542.20371.1978.32611.0435.12239.0622.25324.0548.38391z" fill="#247aae" mask="url(#a)" stroke-width="2"/><rect fill="#408053" height="3.87807" rx=".5" width="17.5078" x="4.74609" y="7.99414"/></g></svg>