<svg fill="none" height="27" viewBox="0 0 27 27" width="27" xmlns="http://www.w3.org/2000/svg"><path d="m22.6277 11.3934v-2.95156c.0075-.13131-.0113-.2628-.055-.3858-.0438-.123-.1116-.23469-.1988-.32771-.0873-.09302-.1921-.16524-.3075-.21189s-.2387-.06667-.3619-.05873h-1.2924l-.5541-3.14874c-.0383-.22828-.153-.43401-.3228-.57902s-.3831-.21946-.6005-.20954h-11.07618c-.21736-.00992-.43073.06453-.60051.20954s-.28446.35074-.32275.57902l-.55412 3.14874h-1.29241c-.12319-.00794-.24655.01208-.36194.05873s-.22018.11887-.30745.21189c-.08726.09302-.15501.20471-.19877.32771-.04377.123-.06255.25449-.0551.3858v2.95156c-.00745.1313.01133.2628.0551.3858.04376.123.11151.2347.19877.3278.08727.093.19206.1652.30745.2118.11539.0467.23875.0667.36194.0588h.3699l-1.29242 6.6909c-.04181.1367-.04664.2832-.01393.4227.03272.1395.10165.2663.19888.3659.0809.1282.19155.2319.32119.301s.27385.1012.4186.0933h1.84949v3.931c0 .2614.09742.5121.27084.697.17342.1848.40864.2887.6539.2887.24525 0 .48046-.1039.65389-.2887.17342-.1849.27085-.4356.27085-.697v-3.9357h.92325v1.9714c0 .2614.09743.5121.27085.697.17338.1848.40868.2887.65388.2887.2453 0 .4805-.1039.6539-.2887.1734-.1849.2709-.4356.2709-.697v-1.9714h3.6923v1.9714c0 .2614.0974.5121.2708.697.1734.1848.4087.2887.6539.2887.2453 0 .4805-.1039.6539-.2887.1734-.1849.2709-.4356.2709-.697v-1.9714h.9232v3.9357c0 .2614.0974.5121.2709.697.1734.1848.4086.2887.6539.2887.2452 0 .4804-.1039.6538-.2887.1735-.1849.2709-.4356.2709-.697v-3.9357h1.8495c.1447.0079.2889-.0243.4186-.0934.1296-.069.2403-.1727.3212-.3009.0972-.0997.1661-.2265.1988-.366.0328-.1394.0279-.2859-.0139-.4226l-1.2924-6.691h.3699c.1208.0042.2411-.0185.3532-.0666.1121-.048.2137-.1204.2982-.2125.0845-.092.1501-.2018.1927-.3224s.0613-.2492.0547-.3779zm-15.0717-2.39614h11.6754l.3038 1.79354h-12.27719zm.73979-3.51096h10.24251l.3699 1.97141h-10.9823zm12.61351 13.0864h-15.04306l1.13862-6.1991h12.82734z" fill="#213551"/></svg>