<svg fill="none" height="27" viewBox="0 0 27 27" width="27" xmlns="http://www.w3.org/2000/svg"><g stroke="#213551" stroke-width="1.5"><g stroke-linejoin="round"><path d="m20.767 5.94043h1.2323c1.1045 0 2.015.89849 1.8776 1.99448-.4021 3.20719-1.9411 7.01909-6.6875 7.01909"/><path d="m6.23122 5.94043h-1.23218c-1.10457 0-2.01504.89849-1.87763 1.99448.4021 3.20719 1.94106 7.01909 6.68724 7.01909"/><path d="m10.2168 20.2375c1.1261-1.0347 1.5416-2.9303 1.6086-3.9309 1.3074.3141 2.0296.2749 3.3359.0001.067 1.0006.4941 2.8961 1.6202 3.9308z"/></g><rect height="1.99599" rx=".959473" width="8.67238" x="9.15039" y="20.4238"/><g stroke-linecap="round" stroke-linejoin="round"><path d="m20.9163 4.83661c.0316-.5547-.4192-1.00556-.9747-1.00556h-12.88674c-.55917 0-1.01133.45646-.97425 1.01439.29478 4.43506 2.07398 11.68066 7.47099 11.68066 5.4005 0 7.1122-7.25524 7.3647-11.68949z"/><path d="m15.1639 13.8522-.1131.1255"/><path d="m17.4643 10.7041c-.2012.4657-.7065 1.3832-1.0932 1.8673"/></g></g></svg>