<svg fill="none" height="27" viewBox="0 0 27 27" width="27" xmlns="http://www.w3.org/2000/svg"><g stroke="#213551" stroke-width="1.5"><path d="m10.9876 12.2764c-.1255 0-.2491 0-.3746 0-.4795.0067-.95082.1267-1.37639.3505-.42556.2238-.745.5472-1.07483.9387-.71277.8458-1.57002 1.8269-2.15008 2.768-.30771.4541-.58299.9298-.82373 1.4237-.10459.2103-.16697.4395-.18351.6744-.01655.2349.01307.4854.08712.7087.10626.2783.27133.5298.48367.7367.72735.7366 1.55055 1.5757 2.27791 2.3124.1122.1129.40952.2146.6089.2565.17782 0 .3276.0135.48516 0 .17189-.0525.32554-.1034.46297-.1827.13743-.0792.25625-.1877.34816-.318.05637-.0774.10181-.1621.16182-.2615.03818.5635.08003 1.116.10913 1.6685.0072.1216.0436.1474.1563.1474h2.8895 3.8185c.0746 0 .1419.011.1419-.1032.0109-.3241.0345-.6483.0564-.9724.0127-.1971.0291-.3941.0472-.6243l.0528.0847c.0857.1603.2086.2971.3582.3985.1495.1015.3212.1645.5002.1837.179.0193.5839-.017.7511-.0844.1673-.0675.3158-.1751.4327-.3137.668-.6838 1.2786-1.2532 1.9442-1.9383.0909-.0976.1854-.1952.2727-.2984.1635-.1773.3288-.4528.4173-.7345.1215-.3871.15-.6831.1215-.924-.114-.4019-.2672-.5481-.4554-.8582-.7073-1.1658-1.422-2.3261-2.1821-3.4569-.2187-.3466-.7166-.643-1.0348-.8987-.6147-.4853-1.3821-.7287-2.1603-.6851-.0551-.0066-.1107.0068-.157.0378-.0463.0311-.0802.0777-.0957.1317-.3491.8564-.7001 1.7164-1.0638 2.5783-.2146.5212-.4255 1.0424-.6437 1.5618-.0382.0921-.0127.1418.0709.1658m-3.2803-4.4735c.0304-.0042.0612.0031.0866.0204.0255.0173.0438.0434.0515.0735.4268 1.0375.8547 2.0737 1.2838 3.1088.1728.4162.3419.8343.5165 1.2486.0144.0321.0218.067.0218.1023m-1.9602-4.5536h5.1696m-3.2094 4.5536c0 .0352-.0074.0701-.0218.1022-.1982.5267-.3928 1.0553-.5874 1.5838-.0855.2321-.0291.3426.2019.4236l1.0746.3684c.0395.022.0835.0342.1286.0358.045.0016.0898-.0076.1306-.0268.0409-.0191.0768-.0478.1048-.0836.0279-.0358.0471-.0778.0561-.1225.2315-.62.4612-1.2407.6891-1.862.0226-.0383.0354-.0818.0375-.1264s-.0066-.0891-.0255-.1295c-.0188-.0403-.0472-.0754-.0826-.1021-.0353-.0267-.0767-.0441-.1203-.0508-.0891-.0313-.1819-.0663-.2655-.0902m-1.3201.0801c.1058-.2485.383-.376.6405-.2947l.6796.2146m3.3968-.7018-.0291.0148-.4056 4.6411c.0873-.094.1437-.1603.2055-.2247.6255-.6434 1.2517-1.2861 1.8784-1.9283.0159-.0108.0291-.0252.0387-.0421.0095-.0168.0151-.0357.0163-.0551.0013-.0194-.0019-.0388-.0092-.0567-.0074-.018-.0186-.034-.033-.0468-.4074-.5525-.8092-1.1216-1.2147-1.6833zm-8.24097 0c-.06364.0258-.07998.0719-.10543.1069-.52552.7367-1.04923 1.4586-1.57838 2.1824-.07273.0994-.05637.151.02364.232.61643.6188 1.22925 1.245 1.84568 1.8638.06728.0663.10908.1603.21637.221z"/><path d="m13.4962 10.759c-.5681-.0008-1.1233-.1719-1.5954-.492-.4722-.32007-.8401-.77465-1.0573-1.30633-.2173-.53168-.2741-1.11663-.1633-1.68101.1107-.56437.384-1.08286.7855-1.49.4015-.40713.9131-.68465 1.4702-.79753s1.1347-.05606 1.6599.1633.9745.59142 1.2911 1.0692.4864 1.03984.4878 1.61525c.0026.38378-.07.76428-.2137 1.11941-.1436.35514-.3555.67785-.6232.9494-.2678.27151-.5862.48651-.9367.63251-.3504.1459-.726.22-1.1049.2178z"/><path d="m11.1098 6.24155c-.4749.06459-.8772-.35638-.6831-.79448 1.2417-2.80132 5.5034-2.60909 6.1753.7663.0154.07744-.0465.1477-.1212.13746l-.7776-.10667c-1.5246-.20915-3.0686-.21003-4.5934-.00261z" fill="#f9f9f9"/><path d="m10.1697 6.32414c1.8492-.2619 3.7373-.26512 5.5869-.00637l1.9022.26609" stroke-linecap="round"/></g></svg>