<svg fill="none" height="27" viewBox="0 0 27 27" width="27" xmlns="http://www.w3.org/2000/svg"><path d="m15.8109 12.7988h-4.1593-.4621l1.8485 4.0695h.9243z" fill="#408053"/><path d="m17.1391 21.8576c-.0181.2224-.0345.4127-.0472.6031-.0219.3131-.0455.6262-.0564.9394 0 .1103-.0673.0996-.1419.0996h-3.8185c-.9619 0-1.9257 0-2.8895 0-.1127 0-.1491-.0249-.1563-.1423-.0291-.5338-.07095-1.0675-.10913-1.6119-.06001.0961-.10545.1779-.16182.2527-.09191.1258-.21073.2307-.34816.3072s-.29108.1258-.46297.1765c-.15756.013-.30734 0-.48516 0-.19938-.0405-.4967-.1388-.6089-.2478-.72736-.7116-1.55056-1.5222-2.27791-2.2339-.21234-.1998-.37741-.4427-.48367-.7116-.07405-.2156-.10367-.4577-.08712-.6846.01654-.2269.07892-.4483.18351-.6515.24074-.477.51602-.9366.82373-1.3752.58006-.9091 1.43731-1.8569 2.15008-2.674.32983-.3781.64927-.6905 1.07483-.9067.42557-.2162.89689-.3322 1.37639-.3386h.3746c.0304-.004.0612.003.0866.0197.0255.0167.0438.042.0515.071.4268 1.0022.8547 2.0033 1.2838 3.0031.1728.4021.3419.8059.5165 1.2062.0144.031.0218.0647.0218.0988 0 .034-.0074.0677-.0218.0987-.1982.5088-.3928 1.0194-.5874 1.53-.0855.2242-.0291.3309.2019.4092l1.0746.3558c.0395.0213.0835.0331.1286.0346.045.0016.0898-.0073.1306-.0258.0409-.0186.0768-.0462.1048-.0808.0279-.0346.0471-.0751.0561-.1184.2315-.5989.4612-1.1985.6891-1.7986.0226-.0371.0354-.079.0375-.1221s-.0066-.0861-.0255-.1251c-.0188-.039-.0472-.0729-.0826-.0987-.0353-.0257-.0767-.0426-.1203-.0491-.0891-.0302-.1819-.064-.2655-.0871-.0836-.0232-.1091-.0712-.0709-.1602.2182-.5017.4291-1.0051.6437-1.5086.3637-.8326.7147-1.6634 1.0638-2.4907.0155-.0521.0494-.0972.0957-.1272.0463-.0299.1019-.0429.157-.0365.7782-.0421 1.5456.193 2.1603.6618.3182.247.8161.5333 1.0348.8682.7601 1.0923 1.4748 2.2131 2.1821 3.3393.1882.2995.3414.4408.4554.829.0285.2328 0 .5187-.1215.8926-.0885.2721-.2538.5382-.4173.7096-.0873.0996-.1818.1939-.2727.2882-.6656.6618-1.2762 1.2118-1.9442 1.8724-.1169.1339-.2654.2378-.4327.303-.1672.0651-.5721.1002-.7511.0816s-.3507-.0795-.5002-.1775c-.1496-.098-.2725-.2301-.3582-.385zm.5256-5.5561-.0291.0143-.4056 4.4832c.0873-.0907.1437-.1547.2055-.217.6255-.6215 1.2517-1.2424 1.8784-1.8627.0159-.0105.0291-.0244.0387-.0407.0095-.0163.0151-.0345.0163-.0532.0013-.0187-.0019-.0375-.0092-.0548-.0074-.0174-.0186-.0328-.033-.0452-.4074-.5338-.8092-1.0835-1.2147-1.6261zm-8.24097 0c-.06364.0249-.07998.0694-.10543.1032-.52552.7117-1.04923 1.4091-1.57838 2.1082-.07273.0961-.05637.1459.02364.2242.61643.5978 1.22925 1.2027 1.84568 1.8004.06728.0641.10908.1548.21637.2135z" fill="#408053"/><path d="m10.9876 12.658c-.1255 0-.2491 0-.3746 0-.4795.0064-.95082.1224-1.37639.3386-.42556.2162-.745.5286-1.07483.9067-.71277.8171-1.57002 1.7649-2.15008 2.674-.30771.4386-.58299.8982-.82373 1.3752-.10459.2032-.16697.4246-.18351.6515-.01655.2269.01307.469.08712.6846.10626.2689.27133.5118.48367.7116.72735.7117 1.55055 1.5222 2.27791 2.2339.1122.109.40952.2073.6089.2478.17782 0 .3276.013.48516 0 .17189-.0507.32554-.1.46297-.1765s.25625-.1814.34816-.3072c.05637-.0748.10181-.1566.16182-.2527.03818.5444.08003 1.0781.10913 1.6119.0072.1174.0436.1423.1563.1423h2.8895 3.8185c.0746 0 .1419.0107.1419-.0996.0109-.3132.0345-.6263.0564-.9394.0127-.1904.0291-.3807.0472-.6031l.0528.0818c.0857.1549.2086.287.3582.385.1495.098.3212.1589.5002.1775s.5839-.0165.7511-.0816c.1673-.0652.3158-.1691.4327-.303.668-.6606 1.2786-1.2106 1.9442-1.8724.0909-.0943.1854-.1886.2727-.2882.1635-.1714.3288-.4375.4173-.7096.1215-.3739.15-.6598.1215-.8926-.114-.3882-.2672-.5295-.4554-.829-.7073-1.1262-1.422-2.247-2.1821-3.3393-.2187-.3349-.7166-.6212-1.0348-.8682-.6147-.4688-1.3821-.7039-2.1603-.6618-.0551-.0064-.1107.0066-.157.0365-.0463.03-.0802.0751-.0957.1272-.3491.8273-.7001 1.6581-1.0638 2.4907-.2146.5035-.4255 1.0069-.6437 1.5086-.0382.089-.0127.137.0709.1602m-3.2803-4.3214c.0304-.004.0612.003.0866.0197.0255.0167.0438.042.0515.071.4268 1.0022.8547 2.0033 1.2838 3.0031.1728.4021.3419.8059.5165 1.2062.0144.031.0218.0647.0218.0988m-1.9602-4.3988h5.1696m-3.2094 4.3988c0 .034-.0074.0677-.0218.0987-.1982.5088-.3928 1.0194-.5874 1.53-.0855.2242-.0291.3309.2019.4092l1.0746.3558c.0395.0213.0835.0331.1286.0346.045.0016.0898-.0073.1306-.0258.0409-.0186.0768-.0462.1048-.0808.0279-.0346.0471-.0751.0561-.1184.2315-.5989.4612-1.1985.6891-1.7986.0226-.0371.0354-.079.0375-.1221s-.0066-.0861-.0255-.1251c-.0188-.039-.0472-.0729-.0826-.0987-.0353-.0257-.0767-.0426-.1203-.0491-.0891-.0302-.1819-.064-.2655-.0871m-1.3201.0774c.1064-.2414.3765-.3652.6288-.2882l.6913.2108m3.3968-.6779-.0291.0143-.4056 4.4832c.0873-.0907.1437-.1547.2055-.217.6255-.6215 1.2517-1.2424 1.8784-1.8627.0159-.0105.0291-.0244.0387-.0407.0095-.0163.0151-.0345.0163-.0532.0013-.0187-.0019-.0375-.0092-.0548-.0074-.0174-.0186-.0328-.033-.0452-.4074-.5338-.8092-1.0835-1.2147-1.6261zm-8.24097 0c-.06364.0249-.07998.0694-.10543.1032-.52552.7117-1.04923 1.4091-1.57838 2.1082-.07273.0961-.05637.1459.02364.2242.61643.5978 1.22925 1.2027 1.84568 1.8004.06728.0641.10908.1548.21637.2135z" stroke="#213551"/><path d="m13.4962 10.435c-.5681-.0007-1.1233-.1661-1.5954-.47524-.4722-.30918-.8401-.7483-1.0573-1.26191-.2173-.51361-.2741-1.07867-.1633-1.62386.1107-.54519.384-1.04605.7855-1.43934s.9131-.66138 1.4702-.77042c.5571-.10905 1.1347-.05416 1.6599.15775.5252.2119.9745.57131 1.2911 1.03284.3166.46154.4864 1.00449.4878 1.56034.0026.37073-.07.7383-.2137 1.08136" stroke="#213551" stroke-width="1.25"/><path d="m11.1301 6.14834c-.492.06232-.9032-.3792-.6816-.82294 1.3219-2.6479 5.6877-2.44246 6.38.79573.016.0748-.0482.14267-.1257.13278l-.8068-.10304c-1.5818-.20204-3.1838-.20289-4.7659-.00253z" fill="#408053"/><path d="m17.6588 6.37816-1.9426-.24334c-1.818-.22772-3.6625-.14539-5.4518.24334m.8657-.22982c-.492.06232-.9032-.3792-.6816-.82294 1.3219-2.6479 5.6877-2.44246 6.38.79573.016.0748-.0482.14267-.1257.13278l-.8068-.10304c-1.5818-.20204-3.1838-.20289-4.7659-.00253z" stroke="#213551" stroke-linecap="round" stroke-width="1.5"/></svg>