<svg width="64" height="65" viewBox="0 0 64 65" fill="none" xmlns="http://www.w3.org/2000/svg">
<rect width="64" height="64" transform="translate(0 0.578857)" fill="url(#paint0_linear_10256_15448)"/>
<path d="M15.9746 17.6789C15.8279 18.1389 15.6979 18.5422 15.5846 18.8889C15.4712 19.2289 15.3612 19.5222 15.2546 19.7689C15.1479 20.0155 15.0279 20.2222 14.8946 20.3889C14.7679 20.5489 14.6146 20.6755 14.4346 20.7689C14.2546 20.8555 14.0312 20.9155 13.7646 20.9489V21.0089C14.0446 21.0422 14.2779 21.1055 14.4646 21.1989C14.6579 21.2855 14.8246 21.4155 14.9646 21.5889C15.1112 21.7555 15.2412 21.9755 15.3546 22.2489C15.4746 22.5155 15.5979 22.8422 15.7246 23.2289C15.8512 23.6089 15.9979 24.0589 16.1646 24.5789H14.5646C14.3779 23.9855 14.2212 23.4922 14.0946 23.0989C13.9679 22.7055 13.8412 22.3955 13.7146 22.1689C13.5879 21.9355 13.4379 21.7689 13.2646 21.6689C13.0912 21.5689 12.8679 21.5189 12.5946 21.5189L12.5846 20.4589C12.8446 20.4589 13.0612 20.4055 13.2346 20.2989C13.4079 20.1855 13.5579 20.0189 13.6846 19.7989C13.8112 19.5722 13.9279 19.2855 14.0346 18.9389C14.1479 18.5855 14.2746 18.1655 14.4146 17.6789H15.9746ZM12.1746 17.6789V19.6289C12.1746 19.8555 12.1579 20.0822 12.1246 20.3089C12.0912 20.5355 12.0379 20.7522 11.9646 20.9589C12.0179 21.1655 12.0646 21.3789 12.1046 21.5989C12.1512 21.8122 12.1746 22.0122 12.1746 22.1989V24.5789H10.6546V17.6789H12.1746ZM13.0246 20.4589V21.5189H11.7846V20.4589H13.0246ZM19.5608 19.5089C19.9808 19.5089 20.3308 19.5655 20.6108 19.6789C20.8975 19.7855 21.1142 19.9722 21.2608 20.2389C21.4142 20.4989 21.4908 20.8589 21.4908 21.3189V24.5789H20.3108L20.1008 23.5089L20.0108 23.3589V21.3089C20.0042 21.0755 19.9442 20.9055 19.8308 20.7989C19.7242 20.6922 19.5208 20.6389 19.2208 20.6389C18.9608 20.6389 18.6408 20.6489 18.2608 20.6689C17.8808 20.6822 17.4908 20.7022 17.0908 20.7289L16.9508 19.7489C17.1908 19.7022 17.4675 19.6622 17.7808 19.6289C18.0942 19.5955 18.4075 19.5689 18.7208 19.5489C19.0342 19.5222 19.3142 19.5089 19.5608 19.5089ZM20.8808 21.5389L20.8708 22.3689L18.6808 22.3789C18.5008 22.3789 18.3708 22.4222 18.2908 22.5089C18.2108 22.5955 18.1708 22.7122 18.1708 22.8589V23.0989C18.1708 23.2655 18.2175 23.3955 18.3108 23.4889C18.4108 23.5755 18.5608 23.6189 18.7608 23.6189C18.9342 23.6189 19.1208 23.5822 19.3208 23.5089C19.5275 23.4355 19.7308 23.3322 19.9308 23.1989C20.1308 23.0655 20.3075 22.9089 20.4608 22.7289V23.3689C20.4075 23.4689 20.3208 23.5955 20.2008 23.7489C20.0875 23.8955 19.9408 24.0422 19.7608 24.1889C19.5808 24.3289 19.3675 24.4489 19.1208 24.5489C18.8808 24.6489 18.6075 24.6989 18.3008 24.6989C18.0008 24.6989 17.7308 24.6455 17.4908 24.5389C17.2508 24.4322 17.0608 24.2755 16.9208 24.0689C16.7808 23.8622 16.7108 23.6055 16.7108 23.2989V22.7889C16.7108 22.3955 16.8442 22.0889 17.1108 21.8689C17.3775 21.6489 17.7442 21.5389 18.2108 21.5389H20.8808ZM27.3632 19.6389C27.2432 20.0122 27.1399 20.3289 27.0532 20.5889C26.9666 20.8489 26.8799 21.0655 26.7932 21.2389C26.7132 21.4055 26.6232 21.5389 26.5232 21.6389C26.4232 21.7389 26.2966 21.8155 26.1432 21.8689C25.9966 21.9222 25.8132 21.9622 25.5932 21.9889V22.0289C25.8199 22.0622 26.0099 22.1055 26.1632 22.1589C26.3232 22.2055 26.4599 22.2822 26.5732 22.3889C26.6866 22.4889 26.7899 22.6289 26.8832 22.8089C26.9766 22.9889 27.0732 23.2222 27.1732 23.5089C27.2732 23.7955 27.3899 24.1522 27.5232 24.5789H25.9832C25.8632 24.2055 25.7599 23.8955 25.6732 23.6489C25.5932 23.4022 25.5166 23.2022 25.4432 23.0489C25.3699 22.8955 25.2899 22.7822 25.2032 22.7089C25.1232 22.6355 25.0266 22.5889 24.9132 22.5689C24.8066 22.5422 24.6732 22.5289 24.5132 22.5289L24.4932 21.5189C24.6932 21.5189 24.8566 21.4922 24.9832 21.4389C25.1099 21.3855 25.2166 21.2922 25.3032 21.1589C25.3966 21.0189 25.4832 20.8289 25.5632 20.5889C25.6499 20.3422 25.7499 20.0255 25.8632 19.6389H27.3632ZM24.1732 19.6389V20.9089C24.1732 21.0889 24.1532 21.2755 24.1132 21.4689C24.0799 21.6555 24.0299 21.8289 23.9632 21.9889C24.0232 22.1422 24.0732 22.3089 24.1132 22.4889C24.1532 22.6622 24.1732 22.8189 24.1732 22.9589V24.5789H22.6932V19.6389H24.1732ZM24.8832 21.5189V22.5289H23.8032V21.5189H24.8832ZM30.9475 19.5089C31.3675 19.5089 31.7175 19.5655 31.9975 19.6789C32.2842 19.7855 32.5009 19.9722 32.6475 20.2389C32.8009 20.4989 32.8775 20.8589 32.8775 21.3189V24.5789H31.6975L31.4875 23.5089L31.3975 23.3589V21.3089C31.3909 21.0755 31.3309 20.9055 31.2175 20.7989C31.1109 20.6922 30.9075 20.6389 30.6075 20.6389C30.3475 20.6389 30.0275 20.6489 29.6475 20.6689C29.2675 20.6822 28.8775 20.7022 28.4775 20.7289L28.3375 19.7489C28.5775 19.7022 28.8542 19.6622 29.1675 19.6289C29.4809 19.5955 29.7942 19.5689 30.1075 19.5489C30.4209 19.5222 30.7009 19.5089 30.9475 19.5089ZM32.2675 21.5389L32.2575 22.3689L30.0675 22.3789C29.8875 22.3789 29.7575 22.4222 29.6775 22.5089C29.5975 22.5955 29.5575 22.7122 29.5575 22.8589V23.0989C29.5575 23.2655 29.6042 23.3955 29.6975 23.4889C29.7975 23.5755 29.9475 23.6189 30.1475 23.6189C30.3209 23.6189 30.5075 23.5822 30.7075 23.5089C30.9142 23.4355 31.1175 23.3322 31.3175 23.1989C31.5175 23.0655 31.6942 22.9089 31.8475 22.7289V23.3689C31.7942 23.4689 31.7075 23.5955 31.5875 23.7489C31.4742 23.8955 31.3275 24.0422 31.1475 24.1889C30.9675 24.3289 30.7542 24.4489 30.5075 24.5489C30.2675 24.6489 29.9942 24.6989 29.6875 24.6989C29.3875 24.6989 29.1175 24.6455 28.8775 24.5389C28.6375 24.4322 28.4475 24.2755 28.3075 24.0689C28.1675 23.8622 28.0975 23.6055 28.0975 23.2989V22.7889C28.0975 22.3955 28.2309 22.0889 28.4975 21.8689C28.7642 21.6489 29.1309 21.5389 29.5975 21.5389H32.2675ZM36.1 19.5489C36.5266 19.5489 36.8766 19.5522 37.15 19.5589C37.4233 19.5589 37.6633 19.5655 37.87 19.5789C38.0766 19.5855 38.2833 19.5989 38.49 19.6189L38.36 20.6489C38.3 20.6355 38.0733 20.6255 37.68 20.6189C37.2866 20.6122 36.77 20.6089 36.13 20.6089C35.8433 20.6089 35.6533 20.6555 35.56 20.7489C35.4666 20.8422 35.42 20.9989 35.42 21.2189C35.42 21.4989 35.4666 21.6922 35.56 21.7989C35.66 21.9055 35.8566 21.9589 36.15 21.9589H38.37L38.4 22.8789C38.2933 22.8789 38.1533 22.8822 37.98 22.8889C37.8066 22.8955 37.5766 22.8989 37.29 22.8989C37.0033 22.8989 36.6333 22.8989 36.18 22.8989C35.9933 22.8989 35.85 22.9289 35.75 22.9889C35.6566 23.0422 35.5933 23.1322 35.56 23.2589L35.23 24.5789H33.72L34.12 23.0489C34.1666 22.9022 34.2433 22.7922 34.35 22.7189C34.4633 22.6389 34.5866 22.5822 34.72 22.5489C34.8533 22.5155 34.9733 22.4922 35.08 22.4789V22.4389C34.8 22.3855 34.58 22.2955 34.42 22.1689C34.26 22.0422 34.1466 21.8855 34.08 21.6989C34.0133 21.5122 33.98 21.3089 33.98 21.0889C33.98 20.8089 34.01 20.5722 34.07 20.3789C34.1366 20.1789 34.2466 20.0189 34.4 19.8989C34.56 19.7722 34.7766 19.6822 35.05 19.6289C35.33 19.5755 35.68 19.5489 36.1 19.5489ZM38.49 19.6189V24.5789H37.05V19.6189H38.49ZM42.6743 21.5589V22.4989H39.6943V21.5589H42.6743ZM46.3696 19.6389V24.5789H44.8896V19.6389H46.3696ZM48.0096 19.6389V20.7789H43.2396V19.6389H48.0096ZM51.1172 19.5089C51.7372 19.5089 52.2339 19.5955 52.6072 19.7689C52.9806 19.9355 53.2472 20.2089 53.4072 20.5889C53.5739 20.9689 53.6572 21.4789 53.6572 22.1189C53.6572 22.7455 53.5739 23.2489 53.4072 23.6289C53.2472 24.0089 52.9806 24.2822 52.6072 24.4489C52.2339 24.6155 51.7372 24.6989 51.1172 24.6989C50.4972 24.6989 50.0006 24.6155 49.6272 24.4489C49.2539 24.2822 48.9839 24.0089 48.8172 23.6289C48.6506 23.2489 48.5672 22.7455 48.5672 22.1189C48.5672 21.4789 48.6506 20.9689 48.8172 20.5889C48.9839 20.2089 49.2539 19.9355 49.6272 19.7689C50.0006 19.5955 50.4972 19.5089 51.1172 19.5089ZM51.1172 20.5889C50.8639 20.5889 50.6639 20.6322 50.5172 20.7189C50.3706 20.8055 50.2672 20.9589 50.2072 21.1789C50.1472 21.3989 50.1172 21.7122 50.1172 22.1189C50.1172 22.5189 50.1472 22.8289 50.2072 23.0489C50.2672 23.2689 50.3706 23.4222 50.5172 23.5089C50.6639 23.5889 50.8639 23.6289 51.1172 23.6289C51.3706 23.6289 51.5706 23.5889 51.7172 23.5089C51.8639 23.4222 51.9639 23.2689 52.0172 23.0489C52.0772 22.8289 52.1072 22.5189 52.1072 22.1189C52.1072 21.7122 52.0772 21.3989 52.0172 21.1789C51.9639 20.9589 51.8639 20.8055 51.7172 20.7189C51.5706 20.6322 51.3706 20.5889 51.1172 20.5889ZM19.1134 31.6389V32.6189H17.1734C16.8734 32.6189 16.7067 32.7755 16.6734 33.0889C16.6067 33.6222 16.52 34.0922 16.4134 34.4989C16.3067 34.9055 16.17 35.2755 16.0034 35.6089C15.8434 35.9422 15.6367 36.2655 15.3834 36.5789H14.2434C14.4834 36.1655 14.6767 35.7522 14.8234 35.3389C14.97 34.9189 15.0867 34.4989 15.1734 34.0789C15.26 33.6589 15.3267 33.2355 15.3734 32.8089C15.42 32.4222 15.5534 32.1322 15.7734 31.9389C15.9934 31.7389 16.3134 31.6389 16.7334 31.6389H19.1134ZM15.2234 36.5289L15.1134 37.9789H14.1334V36.5289H15.2234ZM19.9934 35.5589V36.5789H14.1334V35.5589H19.9934ZM19.9934 36.5289V37.9789H19.0234L18.9134 36.5289H19.9934ZM19.2334 31.6389V36.5789H17.8334V31.6389H19.2334ZM24.1122 31.5189C24.7389 31.5189 25.1855 31.7455 25.4522 32.1989C25.7189 32.6522 25.8522 33.3022 25.8522 34.1489C25.8522 34.8089 25.7822 35.3255 25.6422 35.6989C25.5022 36.0722 25.2922 36.3355 25.0122 36.4889C24.7389 36.6355 24.3955 36.7089 23.9822 36.7089C23.6355 36.7089 23.2989 36.6589 22.9722 36.5589C22.6522 36.4589 22.3722 36.2922 22.1322 36.0589L22.2222 35.3989C22.4489 35.4655 22.6522 35.5255 22.8322 35.5789C23.0122 35.6255 23.2189 35.6489 23.4522 35.6489C23.6655 35.6489 23.8355 35.6122 23.9622 35.5389C24.0889 35.4655 24.1789 35.3222 24.2322 35.1089C24.2922 34.8889 24.3222 34.5722 24.3222 34.1589C24.3222 33.7522 24.2955 33.4422 24.2422 33.2289C24.1889 33.0089 24.1022 32.8589 23.9822 32.7789C23.8689 32.6922 23.7155 32.6489 23.5222 32.6489C23.3022 32.6489 23.1022 32.6922 22.9222 32.7789C22.7422 32.8589 22.5389 32.9755 22.3122 33.1289L22.1222 32.4489C22.2555 32.2689 22.4255 32.1089 22.6322 31.9689C22.8455 31.8289 23.0789 31.7189 23.3322 31.6389C23.5855 31.5589 23.8455 31.5189 24.1122 31.5189ZM22.0622 31.6389L22.2122 32.5389L22.3422 32.6889V35.8989L22.2922 36.0189C22.3122 36.2189 22.3255 36.4255 22.3322 36.6389C22.3455 36.8589 22.3489 37.0755 22.3422 37.2889V38.4789H20.8722V31.6389H22.0622ZM31.7695 31.6389L29.9995 36.6389C29.9061 36.9522 29.7861 37.2222 29.6395 37.4489C29.4995 37.6755 29.3395 37.8655 29.1595 38.0189C28.9795 38.1789 28.7761 38.3089 28.5495 38.4089C28.2695 38.5489 27.9628 38.6255 27.6295 38.6389C27.2961 38.6522 26.9561 38.6289 26.6095 38.5689L26.7295 37.6089C27.0161 37.6155 27.2695 37.6022 27.4895 37.5689C27.7095 37.5422 27.8995 37.4822 28.0595 37.3889C28.1861 37.3089 28.3028 37.1922 28.4095 37.0389C28.5161 36.8922 28.6028 36.7322 28.6695 36.5589L28.9395 35.9189C29.0061 35.7655 29.0661 35.5855 29.1195 35.3789C29.1728 35.1722 29.2195 34.9922 29.2595 34.8389L30.1895 31.6389H31.7695ZM27.8495 31.6389L28.7895 34.8389C28.8161 34.9655 28.8428 35.0922 28.8695 35.2189C28.8961 35.3455 28.9195 35.4722 28.9395 35.5989H29.2095L28.7395 36.5789H28.3795C28.2595 36.5789 28.1561 36.5455 28.0695 36.4789C27.9895 36.4122 27.9295 36.3255 27.8895 36.2189L26.2695 31.6389H27.8495ZM33.7333 31.5889C34.1799 31.5889 34.6399 31.5955 35.1133 31.6089C35.5866 31.6155 36.0166 31.6522 36.4033 31.7189L36.3433 32.7489H34.3933C34.2266 32.7489 34.1066 32.7855 34.0333 32.8589C33.9599 32.9255 33.9233 33.0389 33.9233 33.1989V36.5789H32.4633V32.7889C32.4633 32.3822 32.5666 32.0822 32.7733 31.8889C32.9866 31.6889 33.3066 31.5889 33.7333 31.5889ZM39.7317 31.5089C40.1517 31.5089 40.5017 31.5655 40.7817 31.6789C41.0684 31.7855 41.2851 31.9722 41.4317 32.2389C41.5851 32.4989 41.6617 32.8589 41.6617 33.3189V36.5789H40.4817L40.2717 35.5089L40.1817 35.3589V33.3089C40.1751 33.0755 40.1151 32.9055 40.0017 32.7989C39.8951 32.6922 39.6917 32.6389 39.3917 32.6389C39.1317 32.6389 38.8117 32.6489 38.4317 32.6689C38.0517 32.6822 37.6617 32.7022 37.2617 32.7289L37.1217 31.7489C37.3617 31.7022 37.6384 31.6622 37.9517 31.6289C38.2651 31.5955 38.5784 31.5689 38.8917 31.5489C39.2051 31.5222 39.4851 31.5089 39.7317 31.5089ZM41.0517 33.5389L41.0417 34.3689L38.8517 34.3789C38.6717 34.3789 38.5417 34.4222 38.4617 34.5089C38.3817 34.5955 38.3417 34.7122 38.3417 34.8589V35.0989C38.3417 35.2655 38.3884 35.3955 38.4817 35.4889C38.5817 35.5755 38.7317 35.6189 38.9317 35.6189C39.1051 35.6189 39.2917 35.5822 39.4917 35.5089C39.6984 35.4355 39.9017 35.3322 40.1017 35.1989C40.3017 35.0655 40.4784 34.9089 40.6317 34.7289V35.3689C40.5784 35.4689 40.4917 35.5955 40.3717 35.7489C40.2584 35.8955 40.1117 36.0422 39.9317 36.1889C39.7517 36.3289 39.5384 36.4489 39.2917 36.5489C39.0517 36.6489 38.7784 36.6989 38.4717 36.6989C38.1717 36.6989 37.9017 36.6455 37.6617 36.5389C37.4217 36.4322 37.2317 36.2755 37.0917 36.0689C36.9517 35.8622 36.8817 35.6055 36.8817 35.2989V34.7889C36.8817 34.3955 37.0151 34.0889 37.2817 33.8689C37.5484 33.6489 37.9151 33.5389 38.3817 33.5389H41.0517ZM44.8841 31.5489C45.3108 31.5489 45.6608 31.5522 45.9341 31.5589C46.2075 31.5589 46.4475 31.5655 46.6541 31.5789C46.8608 31.5855 47.0675 31.5989 47.2741 31.6189L47.1441 32.6489C47.0841 32.6355 46.8575 32.6255 46.4641 32.6189C46.0708 32.6122 45.5541 32.6089 44.9141 32.6089C44.6275 32.6089 44.4375 32.6555 44.3441 32.7489C44.2508 32.8422 44.2041 32.9989 44.2041 33.2189C44.2041 33.4989 44.2508 33.6922 44.3441 33.7989C44.4441 33.9055 44.6408 33.9589 44.9341 33.9589H47.1541L47.1841 34.8789C47.0775 34.8789 46.9375 34.8822 46.7641 34.8889C46.5908 34.8955 46.3608 34.8989 46.0741 34.8989C45.7875 34.8989 45.4175 34.8989 44.9641 34.8989C44.7775 34.8989 44.6341 34.9289 44.5341 34.9889C44.4408 35.0422 44.3775 35.1322 44.3441 35.2589L44.0141 36.5789H42.5041L42.9041 35.0489C42.9508 34.9022 43.0275 34.7922 43.1341 34.7189C43.2475 34.6389 43.3708 34.5822 43.5041 34.5489C43.6375 34.5155 43.7575 34.4922 43.8641 34.4789V34.4389C43.5841 34.3855 43.3641 34.2955 43.2041 34.1689C43.0441 34.0422 42.9308 33.8855 42.8641 33.6989C42.7975 33.5122 42.7641 33.3089 42.7641 33.0889C42.7641 32.8089 42.7941 32.5722 42.8541 32.3789C42.9208 32.1789 43.0308 32.0189 43.1841 31.8989C43.3441 31.7722 43.5608 31.6822 43.8341 31.6289C44.1141 31.5755 44.4641 31.5489 44.8841 31.5489ZM47.2741 31.6189V36.5789H45.8341V31.6189H47.2741ZM25.9588 43.6389V44.6589H23.9588C23.7922 44.6589 23.6688 44.6989 23.5888 44.7789C23.5088 44.8522 23.4588 44.9722 23.4388 45.1389C23.4055 45.4122 23.3688 45.6889 23.3288 45.9689C23.2955 46.2422 23.2588 46.5055 23.2188 46.7589C23.1788 47.0055 23.1322 47.2189 23.0788 47.3989C23.0055 47.7522 22.8688 48.0255 22.6688 48.2189C22.4755 48.4055 22.2388 48.5289 21.9588 48.5889C21.6855 48.6555 21.3855 48.6689 21.0588 48.6289L20.9088 47.5389C21.0622 47.5055 21.1955 47.4722 21.3088 47.4389C21.4222 47.4055 21.5122 47.3555 21.5788 47.2889C21.6522 47.2222 21.7088 47.1255 21.7488 46.9989C21.7888 46.8855 21.8255 46.7522 21.8588 46.5989C21.8922 46.4389 21.9222 46.2655 21.9488 46.0789C21.9755 45.8922 21.9988 45.6955 22.0188 45.4889C22.0388 45.2822 22.0588 45.0755 22.0788 44.8689C22.1188 44.4622 22.2422 44.1555 22.4488 43.9489C22.6622 43.7422 22.9788 43.6389 23.3988 43.6389H25.9588ZM26.0888 43.6389V48.5789H24.6188V43.6389H26.0888ZM32.1868 43.6389V48.5789L30.8568 48.5889V45.9989C30.8568 45.8655 30.8601 45.7355 30.8668 45.6089C30.8801 45.4822 30.8968 45.3455 30.9168 45.1989H30.8768C30.8368 45.3189 30.7801 45.4489 30.7068 45.5889C30.6335 45.7222 30.5635 45.8389 30.4968 45.9389L28.6268 48.5789H27.3368V43.6389H28.6568V46.2989C28.6568 46.4189 28.6535 46.5389 28.6468 46.6589C28.6401 46.7722 28.6268 46.8955 28.6068 47.0289H28.6368C28.6901 46.9022 28.7468 46.7855 28.8068 46.6789C28.8735 46.5655 28.9401 46.4589 29.0068 46.3589L30.9068 43.6389H32.1868ZM34.6903 43.5889C35.137 43.5889 35.597 43.5955 36.0703 43.6089C36.5436 43.6155 36.9736 43.6522 37.3603 43.7189L37.3003 44.7489H35.3503C35.1836 44.7489 35.0636 44.7855 34.9903 44.8589C34.917 44.9255 34.8803 45.0389 34.8803 45.1989V48.5789H33.4203V44.7889C33.4203 44.3822 33.5236 44.0822 33.7303 43.8889C33.9436 43.6889 34.2636 43.5889 34.6903 43.5889ZM40.6888 43.5089C41.1088 43.5089 41.4588 43.5655 41.7388 43.6789C42.0254 43.7855 42.2421 43.9722 42.3888 44.2389C42.5421 44.4989 42.6188 44.8589 42.6188 45.3189V48.5789H41.4388L41.2288 47.5089L41.1388 47.3589V45.3089C41.1321 45.0755 41.0721 44.9055 40.9588 44.7989C40.8521 44.6922 40.6488 44.6389 40.3488 44.6389C40.0888 44.6389 39.7688 44.6489 39.3888 44.6689C39.0088 44.6822 38.6188 44.7022 38.2188 44.7289L38.0788 43.7489C38.3188 43.7022 38.5954 43.6622 38.9088 43.6289C39.2221 43.5955 39.5354 43.5689 39.8488 43.5489C40.1621 43.5222 40.4421 43.5089 40.6888 43.5089ZM42.0088 45.5389L41.9988 46.3689L39.8088 46.3789C39.6288 46.3789 39.4988 46.4222 39.4188 46.5089C39.3388 46.5955 39.2988 46.7122 39.2988 46.8589V47.0989C39.2988 47.2655 39.3454 47.3955 39.4388 47.4889C39.5388 47.5755 39.6888 47.6189 39.8888 47.6189C40.0621 47.6189 40.2488 47.5822 40.4488 47.5089C40.6554 47.4355 40.8588 47.3322 41.0588 47.1989C41.2588 47.0655 41.4354 46.9089 41.5888 46.7289V47.3689C41.5354 47.4689 41.4488 47.5955 41.3288 47.7489C41.2154 47.8955 41.0688 48.0422 40.8888 48.1889C40.7088 48.3289 40.4954 48.4489 40.2488 48.5489C40.0088 48.6489 39.7354 48.6989 39.4288 48.6989C39.1288 48.6989 38.8588 48.6455 38.6188 48.5389C38.3788 48.4322 38.1888 48.2755 38.0488 48.0689C37.9088 47.8622 37.8388 47.6055 37.8388 47.2989V46.7889C37.8388 46.3955 37.9721 46.0889 38.2388 45.8689C38.5054 45.6489 38.8721 45.5389 39.3388 45.5389H42.0088Z" fill="#213551"/>
<defs>
<linearGradient id="paint0_linear_10256_15448" x1="32" y1="0" x2="32" y2="64" gradientUnits="userSpaceOnUse">
<stop stop-color="#FFD67A"/>
<stop offset="1" stop-color="#EF7D14"/>
</linearGradient>
</defs>
</svg>
