<svg fill="none" height="128" viewBox="0 0 128 128" width="128" xmlns="http://www.w3.org/2000/svg"><path d="m0 0h128v128h-128z" fill="#1c8aa9" fill-opacity=".1"/><g fill="#04162c" fill-opacity=".5"><path d="m67.3845 20.1898c.0604-.0405.1036-.1054.1036-.1784v-2.1489c0-1.5732-1.3474-2.8626-2.9972-2.8626-1.6497 0-2.9971 1.2813-2.9971 2.8626v2.1489c0 .073.0432.1379.1036.1784l-5.1392 11.3691c-.0346.0811-.0173.1784.0518.2433.0691.0648.1728.0811.2591.0486l1.8139-.7136.1814.5758c.0172.0648.0691.1135.1382.1378s.1382.0243.1986-.0081l1.5375-.7785.7169.6325c.0691.0649.1814.0811.2677.0325l1.5029-.7298 1.2352.819h.0086c.0087.0081.0173.0081.0259.0081.0087 0 .0087.0081.0173.0081s.0173.0081.0173.0081c.0086 0 .0173.0081.0259.0081h.0173.0259.0259.0259c.0086 0 .0173 0 .0173-.0081.0086 0 .0173 0 .0259-.0081.0086 0 .0086-.0081.0173-.0081.0086 0 .0172-.0081.0259-.0081h.0086l1.2352-.819 1.5029.7298c.0863.0405.1986.0324.2677-.0325l.7169-.6325 1.5375.7785c.0604.0325.1382.0325.1986.0081.0691-.0243.1123-.0811.1382-.1378l.1814-.5758 1.8139.7136c.0863.0325.19.0162.2591-.0486.0691-.0649.0864-.1622.0518-.2433zm-5.4243-2.3273c0-1.3299 1.1315-2.4165 2.5307-2.4165 1.3993 0 2.5308 1.0866 2.5308 2.4165v.8271h-5.0529v-.8271zm0 1.265h5.0529v.6569h-.9674-.7601-.5096-.5787-.5096-.7601-.9674zm-3.4204 11.5475-1.4252.5595 4.9752-11.0041h.5009zm1.9261-.0243-1.3474.6811-.1468-.4784 4.12-10.6149h.2937zm2.453-.0406-1.3733.665-.6219-.5515 2.9454-10.4932h.0777zm1.572.7704-1.1055-.7298 1.0278-10.4203h.1468l1.0279 10.4203zm2.9454-.1054-1.3734-.665-1.0278-10.3797h.0777l2.9454 10.4932zm2.4271.0486-1.3474-.6811-2.9195-10.4203h.2937l4.12 10.6149zm.5787-.6487-4.0509-10.4446h.5096l4.9751 11.0041z"/><path d="m97.6921 52.1201s3.3059-8.4016-1.5562-13.098c-.5603-.545-1.2162-1.0896-1.9484-1.6023-.6645-.4652-1.3342-.8635-1.9804-1.1891l.0053.0037c-6.1304-3.0938-13.2317 2.7839-13.2317 2.7839s-6.1027 3.7391-8.681 11.5265c-2.2575 6.8144 2.9079 12.124 4.2341 13.3456l-16.3654 22.6442-.0083-.0058s-.2961-.1444-.369-.0608c-.0735.0844-5.5219 5.6421-5.8557 6.0145l-.0065.0011s-.0129.0179-.035.0484c-.0264.0366-9.0907 12.568-9.1081 12.595l-.0048.007c-.0144.013-.7882.731-.9466.819-.752.43-.9012.937-.9783 1.133-.0765.197.1775.402.3248.524.1368.113 2.9219 2.063 3.0759 2.153.1638.097.4455.266.6083.129.1638-.136.6-.441.7661-1.28.0339-.177.4687-1.132.4765-1.149l.0049-.007c.0203-.025 9.0746-12.564 9.1005-12.5998.0221-.0306.0358-.0479.0358-.0479l-.0011-.0064c.2464-.4336 3.7942-7.3222 3.8504-7.4187.0571-.0947-.1787-.3226-.1787-.3226l-.009-.0064.2849-.3942 16.0819-22.249c1.6117.8344 8.3977 3.8922 14.1978-.4394 6.6291-4.951 8.217-11.8515 8.217-11.8515zm-15.6411-14.1084c.4897-.2678 1.0352-.5391 1.6226-.7867.1233-.0529.2459-.1017.3673-.1503l-1.2171 1.6229-.8463-.5982zm-.2321.2741.8584.6066-1.2535 1.6716-.958-.6776zm-.5403 2.4728-1.2625 1.6842-1.0726-.7577 1.3643-1.613zm.1561-2.3949-1.1674 1.3814-.4412-.3111c.3175-.2368.877-.6341 1.6086-1.0703zm-2.0058 1.3703.099-.071c.0024-.0017.0357-.029.095-.075l.4858.3436-1.363 1.6127-.888-.6285c.9287-.7809 1.5623-1.1757 1.5712-1.1818zm-3.2446 2.7501c.5304-.5502 1.0354-1.0183 1.4827-1.4032l.9217.6509-1.332 1.5761-1.1089-.7843c.0117-.0131.0248-.0264.0365-.0395zm-.2064.218 1.1213.7908-1.3536 1.6013-1.1296-.7965c.4709-.6076.9333-1.1391 1.3619-1.5956zm-1.5101 1.7881 1.12.791-1.4167 1.6761-.9426-.6644c.4068-.657.8242-1.2582 1.2393-1.8027zm-3.2219 5.9259c.2288-.6447.4812-1.2593.7524-1.8417l.5044.3555zm.8588-2.0658c.3129-.6575.65-1.2746.9974-1.8496l.9109.6423-1.353 1.6006zm-1.4624 6.6011c-.0474-.4743-.063-.9488-.0406-1.4225l.7233.5109zm.8281-1.105-.8486-.5998c.0557-.7411.1967-1.4809.4228-2.2161l.0744-.0871 1.6519 1.1679zm1.4463-1.9305-1.6407-1.16 1.4256-1.6868 1.535 1.0849zm1.4658-1.956-1.524-1.075 1.3531-1.6006 1.424 1.0061zm1.3981-1.8654-1.4117-.9964 1.4185-1.6771 1.3063.9225zm1.4583-1.9456-1.2947-.9134 1.3528-1.6019 1.1946.8432zm.2161-2.701 1.3335-1.575 1.0818.7653-1.2333 1.6452zm-6.2346 14.0444c-.0967-.2697-.1798-.5378-.2546-.808l.5561.3939zm.4445-.6103-.7961-.5642c-.0816-.3377-.142-.6764-.1883-1.0141l.8417-1.1224 1.3919.9847zm1.3934-1.9125-1.3895-.9831 1.3005-1.7351 1.366.9655zm1.4205-1.9497-1.3638-.9639 1.3206-1.7613 1.3382.9459zm1.4385-1.9763-1.3364-.9436 1.2523-1.67 1.3131.9272zm1.3714-1.8818-1.3108-.9257 1.3136-1.7517 1.2852.9077zm1.4335-1.9664-1.2842-.9059 1.2534-1.6715 1.2604.8903zm1.3718-1.8839-1.2581-.8887 1.2327-1.6445 1.2355.873zm1.3536-1.8572-1.2325-.8709 1.2626-1.6841 1.2086.8552zm1.3816-1.8961-1.206-.8523 1.2526-1.6721 1.1835.8366zm1.3728-1.8853-1.1799-.8352 1.2239-1.6338 1.1568.8201zm1.3438-1.8452-1.1538-.818.0723-.0953c.7493-.2723 1.475-.4679 2.1779-.5897zm-13.3212 21.8136c-.3606-.6251-.6581-1.251-.9018-1.8762l.3964-.5453 1.4957 1.0608zm1.1343-1.5585-1.4955-1.0595 1.249-1.7172 1.4973 1.0585zm1.3943-1.9152-1.4965-1.058 1.2774-1.7534 1.4958 1.0574zm1.4205-1.9497-1.4966-1.058 1.2965-1.7782 1.4962 1.0554zm1.4385-1.9763-1.4951-1.0569 1.229-1.6864 1.4941 1.0551zm1.371-1.8844-1.4949-1.0557 1.2893-1.7698 1.4941 1.0551zm1.4315-1.9666-1.4941-1.0552 1.2288-1.6876 1.494 1.0551zm1.3722-1.8846-1.4938-1.0539 1.2094-1.6608 1.4927 1.0553zm1.3513-1.8556-1.4928-1.0554 1.2392-1.7005 1.4915 1.0556zm1.382-1.8981-1.4921-1.0548 1.2288-1.6877 1.4913 1.0544zm1.3715-1.8851-1.4913-1.0543 1.201-1.6477 1.49 1.0546zm1.3428-1.8424-1.4902-1.0558 1.2322-1.6909 1.4871 1.057zm1.3726-1.8867-1.2808-.9091c.6702-.0718 1.3186-.0724 1.9424-.0015zm-14.8673 24.3926c-.7027-.7075-1.1564-1.334-1.375-1.6689l1.0489-1.442 1.7084 1.2108zm1.526-2.0958-1.7086-1.2121 1.2509-1.7182 1.7094 1.2093zm1.3947-1.9172-1.71-1.2086 1.2773-1.7547 1.7105 1.2078zm1.4213-1.9525-1.7106-1.2078 1.2956-1.7801 1.7105 1.2079zm1.4385-1.9763-1.7098-1.2073 1.2288-1.6876 1.709 1.2067zm1.3709-1.8844-1.7097-1.2073 1.2886-1.7704 1.7097 1.2073zm1.4323-1.9661-1.7097-1.2073 1.2287-1.6876 1.709 1.2067zm1.3702-1.8849-1.7084-1.2075 1.2088-1.6601 1.7072 1.2077zm1.3505-1.8561-1.7077-1.207 1.2385-1.7011 1.7072 1.2077zm1.3815-1.8973-1.7077-1.207 1.2295-1.6871 1.7069 1.2064zm1.3715-1.8852-1.707-1.2065 1.1992-1.6466 1.704 1.2089zm1.3405-1.8407-1.7054-1.2086 1.2297-1.6905 1.7037 1.2109zm1.3702-1.8849-1.7024-1.2111.7385-1.014c.7422.1111 1.4468.3261 2.1156.644zm3.4977 19.4963-1.1855-.8368 1.0898-1.7827 1.1835.8365c-.311.5669-.6729 1.1666-1.0878 1.783zm1.204-2.0002-1.1713-.8268 1.0708-1.7501.9932.7011c-.2327.5543-.5256 1.1888-.8927 1.8758zm1.6834-4.1677-.0363.1194c-.0049.0224-.1869.775-.6604 1.942l-.9588-.6781 1.1021-1.7965.5619.3968c-.0052.0087-.0085.0164-.0085.0164zm.6742-2.3959c-.2086.9967-.4531 1.765-.5828 2.1423l-.5199-.3685 1.0921-1.7812zm-2.5293 3.6394-1.0743-.76 1.2026-1.7252.9715.6871zm1.229-2.0051-.9616-.6789 1.1916-1.7115.8614.6087zm1.6429-4.168c-.0071.1118-.0132.2254-.0239.3391-.0411.5201-.1061 1.0212-.1852 1.4855l-.2163.3526-.8485-.5998 1.1569-1.6605zm-4.0555-8.6587c.5536.3989 1.0649.8186 1.5278 1.255l-1.1731 1.6357-1.6201-1.1523zm-1.4076 1.9351 1.6201 1.1524-1.2109 1.6912-1.6353-1.1596zm-1.3701 1.8817 1.636 1.1601-1.1815 1.649-1.6491-1.1671zm-1.3387 1.8397 1.6505 1.1669-1.2162 1.6953-1.6617-1.1748zm-1.3704 1.8837 1.6625 1.1753-1.2264 1.7095-1.6746-1.1838zm-1.3812 1.8985 1.6746 1.1838-1.1952 1.6663-1.6866-1.1922zm-1.3502 1.8541 1.6887 1.1925-1.2175 1.6956-1.6984-1.1994zm-1.3704 1.8837 1.7007 1.2009-1.2776 1.7804-1.7127-1.2094zm-1.4313 1.9679 1.7122 1.2101-1.2154 1.6959-1.7248-1.2178zm-1.3725 1.8833 1.7278 1.22-1.2853 1.7895-1.7376-1.2268zm-1.4376 1.9782 1.7379 1.228-1.2674 1.7662-1.7488-1.238zm-1.4225 1.9526 1.7518 1.2401-1.2441 1.7309-1.7605-1.2485zm13.2788-22.171c.5963.3053 1.1943.6646 1.7765 1.071l-1.2665 1.7399-1.6834-1.1967zm-1.3164 1.8104 1.6842 1.1972-1.2259 1.6852-1.6865-1.1955zm-1.3711 1.8832 1.6857 1.1949-1.1952 1.6428-1.6873-1.1928zm-1.3403 1.8419 1.6873 1.1927-1.2282 1.6869-1.6873-1.1927zm-1.3717 1.8839 1.6873 1.1927-1.2369 1.7022-1.6874-1.1928zm-1.3807 1.8978 1.6879 1.192-1.2063 1.6597-1.6886-1.1926zm-1.3505 1.8561 1.6886 1.1925-1.2287 1.6877-1.6874-1.1927zm-1.371 1.8844 1.6884 1.1913-1.2885 1.7704-1.6879-1.192zm-1.4321 1.9674 1.6887 1.1925-1.2288 1.6877-1.6894-1.1931zm-1.3711 1.8832 1.6886 1.1925-1.2961 1.7808-1.6886-1.1925zm-1.4391 1.977 1.6881 1.1933-1.2781 1.7575-1.6881-1.1933zm-1.4213 1.9525 1.6883 1.1945-1.2535 1.7219-1.6865-1.1955zm-2.7996 3.8486 1.406-1.9329 1.686 1.1962-1.4847 2.0417c-.6292-.426-1.1636-.8765-1.6073-1.305zm1.8062 1.4443 1.4836-2.0402 1.7633 1.2493-1.3772 1.9182c-.5819-.2828-1.223-.6532-1.8697-1.1273zm19.8422-23.4942c.5039.4942.9292 1.0502 1.2758 1.6679l-.7916 1.1047-1.6402-1.1653zm-1.2972 1.8058 1.6382 1.1651-1.211 1.6866-1.6406-1.1633zm-1.3546 1.8869 1.6388 1.161-1.1802 1.6487-1.6429-1.1616zm-1.3256 1.8467 1.6417 1.1618-1.2157 1.6946-1.6421-1.1611zm-1.3591 1.8916 1.6422 1.161-1.2257 1.7101-1.6422-1.1611zm-1.3663 1.9078 1.6411 1.1593-1.1938 1.6661-1.6433-1.1596zm-1.3387 1.8633 1.6432 1.1596-1.2149 1.6951-1.644-1.1601zm-1.3584 1.8921 1.644 1.1601-1.2776 1.7803-1.6434-1.1608zm-1.4172 1.9766 1.6429 1.1616-1.2162 1.6954-1.6434-1.1609zm-1.3604 1.8918 1.6434 1.1609-1.2831 1.7911-1.6434-1.1609zm-1.4246 1.9884 1.6424 1.1623-1.2671 1.7675-1.6424-1.1624zm-1.4101 1.9636 1.6445 1.1627-1.245 1.7336-1.6413-1.1639zm-2.7364 3.8131 1.3519-1.8831 1.6413 1.1638-1.0234 1.4285c-.4072-.1021-1.1165-.3137-1.9698-.7092zm19.1504-22.8212c.3176.6186.5537 1.2935.7146 2.0269l-1.4374-1.0222zm-.864 1.2033 1.4876 1.0562-1.2082 1.6875-1.4887-1.0547zm-1.3515 1.8857 1.4887 1.0548-1.1804 1.6474-1.49-1.0545zm-1.3229 1.8462 1.4884 1.0535-1.2141 1.6957-1.4907-1.0551zm-1.3592 1.8916 1.4913 1.0543-1.2236 1.7104-1.4935-1.0559zm-1.3678 1.9068 1.4925 1.0541-1.1933 1.6653-1.4941-1.0551zm-1.3371 1.861 1.4941 1.0552-1.2141 1.6956-1.4956-1.0562zm-1.3569 1.8932 1.4941 1.0552-1.2768 1.7808-1.4941-1.0551zm-1.4175 1.9787 1.4941 1.0551-1.2147 1.6964-1.4973-1.0585zm-1.3597 1.8923 1.4979 1.0578-1.2851 1.7907-1.4958-1.0574zm-1.426 1.9873 1.4966 1.058-1.2679 1.7669-1.4971-1.0573zm-1.4093 1.9642 1.4973 1.0585-1.2438 1.7367-1.497-1.0606zm-2.2654 3.2977c-.0199-.0038-.0502-.0105-.0858-.0163l.9644-1.3485 1.497 1.0605-.3755.5228c-.6496-.0227-1.3161-.0942-2.0001-.2185zm17.6349-21.1716c.1197.6821.1775 1.4106.1696 2.183l-.1982.2866-1.1537-.8179zm-1.3251 1.8492 1.1566.8188-1.1554 1.6615-1.182-.8355zm-1.3221 1.8434 1.1835.8366-1.193 1.7104-1.2046-.8513zm-1.3568 1.8932 1.2091.8545-1.2016 1.7269-1.234-.8719zm-1.3681 1.9055 1.2357.8742-1.1723 1.6801-1.256-.8884zm-1.3346 1.8639 1.2596.8898-1.1931 1.7104-1.2821-.9056zm-1.3571 1.8919 1.2873.9081-1.2535 1.7971-1.3093-.9246zm-1.4188 1.9789 1.3144.927-1.1942 1.7119-1.3349-.9425zm-1.3576 1.8926 1.3407.9455-1.2616 1.8084-1.3622-.9628zm-1.4244 1.9896 1.3643.9632-1.2426 1.7868-1.3901-.9823zm-3.0747 4.289.2776-.3904.5275.3738c-.2647.0145-.5351.0182-.8051.0166zm1.1848-.0459-.7652-.5425 1.246-1.7351 1.3904.9836-.7939 1.1425c-.3527.0673-.7121.1187-1.0773.1515zm10.2177-12.846 1.0841.7669-1.0716 1.7495-1.1832-.8352zm-1.3099 1.88 1.1953.8437-1.0906 1.7822-1.2978-.9154zm-1.332 1.9106 1.3068.9218-1.1471 1.8728-1.4125-.9969zm-1.3905 1.9977 1.4246 1.0053-1.0945 1.7828-1.5242-1.0762zm-1.3327 1.91 1.5372 1.0865-1.1536 1.8851-1.6435-1.1609zm-3.4281 4.9239.6473-.9286.7273.5149c-.4456.1706-.9052.3057-1.3746.4137zm1.6418-.5229-.8566-.6044 1.2433-1.7863 1.6553 1.1681-.1014.1669c-.6177.4262-1.2659.7783-1.9406 1.0557zm2.454-1.4269 1.0694-1.7466.5445.3847c-.501.4641-1.0373.9204-1.6139 1.3619zm1.793-1.5328-.5965-.4211 1.0914-1.7849.9616.6789c-.4456.513-.9287 1.0245-1.4565 1.5271zm.6236-2.4123 1.1455-1.8739 1.1775.8324c-.3959.5713-.838 1.1564-1.3326 1.7418z"/><path d="m49.6643 38.8844s-6.9792-5.8295-13.0812-2.8488c-.7068.3423-1.4446.7735-2.1769 1.2863-.6644.4652-1.2663.9574-1.7908 1.4515l.0053-.0037c-4.9798 4.6857-1.6678 13.2166-1.6678 13.2166s1.5871 6.901 8.2154 11.8526c5.7997 4.3341 12.5897 1.2724 14.1971.4399l16.3653 22.6442-.0083.0058s-.2357.228-.1794.3232c.0569.096 3.604 6.9851 3.8519 7.4177l-.0011.0063s.013.0179.035.0485c.0264.0365 9.0802 12.5745 9.1006 12.5995l.0048.007c.0083.018.4432.973.4766 1.149.1658.841.6028 1.145.7658 1.281.1638.136.4447-.033.6093-.13.154-.09 2.9391-2.04 3.0759-2.154.1465-.12.4013-.327.3228-.523-.0764-.197-.2263-.703-.977-1.132-.159-.09-.9328-.807-.9466-.82l-.0049-.007c-.0173-.027-9.0822-12.5589-9.1081-12.5947-.022-.0305-.0342-.0489-.0342-.0489l-.0065-.0011c-.3353-.3714-5.783-5.9296-5.8572-6.0135-.0722-.0841-.3683.0603-.3683.0603l-.009.0064-.285-.3943-16.0789-22.2511c1.3294-1.2249 6.4898-6.5321 4.2349-13.346-2.5776-7.788-8.6795-11.5277-8.6795-11.5277zm-18.6705 9.9168c-.0964-.5431-.1779-1.1394-.2229-1.7668-.0103-.132-.0169-.262-.0237-.3908l1.1583 1.664-.8517.5908zm.1869.3057.8638-.5992 1.1931 1.7138-.9644.6686zm2.1961 1.3134 1.2023 1.7264-1.079.7488-1.1006-1.7976zm-2.2473-.9306.9429 1.5387-.4432.3081c-.1232-.3729-.321-1.0234-.4997-1.8468zm.6573 2.3145-.0357-.1153c-.0009-.0028-.0161-.0426-.0408-.1129l.4891-.339 1.1008 1.7963-.8944.6195c-.445-1.1196-.6161-1.8383-.619-1.8486zm1.5752 3.919c-.3541-.6736-.6376-1.2967-.8604-1.8389l.927-.6435 1.0758 1.7555-1.1164.7739c-.0087-.0152-.0173-.0317-.026-.047zm.1416.2635 1.1267-.7833 1.0929 1.7839-1.1349.789c-.4287-.6371-.7872-1.2414-1.0847-1.7896zm1.2209 1.9906 1.1264-.782 1.144 1.8671-.9468.6585c-.4971-.5937-.9372-1.179-1.3236-1.7436zm4.6306 4.9395c-.5437-.4242-1.0508-.8605-1.5208-1.3036l.5066-.3525zm-1.701-1.4761c-.5284-.5066-1.0101-1.0224-1.448-1.5341l.9152-.6363 1.0924 1.7831zm5.8558 3.5248c-.4708-.1114-.9313-.2526-1.3786-.4288l.7276-.505zm-.7889-1.1324-.854.5923c-.693-.2948-1.3568-.6686-1.9882-1.1199l-.0593-.0977 1.6628-1.1531zm-1.3785-1.978-1.6514 1.1451-1.1513-1.8788 1.5446-1.0714zm-1.3965-2.0046-1.5315 1.0646-1.0925-1.7831 1.4327-.9942zm-1.3318-1.9118-1.4193.9859-1.1443-1.8691 1.3138-.9121zm-1.389-1.9941-1.3012.9044-1.0938-1.7834 1.2011-.8342zm-2.5213-1.0868-1.0744-1.7565 1.0894-.755 1.1745 1.6864zm11.4342 10.4036c-.2906.0014-.5751-.0093-.8589-.0283l.5604-.3879zm-.44-.6135-.8025.5552c-.3509-.035-.6957-.0898-1.0351-.1575l-.8011-1.1509 1.4015-.9712zm-1.3784-1.923-1.3993.9697-1.2387-1.7784 1.3746-.9535zm-1.4054-1.9603-1.3723.952-1.2574-1.8057 1.3468-.934zm-1.4249-1.9858-1.344.9332-1.1921-1.7122 1.3206-.9168zm-1.3564-1.8924-1.3183.9153-1.2504-1.796 1.2928-.8974zm-1.417-1.9779-1.2906.897-1.1932-1.7137 1.2679-.8799zm-1.3581-1.8934-1.2656.8784-1.174-1.6857 1.243-.8625zm-1.3386-1.8678-1.24.8604-1.2023-1.7264 1.2172-.8433zm-1.3666-1.9066-1.2136.8419-1.1939-1.7131 1.191-.8262zm-1.3592-1.8949-1.1886.8233-1.1666-1.6739 1.1665-.8067zm-1.3302-1.8546-1.1634.8046-.0678-.0985c-.0156-.7861.0347-1.525.1483-2.2186zm16.5666 19.5412c-.7182.1302-1.4166.2016-2.0965.2231l-.3933-.5474 1.5086-1.0428zm-1.1238-1.5659-1.5073 1.0431-1.2385-1.7247 1.507-1.0451zm-1.3807-1.9247-1.5063 1.0446-1.2639-1.763 1.5055-1.044zm-1.4054-1.9603-1.5062 1.0446-1.2815-1.7888 1.5037-1.045zm-1.425-1.9858-1.5047 1.0436-1.2154-1.6959 1.5027-1.0432zm-1.3589-1.8928-1.5034 1.0437-1.2758-1.7793 1.5027-1.0432zm-1.4179-1.9761-1.5027 1.0432-1.2168-1.6961 1.5027-1.0432zm-1.3587-1.8942-1.5015 1.0435-1.1973-1.6693 1.5025-1.0419zm-1.3377-1.865-1.5025 1.0419-1.2257-1.71 1.5023-1.0407zm-1.3684-1.9076-1.5018 1.0415-1.2167-1.6961 1.501-1.0409zm-1.3595-1.8936-1.501 1.0409-1.1874-1.6571 1.5008-1.0396zm-1.3278-1.8529-1.502 1.0394-1.2187-1.7003 1.5022-1.0362zm-1.3605-1.8951-1.2927.8928c.151-.6468.363-1.2498.6356-1.8066zm18.5345 21.8247c-.9094.4213-1.6595.6378-2.0526.7312l-1.0399-1.4483 1.7223-1.1914zm-1.5109-2.1063-1.7236 1.1912-1.2388-1.7267 1.7212-1.1929zm-1.3826-1.9257-1.7207 1.1937-1.2652-1.7632 1.7202-1.1944zm-1.4077-1.9619-1.7202 1.1944-1.2835-1.7886 1.7202-1.1943zm-1.425-1.9858-1.7194 1.1938-1.2168-1.6961 1.7187-1.1933zm-1.3589-1.8929-1.7195 1.1939-1.2765-1.7788 1.7195-1.1939zm-1.4172-1.9766-1.7195 1.1938-1.2167-1.6961 1.7187-1.1933zm-1.3597-1.8924-1.7192 1.1926-1.1968-1.6685 1.719-1.1913zm-1.3384-1.8645-1.7185 1.1921-1.2264-1.7095 1.719-1.1914zm-1.3679-1.9068-1.7185 1.1921-1.2159-1.6967 1.7177-1.1915zm-1.3595-1.8936-1.7177 1.1915-1.1871-1.6551 1.7191-1.188zm-1.3269-1.8502-1.7193 1.1893-1.2191-1.6978 1.7209-1.187zm-1.3597-1.8923-1.7207 1.1858-.731-1.0193c.3501-.6537.7876-1.2384 1.312-1.756zm19.8588 3.142-1.192.8279-1.3535-1.5981 1.191-.8261c.4421.4751.8989 1.0083 1.3545 1.5963zm-1.5249-1.7756-1.1776.8179-1.3284-1.5696.9986-.6936c.4557.3982.9686.8786 1.5074 1.4453zm-3.4477-2.9322.1026.0729c.0199.0119.6825.4279 1.6472 1.251l-.9652.6691-1.3628-1.614.5651-.3924c.0067.0077.0131.0134.0131.0134zm-2.0784-1.4127c.8881.5208 1.5454 1.0001 1.8649 1.2445l-.5242.3625-1.3512-1.5996zm2.6634 3.5455-1.0818.7496-1.2613-1.684.978-.6781zm-1.5214-1.8005-.9669.6715-1.2518-1.6693.8667-.6013zm-3.4614-2.8946c.105.0432.212.0861.3177.1334.4856.2088.9453.4336 1.365.6595l.2674.3167-.8539.5923-1.2142-1.6204zm-9.6402.9312c.5644-.384 1.1349-.7217 1.7055-1.0091l1.1852 1.6273-1.6374 1.1285zm1.3955 1.9435 1.6374-1.1285 1.2259 1.6806-1.6492 1.1403zm1.3566 1.8912 1.65-1.1408 1.1951 1.6394-1.661 1.1507zm1.3266 1.8481 1.6612-1.152 1.2282 1.6869-1.6725 1.1599zm1.3584 1.8921 1.6733-1.1604 1.2384 1.7011-1.6853 1.1688zm1.3691 1.907 1.6854-1.1688 1.2072 1.6578-1.6974 1.1773zm1.3367 1.8636 1.6983-1.1791 1.228 1.6882-1.7081 1.1859zm1.3583 1.8921 1.7104-1.1875 1.2897 1.7719-1.7225 1.1959zm1.4193 1.9763 1.723-1.1952 1.229 1.6864-1.7345 1.2044zm1.3574 1.894 1.7375-1.2066 1.2959 1.7821-1.7473 1.2134zm1.427 1.9855 1.7486-1.2132 1.2794 1.7577-1.7617 1.2201zm1.4075 1.9632 1.7648-1.2222 1.2531 1.7244-1.7756 1.2276zm-16.9235-19.619c.4886-.4544 1.0296-.8926 1.6106-1.3006l1.2544 1.7483-1.7006 1.1728zm1.3058 1.8178 1.7014-1.1734 1.2153 1.6926-1.7005 1.1761zm1.3577 1.8926 1.6997-1.1756 1.1846 1.6501-1.6981 1.1779zm1.3282 1.8504 1.6981-1.1778 1.2162 1.6953-1.6981 1.1778zm1.3582 1.8934 1.6981-1.1778 1.2279 1.7084-1.6981 1.1778zm1.3686 1.9062 1.6976-1.1785 1.1972 1.666-1.6984 1.179zm1.3384 1.8646 1.6984-1.1791 1.2167 1.6961-1.6981 1.1778zm1.359 1.8928 1.697-1.1793 1.2765 1.7789-1.6976 1.1785zm1.4185 1.9769 1.6983-1.1791 1.2167 1.6961-1.6991 1.1796zm1.3576 1.8926 1.6983-1.1791 1.2841 1.7893-1.6984 1.1791zm1.4255 1.9866 1.6989-1.1784 1.2675 1.7649-1.6989 1.1784zm1.4077 1.9619 1.7002-1.1781 1.2415 1.7304-1.7005 1.1761zm2.7755 3.8655-1.394-1.9413 1.7011-1.1754 1.4726 2.0502c-.6153.4454-1.2229.7945-1.7797 1.0665zm1.9785-1.2058-1.4714-2.0486 1.7773-1.2299 1.3893 1.9097c-.4623.4483-1.028.923-1.6952 1.3688zm-16.0407-26.1559c.6396-.3065 1.3127-.5196 2.0192-.6394l.8006 1.0984-1.6564 1.143zm1.3077 1.7984 1.6554-1.1411 1.2216 1.6792-1.6546 1.1439zm1.3667 1.8785 1.6517-1.1431 1.1953 1.6382-1.6537 1.1467zm1.3375 1.8382 1.6535-1.1454 1.2277 1.6861-1.6529 1.1462zm1.3697 1.8842 1.653-1.1462 1.2392 1.7006-1.653 1.1462zm1.3829 1.8963 1.6509-1.1459 1.2075 1.6566-1.6519 1.1476zm1.3493 1.8558 1.6518-1.1476 1.2285 1.6856-1.6526 1.1482zm1.3704 1.8837 1.6526-1.1482 1.2896 1.7719-1.6531 1.1474zm1.4323 1.9661 1.6537-1.1467 1.2282 1.6869-1.6532 1.1475zm1.3694 1.8855 1.6532-1.1475 1.2981 1.7805-1.6531 1.1475zm1.4411 1.9767 1.6543-1.1459 1.2807 1.7579-1.6543 1.146zm1.4222 1.9552 1.6552-1.1477 1.2555 1.7262-1.6553 1.1444zm2.7621 3.7952-1.364-1.8747 1.6553-1.1445 1.0354 1.4201c-.2316.3451-.6673.9353-1.3267 1.5991zm-15.6218-25.2921c.6979-.0924 1.4231-.0906 2.1797.0004l-1.4524 1.0013zm.8715 1.1981 1.5016-1.0368 1.2233 1.6769-1.5005 1.0383zm1.3666 1.8752 1.5005-1.0384 1.194 1.638-1.5008 1.0396zm1.338 1.8356 1.4992-1.0385 1.2292 1.6851-1.5015 1.0401zm1.3697 1.8842 1.5009-1.0409 1.2402 1.6988-1.5032 1.0425zm1.3814 1.8973 1.5012-1.0421 1.2069 1.6558-1.5027 1.0432zm1.3476 1.8537 1.5027-1.0432 1.2292 1.6851-1.5042 1.0443zm1.3719 1.8826 1.5027-1.0432 1.2904 1.7713-1.5027 1.0433zm1.4341 1.9671 1.5027-1.0433 1.2298 1.6859-1.507 1.0451zm1.3703 1.8849 1.5064-1.0459 1.2972 1.7824-1.5055 1.044zm1.4396 1.9778 1.5062-1.0446 1.2799 1.7585-1.5057 1.0453zm1.4229 1.9547 1.507-1.0451 1.2588 1.7261-1.5089 1.0441zm2.422 3.188c-.0102.0173-.0266.0433-.0438.0745l-.978-1.3391 1.5089-1.0442.3785.5207c-.2348.5966-.5221 1.1929-.8656 1.7881zm-14.5357-23.3417c.6939.1124 1.4121.2976 2.1508.5583l.2101.2782-1.1635.8046zm1.3402 1.8386 1.1652-.8069 1.2157 1.6193-1.1895.8251zm1.3356 1.834 1.1911-.8262 1.2503 1.6704-1.2122.8409zm1.372 1.8826 1.2166-.8441 1.2633 1.6837-1.2415.8614zm1.3801 1.8971 1.2443-.8623 1.228 1.641-1.2646.8766zm1.3512 1.8522 1.2671-.8793 1.2503 1.6703-1.2898.8952zm1.3706 1.8824 1.2937-.8991 1.3137 1.755-1.3168.9142zm1.4339 1.9684 1.3208-.9181 1.2514 1.6718-1.3425.9321zm1.3712 1.8831 1.3472-.9366 1.3218 1.7662-1.3709.9509zm1.4424 1.977 1.3718-.9527 1.3074 1.7415-1.3987.9704zm3.1079 4.2658-.2837-.3862.5318-.3679c-.0729.2508-.158.5035-.2481.7541zm.3445-1.1168-.7717.5336-1.2565-1.7277 1.4-.9702.8361 1.1129c-.0511.35-.1196.7011-.2079 1.0514zm-8.9778-13.7142 1.0916-.7565 1.3277 1.5702-1.1898.8263zm1.3748 1.8346 1.2018-.8347 1.3527 1.5986-1.3042.9065zm1.3968 1.8653 1.3132-.9129 1.4213 1.6809-1.42.9864zm1.4612 1.948 1.4321-.9949 1.3521 1.6024-1.5328 1.0644zm1.396 1.8658 1.547-1.0731 1.430:8 1.6909-1.6531 1.1475zm3.6014 4.8025-.6789-.9064.7327-.5074c.0176.4703-.0035.9419-.0538 1.4138zm.0366-1.6981-.861.5983-1.3066-1.742 1.6639-1.1561.127.149c.2064.7142.3318 1.4324.3767 2.1508zm-.5646-2.7499-1.3255-1.5672.5478-.3802c.2811.6181.5431 1.2664.7777 1.9474zm-.883-2.17-.5998.4166-1.3551-1.6003.967-.6715c.3462.5827.6786 1.1996.9879 1.8552zm-2.1107-1.371-1.4227-1.6798 1.185-.8218c.4185.5555.835 1.1585 1.2346 1.8103z"/></g></svg>