<svg fill="none" height="179" viewBox="0 0 314 179" width="314" xmlns="http://www.w3.org/2000/svg" xmlns:xlink="http://www.w3.org/1999/xlink"><clipPath id="a"><path d="m92 9.66895h213v20h-213z"/></clipPath><path d="m1 8.66894c0-4.41828 3.58172-7.999995 8-7.999995h296c4.418 0 8 3.581725 8 8.000005v161.66205c0 4.418-3.582 8-8 8h-296c-4.41828 0-8-3.582-8-8z" fill="#1c8aa9" fill-opacity=".1"/><path d="m192.406 157.544h9.188c.845 0 1.531.686 1.531 1.531v9.188c0 .406-.161.795-.448 1.082-.288.288-.677.449-1.083.449h-9.188c-.406 0-.795-.161-1.083-.449-.287-.287-.448-.676-.448-1.082v-9.188c0-.845.686-1.531 1.531-1.531zm-.218 1.531v9.188c0 .12.098.218.218.218h9.188c.058 0 .113-.023.154-.064s.064-.096.064-.154v-9.188c0-.058-.023-.113-.064-.154-.041-.042-.096-.065-.154-.065h-9.188c-.058 0-.113.023-.154.065-.041.041-.064.096-.064.154zm8.119 3.089-3.937 3.937c-.123.123-.29.192-.464.192s-.34-.069-.464-.192l-1.75-1.75c-.115-.124-.178-.289-.176-.459.003-.17.072-.332.192-.452.121-.12.283-.189.453-.192s.335.06.459.176l1.286 1.286 3.474-3.474c.124-.115.289-.179.459-.176s.332.072.453.192c.12.121.189.283.192.453.002.17-.061.334-.177.459z" fill="#04162c" fill-opacity=".5"/><path d="m214.879 166.669h-1.475v-5.83h-3.149v5.83h-1.475v-7.046h6.099zm3.54.107c-1.587 0-2.593-1.02-2.593-2.724v-.01c0-1.685 1.026-2.715 2.593-2.715s2.593 1.021 2.593 2.715v.01c0 1.709-1.011 2.724-2.593 2.724zm.005-1.118c.698 0 1.138-.586 1.138-1.606v-.01c0-1.011-.45-1.597-1.143-1.597-.689 0-1.143.586-1.143 1.597v.01c0 1.025.445 1.606 1.148 1.606zm5.005-1.186h-.171v2.197h-1.426v-5.234h1.426v2.055h.171l1.606-2.055h1.621l-1.992 2.426 2.114 2.808h-1.714zm5.449 2.28c-1.05 0-1.763-.659-1.763-1.582v-.01c0-.952.738-1.509 2.041-1.592l1.294-.078v-.322c0-.464-.303-.752-.864-.752-.532 0-.85.249-.923.586l-.01.044h-1.303l.004-.059c.079-.966.909-1.66 2.295-1.66 1.348 0 2.227.698 2.227 1.753v3.589h-1.426v-.781h-.029c-.303.537-.859.864-1.543.864zm-.352-1.655c0 .385.323.615.811.615.64 0 1.113-.41 1.113-.957v-.376l-1.079.068c-.552.034-.845.269-.845.64zm6.48 1.679c-1.372 0-2.246-.62-2.354-1.674l-.005-.049h1.353l.015.053c.107.396.444.591.981.591.552 0 .879-.229.879-.62v-.01c0-.4-.298-.6-.898-.6h-.708v-.889h.698c.532 0 .801-.2.801-.581v-.01c0-.366-.284-.581-.762-.581-.503 0-.816.2-.889.586l-.005.039h-1.333l.005-.039c.137-1.079.928-1.665 2.261-1.665 1.313 0 2.109.557 2.109 1.475v.01c0 .566-.351.976-.962 1.113v.039c.718.132 1.104.542 1.104 1.167v.01c0 .986-.903 1.635-2.29 1.635zm4.702-.024c-1.05 0-1.763-.659-1.763-1.582v-.01c0-.952.738-1.509 2.041-1.592l1.294-.078v-.322c0-.464-.302-.752-.864-.752-.532 0-.85.249-.923.586l-.01.044h-1.303l.005-.059c.078-.966.908-1.66 2.294-1.66 1.348 0 2.227.698 2.227 1.753v3.589h-1.426v-.781h-.029c-.303.537-.859.864-1.543.864zm-.352-1.655c0 .385.323.615.811.615.64 0 1.113-.41 1.113-.957v-.376l-1.079.068c-.552.034-.845.269-.845.64zm8.545-3.662v1.079h-1.557v4.155h-1.426v-4.155h-1.558v-1.079zm.728 5.234v-5.234h1.426v1.513h1.015c1.236 0 2.027.723 2.027 1.856v.009c0 1.133-.791 1.856-2.027 1.856zm2.183-2.647h-.757v1.573h.757c.512 0 .834-.308.834-.782v-.009c0-.479-.322-.782-.834-.782zm5.063 2.647v-5.234h4.805v5.234h-1.426v-4.16h-1.953v4.16zm8.203.107c-1.606 0-2.578-1.04-2.578-2.714v-.005c0-1.665.981-2.73 2.52-2.73 1.533 0 2.49 1.04 2.49 2.622v.44h-3.604c.02.835.474 1.323 1.201 1.323.586 0 .943-.322 1.04-.615l.01-.03h1.309l-.01.054c-.166.772-.889 1.655-2.378 1.655zm-.034-4.384c-.591 0-1.025.39-1.118 1.098h2.217c-.088-.722-.513-1.098-1.099-1.098zm3.276 5.986v-6.943h1.426v.913h.029c.288-.635.855-1.021 1.602-1.021 1.328 0 2.134 1.016 2.134 2.72v.005c0 1.699-.806 2.724-2.115 2.724-.751 0-1.337-.38-1.621-1.001h-.029v2.603zm2.583-2.783c.713 0 1.158-.591 1.158-1.543v-.005c0-.957-.45-1.538-1.158-1.538-.688 0-1.167.595-1.167 1.543v.005c0 .942.479 1.538 1.167 1.538zm5.806 1.181c-1.606 0-2.578-1.04-2.578-2.714v-.005c0-1.665.981-2.73 2.519-2.73 1.534 0 2.491 1.04 2.491 2.622v.44h-3.604c.02.835.474 1.323 1.201 1.323.586 0 .943-.322 1.04-.615l.01-.03h1.309l-.01.054c-.166.772-.889 1.655-2.378 1.655zm-.034-4.384c-.591 0-1.026.39-1.118 1.098h2.216c-.087-.722-.512-1.098-1.098-1.098zm3.276 5.986v-6.943h1.426v.913h.029c.288-.635.855-1.021 1.602-1.021 1.328 0 2.134 1.016 2.134 2.72v.005c0 1.699-.806 2.724-2.115 2.724-.752 0-1.338-.38-1.621-1.001h-.029v2.603zm2.583-2.783c.713 0 1.157-.591 1.157-1.543v-.005c0-.957-.449-1.538-1.157-1.538-.688 0-1.167.595-1.167 1.543v.005c0 .942.479 1.538 1.167 1.538zm3.433 1.074v-5.234h1.426v1.513h1.015c1.236 0 2.027.723 2.027 1.856v.009c0 1.133-.791 1.856-2.027 1.856zm5.024 0v-5.234h1.426v5.234zm-2.842-2.647h-.756v1.573h.756c.513 0 .835-.308.835-.782v-.009c0-.479-.322-.782-.835-.782zm5.289 2.647v-5.234h2.622c1.088 0 1.743.498 1.743 1.323v.01c0 .556-.41 1.044-.948 1.128v.039c.699.087 1.182.566 1.182 1.215v.01c0 .913-.742 1.509-1.929 1.509zm1.401-3.13h.762c.522 0 .8-.2.8-.591v-.01c0-.385-.258-.59-.727-.59h-.835zm0 2.212h.864c.557 0 .864-.23.864-.679v-.01c0-.439-.322-.649-.927-.649h-.801zm4.057.918v-5.234h1.426v1.513h1.016c1.235 0 2.026.723 2.026 1.856v.009c0 1.133-.791 1.856-2.026 1.856zm5.025 0v-5.234h1.426v5.234zm-2.842-2.647h-.757v1.573h.757c.513 0 .835-.308.835-.782v-.009c0-.479-.322-.782-.835-.782z" fill="#04162c" fill-opacity=".5"/><path d="m2.9502 125.561c11.85 0 11.85-26.8545 23.7-26.8545s11.85 38.0435 23.7 38.0435 11.85-82.8003 23.7-82.8003 11.85 17.9027 23.7 17.9027c11.8498 0 11.8498 42.5186 23.6998 42.5186s11.85-4.475 23.7-4.475 11.85-33.5679 23.7-33.5679 11.85 29.0919 23.7 29.0919 11.85-26.8541 23.7-26.8541 11.85 8.9514 23.7 8.9514 11.85-20.1406 23.7-20.1406 11.85-2.2378 23.7-2.2378 11.85 55.9461 23.7 55.9461" stroke="#213551"/><g fill="#213551" stroke="#eff2f4"><circle cx="2.5" cy="124.85" r="2"/><circle cx="26.5" cy="98.8496" r="2"/><circle cx="49.5" cy="136.85" r="2"/><circle cx="73.5" cy="53.8496" r="2"/><circle cx="97.5" cy="71.8496" r="2"/><circle cx="121.5" cy="113.85" r="2"/><circle cx="144.5" cy="109.85" r="2"/><circle cx="168.5" cy="75.8496" r="2"/><circle cx="192.5" cy="104.85" r="2"/><circle cx="216.5" cy="77.8496" r="2"/><circle cx="239.5" cy="86.8496" r="2"/><circle cx="263.5" cy="66.8496" r="2"/><circle cx="287.5" cy="64.8496" r="2"/><circle cx="311.5" cy="120.85" r="2"/></g><g clip-path="url(#a)"><rect fill="#1c8aa9" height="20" rx="4" width="102" x="92" y="9.66895"/><path d="m106.887 22.6689h-1.475v-5.83h-3.149v5.83h-1.475v-7.0459h6.099zm3.54.1075c-1.587 0-2.593-1.0205-2.593-2.7246v-.0098c0-1.6846 1.025-2.7149 2.593-2.7149 1.567 0 2.593 1.0206 2.593 2.7149v.0098c0 1.7089-1.011 2.7246-2.593 2.7246zm.005-1.1182c.698 0 1.137-.5859 1.137-1.6064v-.0098c0-1.0108-.449-1.5967-1.142-1.5967-.689 0-1.143.5859-1.143 1.5967v.0098c0 1.0253.445 1.6064 1.148 1.6064zm5.786 1.1182c-1.592 0-2.583-1.0401-2.583-2.7295v-.0049c0-1.6748 1.001-2.7149 2.573-2.7149 1.416 0 2.319.8741 2.373 2.0069l.005.0342h-1.328l-.005-.044c-.088-.498-.44-.8789-1.025-.8789-.704 0-1.143.6006-1.143 1.6016v.0049c0 1.0253.439 1.6064 1.147 1.6064.572 0 .928-.3516 1.021-.8789l.01-.0439h1.328l-.005.0292c-.068 1.1426-.967 2.0118-2.368 2.0118zm5.053-2.5342c-.092 1.5137-.478 2.4756-1.762 2.4756-.264 0-.449-.0391-.532-.0635v-1.1963c.058.0147.156.0293.288.0293.507 0 .678-.4248.732-1.3623l.156-2.6904h4.092v5.2343h-1.426v-4.1552h-1.44zm6.377 2.5342c-1.606 0-2.578-1.0401-2.578-2.7149v-.0049c0-1.665.982-2.7295 2.52-2.7295 1.533 0 2.49 1.0401 2.49 2.6221v.4395h-3.603c.019.8349.473 1.3232 1.201 1.3232.586 0 .942-.3223 1.04-.6152l.01-.0293h1.308l-.01.0537c-.166.7715-.888 1.6553-2.378 1.6553zm-.034-4.3848c-.591 0-1.025.3906-1.118 1.0986h2.217c-.088-.7226-.513-1.0986-1.099-1.0986zm4.092 5.6689h-1.299v-2.4853h.401c.38-.2148.527-.8008.576-1.5088l.171-2.6318h4.189v4.1406h.781v2.4853h-1.298v-1.3916h-3.521zm2.612-2.4853v-3.0469h-1.562l-.117 1.6309c-.035.5615-.147 1.0303-.391 1.3867v.0293zm6.28 1.0937v-2.1435h-2.002v2.1435h-1.426v-5.2343h1.426v2.0117h2.002v-2.0117h1.425v5.2343zm2.451 0v-5.2343h1.401v3.2666h.049l2.065-3.2666h1.397v5.2343h-1.401v-3.3105h-.054l-2.061 3.3105zm8.31.1075c-1.606 0-2.578-1.0401-2.578-2.7149v-.0049c0-1.665.982-2.7295 2.52-2.7295 1.533 0 2.49 1.0401 2.49 2.6221v.4395h-3.603c.019.8349.473 1.3232 1.201 1.3232.586 0 .942-.3223 1.04-.6152l.009-.0293h1.309l-.01.0537c-.166.7715-.888 1.6553-2.378 1.6553zm-.034-4.3848c-.591 0-1.025.3906-1.118 1.0986h2.217c-.088-.7226-.513-1.0986-1.099-1.0986zm7.017 4.2773v-5.6933h-.03l-1.796 1.2207v-1.3086l1.821-1.2647h1.465v7.0459zm5.825.1221c-1.787 0-2.871-1.4014-2.871-3.6426v-.0097c0-2.2412 1.084-3.6377 2.871-3.6377s2.871 1.3965 2.871 3.6377v.0097c0 2.2412-1.084 3.6426-2.871 3.6426zm0-1.1816c.879 0 1.382-.9131 1.382-2.461v-.0097c0-1.5479-.503-2.4561-1.382-2.4561s-1.382.9082-1.382 2.4561v.0097c0 1.5479.503 2.461 1.382 2.461zm5.776 1.0595v-5.2343h1.402v3.2666h.049l2.065-3.2666h1.396v5.2343h-1.401v-3.3105h-.054l-2.06 3.3105zm9.585-4.1601h-2.221v4.1601h-1.426v-5.2343h3.647zm.816 5.8691v-6.9433h1.426v.9131h.029c.288-.6348.854-1.0206 1.601-1.0206 1.329 0 2.134 1.0157 2.134 2.7198v.0049c0 1.6992-.805 2.7246-2.114 2.7246-.752 0-1.338-.3809-1.621-1.001h-.029v2.6025zm2.583-2.7832c.713 0 1.157-.5908 1.157-1.5429v-.0049c0-.9571-.449-1.5381-1.157-1.5381-.689 0-1.167.5957-1.167 1.543v.0048c0 .9424.478 1.5381 1.167 1.5381z" fill="#fff"/><rect fill="#213551" fill-opacity=".1" height="20" rx="4" width="32" x="202" y="9.66895"/><path d="m211.911 22.6689h-.879v-7.0459h4.18v.7911h-3.301zm5.401.0977c-1.412 0-2.354-1.0205-2.354-2.6367v-.0098c0-1.6162.947-2.6269 2.349-2.6269 1.401 0 2.353 1.0058 2.353 2.6269v.0098c0 1.6211-.947 2.6367-2.348 2.6367zm.004-.752c.894 0 1.475-.6933 1.475-1.8847v-.0098c0-1.1914-.586-1.875-1.484-1.875-.884 0-1.48.6885-1.48 1.875v.0098c0 1.1963.591 1.8847 1.489 1.8847zm3.487 2.0459h-.791v-2.0947h.425c.371-.2441.551-.874.6-1.5576l.195-2.8174h3.497v4.375h.805v2.0947h-.791v-1.3916h-3.94zm3.076-2.0947v-3.6719h-1.9l-.156 2.1338c-.044.6397-.176 1.1914-.429 1.5186v.0195z" fill="#04162c" fill-opacity=".5"/><rect fill="#213551" fill-opacity=".1" height="20" rx="4" width="63" x="242" y="9.66895"/><path d="m251.22 22.6689v-7.0459h2.671c1.206 0 2.021.7032 2.021 1.7579v.0097c0 .7276-.547 1.4356-1.274 1.5381v.0195c1.015.1172 1.631.8008 1.631 1.7334v.0098c0 1.2402-.889 1.9775-2.388 1.9775zm2.47-6.2695h-1.591v2.2608h1.318c1.04 0 1.606-.4151 1.606-1.1768v-.0098c0-.6933-.483-1.0742-1.333-1.0742zm-.024 3.0176h-1.567v2.4756h1.65c1.055 0 1.616-.4248 1.616-1.2354v-.0097c0-.8155-.576-1.2305-1.699-1.2305zm5.669 3.3496c-1.44 0-2.354-1.0254-2.354-2.6416v-.0049c0-1.6015.933-2.6269 2.344-2.6269 1.265 0 2.012.8398 2.119 1.7089l.005.0391h-.83l-.01-.0391c-.127-.5078-.537-.957-1.284-.957-.884 0-1.474.7324-1.474 1.8848v.0049c0 1.1816.605 1.8798 1.484 1.8798.693 0 1.138-.3906 1.279-.957l.01-.039h.835l-.005.0341c-.137.9668-.972 1.7139-2.119 1.7139zm4.16-6.0156c-.273 0-.493-.2198-.493-.4932s.22-.4883.493-.4883c.274 0 .488.2149.488.4883s-.214.4932-.488.4932zm1.817 0c-.269 0-.489-.2198-.489-.4932s.22-.4883.489-.4883c.278 0 .493.2149.493.4883s-.215.4932-.493.4932zm-.884 6.0156c-1.46 0-2.339-1.0205-2.339-2.6172v-.0049c0-1.5722.898-2.6513 2.285-2.6513s2.231 1.0302 2.231 2.5537v.3125h-3.657c.02 1.0449.596 1.6552 1.499 1.6552.645 0 1.099-.3222 1.245-.7568l.015-.0439h.835l-.01.0488c-.166.8398-.996 1.5039-2.104 1.5039zm-.059-4.5215c-.737 0-1.313.5029-1.406 1.4502h2.778c-.083-.9863-.63-1.4502-1.372-1.4502zm5.239 4.4238v-5.0781h2.173c.952 0 1.533.503 1.533 1.3086v.0098c0 .5224-.366 1.001-.835 1.0986v.0391c.64.0879 1.06.5371 1.06 1.1572v.0098c0 .8935-.664 1.455-1.743 1.455zm.85-2.9541h1.069c.64 0 .943-.2294.943-.7177v-.0098c0-.4541-.283-.6934-.816-.6934h-1.196zm0 2.251h1.265c.615 0 .947-.2637.947-.7715v-.0097c0-.5225-.357-.7666-1.099-.7666h-1.113zm4.058 2.4121v-6.7871h.849v.8594h.02c.317-.5908.884-.957 1.611-.957 1.299 0 2.158 1.0351 2.158 2.6367v.0049c0 1.6015-.869 2.6318-2.143 2.6318-.718 0-1.309-.3613-1.626-.9473h-.02v2.5586zm2.314-2.3633c.899 0 1.455-.7226 1.455-1.8798v-.0049c0-1.167-.556-1.8848-1.455-1.8848-.859 0-1.47.7471-1.47 1.8848v.0049c0 1.1328.616 1.8798 1.47 1.8798zm5.371.752c-1.46 0-2.339-1.0205-2.339-2.6172v-.0049c0-1.5722.899-2.6513 2.285-2.6513 1.387 0 2.232 1.0302 2.232 2.5537v.3125h-3.657c.019 1.0449.595 1.6552 1.499 1.6552.644 0 1.098-.3222 1.245-.7568l.014-.0439h.835l-.009.0488c-.166.8398-.996 1.5039-2.105 1.5039zm-.058-4.5215c-.738 0-1.314.5029-1.407 1.4502h2.779c-.083-.9863-.63-1.4502-1.372-1.4502zm4.038 4.4238h-.85v-5.0781h1.04l1.797 3.9551h.039l1.812-3.9551h.996v5.0781h-.85v-3.6035h-.034l-1.636 3.4571h-.649l-1.631-3.4571h-.034zm8.886 0v-1.8066h-.952l-1.289 1.8066h-.981l1.416-1.9628c-.718-.2051-1.153-.7325-1.153-1.4258v-.0098c0-1.04.752-1.6797 1.919-1.6797h1.89v5.0781zm-1.035-2.5097h1.035v-1.8653h-1.035c-.659 0-1.054.3565-1.054.962v.0097c0 .5225.4.8936 1.054.8936z" fill="#04162c" fill-opacity=".5"/></g></svg>