<svg width="65" height="65" viewBox="0 0 65 65" fill="none" xmlns="http://www.w3.org/2000/svg">
<rect width="64" height="64" transform="translate(0.5 0.578857)" fill="#0B1F3A"/>
<path d="M15.2059 13.5789C16.4192 13.5789 17.3992 13.7055 18.1459 13.9589C18.9059 14.1989 19.4592 14.6189 19.8059 15.2189C20.1659 15.8055 20.3459 16.6255 20.3459 17.6789C20.3459 18.3189 20.2592 18.8855 20.0859 19.3789C19.9259 19.8589 19.6525 20.2455 19.2659 20.5389C18.8792 20.8322 18.3525 21.0189 17.6859 21.0989V21.1989C17.9259 21.2389 18.1725 21.3322 18.4259 21.4789C18.6925 21.6255 18.9392 21.8455 19.1659 22.1389C19.3925 22.4189 19.5592 22.7989 19.6659 23.2789L20.8659 27.5789H17.6459L16.5859 23.3789C16.4659 22.9255 16.2859 22.6122 16.0459 22.4389C15.8192 22.2655 15.4992 22.1789 15.0859 22.1789C14.1792 22.1789 13.4125 22.1789 12.7859 22.1789C12.1725 22.1655 11.6525 22.1522 11.2259 22.1389C10.8125 22.1255 10.4392 22.1122 10.1059 22.0989L10.1659 19.8789H15.1459C15.6792 19.8789 16.0992 19.8255 16.4059 19.7189C16.7259 19.5989 16.9459 19.3922 17.0659 19.0989C17.1992 18.8055 17.2659 18.3989 17.2659 17.8789C17.2659 17.3455 17.1992 16.9389 17.0659 16.6589C16.9459 16.3655 16.7259 16.1655 16.4059 16.0589C16.0992 15.9389 15.6792 15.8789 15.1459 15.8789C13.8925 15.8789 12.8325 15.8855 11.9659 15.8989C11.0992 15.9122 10.5059 15.9322 10.1859 15.9589L9.88586 13.7789C10.4459 13.7122 10.9725 13.6655 11.4659 13.6389C11.9592 13.6122 12.4992 13.5989 13.0859 13.5989C13.6725 13.5855 14.3792 13.5789 15.2059 13.5789ZM12.9059 13.7789V27.5789H9.88586V13.7789H12.9059ZM28.8388 13.7789V27.5789H25.7788V13.7789H28.8388ZM32.9988 13.7789V16.1789H21.6388V13.7789H32.9988ZM40.8701 13.7789V27.5789H37.8101V13.7789H40.8701ZM45.0301 13.7789V16.1789H33.6701V13.7789H45.0301ZM49.6813 13.7189C50.388 13.7189 51.108 13.7255 51.8413 13.7389C52.588 13.7389 53.3147 13.7589 54.0213 13.7989C54.7413 13.8255 55.408 13.8722 56.0213 13.9389L55.8613 16.1389H50.8613C50.5013 16.1389 50.228 16.2255 50.0413 16.3989C49.8547 16.5722 49.7613 16.8255 49.7613 17.1589V27.5789H46.7013V16.5389C46.7013 15.6855 46.9747 15.0055 47.5213 14.4989C48.068 13.9789 48.788 13.7189 49.6813 13.7189ZM47.0613 19.5589H55.1213V21.7189H47.0613V19.5589ZM19.7572 36.8369C20.4432 36.8369 21.0242 36.8579 21.5002 36.8999C21.9902 36.9279 22.4382 36.9769 22.8442 37.0469C23.2502 37.1169 23.6702 37.2149 24.1042 37.3409L23.8522 39.6929C23.3902 39.6649 22.9632 39.6439 22.5712 39.6299C22.1932 39.6159 21.7802 39.6089 21.3322 39.6089C20.8982 39.5949 20.3732 39.5879 19.7572 39.5879C19.0432 39.5879 18.4832 39.7279 18.0772 40.0079C17.6852 40.2879 17.4052 40.7779 17.2372 41.4779C17.0692 42.1639 16.9852 43.1159 16.9852 44.3339C16.9852 45.5519 17.0692 46.5109 17.2372 47.2109C17.4052 47.8969 17.6852 48.3799 18.0772 48.6599C18.4832 48.9399 19.0432 49.0799 19.7572 49.0799C20.7232 49.0799 21.5352 49.0659 22.1932 49.0379C22.8512 49.0099 23.5022 48.9609 24.1462 48.8909L24.4192 51.2429C23.7472 51.4529 23.0612 51.5999 22.3612 51.6839C21.6612 51.7819 20.7932 51.8309 19.7572 51.8309C18.2592 51.8309 17.0552 51.5929 16.1452 51.1169C15.2492 50.6269 14.5982 49.8359 14.1922 48.7439C13.8002 47.6519 13.6042 46.1819 13.6042 44.3339C13.6042 42.4859 13.8002 41.0159 14.1922 39.9239C14.5982 38.8319 15.2492 38.0479 16.1452 37.5719C17.0552 37.0819 18.2592 36.8369 19.7572 36.8369ZM38.0249 37.0889V45.8039C38.0249 47.2739 37.8429 48.4569 37.4789 49.3529C37.1149 50.2349 36.5129 50.8789 35.6729 51.2849C34.8469 51.6769 33.7409 51.8729 32.3549 51.8729C30.8849 51.8729 29.7089 51.6769 28.8269 51.2849C27.9449 50.8789 27.3079 50.2349 26.9159 49.3529C26.5239 48.4569 26.3279 47.2739 26.3279 45.8039V37.0889H29.5409V45.8039C29.5409 46.7139 29.6179 47.4279 29.7719 47.9459C29.9399 48.4499 30.2199 48.8069 30.6119 49.0169C31.0039 49.2269 31.5289 49.3319 32.1869 49.3319C32.8449 49.3319 33.3629 49.2269 33.7409 49.0169C34.1329 48.8069 34.4059 48.4499 34.5599 47.9459C34.7279 47.4279 34.8119 46.7139 34.8119 45.8039V37.0889H38.0249ZM46.3944 36.8789C47.7524 36.8789 48.8164 37.0189 49.5864 37.2989C50.3564 37.5789 50.9024 38.0619 51.2244 38.7479C51.5604 39.4339 51.7284 40.3929 51.7284 41.6249C51.7284 42.8569 51.5674 43.8159 51.2454 44.5019C50.9374 45.1879 50.4264 45.6709 49.7124 45.9509C48.9984 46.2169 48.0324 46.3499 46.8144 46.3499C46.1704 46.3499 45.5404 46.3219 44.9244 46.2659C44.3084 46.2099 43.7344 46.1399 43.2024 46.0559C42.6704 45.9719 42.2154 45.8879 41.8374 45.8039C41.4594 45.7059 41.2004 45.6149 41.0604 45.5309L41.1234 43.9349C41.9494 43.9349 42.8034 43.9349 43.6854 43.9349C44.5814 43.9349 45.4634 43.9349 46.3314 43.9349C46.8914 43.9209 47.3254 43.8509 47.6334 43.7249C47.9554 43.5989 48.1794 43.3679 48.3054 43.0319C48.4454 42.6959 48.5154 42.2269 48.5154 41.6249C48.5154 41.0089 48.4454 40.5329 48.3054 40.1969C48.1794 39.8609 47.9554 39.6299 47.6334 39.5039C47.3254 39.3639 46.8914 39.2939 46.3314 39.2939C45.0434 39.2939 43.9374 39.3009 43.0134 39.3149C42.0894 39.3289 41.4664 39.3569 41.1444 39.3989L40.8294 37.0889C41.4174 37.0189 41.9704 36.9699 42.4884 36.9419C43.0064 36.9139 43.5664 36.8999 44.1684 36.8999C44.7844 36.8859 45.5264 36.8789 46.3944 36.8789ZM44.0424 37.0889V51.5789H40.8294V37.0889H44.0424Z" fill="url(#paint0_radial_10256_15447)"/>
<defs>
<radialGradient id="paint0_radial_10256_15447" cx="0" cy="0" r="1" gradientUnits="userSpaceOnUse" gradientTransform="translate(16.7141 32.5789) rotate(36.3722) scale(40.4702 55.4783)">
<stop stop-color="#51C276"/>
<stop offset="0.383862" stop-color="#47A99D"/>
<stop offset="1" stop-color="#3783D7"/>
</radialGradient>
</defs>
</svg>
