<svg fill="none" height="16" viewBox="0 0 16 16" width="16" xmlns="http://www.w3.org/2000/svg"><path d="m13.1363 9.43175.5153-.266-.5696-.96275-.5153.266c-.3951.20418-.7452.47649-1.0317.8025l-2.3572-1.2715 2.3575-1.2715c.2865.32601.6365.59832 1.0316.8025l.5153.266.5697-.96275-.5153-.266c-.2069-.10672-.3958-.24152-.5603-.4l1.4198-.767-.5889-.95125-1.4187.7645c-.0651-.21247-.096-.4328-.0916-.65375l.011-.55-1.1778-.0205-.011.55c-.0083.42129.0688.84024.2273 1.23475l-2.3575 1.27225v-2.54275c.44544-.06881.87288-.21582 1.25972-.43325l.50428-.28375-.60788-.94225-.50431.28375c-.20272.11384-.42237.19901-.65181.25275v-1.38175h-1.1778v1.38175c-.22944-.05374-.44909-.13891-.65181-.25275l-.50431-.28375-.60791.94225.50431.28375c.38684.21743.81428.36444 1.25972.43325v2.54275l-2.35748-1.27225c.15895-.39476.23643-.81407.22833-1.23575l-.01098-.55-1.1778.0205.01098.55c.00438.22095-.02647.44128-.09155.65375l-1.41979-.7635-.5889.9525 1.42005.766c-.16454.15848-.35335.29328-.56026.4l-.51529.26575.56963.96275.51529-.266c.39511-.20418.74518-.47649 1.03165-.8025l2.35722 1.2715-2.35749 1.2715c-.28647-.32601-.63653-.59832-1.03165-.8025l-.51502-.266-.56963.96275.51529.266c.20691.10672.39572.24152.56026.4l-1.42005.76825.5889.9525 1.42006-.7657c.06508.2124.09593.4327.09154.6537l-.01097.55 1.1778.0205.01098-.55c.00804-.4218-.06952-.8412-.2286-1.236l2.35748-1.27225v2.54275c-.44544.0688-.87288.2158-1.25972.4333l-.50431.2837.60791.9422.50431-.2837c.20272-.1138.42237-.199.65181-.2528v1.3818h1.1778v-1.3818c.22944.0538.44909.139.65181.2528l.50431.2837.60788-.9422-.50428-.2837c-.38684-.2175-.81428-.3645-1.25972-.4333v-2.54275l2.3575 1.27225c-.159.3948-.2364.8141-.2283 1.2357l.0109.55 1.1778-.0205-.0109-.55c-.0042-.2213.027-.442.0926-.6547l1.4187.7657.5889-.9512-1.4187-.76725c.164-.15873.3524-.29387.5589-.401z" fill="#408053" stroke="#408053" stroke-linejoin="round" stroke-width=".3"/></svg>