<svg fill="none" height="16" viewBox="0 0 16 16" width="16" xmlns="http://www.w3.org/2000/svg"><g fill="#408053"><path d="m7.4742 9.50586c.44512.00016.88028-.13168 1.25045-.37885.37018-.24717.65872-.59856.82913-1.00973.17042-.41117.21505-.86364.12825-1.30017-.0868-.43654-.30112-.83752-.61587-1.15224s-.71577-.52903-1.15235-.61582c-.43657-.08679-.88908-.04216-1.30029.12824-.4112.1704-.76263.45891-1.00982.82905s-.37905.80527-.37888 1.25034c0 .59652.23698 1.16861.65882 1.59041.42185.4218.99398.65877 1.59056.65877zm0 1.12454c-1.50179.0009-4.49959.7542-4.49959 2.2509v1.1246h8.99999v-1.1246c0-1.4967-2.99779-2.2509-4.5004-2.2509z"/><path clip-rule="evenodd" d="m11.5 1.00293c.2761 0 .5.22386.5.5v1.5h1.5c.2761 0 .5.22386.5.5s-.2239.5-.5.5h-1.5v1.5c0 .27614-.2239.5-.5.5s-.5-.22386-.5-.5v-1.5h-1.5c-.27614 0-.5-.22386-.5-.5s.22386-.5.5-.5h1.5v-1.5c0-.27614.2239-.5.5-.5z" fill-rule="evenodd"/></g></svg>