<svg fill="none" height="24" viewBox="0 0 24 24" width="24" xmlns="http://www.w3.org/2000/svg"><g fill="#fff"><path d="m11.2103 14.254c.6677.0002 1.3204-.1976 1.8757-.5683.5553-.3708.9881-.8979 1.2437-1.5146.2556-.6168.3226-1.2955.1924-1.9503-.1302-.65476-.4517-1.25624-.9238-1.72832-.4722-.47207-1.0737-.79354-1.7286-.92372-.6548-.13019-1.3336-.06325-1.95039.19235-.61681.2556-1.14395.68838-1.51474 1.24358-.37079.55521-.56857 1.20791-.56832 1.87551 0 .8948.35548 1.7529.98824 2.3856s1.49101.9882 2.38581.9882zm0 1.6868c-2.25266.0013-6.74936 1.1312-6.74936 3.3763v1.6869h13.49996v-1.6869c0-2.2451-4.4967-3.3763-6.7506-3.3763z"/><path clip-rule="evenodd" d="m17.25 1.5c.4142 0 .75.33579.75.75v2.25h2.25c.4142 0 .75.33579.75.75s-.3358.75-.75.75h-2.25v2.25c0 .41421-.3358.75-.75.75s-.75-.33579-.75-.75v-2.25h-2.25c-.4142 0-.75-.33579-.75-.75s.3358-.75.75-.75h2.25v-2.25c0-.41421.3358-.75.75-.75z" fill-rule="evenodd"/></g></svg>