<svg fill="none" height="14" viewBox="0 0 14 14" width="14" xmlns="http://www.w3.org/2000/svg" xmlns:xlink="http://www.w3.org/1999/xlink"><filter id="a" color-interpolation-filters="sRGB" filterUnits="userSpaceOnUse" height="484" width="300" x="-32" y="-373"><feFlood flood-opacity="0" result="BackgroundImageFix"/><feColorMatrix in="SourceAlpha" result="hardAlpha" type="matrix" values="0 0 0 0 0 0 0 0 0 0 0 0 0 0 0 0 0 0 127 0"/><feOffset dy="4"/><feGaussianBlur stdDeviation="8"/><feComposite in2="hardAlpha" operator="out"/><feColorMatrix type="matrix" values="0 0 0 0 0.141176 0 0 0 0 0.223529 0 0 0 0 0.337255 0 0 0 0.15 0"/><feBlend in2="BackgroundImageFix" mode="normal" result="effect1_dropShadow_0_1"/><feBlend in="SourceGraphic" in2="effect1_dropShadow_0_1" mode="normal" result="shape"/></filter><clipPath id="b"><path d="m-32-394h345v501h-345z"/></clipPath><path d="m0 0h14v14h-14z" fill="#1e1e1e"/><path d="m-812-2370c0-1.1.895-2 2-2h2880c1.1 0 2 .9 2 2v12660c0 1.1-.9 2-2 2h-2880c-1.105 0-2-.9-2-2z" fill="#404040"/><path d="m-810-2371h2880v-2h-2880zm2881 1v12660h2v-12660zm-1 12661h-2880v2h2880zm-2881-1v-12660h-2v12660zm1 1c-.552 0-1-.4-1-1h-2c0 1.7 1.343 3 3 3zm2881-1c0 .6-.45 1-1 1v2c1.66 0 3-1.3 3-3zm-1-12661c.55 0 1 .45 1 1h2c0-1.66-1.34-3-3-3zm-2880-2c-1.657 0-3 1.34-3 3h2c0-.55.448-1 1-1z" fill="#fff" fill-opacity=".1"/><path d="m-39-2205h360v799h-360z" fill="#e5e9ec"/><rect fill="#fff" height="573" rx="8" width="345" x="-32" y="-450"/><g clip-path="url(#b)"><g filter="url(#a)"><rect fill="#fff" height="452" rx="8" width="268" x="-16" y="-361"/><rect height="451" rx="7.5" stroke="#213551" stroke-opacity=".1" width="267" x="-15.5" y="-360.5"/><g fill="#408053"><path d="m9.54936 9.9706c.16026.5198.1246.462.17805.5582-.26709.3273-.56982.5968-.90814.7893-.35611-.1925-.65886-.4427-.90814-.7893.05345-.1154 0 .0385.16027-.53898.2315.17328.4808.26948.73009.26948.26709-.0192.53425-.1154.74789-.28872z"/><path d="m10.262 7.81449c-.089.96256-.74789 2.04051-1.4601 2.04051-.73009 0-1.37108-1.09726-1.4601-2.05981v-.01924c0-.03846 0-1.00101 1.08621-1.09725.10681-.03846.37389-.07702.60541-.07702.76566 0 1.24648.3273 1.22868 1.15505-.0001.03855-.0001.05778-.0001.05778z"/><path d="m7.18164 7.06381c0-.32729.07124-.63526.2315-.924.62319-1.03947 1.56701-.67372 2.40398-.67372.10682 0 .30278-.03846.39178.09624.0712.09625.0534.28875.0356.34652-.0178.09624.0178.17326.089.21172.2849.30797.3739.6545.2137 1.09726-.1958-.71229-.83689-.96256-1.51353-.96256-.32052 0-.58761.05778-.64107.07701-.67672.05779-1.03284.40421-1.21089.73151z"/><path d="m12.0959 11.9728v.8855c0 .0578-.0356.0962-.089.0962h-6.37482c-.05345 0-.08903-.0384-.08903-.0962l-.00008-.8855c0-.4813.32052-.847.71223-.924l1.33551-.2696c.01779 0 .01779-.0192.03557-.0192.30275.385.65887.6931 1.06842.9048.07124.0578.16026.0578.21372 0 .40957-.2117.76567-.5198 1.06841-.9048.01779 0 .01779.0192.03557.0192l1.3355.2696c.4274.077.748.4427.748.924z"/><path d="m3.94031 2.7518v-1.65561l-1.51355 1.63628z"/><path d="m8.24961 1.01923-3.95298-.01923-.01779 1.94424c0 .09625-.08903.19249-.17806.19249l-1.78073-.01914-.05345 6.08308c0 .11547.07124.19249.17806.19249l4.64742.03846c-.2493-.44277-.40957-.96255-.463-1.48224-.28487-.7315-.19585-1.54003.19584-2.21375.35612-.59681.94373-.98177 1.5848-1.0588l.01779-3.46512c.00016-.09625-.07107-.19258-.17789-.19258zm-3.63252 6.83382c0 .09625-.08903.1925-.17806.1925h-.89036c-.10682 0-.17806-.09625-.17806-.1925v-.96255c0-.09625.08903-.1925.17806-.1925h.89036c.10682 0 .17806.09625.17806.1925zm.01787-2.40628c0 .09625-.08903.1925-.17806.1925h-.89036c-.10682 0-.17806-.09625-.17806-.1925v-.96255c0-.11548.08903-.1925.17806-.1925h.89036c.10682 0 .17806.09625.17806.1925zm1.42453 2.1176h-.53417c-.10681 0-.17805-.07701-.17805-.19249s.07124-.1925.17805-.1925h.53417c.10681 0 .17805.07702.17805.1925s-.07123.19249-.17805.19249zm.71223-2.40628h-1.24648c-.10682 0-.17806-.07701-.17806-.19249s.07124-.19249.17806-.19249h1.24648c.10682 0 .17806.07701.17806.19249s-.07124.19249-.17806.19249zm.35612-2.02126h-1.60258c-.10681 0-.17806-.07701-.17806-.19249s.07124-.1925.17806-.1925h1.60258c.10681 0 .17805.07702.17805.1925 0 .11547-.07115.19249-.17805.19249z"/><path d="m4.27245 7.64635-.53417-.00381.00353-.57748.53416.00381z"/><path d="m4.28416 5.2462-.53416-.00381.00353-.57747.53416.00381z"/></g></g></g></svg>