<svg fill="none" height="36" viewBox="0 0 36 36" width="36" xmlns="http://www.w3.org/2000/svg"><rect fill="#408053" height="36" rx="8" width="36"/><path d="m17.8377 15.1471 3.0259 2.9937v-.1516c0-.7538-.3017-1.4767-.8387-2.0097s-1.2654-.8324-2.0249-.8324zm-4.1045.7579 1.4795 1.4684c-.0477.199-.0763.3979-.0763.6158 0 .7538.3017 1.4767.8387 2.0097s1.2654.8324 2.0249.8324c.21 0 .42-.0284.6205-.0758l1.4795 1.4684c-.6395.3127-1.3459.5021-2.1.5021-1.2658 0-2.4798-.499-3.3748-1.3873-.8951-.8884-1.3979-2.0932-1.3979-3.3495 0-.7484.1909-1.4495.5059-2.0842zm-5.27865-5.239 2.17635 2.16.4296.4264c-1.57505 1.2315-2.81595 2.8421-3.5605 4.7368 1.65136 4.159 5.7273 7.1053 10.5 7.1053 1.4795 0 2.8923-.2842 4.1809-.7958l.4105.3979 2.7872 2.7663 1.2123-1.2032-16.92408-16.79681m8.33318 3.78951c1.2658 0 2.4798.499 3.3748 1.3874.8951.8883 1.3979 2.0931 1.3979 3.3494 0 .6063-.1241 1.1937-.3436 1.7242l2.7968 2.7758c1.4318-1.1842 2.5773-2.7379 3.2741-4.5-1.6514-4.1589-5.7273-7.1053-10.5-7.1053-1.3364 0-2.6155.2369-3.8182.6632l2.0714 2.0368c.5441-.2084 1.1263-.3315 1.7468-.3315z" fill="#fff"/></svg>