<svg width="36" height="36" viewBox="0 0 36 36" fill="none" xmlns="http://www.w3.org/2000/svg">
<rect width="36" height="36" rx="8" fill="#408053"/>
<path d="M18 15.1363C17.2405 15.1363 16.5121 15.438 15.9751 15.975C15.4381 16.5121 15.1364 17.2404 15.1364 17.9999C15.1364 18.7594 15.4381 19.4878 15.9751 20.0248C16.5121 20.5618 17.2405 20.8635 18 20.8635C18.7595 20.8635 19.4879 20.5618 20.0249 20.0248C20.5619 19.4878 20.8636 18.7594 20.8636 17.9999C20.8636 17.2404 20.5619 16.5121 20.0249 15.975C19.4879 15.438 18.7595 15.1363 18 15.1363ZM18 22.7726C16.7342 22.7726 15.5202 22.2698 14.6252 21.3747C13.7301 20.4797 13.2273 19.2657 13.2273 17.9999C13.2273 16.7341 13.7301 15.5201 14.6252 14.6251C15.5202 13.73 16.7342 13.2272 18 13.2272C19.2658 13.2272 20.4798 13.73 21.3748 14.6251C22.2699 15.5201 22.7727 16.7341 22.7727 17.9999C22.7727 19.2657 22.2699 20.4797 21.3748 21.3747C20.4798 22.2698 19.2658 22.7726 18 22.7726ZM18 10.8408C13.2273 10.8408 9.15136 13.8095 7.5 17.9999C9.15136 22.1904 13.2273 25.159 18 25.159C22.7727 25.159 26.8486 22.1904 28.5 17.9999C26.8486 13.8095 22.7727 10.8408 18 10.8408Z" fill="white"/>
</svg>
