<svg width="36" height="36" viewBox="0 0 36 36" fill="none" xmlns="http://www.w3.org/2000/svg">
<rect width="36" height="36" rx="8" fill="#408053"/>
<path d="M26.4748 29.3L21.1748 24H9.9998C9.4498 24 8.97914 23.8043 8.5878 23.413C8.19647 23.0217 8.00047 22.5507 7.9998 22V10.825L6.6748 9.5L8.0998 8.075L27.8998 27.875L26.4748 29.3ZM27.9998 25.125L22.8748 20H23.9998V18H20.8748L19.8748 17H23.9998V15H17.8748L16.8748 14H23.9998V12H14.8748L10.8748 8H25.9998C26.5498 8 27.0208 8.196 27.4128 8.588C27.8048 8.98 28.0005 9.45067 27.9998 10V25.125ZM11.9998 20H17.1748L15.1748 18H11.9998V20ZM11.9998 17H14.1748L12.1748 15H11.9998V17Z" fill="white"/>
</svg>
