<svg fill="none" height="36" viewBox="0 0 36 36" width="36" xmlns="http://www.w3.org/2000/svg"><rect fill="#d94e4c" height="36" rx="8" width="36"/><path clip-rule="evenodd" d="m18.0091 20.1642 5.3882 5.3893c.286.2859.6738.4465 1.0781.4465s.7921-.1606 1.0781-.4465c.2859-.286.4465-.6737.4465-1.0781 0-.4043-.1606-.7921-.4465-1.078l-5.3903-5.3883 5.3892-5.3882c.1415-.1416.2538-.3096.3303-.4946.0766-.1849.116-.3831.1159-.5833 0-.2002-.0395-.3984-.1161-.5833-.0767-.1849-.189-.3529-.3306-.4944-.1415-.1415-.3096-.2537-.4945-.3303-.185-.0766-.3832-.1159-.5834-.1159-.2001.0001-.3983.0395-.5832.1162-.185.0766-.353.1889-.4945.3305l-5.3872 5.3882-5.3882-5.3882c-.1406-.1456-.3087-.2618-.4946-.3418-.1859-.0799-.3859-.1221-.5882-.1239-.2024-.00189-.4031.0366-.5905.1131-.1873.0766-.3575.1897-.5007.3327s-.2564.3131-.3331.5004c-.0768.1873-.11541.388-.1137.5903.0016.2024.0436.4024.1234.5884.0797.186.1958.3542.3413.4949l5.3902 5.3892-5.3892 5.3883c-.2859.2859-.4466.6737-.4466 1.078 0 .4044.1607.7921.4466 1.0781.2859.2859.6737.4465 1.078.4465.4044 0 .7922-.1606 1.0781-.4465l5.3872-5.3903z" fill="#f9f9f9" fill-rule="evenodd"/></svg>