<svg fill="none" height="36" viewBox="0 0 36 36" width="36" xmlns="http://www.w3.org/2000/svg" xmlns:xlink="http://www.w3.org/1999/xlink"><clipPath id="a"><path d="m6 6h24v24h-24z"/></clipPath><clipPath id="b"><rect height="12" rx="6" width="12" x="18" y="18"/></clipPath><rect fill="#408053" height="36" rx="8" width="36"/><g clip-path="url(#a)"><path d="m24 8c.5304 0 1.0391.21071 1.4142.58579.3751.37507.5858.88378.5858 1.41421v16c0 .5304-.2107 1.0391-.5858 1.4142s-.8838.5858-1.4142.5858h-12c-.5304 0-1.0391-.2107-1.4142-.5858s-.5858-.8838-.5858-1.4142v-16c0-.53043.2107-1.03914.5858-1.41421.3751-.37508.8838-.58579 1.4142-.58579zm-6 11h-3c-.2652 0-.5196.1054-.7071.2929s-.2929.4419-.2929.7071.1054.5196.2929.7071.4419.2929.7071.2929h3c.2652 0 .5196-.1054.7071-.2929s.2929-.4419.2929-.7071-.1054-.5196-.2929-.7071-.4419-.2929-.7071-.2929zm3-5h-6c-.2549.0003-.5.0979-.6854.2728-.1853.175-.2968.4142-.3118.6686-.0149.2544.0679.505.2315.7004.1636.1955.3956.3211.6487.3512l.117.007h6c.2549-.0003.5-.0979.6854-.2728.1853-.175.2968-.4142.3118-.6686.0149-.2544-.0679-.505-.2315-.7004-.1636-.1955-.3956-.3211-.6487-.3512z" fill="#fff"/><g clip-path="url(#b)"><rect fill="#408053" height="12" rx="6" width="12" x="18" y="18"/><path d="m24 19c-.6566 0-1.3068.1293-1.9134.3806s-1.1578.6196-1.6221 1.0839c-.9377.9376-1.4645 2.2094-1.4645 3.5355s.5268 2.5979 1.4645 3.5355c.4643.4643 1.0155.8326 1.6221 1.0839s1.2568.3806 1.9134.3806c1.3261 0 2.5979-.5268 3.5355-1.4645.9377-.9376 1.4645-2.2094 1.4645-3.5355 0-.6566-.1293-1.3068-.3806-1.9134s-.6196-1.1578-1.0839-1.6221-1.0155-.8326-1.6221-1.0839-1.2568-.3806-1.9134-.3806zm2.1524 6.8326c-.1203.1523-.3398.1815-.4958.066l-1.7425-1.2907c-.2546-.1886-.4048-.4867-.4048-.8036v-1.9482c0-.1985.161-.3595.3595-.3595s.3595.161.3595.3595v1.6257c0 .3231.1561.6262.419.8139l1.4318 1.0219c.167.1192.2004.3539.0733.515z" fill="#fff" stroke="#408053"/></g></g></svg>