<svg fill="none" height="36" viewBox="0 0 36 36" width="36" xmlns="http://www.w3.org/2000/svg"><rect fill="#408053" height="36" rx="8" width="36"/><g fill="#fff"><path d="m11.4891 28.0718h2.9037c.3825 0 .6924-.3099.6924-.6924 0-.3824-.3099-.6923-.6924-.6923h-2.9037c-1.0241 0-1.85735-.8609-1.85735-1.9189v-9.8503h16.75405v.4154c0 .3825.3098.6924.6923.6924s.6923-.3099.6923-.6924v-3.5854c0-1.80928-1.508-3.33774-3.2929-3.33774h-12.9884c-1.7876 0-3.24203 1.49737-3.24203 3.33774v13.0205c0 1.8214 1.45443 3.3034 3.24203 3.3034zm-1.85735-16.3239c0-1.0586.85045-1.95327 1.85735-1.95327h12.9884c1.0165 0 1.9083.91267 1.9083 1.95327v1.7854h-16.75405z"/><path d="m24.0318 11.1792h-.277c-.3824 0-.6923.3099-.6923.6923 0 .3825.3099.6924.6923.6924h.277c.3825 0 .6923-.3099.6923-.6924 0-.3824-.3098-.6923-.6923-.6923z"/><path d="m21.6783 11.1792h-.277c-.3824 0-.6923.3099-.6923.6923 0 .3825.3099.6924.6923.6924h.277c.3824 0 .6923-.3099.6923-.6924 0-.3824-.3101-.6923-.6923-.6923z"/><path d="m19.1851 11.1792h-.2769c-.3825 0-.6924.3099-.6924.6923 0 .3825.3099.6924.6924.6924h.2769c.3825 0 .6923-.3099.6923-.6924 0-.3824-.3098-.6923-.6923-.6923z"/><path d="m26.5969 20.8941-2.5226-2.4965.8309-.8322c.2276-.2278.5071-.3418.8387-.3418s.611.114.8381.3418l.831.8322c.2276.2278.3463.5029.3562.825.0098.3222-.099.597-.3265.8245zm-.8607.8767-6.2917 6.3007h-2.5226v-2.5262l6.2917-6.3007z"/></g></svg>