<svg fill="none" height="36" viewBox="0 0 36 36" width="36" xmlns="http://www.w3.org/2000/svg" xmlns:xlink="http://www.w3.org/1999/xlink"><clipPath id="a"><path d="m9 9h21v20h-21z"/></clipPath><rect fill="#1c8aa9" height="36" rx="8" width="36"/><g clip-path="url(#a)"><g fill="#fff"><path d="m14.1798 12.57h8.4675c.0475-.0005.0941-.0138.1352-.0384.0411-.0247.0753-.0598.0992-.1021s.0367-.0902.0372-.1391-.0114-.0971-.0344-.1399l-.6835-1.2338c-.4036-.7285-1.1004-1.16353-1.864-1.16353h-3.8469c-.7636 0-1.4605.43503-1.864 1.16353l-.6834 1.2338c-.0231.0428-.035.091-.0345.1399s.0133.0968.0372.1391.0581.0774.0992.1021c.0411.0246.0877.0379.1352.0384z"/><path d="m11.9824 26.3728h12.8621c.6514-.0008 1.2759-.2671 1.7365-.7406s.7197-1.1155.7204-1.7852v-7.7441c-.0007-.6696-.2598-1.3116-.7204-1.7851s-1.0851-.7399-1.7365-.7407h-12.8621c-.6514.0008-1.276.2672-1.7366.7407-.46058.4735-.71967 1.1155-.72041 1.7851v7.7441c.00074.6697.25983 1.3117.72041 1.7852.4606.4735 1.0852.7398 1.7366.7406zm11.1382-3.7045c.1493 0 .2953.0456.4194.1308.1242.0853.2209.2065.278.3483.0572.1418.0721.2979.043.4484s-.101.2888-.2066.3974c-.1056.1085-.2401.1824-.3865.2123-.1465.03-.2983.0146-.4362-.0441-.138-.0588-.2559-.1582-.3388-.2858-.083-.1277-.1272-.2777-.1272-.4312 0-.2058.0795-.4032.2211-.5488.1416-.1455.3336-.2273.5338-.2273zm-4.7072-6.0715c.7026 0 1.3895.2142 1.9737.6155s1.0396.9717 1.3085 1.639.3392 1.4016.2021 2.11c-.137.7085-.4754 1.3592-.9722 1.8699-.4969.5108-1.1299.8586-1.819.9995s-1.4035.0686-2.0526-.2078c-.6492-.2764-1.204-.7445-1.5944-1.3451-.3903-.6005-.5987-1.3066-.5987-2.0289 0-.9686.3743-1.8975 1.0406-2.5824.6662-.6849 1.5698-1.0697 2.512-1.0697zm-6.4073-.7956h1.4464"/><path d="m19.97 21.8493c.8597-.8838.8597-2.3168 0-3.2006-.8598-.8838-2.2537-.8838-3.1135 0-.8597.8838-.8597 2.3168 0 3.2006.8598.8838 2.2537.8838 3.1135 0z"/></g><circle cx="24" cy="25" fill="#1c8aa9" r="5"/><path d="m25.1602 22h-1.6641v2.4961h-2.4961v1.6641h2.4961v2.496h1.6641v-2.496h2.496v-1.6641h-2.496z" fill="#fff"/></g></svg>