<svg fill="none" height="36" viewBox="0 0 36 36" width="36" xmlns="http://www.w3.org/2000/svg"><rect fill="#408053" height="36" rx="8" width="36"/><g fill="#fff"><path d="m20 14h-10c-1.103 0-2 .897-2 2v10c0 1.103.897 2 2 2h10c1.103 0 2-.897 2-2v-10c0-1.103-.897-2-2-2z"/><path d="m26 8h-10c-.5304 0-1.0391.21071-1.4142.58579-.3751.37507-.5858.88378-.5858 1.41421v2h8c.5304 0 1.0391.2107 1.4142.5858s.5858.8838.5858 1.4142v8h2c.5304 0 1.0391-.2107 1.4142-.5858s.5858-.8838.5858-1.4142v-10c0-.53043-.2107-1.03914-.5858-1.41421-.3751-.37508-.8838-.58579-1.4142-.58579z"/></g></svg>