<svg fill="none" height="36" viewBox="0 0 36 36" width="36" xmlns="http://www.w3.org/2000/svg" xmlns:xlink="http://www.w3.org/1999/xlink"><clipPath id="a"><path d="m6 6h24v24h-24z"/></clipPath><rect fill="#408053" height="36" rx="8" width="36"/><g clip-path="url(#a)" fill="#fff"><path d="m26.3203 10.2637h-16.64061c-.91856 0-1.66407.7455-1.66407 1.664v11.6485c0 .9185.74551 1.664 1.66407 1.664h9.63991c-.0433-.2712-.0716-.5483-.0716-.832 0-2.987 2.4213-5.4082 5.4082-5.4082 1.2564 0 2.4096.4318 3.3282 1.1515v-8.2238c0-.9185-.7455-1.664-1.6641-1.664zm-9.9844 10.8164v-6.6563l4.9922 3.3282z"/><path d="m25.4883 21.0801h-1.6641v2.4961h-2.4961v1.664h2.4961v2.4961h1.6641v-2.4961h2.4961v-1.664h-2.4961z"/></g></svg>