<svg fill="none" height="120" viewBox="0 0 120 120" width="120" xmlns="http://www.w3.org/2000/svg" xmlns:xlink="http://www.w3.org/1999/xlink"><clipPath id="a"><path d="m0 0h120v120h-120z"/></clipPath><g clip-path="url(#a)"><path d="m0 0h120v120h-120z" fill="#fff"/><path clip-rule="evenodd" d="m0 4.93776 3.12763 3.12762 8.06847-8.06538h1.4145l-8.77586 8.77249 10.63276 10.63271 10.6087-10.6047-8.8005-8.8005h1.4143l8.0935 8.09353 8.0966-8.09353h1.4145l-8.804 8.80064 10.6327 10.63276 10.6087-10.60463-8.8288-8.82877h1.4142l8.1218 8.1218 8.1249-8.1218h1.4145l-8.8323 8.8289 10.6328 10.6327 10.6086-10.60455-8.857-8.85705h1.4142l8.15 8.15008 8.1532-8.15008h1.4145l-8.8606 8.85719 10.613 10.61301 10.6067-10.60664-8.8636-8.86356h1.4142l8.1565 8.15646 8.1562-8.15646h1.414l-8.8631 8.86356 10.6061 10.60664 10.607-10.60663-8.863-8.86357h1.414l8.156 8.15647 3.644-3.64378v1.41419l-2.937 2.93669 2.937 2.93673v1.4142l-3.644-3.64383-10.606 10.60663 10.606 10.6066 3.644-3.6438v1.4142l-2.937 2.9367 2.937 2.9367v1.4142l-3.644-3.6438-10.606 10.6066 10.606 10.6066 3.644-3.6438v1.4142l-2.937 2.9367 2.937 2.9367v1.4142l-3.644-3.6438-10.606 10.6067 10.606 10.6066 3.644-3.6439v1.4142l-2.937 2.9368 2.937 2.9367v1.4142l-3.644-3.6438-10.606 10.6066 10.606 10.6066 3.644-3.6438v1.4142l-2.937 2.9367 2.937 2.9367v1.414l-3.644-3.644-10.606 10.607 9.313 9.313h-1.415l-8.606-8.606-8.6054 8.606h-1.4142l9.3126-9.313-10.6063-10.607-10.6067 10.607 9.3129 9.313h-1.4142l-8.6058-8.606-8.6058 8.606h-1.4142l9.3129-9.313-10.6066-10.606-10.6066 10.606 9.3128 9.313h-1.4141l-8.6058-8.606-8.6058 8.606h-1.4142l9.3129-9.313-10.6066-10.606-10.6066 10.606 9.3128 9.313h-1.4142l-8.6057-8.606-8.6058 8.606h-1.4142l9.3129-9.313-10.6067-10.606-10.6066 10.606 9.3129 9.313h-1.4143l-8.6057-8.606-8.60575 8.606h-1.4142l9.31285-9.313-10.60662-10.606-3.21888 3.218v-1.414l2.51178-2.5116-2.51178-2.5118v-1.4142l3.21888 3.2189 10.60662-10.6066-10.62611-10.6261-3.19939 3.1981v-1.4139l2.49228-2.4913-2.49228-2.4923v-1.4142l3.19952 3.1995 10.60868-10.6046-10.63275-10.6327-3.17545 3.1742v-1.4139l2.46835-2.4674-2.46835-2.4684v-1.4142l3.17558 3.1756 10.60862-10.6046-10.6327-10.6327-3.1515 3.1503v-1.414l2.4444-2.4434-2.4444-2.4444v-1.4142l3.15164 3.1516 10.60856-10.6045-10.63271-10.63274-3.12749 3.12634v-1.414l2.42039-2.41945-2.42039-2.42038zm105.042 83.82894 10.607 10.6066-10.607 10.6067-10.6062-10.6067zm-79.9028 10.6067-10.6066 10.6066-10.60662-10.6066 10.60662-10.6066zm57.9829-79.1961 10.6067-10.60664 10.6062 10.60664-10.6062 10.6066zm11.3138 11.3137 10.6061-10.6066 10.607 10.6066-10.607 10.6066zm10.6061 34.6483 10.607 10.6066-10.607 10.6066-10.6061-10.6066zm-11.3132 11.3137 10.6062 10.6066-10.6063 10.6066-10.6066-10.6066zm-11.3138 11.3137 10.6066 10.6066-10.6067 10.6067-10.6066-10.6066zm-34.6483 10.6067-10.6066 10.6066-10.6067-10.6066 10.6067-10.6066zm-11.3137-11.3137-10.6067 10.6066-10.6066-10.6066 10.6066-10.6066zm-11.3138-11.3137-10.6066 10.6066-10.62598-10.626 10.60868-10.6046zm-10.6477-34.6895-10.63275-10.6327 10.60855-10.6045 10.6328 10.6327zm11.3158-11.3115-10.6327-10.6327 10.6088-10.60469 10.6327 10.63269zm34.6789-10.5763 10.6086-10.60454 10.6131 10.61314-10.6066 10.6066zm11.3222 11.3223 10.6066-10.6066 10.6067 10.6066-10.6067 10.6066zm11.3137 11.3137 10.6067-10.6066 10.6062 10.6066-10.6062 10.6066zm11.3138 11.3137 10.6061-10.6066 10.607 10.6066-10.607 10.6067zm-.7071.7071 10.6062 10.6067-10.6063 10.6066-10.6066-10.6066zm-11.3138 11.3138 10.6067 10.6066-10.6067 10.6066-10.6066-10.6066zm-11.3137 11.3137 10.6066 10.6066-10.6067 10.6067-10.6066-10.6066zm-11.3138 11.3138 10.6066 10.6066-10.6066 10.6066-10.6066-10.6066zm-.7071-.7071-10.6066 10.6066-10.6066-10.6066 10.6066-10.6066zm-11.3137-11.3137-10.6066 10.6066-10.6067-10.6066 10.6067-10.6067zm-11.3137-11.3138-10.6067 10.6067-10.6238-10.6239 10.6087-10.6045zm-11.3289-11.3289-10.6087 10.6046-10.63271-10.6327 10.60861-10.6046zm.7072-.7069-10.6327-10.6327 10.6086-10.6046 10.6327 10.6327zm11.3159-11.3116-10.6328-10.6327 10.6088-10.6047 10.6327 10.6328zm11.316-11.3116-10.6328-10.6327 10.6087-10.60463 10.6327 10.63273zm.7071.7071 10.6086-10.6046 10.6153 10.6153-10.6066 10.6066zm11.3244 11.3244 10.6066-10.6066 10.6066 10.6066-10.6066 10.6067zm11.3137 11.3138 10.6066-10.6067 10.6067 10.6066-10.6067 10.6067zm-.7071.7071 10.6066 10.6066-10.6066 10.6066-10.6067-10.6066zm-11.3138 11.3137 10.6067 10.6067-10.6067 10.6066-10.6066-10.6066zm-.7071-.7071-10.6066 10.6067-10.6066-10.6067 10.6066-10.6066zm-11.3137-11.3137-10.6066 10.6066-10.6217-10.6216 10.6086-10.6046zm.7071-.7071-10.6195-10.6195 10.6087-10.6046 10.6175 10.6174zm.7071.7071 10.6067-10.6067 10.6066 10.6067-10.6067 10.6066z" fill="#bac3d1" fill-rule="evenodd"/></g></svg>