<svg fill="none" height="120" viewBox="0 0 120 120" width="120" xmlns="http://www.w3.org/2000/svg"><path d="m0 0h120v120h-120z" fill="#fff"/><g fill="#008699"><path d="m47.9917 75.5037-.7519-1.6059-.6392-3.0806-3.0615-6.5405v11.64c1.4077-.0637 2.9359-.2052 4.4526-.413z"/><path d="m49.9331 69.2584 1.9564 2.4643 1.4862 3.1743c2.6887.369 4.9287 2.4077 5.4882 5.1257.3397 1.6512.03 3.3323-.8622 4.7567l2.1801 4.6572-4.6483 2.177-1.8233-3.8945c-2.6185.5353-6.3868 1.1491-10.1703 1.2517v31.0292h15.7593v-19.417h2.9538v19.417h15.7593v-57.4987c2.8487 5.9254 5.3863 17.8623 4.0761 40.2537-.1644 2.811 1.9806 5.223 4.7917 5.388.1013.005.202.009.3027.009 2.6798 0 4.9262-2.091 5.0849-4.801 1.5753-26.9238-1.7927-44.4892-10.0092-52.2093-3.5719-3.3559-7.0617-3.9364-8.8575-3.9798-.1046-.0064-.2078-.0159-.3142-.0159h-6.7259l-5.5845 4.5725-5.5845-4.5725h-6.7258c-.1052 0-.2078.0089-.3117.0159-1.5282.0402-4.3042.4793-7.3058 2.6893z"/><path d="m60.7744 43.5148c7.9191 0 14.3388-6.4197 14.3388-14.3389 0-7.9191-6.4197-14.3388-14.3388-14.3388s-14.3389 6.4197-14.3389 14.3388c0 7.9192 6.4198 14.3389 14.3389 14.3389z"/><path d="m36.6545 46.1434 11.1469 23.8207.6381 3.0814.8575 1.8323c.5952-.0987 1.1841-.2031 1.7487-.3196.2078-.0427.4181-.0739.6284-.0962l-1.1251-2.404-1.9567-2.464-11.1468-23.8207c5.5492-2.9135 7.3654-10.8435 4.0284-17.9746-3.414-7.2967-10.9283-10.9903-16.7828-8.2509s-7.8326 10.8753-4.4185 18.1721c3.337 7.131 10.5887 10.8175 16.3819 8.4235zm-11.4697-25.5408c5.2637-2.4629 12.098.9865 15.2343 7.6899 3.137 6.7034 1.4063 14.1606-3.8574 16.6235s-12.098-.9865-15.2343-7.6899c-3.137-6.7027-1.4062-14.1606 3.8574-16.6235z" stroke="#008699"/><path d="m55.0645 87.3049 1.1439 2.444 2.1094-.9872-1.295-2.7664c-.5678.5525-1.228.9973-1.9583 1.3096z"/><path d="m53.5241 86.326c2.7575-.5671 4.5337-3.2635 3.9665-6.021-.5678-2.7569-3.2597-4.5336-6.0211-3.9664-3.2138.6615-6.8635 1.0222-9.5229 1.0196-.8125-.0006-1.5345-.0344-2.1208-.1058.7424-6.3766 1.9736-10.8178 3.3011-13.8583l-5.111-10.9185c-4.5425 5.1804-7.416 13.8175-8.5485 25.7602 0 .0025-.0006.0051-.0013.0082-.0019.0223-.0006.044-.0025.0663-.0134.16-.0204.3199-.0185.4773-.0682 2.2968.8093 4.3884 2.5287 5.9306 2.2821 2.0463 5.9401 2.7849 9.7931 2.8633.2371.0051.4748.0076.7131.0076 3.9811 0 8.091-.6557 11.0441-1.2631z"/></g><g stroke="#008699"><path d="m19.1426 29.9475 17.081-7.7661"/><path d="m30.9004 19.7458 10.0599 22.1259"/><path d="m20.1143 35.1886 19.2119-8.735"/><path d="m25.502 20.373 11.3148 24.8861"/><path d="m22.8828 39.6133 19.0404-8.657"/><path d="m21.1611 23.3262 10.3749 22.8304"/><path d="m26.2959 43.7445 16.3512-7.4343"/></g></svg>