<svg width="17" height="16" viewBox="0 0 17 16" fill="none" xmlns="http://www.w3.org/2000/svg">
<path d="M13.0801 1.43517C11.8946 0.602637 10.2565 0.90579 9.40795 2.11421L9.20249 2.4068L13.4826 5.4124L13.688 5.11981C14.5366 3.91139 14.2657 2.26769 13.0801 1.43517ZM8.92071 2.80806L8.45109 3.47682L12.7312 6.48242L13.2008 5.81365L8.92071 2.80806ZM8.10243 3.83112L1.75568 8.46104L1.98037 10.4162L2.89374 10.4398L8.73776 4.27726L8.10243 3.83112ZM9.1432 4.56197L3.27321 10.7437L3.58541 11.5433L4.48037 11.5664L9.69493 4.94941L9.1432 4.56197ZM10.0962 5.23119L4.87576 11.8565L5.19045 12.6704L6.06282 12.6901L10.5225 5.53057L10.0962 5.23119ZM10.9238 5.81235L6.46995 12.9635L6.79548 13.7975L7.65362 13.8197L11.4755 6.19979L10.9238 5.81235ZM11.881 6.4845L8.06831 14.0735L8.40052 14.9246L10.3159 14.4722L12.5163 6.93064L11.881 6.4845Z" fill="white"/>
</svg>
