<svg width="17" height="17" viewBox="0 0 17 17" fill="none" xmlns="http://www.w3.org/2000/svg">
<path d="M12.5801 1.65495C11.3946 0.822424 9.75653 1.12558 8.90795 2.334L8.70249 2.62658L12.9826 5.63218L13.188 5.3396C14.0366 4.13118 13.7657 2.48748 12.5801 1.65495ZM8.42071 3.02784L7.95109 3.69661L12.2312 6.70221L12.7008 6.03344L8.42071 3.02784ZM7.60243 4.0509L1.25568 8.68083L1.48037 10.636L2.39374 10.6595L8.23776 4.49705L7.60243 4.0509ZM8.6432 4.78176L2.77321 10.9635L3.08541 11.7631L3.98037 11.7862L9.19493 5.1692L8.6432 4.78176ZM9.59619 5.45097L4.37576 12.0763L4.69045 12.8902L5.56282 12.9099L10.0225 5.75036L9.59619 5.45097ZM10.4238 6.03213L5.96995 13.1833L6.29548 14.0173L7.15362 14.0395L10.9755 6.41958L10.4238 6.03213ZM11.381 6.70429L7.56831 14.2933L7.90052 15.1444L9.81587 14.692L12.0163 7.15043L11.381 6.70429Z" fill="#04162C" fill-opacity="0.5"/>
</svg>
