<svg fill="none" height="24" viewBox="0 0 24 24" width="24" xmlns="http://www.w3.org/2000/svg"><path d="m21.5 9.59385v.56255c0 .4659-.3358.8437-.75.8437h-.25l-.816 6.4261c-.1056.8314-.7385 1.4489-1.4849 1.4489h-11.39816c-.74647 0-1.37935-.6175-1.48494-1.4489l-.816-6.4261h-.25c-.41422 0-.75-.3778-.75-.8437v-.56255c0-.466.33578-.84375.75-.84375h2.10441l3.33687-5.16168c.32482-.50245.95022-.61358 1.39692-.24813.4466.36545.5454 1.06903.2206 1.57152l-2.48139 3.83829h7.34519l-2.4814-3.83832c-.3248-.50246-.226-1.20607.2206-1.57152s1.0721-.25436 1.397.24813l3.3368 5.16171h2.1044c.4142 0 .75.37775.75.84375zm-8.25 6.18755v-3.9375c0-.466-.3358-.8438-.75-.8438s-.75.3778-.75.8438v3.9375c0 .4659.3358.8437.75.8437s.75-.3778.75-.8437zm3.5 0v-3.9375c0-.466-.3358-.8438-.75-.8438s-.75.3778-.75.8438v3.9375c0 .4659.3358.8437.75.8437s.75-.3778.75-.8437zm-7 0v-3.9375c0-.466-.33578-.8438-.75-.8438s-.75.3778-.75.8438v3.9375c0 .4659.33578.8437.75.8437s.75-.3778.75-.8437z" fill="#1c8aa9"/></svg>