<svg fill="none" height="24" viewBox="0 0 24 24" width="24" xmlns="http://www.w3.org/2000/svg"><path clip-rule="evenodd" d="m21.5 22h-19c-.275 0-.5-.225-.5-.5v-19c0-.275.225-.5.5-.5h19c.275 0 .5.225.5.5v19c0 .275-.225.5-.5.5zm-18.5-1.25c0 .15.1.25.25.25h17.5c.15 0 .25-.1.25-.25v-4.5c0-.15-.1-.25-.25-.25h-17.5c-.15 0-.25.1-.25.25zm17.75-17.75h-17.5c-.15 0-.25.1-.25.25v11.5c0 .05.025.1.05.125l4.82518-4.825 3.75002 2.25 4.25-5 5.1248 5v-9.05c0-.15-.1-.25-.25-.25zm-15.25 14c.825 0 1.5.675 1.5 1.5s-.675 1.5-1.5 1.5-1.5-.675-1.5-1.5.675-1.5 1.5-1.5zm2.75 1h11.5c.15 0 .25.1.25.25v.5c0 .15-.1.25-.25.25h-11.5c-.15 0-.25-.1-.25-.25v-.5c0-.15.1-.25.25-.25z" fill="#1c8aa9" fill-rule="evenodd"/></svg>