<svg fill="none" height="17" viewBox="0 0 16 17" width="16" xmlns="http://www.w3.org/2000/svg"><g fill="#408053"><path d="m3.12988 8.75262h3.31159v5.74738h-3.31159z"/><path d="m10.1084 8.75262h3.3116v5.74738h-3.3116z"/><path d="m11.2306 5.16733c.7663-.23262 1.3137-.94424 1.3137-1.79261 0-1.03998-.8347-1.87472-1.8747-1.87472-1.25892 0-1.88842.72527-2.39471 1.56-.50639-.83473-1.13589-1.56-2.39484-1.56-1.03998 0-1.87472.83474-1.87472 1.87472 0 .83474.54732 1.54634 1.31374 1.79261h-2.94212v2.65474h4.06422v-2.57263h.93049v9.25056h1.79261v-9.25056h.93043v2.57263h4.0643l.0001-2.65474zm-.5611-2.54527c.4106 0 .7527.34211.7527.75266s-.3421.75266-.7527.75266l-1.7105-.0001c.56108-1.01266.87579-1.50522 1.7105-1.50522zm-4.78945 0c.83474 0 1.14945.49263 1.71053 1.51895l-1.71053-.00009c-.41055 0-.75266-.34211-.75266-.75266 0-.41046.34211-.7662.75266-.7662z"/></g></svg>