<svg fill="none" height="24" viewBox="0 0 24 24" width="24" xmlns="http://www.w3.org/2000/svg"><path d="m4.52979 2.49777c-.65777.64075-1.02979 1.51261-1.02979 2.42457v15.61406c0 1.6162 1.85297 2.5075 3.15777 1.5987l5.34223-3.7171 5.3423 3.7171c1.3038.9078 3.1577.0164 3.1577-1.5997v-15.61306c0-.91196-.372-1.78382-1.0298-2.42457-.6573-.6403-1.5461-.99777-2.4702-.99777h-10c-.92409 0-1.81288.35747-2.47021.99777zm2.11199 2.09392c.09282-.09041.22144-.14347.35822-.14347h10c.1368 0 .2654.05306.3582.14347.0924.08999.1418.2092.1418.33065v13.71016l-4.3424-3.0215c-.339-.236-.7437-.3619-1.1576-.3619s-.8186.1259-1.1576.3619l-4.3424 3.0215v-13.71016c0-.12145.0494-.24066.14178-.33065z" fill="#408053" stroke="#fff"/></svg>