<svg fill="none" height="16" viewBox="0 0 16 16" width="16" xmlns="http://www.w3.org/2000/svg"><g fill="#1c8aa9"><path clip-rule="evenodd" d="m13.0948 2.75372h-.3396v-.88427c0-.48632-.384-.86945-.8713-.86945-.4874 0-.8713.38313-.8713.86945v.88427h-2.14144v-.88427c0-.48632-.38395-.86945-.87129-.86945-.48735 0-.87129.38313-.87129.86945v.88427h-2.14134v-.88427c0-.48632-.38394-.86945-.87129-.86945-.48734 0-.87129.38313-.87129.86945v.88427h-.33963c-1.04859 0-1.90503.85474-1.90503 1.90101v8.44427c0 1.0464.85655 1.901 1.90503 1.901h5.0946c-.28799-.3834-.52215-.8096-.69124-1.2673h-4.40352c-.35446 0-.63498-.28-.63498-.6336l-.0001-6.44004h11.46001v.64824c.4588.16918.886.40372 1.2702.69233v-3.3449c0-1.04627-.8566-1.90101-1.9052-1.90101zm-4.06342 5.22253c-.04175-.03098-.09241-.04974-.14542-.04974h-1.77224c-.13289 0-.25105.11791-.25105.25052v1.11998c0 .13261.11816.25051.25105.25051l.52803.00003c.34788-.61689.82296-1.15252 1.38963-1.5713zm-1.89362 2.85325h-.02404c-.13289 0-.25105.1179-.25105.2505v1.12c0 .0994.06636.1905.15556.2299-.01207-.1417-.01823-.2851-.01823-.4299 0-.4031.0477-.795.13776-1.1705zm-1.54531-2.90299h-1.75742c-.13289 0-.25105.11791-.25105.25052v1.11998c0 .13261.11816.25051.25105.25051h1.75742c.13289 0 .25105-.11791.25105-.25051v-1.11998c0-.13261-.11806-.25052-.25105-.25052zm-1.75742 2.90299h1.75742c.13299 0 .25105.1179.25105.2505v1.12c0 .1326-.11816.2505-.25105.2505h-1.75742c-.13289 0-.25105-.1179-.25105-.2505v-1.12c0-.1326.11816-.2505.25105-.2505z" fill-rule="evenodd"/><path clip-rule="evenodd" d="m11.916 14.5236c1.4115 0 2.5558-1.1443 2.5558-2.5558 0-1.4116-1.1443-2.55583-2.5558-2.55583s-2.55579 1.14423-2.55579 2.55583c0 1.4115 1.14429 2.5558 2.55579 2.5558zm0 1.0223c1.9762 0 3.5781-1.602 3.5781-3.5781 0-1.97617-1.6019-3.57815-3.5781-3.57815-1.97613 0-3.57811 1.60198-3.57811 3.57815 0 1.9761 1.60198 3.5781 3.57811 3.5781z" fill-rule="evenodd"/><path d="m12.8421 10.8257-1.2432 1.018-.3096-.4017c-.1942-.2505-.5491-.294-.7969-.0974-.2465.1967-.2894.5587-.0958.8098l.6645.8611c.0933.1211.2307.1999.3814.2172.0215.0025.0429.0038.065.0038.1286 0 .2547-.0448.3555-.1275l1.6909-1.3838c.2447-.2005.2825-.5632.0864-.8111-.1967-.2479-.5542-.2889-.7982-.0884z"/></g></svg>