<svg fill="none" height="16" viewBox="0 0 16 16" width="16" xmlns="http://www.w3.org/2000/svg"><path d="m11.8842 2.07031h-8.42168v8.42619c0 .6866.54139 1.2484 1.2031 1.2484h6.01548c.6617 0 1.2031-.5618 1.2031-1.2484v-1.56037c1.8275 0 3.3086-1.53701 3.3086-3.43291s-1.4811-3.43291-3.3086-3.43291zm0 5.30541v-3.74499c.4786 0 .9377.19728 1.2761.54844s.5286.82743.5286 1.32405-.1902.97289-.5286 1.32406c-.3384.35116-.7975.54844-1.2761.54844zm-10.29841 4.99328v.7181c0 .5917.62231.8424 1.38357.8424h10.22054c.7609 0 1.3835-.2507 1.3835-.8424v-.7181z" fill="#1c8aa9"/></svg>