<svg fill="none" height="16" viewBox="0 0 16 16" width="16" xmlns="http://www.w3.org/2000/svg"><g fill="#408053"><path d="m13.0948 2.75372h-.3396v-.88427c0-.48632-.384-.86945-.8713-.86945-.4874 0-.8713.38313-.8713.86945v.88427h-2.14144v-.88427c0-.48632-.38395-.86945-.87129-.86945-.48735 0-.87129.38313-.87129.86945v.88427h-2.14134v-.88427c0-.48632-.38394-.86945-.87129-.86945-.48734 0-.87129.38313-.87129.86945v.88427h-.33963c-1.04859 0-1.90503.85474-1.90503 1.90101v8.44427c0 1.0464.85655 1.901 1.90503 1.901h10.18997c1.0486 0 1.905-.8547 1.905-1.901v-8.44427c0-1.04627-.8566-1.90101-1.9052-1.90101zm0 10.97898h-10.18993c-.35446 0-.63498-.28-.63498-.6336l-.0001-6.44004h11.46001v6.44004c.0001.3537-.2805.6336-.635.6336z"/><path d="m5.59245 7.92651h-1.75742c-.13289 0-.25105.11791-.25105.25052v1.11998c0 .13261.11816.25051.25105.25051h1.75742c.13289 0 .25105-.11791.25105-.25051v-1.11998c0-.13261-.11806-.25052-.25105-.25052z"/><path d="m8.88596 7.92651h-1.77225c-.13288 0-.25104.11791-.25104.25052v1.11998c0 .13261.11816.25051.25104.25051l1.77225.00011c.13289 0 .25104-.11791.25104-.25052v-1.11998c0-.13271-.11815-.25062-.25104-.25062z"/><path d="m12.1794 7.92651h-1.7722c-.1329 0-.251.11791-.251.25052v1.11998c0 .13261.1181.25051.251.25051h1.7574c.1329 0 .2511-.11791.2511-.25051v-1.11998c.0147-.13261-.1035-.25052-.2363-.25052z"/><path d="m5.59245 10.8295h-1.75742c-.13289 0-.25105.1179-.25105.2505v1.12c0 .1326.11816.2505.25105.2505h1.75742c.13289 0 .25105-.1179.25105-.2505v-1.12c0-.1326-.11806-.2505-.25105-.2505z"/><path d="m8.88596 10.8295h-1.77225c-.13288 0-.25104.1179-.25104.2505v1.12c0 .1326.11816.2505.25104.2505l1.77225.0001c.13289 0 .25104-.1179.25104-.2505v-1.12c0-.1327-.11815-.2506-.25104-.2506z"/><path d="m12.1794 10.8295h-1.7722c-.1329 0-.251.1179-.251.2505v1.12c0 .1326.1181.2505.251.2505h1.7574c.1329 0 .2511-.1179.2511-.2505v-1.12c.0147-.1326-.1035-.2505-.2363-.2505z"/></g></svg>