<svg fill="none" height="32" viewBox="0 0 32 32" width="32" xmlns="http://www.w3.org/2000/svg"><g fill="#408053"><path d="m9.33217 7.27391h13.33753c.0749-.0009.1483-.02178.213-.06058.0647-.03881.1186-.09422.1562-.16081.0377-.06659.0579-.14209.0586-.21911.0008-.07702-.0179-.15292-.0542-.22029l-1.0766-1.9434c-.6357-1.14763-1.7333-1.83281-2.9361-1.83281h-6.0594c-1.2027 0-2.3005.68518-2.9361 1.83281l-1.07653 1.9434c-.03632.06737-.05502.14327-.05425.22029.00076.07702.02096.15252.05861.21911s.09147.122.15619.16081c.06472.0388.13813.05968.21305.06058z"/><path d="m5.8701 29.0164h20.2598c1.0261-.0012 2.0098-.4207 2.7353-1.1666.7255-.7458 1.1336-1.7571 1.1348-2.8118v-12.1982c-.0012-1.0548-.4093-2.0661-1.1348-2.8119-.7255-.74584-1.7092-1.16538-2.7353-1.16657h-20.2598c-1.02606.00119-2.00976.42073-2.7353 1.16657-.72553.7458-1.13364 1.7571-1.1348 2.8119v12.1982c.00116 1.0547.40927 2.066 1.1348 2.8118.72554.7459 1.70924 1.1654 2.7353 1.1666zm17.5444-5.835c.2352 0 .4651.0717.6607.206.1955.1343.3479.3252.4379.5486.09.2233.1136.4691.0677.7063-.0459.2371-.1591.4549-.3254.6258-.1663.171-.3782.2874-.6089.3346s-.4697.023-.687-.0696c-.2173-.0925-.403-.2492-.5337-.4502s-.2004-.4374-.2004-.6791c0-.3242.1253-.6352.3483-.8644.223-.2293.5255-.358.8408-.358zm-7.4145-9.5636c1.1068 0 2.1887.3374 3.1089.9695.9202.632 1.6375 1.5305 2.061 2.5816s.5344 2.2078.3184 3.3237c-.2159 1.1159-.7488 2.1409-1.5314 2.9454s-1.7797 1.3523-2.8652 1.5743-2.2106.108-3.2331-.3273c-1.0226-.4354-1.8965-1.1728-2.5114-2.1188s-.9431-2.0582-.9431-3.1959c0-1.5257.5896-2.9888 1.639-4.0676 1.0495-1.0788 2.4728-1.6849 3.9569-1.6849zm-10.09256-1.2532h2.27833c.25442 0 .49842.1039.67832.2888s.28097.4358.28097.6973-.10107.5124-.28097.6973-.4239.2888-.67832.2888h-2.27833c-.25442 0-.49842-.1039-.67832-.2888s-.28097-.4358-.28097-.6973.10107-.5124.28097-.6973.4239-.2888.67832-.2888z"/><path d="m18.4529 21.891c1.3543-1.3922 1.3543-3.6495 0-5.0418-1.3543-1.3922-3.5501-1.3922-4.9045 0-1.3543 1.3923-1.3543 3.6496 0 5.0418 1.3544 1.3922 3.5502 1.3922 4.9045 0z"/></g></svg>