<svg fill="none" height="16" viewBox="0 0 16 16" width="16" xmlns="http://www.w3.org/2000/svg"><path d="m8 1c-1.38447 0-2.73784.41054-3.88899 1.17971-1.15114.76917-2.04835 1.86242-2.57816 3.14151-.52982 1.27908-.66844 2.68655-.39834 4.04441.27009 1.35787.93678 2.60517 1.91575 3.58407.97896.979 2.22624 1.6457 3.58411 1.9158s2.76533.1315 4.04443-.3983c1.2791-.5299 2.3723-1.4271 3.1415-2.5782.7692-1.1512 1.1797-2.50453 1.1797-3.889 0-1.85652-.7375-3.63699-2.0503-4.94975-1.3127-1.31275-3.09318-2.05025-4.9497-2.05025zm-1 9.795-2.5-2.5.795-.795 1.705 1.705 3.705-3.705.798.793z" fill="#008699"/></svg>