<svg fill="none" height="32" viewBox="0 0 33 32" width="33" xmlns="http://www.w3.org/2000/svg"><path d="m9.27759 5.1909c2.13781-1.42846 4.65121-2.1909 7.22241-2.1909 3.4478 0 6.7544 1.36964 9.1924 3.80761s3.8076 5.74459 3.8076 9.19239c0 2.5712-.7624 5.0846-2.1909 7.2224-1.4284 2.1379-3.4588 3.8041-5.8342 4.788-2.3754.984-4.9893 1.2414-7.5111.7398-2.5217-.5016-4.8381-1.7397-6.65618-3.5578s-3.05621-4.1345-3.55782-6.6562c-.50161-2.5218-.24417-5.1356.73977-7.5111.98394-2.37542 2.65018-4.40575 4.78802-5.8342z" fill="#408053" stroke="#fff" stroke-width="2"/><path d="m14.5 21.591-5-5 1.591-1.591 3.409 3.409 7.41-7.409 1.595 1.585z" fill="#fff"/></svg>