<svg width="14" height="14" viewBox="0 0 14 14" fill="none" xmlns="http://www.w3.org/2000/svg">
<path d="M3.41973 10.6081C3.71478 10.1497 4.23509 9.86253 4.75709 9.84068L2.0066 8.25263C2.22865 8.66663 2.23528 9.17255 1.97552 9.63695L1.0215 11.2894C1.0215 11.2894 0.674589 11.8902 1.27547 12.2372L1.72886 12.4989C1.76688 12.5192 2.19255 12.7302 2.5237 12.1567L3.39099 10.6545L3.41973 10.6081Z" fill="#213551"/>
<path d="M7.86198 1.88458C7.66644 1.7169 7.82931 1.80036 7.59861 1.66717C5.51613 0.464841 2.81844 1.23873 1.57318 3.39558C0.875138 4.60462 0.783061 5.99097 1.20299 7.18811L5.96851 9.92322C6.19067 9.80701 6.06186 9.77647 6.57007 9.43787C6.72682 9.30925 6.75648 9.16639 6.7854 8.95935C6.886 8.23922 7.01865 7.92184 7.43422 6.95837C7.68147 6.69987 7.24226 6.74016 7.24226 6.74016C7.24226 6.74016 6.90373 6.93441 6.73253 6.93441C6.56052 6.93441 5.49994 5.96082 5.49994 5.96082C5.49994 5.96082 4.74626 5.16497 5.39518 4.55274L6.93579 2.85208C6.93579 2.85208 7.02057 2.33115 7.24721 2.20806L7.86198 1.88458Z" fill="#213551"/>
<path fill-rule="evenodd" clip-rule="evenodd" d="M7.75537 10.6704H12.3231C12.6712 10.6704 12.9557 10.9688 12.9557 11.3332V12.2715H7.12276V11.3332C7.12276 10.9688 7.40727 10.6704 7.75537 10.6704ZM6.35481 4.60755L7.63146 3.35129C7.63146 3.35129 7.71624 2.83036 7.94287 2.70726L8.9293 2.16921C8.75484 1.93116 8.79315 1.51866 8.68228 1.27246C9.13555 1.08414 9.59941 1.70616 9.76572 1.86676C9.93202 2.02817 12.4209 2.55807 13.1505 5.19859C13.6152 6.88121 13.113 8.5133 12.6875 9.28613H7.55075C7.6608 8.57118 7.72847 7.39399 8.7687 6.53474C9.80892 5.67631 9.64262 4.86842 9.64262 4.86842C9.64262 4.86842 9.38501 5.40076 9.1062 5.51816C8.82739 5.63473 7.67955 5.81571 7.67955 5.81571C7.67955 5.81571 7.15373 6.18827 6.98254 6.18827C6.81052 6.18827 6.43552 5.65593 6.43552 5.65593C6.43552 5.65593 5.70589 5.21978 6.35481 4.60755ZM7.44803 9.5845H12.6304C13.1546 9.5845 13.1546 10.4152 12.6304 10.4152H7.44803C6.92384 10.4152 6.92384 9.5845 7.44803 9.5845Z" fill="#213551"/>
</svg>
