<svg width="16" height="16" viewBox="0 0 16 16" fill="none" xmlns="http://www.w3.org/2000/svg">
<path fill-rule="evenodd" clip-rule="evenodd" d="M5.84202 12.2588H10.8819C11.266 12.2588 11.5799 12.5832 11.5799 12.9795V14H5.144V12.9795C5.144 12.5832 5.45793 12.2588 5.84202 12.2588ZM4.29667 5.66524L5.70529 4.29902C5.70529 4.29902 5.79884 3.73249 6.0489 3.59862L7.1373 3.01347C6.94481 2.75459 6.98708 2.30598 6.86475 2.03823C7.36488 1.83343 7.87669 2.50989 8.06019 2.68455C8.24369 2.86009 10.9899 3.43637 11.7949 6.30801C12.3076 8.13792 11.7535 9.91286 11.284 10.7533H5.61624C5.73767 9.9758 5.81233 8.69558 6.9601 7.76112C8.10786 6.82755 7.92437 5.94895 7.92437 5.94895C7.92437 5.94895 7.64012 6.52788 7.33249 6.65555C7.02486 6.78233 5.75836 6.97915 5.75836 6.97915C5.75836 6.97915 5.17818 7.38432 4.98929 7.38432C4.79949 7.38432 4.38572 6.80538 4.38572 6.80538C4.38572 6.80538 3.58067 6.33106 4.29667 5.66524ZM5.5029 11.0778H11.221C11.7994 11.0778 11.7994 11.9813 11.221 11.9813H5.5029C4.92452 11.9813 4.92452 11.0778 5.5029 11.0778Z" fill="#04162C" fill-opacity="0.5"/>
</svg>
