<svg fill="none" height="16" viewBox="0 0 16 16" width="16" xmlns="http://www.w3.org/2000/svg"><g fill="#408053"><path d="m3.90743 12.1264c.3372-.5239.93183-.852 1.52841-.877l-3.14342-1.81489c.25377.47313.26134 1.05129-.03551 1.58209l-1.09031 1.8885s-.396478.6867.29024 1.0831l.51817.2991c.04344.0233.52992.2645.90838-.3911l.99119-1.7167z"/><path d="m8.98428 2.15673c-.22347-.19163-.03733-.09625-.30099-.24847-2.37998-1.374083-5.46306-.48964-6.8862 1.97533-.797769 1.38177-.903 2.96616-.42308 4.33432l5.4463 3.12589c.25391-.1329.1067-.1678.6875-.5547.17915-.147.21304-.3103.2461-.5469.11497-.82301.26656-1.18574.7415-2.28685.28258-.29543-.21937-.24938-.21937-.24938s-.3869.222-.58255.222c-.19659 0-1.40869-1.11267-1.40869-1.11267s-.86134-.90954-.11971-1.60924l1.76069-1.94361s.0969-.59534.35591-.73603z"/><path clip-rule="evenodd" d="m8.863 12.1986h5.2202c.3979 0 .723.341.723.7575v1.0724h-6.66619v-1.0724c0-.4165.32516-.7575.72299-.7575zm-1.60064-6.92892 1.45903-1.43573s.09689-.59535.3559-.73604l1.12731-.61491c-.1994-.27205-.1556-.74349-.28227-1.02485.51797-.21522 1.04817.49565 1.23817.6792.1901.18447 3.0345.79007 3.8684 3.8078.5311 1.923-.0429 3.78824-.5292 4.67145h-5.87055c.12578-.81706.20311-2.16242 1.39195-3.14442 1.1888-.98106.9988-1.90436.9988-1.90436s-.2945.60839-.6131.74255c-.3186.13323-1.63044.34007-1.63044.34007s-.60094.42578-.7966.42578c-.19658 0-.62516-.6084-.62516-.6084s-.83386-.49845-.09224-1.19814zm1.2494 5.68792h5.92274c.5991 0 .5991.9494 0 .9494h-5.92274c-.59908 0-.59908-.9494 0-.9494z" fill-rule="evenodd"/></g></svg>