<svg fill="none" height="16" viewBox="0 0 16 16" width="16" xmlns="http://www.w3.org/2000/svg"><g fill="#408053"><path d="m12.8071 8.6301-2.0784-2.47567c-.1702-.20271-.4162-.30271-.6621-.2946h-.90814c-.12432 0-.24324.05946-.31351.16216-.18109.27027-.48919.44595-.84055.44595-.34864 0-.65675-.17838-.84054-.44595-.07027-.1027-.18919-.16216-.31351-.16216-.54595 0-.94054 0-.94325 0h-.01891c-.22703.00541-.45136.10541-.61082.2946l-2.07838 2.47567c-.29729.35406-.25946.90001.1 1.18919.34865.28111.86217.23241 1.15136-.11081l1.09189-1.3027-.98108 3.94592c-.01892.0784.04054.1541.11892.1541h.92162v1.673c0 .4567.37027.8243.82432.8243.45676 0 .82433-.3703.82433-.8243v-1.673h1.50811v1.673c0 .4567.37027.8243.82432.8243.45672 0 .82432-.3703.82432-.8243v-1.673h.9162c.0811 0 .1379-.0757.1189-.1541l-.981-3.94592 1.0919 1.3027c.2891.34592.8027.39462 1.1513.11081.3622-.29189.4-.83513.1027-1.18919z"/><path d="m3.85445 3.51175c.35135-.61351 1.13243-1.77838 2.1054-1.43784.12973.04595.24325.1.34595.15946-.20811.31892-.32973.7-.32973 1.10811 0 1.12162.90811 2.02973 2.02973 2.02973s2.0297-.90811 2.0297-2.02973c0-.40811-.12159-.78919-.3297-1.10811.1027-.05946.21892-.11351.3459-.15946.973-.34054 1.7541.82433 2.1055 1.43784-.0027-.01622.0162-.07297.0513-.15405.5541-1.26757-.5757-2.648656-1.9135-2.30001-.0541.01352-.1081.02973-.1622.04865-.36213.12703-.66754.34595-.89727.62433-.33784-.26217-.76486-.41622-1.22973-.41622-.46486 0-.89189.15676-1.23243.41892-.22703-.27568-.53244-.4973-.8973-.62433-.05406-.01891-.10811-.03513-.16216-.04864-1.33784-.348653-2.46757 1.03513-1.91352 2.3.03514.07838.05676.13513.05406.15135z"/></g></svg>