<svg fill="none" height="16" viewBox="0 0 22 16" width="22" xmlns="http://www.w3.org/2000/svg"><path d="m20.2003 1.86084h-18.40001v4.09231h18.40001z" fill="#408053" fill-opacity=".5"/><path d="m1.71143 6.14355h4.26666v8.08295h-3.2c-.2829 0-.55421-.1217-.75424-.3382-.20004-.2166-.31242-.5103-.31242-.8165z" fill="#408053" fill-opacity=".5"/><g stroke="#408053"><path d="m3.10526 1.5h15.78944c.8759 0 1.6053.72964 1.6053 1.65385v9.69235c0 .9242-.7294 1.6538-1.6053 1.6538h-15.78944c-.87587 0-1.60526-.7296-1.60526-1.6538v-9.69235c0-.92421.72939-1.65385 1.60526-1.65385z"/><path d="m18.8948 1.53906h-15.78949c-.87202 0-1.57894.72323-1.57894 1.61539v9.69235c0 .8921.70692 1.6153 1.57894 1.6153h15.78949c.872 0 1.5789-.7232 1.5789-1.6153v-9.69235c0-.89216-.7069-1.61539-1.5789-1.61539z"/><path d="m6.19678 1.53906v12.91014"/><path d="m10.9209 1.53906v12.91014"/><path d="m15.6465 1.53906v12.91014"/><path d="m1.52637 5.84619h18.79053"/><path d="m1.52637 10.1533h18.79053"/></g></svg>