<svg fill="none" height="30" viewBox="0 0 30 30" width="30" xmlns="http://www.w3.org/2000/svg"><ellipse cx="15" cy="15" fill="#f9f9fb" rx="15" ry="14"/><path d="m9.92188 20.4531c-.13021-.1302-.21615-.2812-.25782-.4531-.04166-.1771-.04166-.3516 0-.5234.04167-.1719.125-.3204.25-.4454l3.66404-3.664-3.66404-3.6563c-.125-.125-.20833-.2734-.25-.4453-.04166-.1718-.04166-.3437 0-.5156.04167-.1771.12761-.3307.25782-.4609.12502-.125.27342-.2084.44532-.25.1771-.04691.3516-.04691.5234 0 .1771.0416.3282.1224.4532.2421l3.6562 3.6641 3.6641-3.6562c.125-.125.2708-.2084.4375-.25.1718-.04691.3437-.04691.5156 0 .1771.0416.3281.1276.4531.2578.1354.125.224.276.2656.4531.0417.1719.0417.3438 0 .5156-.0416.1719-.1276.3203-.2578.4453l-3.6484 3.6563 3.6484 3.664c.1302.125.2162.2735.2578.4454.0417.1718.0417.3463 0 .5234-.0416.1719-.1302.3203-.2656.4453-.125.1302-.276.2188-.4531.2656-.1719.0417-.3438.0417-.5156 0-.1667-.0416-.3125-.1276-.4375-.2578l-3.6641-3.6562-3.6562 3.664c-.125.1198-.2761.2032-.4532.25-.1718.0417-.3463.0417-.5234 0-.1719-.0468-.3203-.1328-.44532-.2578z" fill="#3c3c43" fill-opacity=".6"/></svg>