<svg fill="none" height="17" viewBox="0 0 16 17" width="16" xmlns="http://www.w3.org/2000/svg"><path clip-rule="evenodd" d="m7.99609 7.62149-4.68808-4.68809c-.24152-.24152-.6331-.24152-.87461 0-.24152.24151-.24152.63309 0 .87461l4.68809 4.68808-4.68809 4.68811c-.24152.2415-.24152.6331 0 .8746.24151.2415.63309.2415.87461 0l4.68808-4.6881 4.68811 4.6881c.2415.2415.6331.2415.8746 0s.2415-.6331 0-.8746l-4.6881-4.68811 4.6881-4.68808c.2415-.24152.2415-.6331 0-.87461-.2415-.24152-.6331-.24152-.8746 0z" fill="#1c8aa9" fill-rule="evenodd"/><path clip-rule="evenodd" d="m7.99609 7.62149-4.68808-4.68809c-.24152-.24152-.6331-.24152-.87461 0-.24152.24151-.24152.63309 0 .87461l4.68809 4.68808-4.68809 4.68811c-.24152.2415-.24152.6331 0 .8746.24151.2415.63309.2415.87461 0l4.68808-4.6881 4.68811 4.6881c.2415.2415.6331.2415.8746 0s.2415-.6331 0-.8746l-4.6881-4.68811 4.6881-4.68808c.2415-.24152.2415-.6331 0-.87461-.2415-.24152-.6331-.24152-.8746 0z" fill="#1c8aa9" fill-rule="evenodd"/><path d="m7.99609 7.62149-4.68808-4.68809c-.24152-.24152-.6331-.24152-.87461 0-.24152.24151-.24152.63309 0 .87461l4.68809 4.68808-4.68809 4.68811c-.24152.2415-.24152.6331 0 .8746.24151.2415.63309.2415.87461 0l4.68808-4.6881 4.68811 4.6881c.2415.2415.6331.2415.8746 0s.2415-.6331 0-.8746l-4.6881-4.68811 4.6881-4.68808c.2415-.24152.2415-.6331 0-.87461-.2415-.24152-.6331-.24152-.8746 0z" stroke="#1c8aa9" stroke-width=".5"/></svg>