<svg fill="none" height="24" viewBox="0 0 24 24" width="24" xmlns="http://www.w3.org/2000/svg"><path d="m21.5986 11.4871v.0032c.0011 1.1954-.3159 2.3727-.9227 3.4187-.8207 1.3462-1.9985 2.4614-3.4162 3.2286-1.4205.7688-3.0291 1.1596-4.6605 1.1302l-.0196-.0001c-1.4039.0053-2.79165-.2825-4.06802-.8428-.19352-.085-.41077-.0991-.61367-.04l-4.91272 1.4322 1.57244-4.1275c.09676-.254.07356-.5381-.06311-.773-.60788-1.0448-.92637-2.2209-.92718-3.4155.03911-1.4829.52035-2.92604 1.38962-4.15582.87162-1.23312 2.09705-2.2 3.53134-2.77949.00826-.00334.01647-.0068.02463-.01038 1.27638-.56034 2.66407-.84816 4.06797-.84283h.0035.5801c2.1073.0168 4.1301.78168 5.6849 2.14232 1.5421 1.34946 2.5164 3.19017 2.7505 5.1743z" stroke="#247aae" stroke-linecap="round" stroke-linejoin="round" stroke-width="1.8"/></svg>