<svg fill="none" height="16" viewBox="0 0 17 16" width="17" xmlns="http://www.w3.org/2000/svg"><path d="m15.7452 7.8745c.0008.90599-.2401 1.79687-.6995 2.5865-.6035.9921-1.4689 1.8111-2.5076 2.3733-1.0387.5621-2.2132.8471-3.40334.8257-1.01926.0038-2.02738-.2051-2.95547-.6125l-4.4332 1.2923 1.47774-3.8788c-.45941-.78963-.70034-1.68051-.69951-2.5865.0277-1.11141.38768-2.19129 1.03645-3.10913.64877-.91783 1.55856-1.63436 2.61943-2.06298.92809-.40743 1.9362-.61636 2.95546-.61249h.38912c1.54702.01175 3.03562.57289 4.18272 1.57669s1.8726 2.38023 2.0386 3.86753z" fill="#008699"/></svg>