<svg fill="none" height="15" viewBox="0 0 17 15" width="17" xmlns="http://www.w3.org/2000/svg"><path d="m15.4729 9.72083v.00005l.005-.00845c.5033-.8652.7681-1.8426.7673-2.83758 0-.00027 0-.00054 0-.00081l.0009-.33859c0-.01897-.001-.03793-.0031-.05678-.1801-1.61395-.9671-3.104-2.2062-4.18835-1.2387-1.08399-2.8433-1.687759-4.50823-1.700409v-.000015h-.00379-.38818c-1.08588-.003984-2.16037.218114-3.15061.651694-1.14515.46419-2.12976 1.23955-2.83352 2.23518-.70531.99783-1.0978 2.17362-1.12799 3.38527h-.00014l-.00002.012c-.00084.9146.22265 1.81438.64964 2.62583l-1.39511 3.66193c-.06755.1774-.02891.3777.09978.5171.12868.1395.32522.1941.5074.141l4.262-1.2425c.94329.3875 1.95811.5858 2.98318.5826 1.27369.022 2.53139-.2834 3.64489-.886 1.1152-.6035 2.0465-1.4841 2.6968-2.55317z" fill="#408053" stroke="#fff" stroke-linecap="round" stroke-linejoin="round"/></svg>