<svg fill="none" height="32" viewBox="0 0 32 32" width="32" xmlns="http://www.w3.org/2000/svg"><g fill="#1c8aa9"><path d="m9.99144 14.6596-2.99748-1.6669c.13881-.1344.2561-.2067.2561-.2067.45976-.8005.55614-1.857.17467-2.85981-.62666-1.64736-2.30612-2.52575-3.751-1.96185-1.44487.5639-2.10814 2.35656-1.48148 4.00396.38146 1.0026 1.15291 1.7204 2.02402 2.0015 0 0 .33978-.0645.70899.034.0378.3837.25506.7428.61396.9423l.3991.2218c.28449.7395.47843 1.6168.47843 1.6168s.18588.0329.56824-.1164c.38237-.1492.49846-.2998.49846-.2998s-.10892-.1949-.25236-.4815l3.38831 1.8843c.1795.0998.3775.1494.5755.1494.2114 0 .4228-.0568.6108-.17.364-.2191.5861-.6167.5845-1.0454l-.0043-1.1216-2.3967-1.5191z"/><path d="m12.3164 9.52723c1.5166-1.08494 1.8777-3.20972.8065-4.74583-1.0711-1.5361-3.1689-1.90185-4.68548-.81691-1.51658 1.08495-1.87768 3.20973-.80653 4.74583 1.07115 1.53608 3.16891 1.90188 4.68551.81691z"/><path d="m12.4866 19.4399-.5612.4203c-.2098.1573-.384.3579-.511.5889l-3.7443 6.8104c-.49189.8946-.17467 2.0236.70854 2.5217.2821.159.58751.2345.88889.2345.6425 0 1.26607-.3434 1.60067-.9522l3.5517-6.4602.9978-.7472z"/><path d="m19.3559 18.9071c.1377-.1032.2555-.2231.3557-.3537l.3625 2.8102 3.5033-1.462-.5871-4.551c-.0103-.0796-.0269-.1565-.0466-.232-.0214-.1884-.0883-.3743-.204-.54l-.867-1.2436c-.9347.8286-2.0847 1.6021-3.1235 2.2293-.2361.1424-.5055.2178-.7791.2178-.5347 0-1.0368-.2888-1.3104-.7536"/><path d="m20.337 23.4073c.0608.4714.298.9012.6629 1.2006l6.0267 4.9439c.339.278.7462.4131 1.1508.4131.5331 0 1.0618-.2348 1.4235-.687.6362-.7958.5152-1.9633-.2705-2.6075l-5.4584-4.4778-.2154-1.6699-3.5033 1.462z"/><path d="m20.903 10.4323c-.4862.6345-2.0226 1.8447-3.546 2.7656-.5672.3425-.7528 1.0856-.4148 1.6599.2237.3802.6207.591 1.028.591.2083 0 .4191-.0551.6108-.1709 1.6834-1.0162 4.5468-2.9719 4.8132-4.6506.0853-.5378-.0563-1.05436-.3989-1.45421-.1566-.18282-.312-.35701-.467-.52697l-1.8781 1.50868c.0829.0895.167.1815.2528.2775z"/></g></svg>