<svg fill="none" height="17" viewBox="0 0 16 17" width="16" xmlns="http://www.w3.org/2000/svg"><g fill="#408053"><path d="m9.16649 6.16699h-5.83373c-.64346 0-1.16674.52329-1.16674 1.16675v5.83376c0 .6434.52328 1.1667 1.16674 1.1667h5.83373c.64346 0 1.16671-.5233 1.16671-1.1667v-5.83376c0-.64346-.52325-1.16675-1.16671-1.16675z"/><path d="m12.6684 2.66699h-5.83369c-.30944 0-.6062.12293-.82501.34173-.21881.21881-.34173.51558-.34173.82502v1.16674h4.66693c.3095 0 .6063.12293.8251.34173.2188.21881.3417.51558.3417.82502v4.66697h1.1667c.3095 0 .6062-.1229.8251-.3417.2188-.2188.3417-.5156.3417-.82504v-5.83372c0-.30944-.1229-.60621-.3417-.82502-.2189-.2188-.5156-.34173-.8251-.34173z"/></g></svg>