<svg fill="none" height="16" viewBox="0 0 16 16" width="16" xmlns="http://www.w3.org/2000/svg"><path clip-rule="evenodd" d="m1.6304 3.34684c0-.19155-.14112-.34684-.3152-.34684s-.3152.15529-.3152.34684v.46341 1.56077 1.2722 1.77441 4.23557c0 .1915.14112.3468.3152.3468s.3152-.1553.3152-.3468v-4.23557h1.05908 1.52684 1.50668 1.57222 1.78025 1.62263 3.6715v4.23557c0 .1915.1411.3468.3152.3468s.3152-.1553.3152-.3468v-9.30636c0-.19155-.1411-.34684-.3152-.34684s-.3152.15529-.3152.34684v.46341h-1.9303-1.7412-1.62263-1.78025-1.57222-1.50668-1.52684-1.05908zm10.4937 1.15709h-1.1108v.52025h1.1108zm.6304.52025v-.52025h1.6151v3.22003h-3.3563v-.73391h.6229c.174 0 .3152-.15528.3152-.34683 0-.19157-.1412-.34684-.3152-.34684h-.6229v-.57852h1.1108v.83657c0 .19155.1411.34683.3152.34683s.3152-.15528.3152-.34683v-.83657h.082c.1741 0 .3152-.15529.3152-.34684s-.1411-.34684-.3152-.34684zm-2.3716 2.69978v-.73391h-.99223v.73391zm0-2.0061v.57852h-.99223v-.57852zm0-1.21393v.52025h-.99223v-.52025zm-1.62263 0h-1.14985v.52025h1.14985zm0 1.21393h-1.14985v.57852h1.14985zm0 1.27219h-1.14985v.73391h1.14985zm-1.78025.73391v-.73391h-.94182v.73391zm0-2.0061v.57852h-.94182v-.57852zm0-1.21393v.52025h-.94182v-.52025zm-1.57223 0h-.87627v.52025h.87627zm0 1.21393h-.87627v.57852h.87627zm0 1.27219h-.87627v.73391h.87627zm-1.50667.73391v-.73391h-.89644v.73391zm0-2.0061v.57852h-.89644v-.57852zm0-1.21393v.52025h-.89644v-.52025zm-1.52684 0h-.74388v.52025h.74388zm0 1.21393h-.74388v.57852h.74388zm0 1.27219h-.74388v.73391h.74388z" fill="#408053" fill-rule="evenodd"/></svg>