<svg fill="none" height="24" viewBox="0 0 24 24" width="24" xmlns="http://www.w3.org/2000/svg"><g fill="#408053"><path d="m14.1015 12.5649c.3208.2812.3568.767.0802 1.0851l-.1057.1216c-.2766.3181-.7609.348-1.0818.0668-.3208-.2812-.3568-.767-.0802-1.0851l.1057-.1216c.2766-.3181.7609-.348 1.0818-.0668z"/><path d="m16.4952 10.3187c.1625-.39174-.0233-.84104-.415-1.00356-.3918-.16252-.8411.02329-1.0036.41501-.1741.41975-.6239 1.26445-.9392 1.67535-.2581.3365-.1946.8186.1419 1.0767s.8185.1946 1.0767-.1418c.42-.5476.9308-1.5195 1.1392-2.0217z"/><path clip-rule="evenodd" d="m8.11641 14.9906c-2.02067-.093-3.50988-.9048-4.56393-2.1025-1.09705-1.2465-1.68049-2.8607-1.98224-4.37655-.38306-1.92432.97127-3.46434 2.66362-3.86746.00232-1.24267 1.04441-2.1917 2.25245-2.1917h11.06579c1.2069 0 2.2498.94736 2.2523 2.19204 1.6917.40364 3.0453 1.94331 2.6623 3.86712-.3017 1.51585-.8852 3.13005-1.9823 4.37655-1.0381 1.1796-2.4984 1.9849-4.4727 2.0978-.4709.4362-.9982.8021-1.587 1.0706.0567.3612.151.7809.293 1.2016.223.6609.5406 1.2564.9509 1.649.041.0393.077.0824.1077.1284.626.2605 1.066.878 1.066 1.5983 0 .9556-.7747 1.7304-1.7304 1.7304h-6.20885c-.9557 0-1.73044-.7748-1.73044-1.7304 0-.7309.45313-1.356 1.09378-1.6096.02897-.0418.06239-.081.10008-.1171.40919-.3916.72414-.9858.94456-1.6465.14652-.4393.24128-.8778.29612-1.2504-.54891-.2627-1.04446-.61-1.49074-1.0196zm-3.72268-8.80478c-.92522.2966-1.49099 1.15316-1.31726 2.02589.27377 1.37529.77902 2.69609 1.6289 3.66179.4978.5656 1.12857 1.0272 1.94254 1.3047-.17907-.2901-.34501-.5902-.49848-.8966-.9421-1.8813-1.48099-4.11571-1.7557-6.09578zm8.79897 8.68568c-.4447.0909-.7878.1391-1.1128.1484h-.0124c-2.0397 0-3.50233-1.3442-4.54485-3.426-1.04153-2.07985-1.56301-4.72503-1.75022-6.88259-.03218-.37089.26926-.72313.71388-.72313h11.06579c.4418 0 .7429.34817.7143.71722-.1671 2.15761-.6645 4.80533-1.6873 6.8873-.8241 1.6775-1.9242 2.8758-3.3864 3.2788zm-1.0894 1.6841c-.0277.0007-.0554.0012-.0832.0015-.3096.0031-.6142-.0198-.9349-.0682-.0695.3928-.1727.8242-.3173 1.2577-.1035.3102-.2318.6322-.3902.9474h3.2772c-.1589-.3142-.288-.6354-.3924-.9449-.146-.4325-.2508-.8633-.3215-1.2561-.2691.0396-.5482.061-.8377.0626zm5.3768-3.4096c.7702-.2802 1.3724-.7282 1.8514-1.2725.8499-.9657 1.3552-2.28652 1.629-3.66179.1729-.86878-.387-1.72158-1.3049-2.02185-.2575 1.9753-.7758 4.20264-1.698 6.07994-.147.2993-.306.5925-.4775.8762zm-2.3682 7.2931h-6.20885c-.1075 0-.19465.0872-.19465.1947s.08715.1946.19465.1946h6.20885c.1075 0 .1947-.0871.1947-.1946s-.0872-.1947-.1947-.1947z" fill-rule="evenodd"/></g></svg>