<svg fill="none" height="32" viewBox="0 0 32 32" width="32" xmlns="http://www.w3.org/2000/svg"><path d="m24.4 5.93021v-2.93021h-16.8v2.93021h-5.6v4.17509c0 3.5881 2.6446 6.534 6.0536 7.0086.48829 1.4534 1.35436 2.746 2.5067 3.741 1.1523.9951 2.548 1.6557 4.0397 1.9119v1.549c0 .7538-.295 1.4767-.8201 2.0097s-1.2373.8324-1.9799.8324h-1.4v2.8421h11.2v-2.8421h-1.4c-.7426 0-1.4548-.2994-1.9799-.8324s-.8201-1.2559-.8201-2.0097v-1.549c1.4917-.2562 2.8874-.9168 4.0397-1.9119 1.1523-.995 2.0184-2.2876 2.5067-3.741 3.409-.4746 6.0536-3.4205 6.0536-7.0086v-4.17509zm-19.6 4.17509v-1.33299h2.8v5.35169c-.81831-.2945-1.52676-.839-2.02809-1.5585s-.77097-1.5789-.77191-2.4602zm22.4 0c-.0011.8814-.2707 1.7409-.772 2.4607-.5013.7197-1.2097 1.2644-2.028 1.5594v-5.35309h2.8z" fill="#408053"/><path d="m15.5245 8.46352c.1496-.46065.8014-.46065.951.00001l.5348 1.64587c.067.206.2589.3455.4755.3455h1.7306c.4844 0 .6858.6198.2939.9045l-1.4001 1.0172c-.1752.1274-.2485.3531-.1816.5591l.5348 1.6459c.1497.4606-.3776.8437-.7694.559l-1.4001-1.0172c-.1753-.1274-.4125-.1274-.5878 0l-1.4001 1.0172c-.3918.2847-.9191-.0984-.7694-.559l.5348-1.6459c.0669-.206-.0064-.4317-.1816-.5591l-1.4001-1.0172c-.3919-.2847-.1905-.9045.2939-.9045h1.7306c.2166 0 .4085-.1395.4755-.3455z" fill="#fff"/></svg>