<svg fill="none" height="16" viewBox="0 0 16 16" width="16" xmlns="http://www.w3.org/2000/svg"><path d="m7.86508 8.8993 3.18152 2.3296c.2622.1966.7388.3515 1.0665.3515h1.847l-7.81092-5.73159c.12372-.47345.07699-.97533-.13201-1.41781-.209-.44247-.56696-.79735-1.01122-1.00253-.44426-.20517-.94653-.24757-1.41889-.11978-.47237.1278-.88475.41765-1.16497.81882-.28022.40118-.41043.88813-.36783 1.37562.04259.48749.25527.94448.60082 1.29098s.80195.56044 1.28932.60438c.48738.04394.97468-.08493 1.37662-.36404l1.32863.97115-1.32863.97115c-.40088-.28091-.88781-.41184-1.37551-.36986-.4877.04199-.94509.2542-1.29207.59949s-.56143.80162-.60579 1.28912c-.04437.4875.08418.9751.36313 1.3773.27894.4023.69051.6936 1.16262.8229.47212.1293.97468.0884 1.41969-.1155.445-.2039.80408-.5579 1.01436-.9999.21027-.4421.25834-.944.13577-1.4179l1.72782-1.2631zm-3.73565-2.68109c-.11736 0-.23357-.02312-.342-.06803s-.20695-.11074-.28994-.19373-.14882-.18151-.19373-.28994c-.04491-.10842-.06803-.22464-.06803-.342s.02312-.23357.06803-.342.11074-.20695.19373-.28994c.08299-.08298.18151-.14881.28994-.19373.10843-.04491.22464-.06802.342-.06802.23702 0 .46434.09415.63194.26175s.26176.39492.26176.63194-.09416.46434-.26176.63194-.39492.26176-.63194.26176zm0 5.36219c-.23702 0-.46434-.0942-.63194-.2618s-.26176-.3949-.26176-.6319.09416-.4644.26176-.632c.1676-.16755.39492-.26171.63194-.26171s.46434.09416.63194.26171c.1676.1676.26176.395.26176.632s-.09416.4643-.26176.6319-.39492.2618-.63194.2618zm6.91127-6.79806c.3188-.21269.6896-.33424 1.0724-.35152h1.847l-4.4685 3.27688-1.22138-.8937z" fill="#1c8aa9"/></svg>