<svg fill="none" height="16" viewBox="0 0 32 16" width="32" xmlns="http://www.w3.org/2000/svg" xmlns:xlink="http://www.w3.org/1999/xlink"><clipPath id="a"><path d="m0 0h32v16h-32z"/></clipPath><g clip-path="url(#a)"><path d="m31.9359 1.056-4.5255 13.8453c-.2996.8534-.6634 1.0987-1.5514 1.0987h-24.99228c-.759612 0-1.005684-.3413-.7810099-1.0773l4.4934799-13.84537c.27817-.831997.62053-1.07733 1.52992-1.07733h25.01369c.7596 0 1.0057.341333.8131 1.056z" fill="#f6a500"/><path d="m18.8622 12.7573h5.2638l.5671-1.5467h-2.1933v-8.04263h-3.5199v1.52533h1.7974v6.528h-1.9151zm-1.7011-4.77866c0-2.848-1.9471-4.81067-4.9535-4.81067h-4.39718l-.51354 1.62133h1.62621v7.9787h3.29521c2.9957-.0107 4.9428-1.9734 4.9428-4.78936zm-1.8936 0c0 2.11196-1.3267 3.18936-3.1027 3.18936h-1.455v-6.4107h1.455c1.776 0 3.1027 1.056 3.1027 3.22134z" fill="#fff"/></g></svg>