<svg fill="none" height="16" viewBox="0 0 32 16" width="32" xmlns="http://www.w3.org/2000/svg" xmlns:xlink="http://www.w3.org/1999/xlink"><clipPath id="a"><path d="m0 0h32v16h-32z"/></clipPath><g clip-path="url(#a)"><path d="m31.9359 1.056-4.5255 13.8453c-.2996.8534-.6634 1.0987-1.5514 1.0987h-24.99228c-.759612 0-1.005684-.3413-.7810099-1.0773l4.4934799-13.84537c.27817-.831997.62053-1.07733 1.52992-1.07733h25.01369c.7596 0 1.0057.341333.8131 1.056z" fill="#e94282"/><path d="m17.8976 4.45867 1.0935 1.11455c.6099-.5783 1.4511-.98838 2.2502-.98838.8937 0 1.5982.50471 1.5982 1.35639 0 .74654-.3891 1.26176-2.1555 3.01771l-2.4184 2.39736v1.2828h6.1721l.5363-1.5036h-4.3531v-.0211l1.7139-1.64025c1.5982-1.52462 2.2291-2.39733 2.2291-3.68012 0-1.45102-1.1356-2.75484-3.2385-2.75484-1.3249-.01051-2.5971.62037-3.4278 1.41948zm-1.5246 3.45932c0-2.80741-1.9137-4.74211-4.8893-4.74211h-4.31103l-.5047 1.59823h1.5772v7.86499h3.23853c2.9861-.0106 4.8893-1.9452 4.8893-4.72111zm-1.8821 0c0 2.0819-1.3039 3.16491-3.0493 3.16491h-1.43v-6.34034h1.43c1.7454 0 3.0493 1.0725 3.0493 3.17543z" fill="#fff"/></g></svg>