<svg fill="none" height="16" viewBox="0 0 32 16" width="32" xmlns="http://www.w3.org/2000/svg" xmlns:xlink="http://www.w3.org/1999/xlink"><clipPath id="a"><path d="m0 0h32v16h-32z"/></clipPath><g clip-path="url(#a)"><path d="m31.9359 1.056-4.5255 13.8453c-.2996.8534-.6634 1.0987-1.5514 1.0987h-24.99228c-.759612 0-1.005684-.3413-.7810099-1.0773l4.4934799-13.84537c.27817-.831997.62053-1.07733 1.52992-1.07733h25.01369c.7596 0 1.0057.341333.8131 1.056z" fill="#e95b0c"/><path clip-rule="evenodd" d="m10.6447 3c1.5654 0 2.8218.46344 3.7384 1.42122.9063.94747 1.3697 2.14212 1.3491 3.59423 0 1.44181-.4428 2.63645-1.3491 3.58395-.9166.9372-2.173 1.4006-3.7384 1.4006h-3.30587v-8.34192h-1.33883l.43254-1.65808zm2.2657 7.5283c.6076-.54581.9269-1.3594.9269-2.51285 0-1.13285-.3193-1.94645-.9269-2.49228-.5973-.56642-1.38-.84449-2.3481-.84449h-1.36971v6.68382h1.36971c.9578 0 1.7405-.2883 2.3481-.8342zm9.2636-3.80298c.6579.13158 1.2044.43522 1.67.91093.5668.5668.8401 1.26518.8603 2.11538 0 .91097-.3643 1.69027-1.0627 2.31777-.7085.6276-1.5891.9413-2.6012.9413-.6984 0-1.336-.1113-1.9433-.3542-.5972-.253-1.0932-.5769-1.498-.9818l-.1518-.1518 1.2044-1.2045.1518.1417c.3138.2936.6377.5061 1.0021.6681.3542.1518.749.2226 1.2044.2226.5263 0 .9514-.1417 1.3158-.4352.3644-.2834.5364-.668.5364-1.15385 0-.51619-.2024-.89068-.587-1.15384-.415-.2834-.9109-.4251-1.5283-.4251-.0306 0-.0604-.00064-.0902-.00128-.0885-.00189-.1757-.00376-.2742.0114-.1316.02024-.2429.03036-.3543.04048l-.253.04049v-1.18421l2.4089-2.40891h-4.0992v-1.67004h6.4069v1.39676z" fill="#fff" fill-rule="evenodd"/></g></svg>