<svg fill="none" height="16" viewBox="0 0 32 16" width="32" xmlns="http://www.w3.org/2000/svg" xmlns:xlink="http://www.w3.org/1999/xlink"><clipPath id="a"><path d="m0 0h32v16h-32z"/></clipPath><g clip-path="url(#a)"><path d="m31.9359 1.056-4.5255 13.8453c-.2996.8534-.6634 1.0987-1.5514 1.0987h-24.99228c-.759612 0-1.005684-.3413-.7810099-1.0773l4.4934799-13.84537c.27817-.831997.62053-1.07733 1.52992-1.07733h25.01369c.7596 0 1.0057.341333.8131 1.056z" fill="#41b384"/><path clip-rule="evenodd" d="m11.0286 2.70605c1.6322 0 2.9422.48323 3.8979 1.48188.945.98792 1.4068 2.2443 1.396 3.75839 0 1.50336-.4617 2.74898-1.4067 3.73688-.9557.9772-2.2658 1.4604-3.898 1.4604h-3.44696v-8.69795h-1.2349l.44027-1.7396zm2.3624 7.83895c.6228-.56915.9557-1.41747.9557-2.62015 0-1.17047-.3329-2.0188-.9665-2.58792-.6228-.59061-1.4389-.88054-2.4483-.88054h-1.42818v6.95841h1.43888c.9987 0 1.8041-.3007 2.4484-.8698zm10.9415-4.33827v3.00671h1.7611l-.6336 1.68586h-1.1275v2.2443h-1.8792v-2.2443h-4.7892v-1.34223l2.8993-6.84027h2.008l-2.8026 6.49664h2.6845v-3.00671z" fill="#fff" fill-rule="evenodd"/></g></svg>