<svg fill="none" height="16" viewBox="0 0 32 16" width="32" xmlns="http://www.w3.org/2000/svg" xmlns:xlink="http://www.w3.org/1999/xlink"><clipPath id="a"><path d="m0 0h32v16h-32z"/></clipPath><g clip-path="url(#a)"><path d="m31.9359 1.056-4.5255 13.8453c-.2996.8534-.6634 1.0987-1.5514 1.0987h-24.99228c-.759612 0-1.005684-.3413-.7810099-1.0773l4.4934799-13.84537c.27817-.831997.62053-1.07733 1.52992-1.07733h25.01369c.7596 0 1.0057.341333.8131 1.056z" fill="#77b729"/><g fill="#fff"><path d="m14.6507 4.48274c-.9494-.992-2.2507-1.472-3.872-1.472h-4.3307l-.448 1.728h1.344v8.63996h3.424c1.6213 0 2.9227-.48 3.872-1.4506.9387-.9814 1.3973-2.21869 1.3973-3.71202.0214-1.504-.4373-2.752-1.3866-3.73334zm-.576 3.712c0 1.19467-.3307 2.03736-.96 2.60266-.64.5653-1.44.864-2.432.864h-1.4187v-6.91199h1.4187c1.0026 0 1.8133.288 2.432.87467.6293.56533.96 1.408.96 2.57066z"/><path d="m24.7412 8.6c-.2027-.43733-.48-.78933-.8214-1.088-.3306-.27733-.7146-.49067-1.1413-.64s-.8427-.224-1.2693-.224c-.3734 0-.736.04267-1.088.128-.2027.05333-.384.11733-.5547.18133l.1173-2.208h4.3627l.64-1.74933h-6.6027l-.3413 5.696 1.4933.16.064-.04267c.2134-.128.4587-.256.736-.33066.2774-.096.5654-.128.8747-.128.6187 0 1.088.17066 1.3973.50133.3307.33067.4907.71467.4907 1.1733 0 .48-.1707.8747-.544 1.2267-.3413.3307-.8213.5013-1.44.5013-.5013 0-.9387-.0746-1.3227-.2346-.384-.1707-.7253-.3947-1.056-.704l-.16-.1494-1.2906 1.2907.16.16c.4266.4267.9386.7573 1.536 1.0027.6186.2666 1.3226.384 2.1333.384 1.1413 0 2.0907-.3307 2.8267-1.0134.7253-.6826 1.1093-1.504 1.1093-2.464 0-.51197-.1067-1.00263-.3093-1.4293z"/></g></g></svg>