<svg fill="none" height="17" viewBox="0 0 16 17" width="16" xmlns="http://www.w3.org/2000/svg"><path d="m13.3747 2.89307h-10.74893c-.2851 0-.55853.11831-.76013.32891s-.31486.49623-.31486.79407v7.48605c0 .2978.11326.5835.31486.7941s.47503.3289.76013.3289h4.29949l-.35833 1.123h-1.61297c-.14255 0-.27926.0591-.38006.1644s-.15743.2481-.15743.397c0 .149.05663.2918.15743.3971s.23751.1644.38006.1644h6.09164c.1425 0 .2792-.0591.38-.1644s.1575-.2481.1575-.3971c0-.1489-.0567-.2917-.1575-.397s-.2375-.1644-.38-.1644h-1.61251l-.35833-1.1225h4.29954c.285 0 .5583-.1183.7599-.3288s.3149-.496.315-.7937v-7.48705c0-.29784-.1132-.58347-.3148-.79407s-.475-.32891-.7601-.32891zm-.3588 8.23473h-10.03275v-6.73742h10.03275z" fill="#1e78af"/></svg>