<svg fill="none" height="17" viewBox="0 0 16 17" width="16" xmlns="http://www.w3.org/2000/svg"><path d="m13.3335 3.16699h-10.66667c-.73333 0-1.32667.6-1.32667 1.33334l-.00666 7.99997c0 .7334.6 1.3334 1.33333 1.3334h10.66667c.7333 0 1.3333-.6 1.3333-1.3334v-7.99997c0-.73334-.6-1.33334-1.3333-1.33334zm-.2667 2.83334-4.7133 2.94666c-.21334.13334-.49334.13334-.70667 0l-4.71333-2.94666c-.06685-.03753-.12539-.08823-.17208-.14904-.04669-.0608-.08055-.13045-.09954-.20472s-.02272-.15162-.01095-.22737c.01177-.07576.03879-.14833.07942-.21334s.09403-.1211.15696-.16487c.06294-.04377.1341-.07432.20918-.0898.07509-.01547.15253-.01555.22764-.00023.07512.01532.14634.04572.20937.08937l4.46666 2.79333 4.46664-2.79333c.0631-.04365.1343-.07405.2094-.08937s.1525-.01524.2276.00023c.0751.01548.1463.04603.2092.0898s.1163.09986.157.16487c.0406.06501.0676.13758.0794.21334.0118.07575.008.1531-.011.22737-.0189.07427-.0528.14392-.0995.20472-.0467.06081-.1052.11151-.1721.14904z" fill="#1c8aa9"/></svg>