<svg fill="none" height="16" viewBox="0 0 16 16" width="16" xmlns="http://www.w3.org/2000/svg"><path d="m3.33333 14c-.36666 0-.68066-.1307-.942-.392-.26133-.2613-.39177-.5751-.39133-.9413v-9.33337c0-.36666.13067-.68066.392-.942.26133-.26133.57511-.39177.94133-.39133h4c.18889 0 .34734.064.47534.192s.19178.28622.19133.47467c0 .18889-.064.34733-.192.47533s-.28622.19178-.47467.19133h-4v9.33337h4c.18889 0 .34734.064.47534.192s.19178.2862.19133.4746c0 .1889-.064.3474-.192.4754s-.28622.1917-.47467.1913zm8.11667-5.33333h-4.78333c-.18889 0-.34734-.064-.47534-.192s-.19177-.28622-.19133-.47467c0-.18889.064-.34733.192-.47533s.28622-.19178.47467-.19134h4.78333l-1.25-1.25c-.1222-.12222-.1833-.27222-.1833-.45 0-.17777.0611-.33333.1833-.46666.1222-.13334.2778-.20289.4667-.20867s.35.05822.4833.192l2.3833 2.38333c.1334.13334.2.28889.2.46667s-.0666.33333-.2.46667l-2.3833 2.38333c-.1333.1333-.2918.1973-.4753.192-.1836-.0053-.3418-.0749-.4747-.2087-.1222-.1333-.1807-.2917-.1753-.4753.0053-.1836.0693-.3362.192-.458z" fill="#008699"/></svg>