<svg fill="none" height="24" viewBox="0 0 24 24" width="24" xmlns="http://www.w3.org/2000/svg"><path d="m12 9.3c-.7595 0-1.4879.28446-2.0249.7908-.53703.5064-.83874 1.1931-.83874 1.9092s.30171 1.4028.83874 1.9092c.537.5063 1.2654.7908 2.0249.7908s1.4879-.2845 2.0249-.7908c.537-.5064.8387-1.1931.8387-1.9092s-.3017-1.4028-.8387-1.9092c-.537-.50634-1.2654-.7908-2.0249-.7908zm0 7.2c-1.2658 0-2.47977-.4741-3.37483-1.318s-1.3979-1.9885-1.3979-3.182.50284-2.33807 1.3979-3.18198 2.10903-1.31802 3.37483-1.31802 2.4798.47411 3.3748 1.31802c.8951.84391 1.3979 1.98848 1.3979 3.18198s-.5028 2.3381-1.3979 3.182c-.895.8439-2.109 1.318-3.3748 1.318zm0-11.25c-4.77273 0-8.84864 2.799-10.5 6.75 1.65136 3.951 5.72727 6.75 10.5 6.75 4.7727 0 8.8486-2.799 10.5-6.75-1.6514-3.951-5.7273-6.75-10.5-6.75z" fill="#04162c" fill-opacity=".5"/></svg>