<svg fill="none" height="17" viewBox="0 0 16 17" width="16" xmlns="http://www.w3.org/2000/svg" xmlns:xlink="http://www.w3.org/1999/xlink"><radialGradient id="a" cx="0" cy="0" gradientTransform="matrix(10.50002631 12.42501524 -12.42501524 10.50002631 2.4 3.07988)" gradientUnits="userSpaceOnUse" r="1"><stop offset="0" stop-color="#51c276"/><stop offset=".40625" stop-color="#47a99d"/><stop offset="1" stop-color="#3783d7"/></radialGradient><path d="m8 1.50488c-1.38447 0-2.73784.41055-3.88899 1.17972-1.15114.76917-2.04835 1.86242-2.57816 3.1415-.52982 1.27908-.66844 2.68655-.39834 4.04441.27009 1.35789.93678 2.60519 1.91575 3.58409.97896.979 2.22624 1.6457 3.58411 1.9158s2.76533.1315 4.04443-.3984c1.2791-.5298 2.3723-1.427 3.1415-2.5781.7692-1.1512 1.1797-2.50455 1.1797-3.88902 0-1.85651-.7375-3.63699-2.0503-4.94974-1.3127-1.31276-3.09318-2.05026-4.9497-2.05026z" fill="url(#a)"/><path d="m5.0207 9.73438-.11718-4.67774h1.46484l-.11719 4.67774zm.61524 2.42672c-.44434 0-.7959-.3369-.7959-.7666s.35156-.7666.7959-.7666c.44433 0 .7959.3369.7959.7666s-.35157.7666-.7959.7666zm1.74883-2.42672-.11719-4.67774h1.46484l-.11719 4.67774zm.61523 2.42672c-.44434 0-.7959-.3369-.7959-.7666s.35156-.7666.7959-.7666.7959.3369.7959.7666-.35156.7666-.7959.7666zm1.74883-2.42672-.11719-4.67774h1.46486l-.1172 4.67774zm.61527 2.42672c-.44437 0-.79594-.3369-.79594-.7666s.35157-.7666.79594-.7666c.4443 0 .7959.3369.7959.7666s-.3516.7666-.7959.7666z" fill="#fff"/></svg>