<svg width="16" height="16" viewBox="0 0 16 16" fill="none" xmlns="http://www.w3.org/2000/svg">
<path d="M8.52545 10.4401L3.30911 6.99755C3.06399 5.77309 3.32196 4.39202 4.13181 3.20459C5.61824 1.02531 8.7121 0.605928 10.6514 1.92164C12.5908 3.23741 13.247 6.10451 11.7606 8.28379C10.9507 9.47123 9.75742 10.2178 8.52545 10.4401Z" fill="#408053"/>
<path d="M7.63788 10.6934C7.63788 10.6934 6.43824 10.1869 5.53244 11.0515C4.62663 11.9161 3.43152 14.0295 3.43152 14.0295C3.43152 14.0295 3.14614 14.0134 2.63299 13.6652C2.11975 13.317 2 13.0583 2 13.0583C2 13.0583 3.5258 11.1498 3.99941 9.99193C4.47304 8.83413 3.56624 7.93107 3.56624 7.93107L3.56487 7.92603L7.64318 10.6929L7.63788 10.6934Z" fill="#408053"/>
<rect x="7.68506" y="1" width="7.24178" height="7.00442" rx="3.50221" fill="white"/>
<path d="M8.68506 5.05111V3.95331H10.757V2H11.8499V3.95331H13.9268V5.05111H11.8499V7.00442H10.757V5.05111H8.68506Z" fill="#408053"/>
</svg>
