<svg fill="none" height="32" viewBox="0 0 32 32" width="32" xmlns="http://www.w3.org/2000/svg"><g fill="#1c8aa9"><path d="m3.50002 24.7821c-.00001-.5523.4477-1 1-1h5.96188c.5523 0 1 .4477 1 1l.0001 4.2176c0 .5523-.4477 1.0001-1 1.0001h-5.96192c-.55228 0-.99999-.4478-1-1z"/><path d="m12.0202 21c0-.5523.4477-1 1-1h5.9592c.5523 0 1 .4477 1 1v8c0 .5523-.4477 1-1 1h-5.9592c-.5523 0-1-.4477-1-1z"/><path d="m20.538 26.8396c0-.5522.4477-1 1-1h5.9619c.5523 0 1 .4478 1 1v2.1604c0 .5523-.4477 1-1 1h-5.9619c-.5523 0-1-.4477-1-1z"/><path d="m14.708 11.8955-.0088-.5098c-.0879-1.248.3692-2.04781 1.582-2.75972 1.1338-.67676 1.4766-1.11621 1.4766-1.9336v-.00879c0-.84375-.6767-1.4414-1.6699-1.4414-1.0108 0-1.6699.65918-1.7227 1.56445l-.0088.07031h-2.3818v-.08789c.0703-2.06543 1.5733-3.58594 4.2715-3.58594 2.5049 0 4.1748 1.38868 4.1748 3.40137v.00879c0 1.31836-.6416 2.24121-1.8809 2.9707-1.1689.67672-1.4941 1.11622-1.4941 1.95122v.3603zm1.2041 4.21c-.791 0-1.4326-.6065-1.4326-1.3799 0-.7735.6416-1.3799 1.4326-1.3799.7998 0 1.4414.6064 1.4414 1.3799 0 .7734-.6416 1.3799-1.4414 1.3799z"/></g></svg>