<svg fill="none" height="17" viewBox="0 0 16 17" width="16" xmlns="http://www.w3.org/2000/svg"><path d="m8 1.50488c-1.38447 0-2.73784.41055-3.88899 1.17972-1.15114.76917-2.04835 1.86242-2.57816 3.1415-.52982 1.27908-.66844 2.68655-.39834 4.04441.27009 1.35789.93678 2.60519 1.91575 3.58409.97896.979 2.22624 1.6457 3.58411 1.9158s2.76533.1315 4.04443-.3984c1.2791-.5298 2.3723-1.427 3.1415-2.5781.7692-1.1512 1.1797-2.50455 1.1797-3.88902 0-1.85651-.7375-3.63699-2.0503-4.94974-1.3127-1.31276-3.09318-2.05026-4.9497-2.05026z" fill="#ffb547"/><path d="m7.16016 10.2607-.14063-5.61324h1.75781l-.14062 5.61324zm.73828 2.9122c-.53321 0-.95508-.4043-.95508-.92 0-.5156.42187-.9199.95508-.9199.5332 0 .95508.4043.95508.9199 0 .5157-.42188.92-.95508.92z" fill="#fff"/></svg>