<svg fill="none" height="24" viewBox="0 0 24 24" width="24" xmlns="http://www.w3.org/2000/svg"><path d="m4.89104 8.38614c0-.13966.05548-.2736.15423-.37236.09876-.09876.2327-.15424.37237-.15424h7.37236c.1397 0 .2736.05548.3724.15424.0987.09876.1542.2327.1542.37236 0 .13967-.0555.27361-.1542.37236-.0988.09876-.2327.15424-.3724.15424h-7.37236c-.13967 0-.27361-.05548-.37237-.15424-.09875-.09875-.15423-.23269-.15423-.37236zm8.42556 2.63296c0-.1396-.0555-.2736-.1542-.3723-.0988-.0988-.2327-.1543-.3724-.1543h-7.37236c-.13967 0-.27361.0555-.37237.1543-.09875.0987-.15423.2327-.15423.3723 0 .1397.05548.2736.15423.3724.09876.0988.2327.1542.37237.1542h7.37236c.1397 0 .2736-.0554.3724-.1542.0987-.0988.1542-.2327.1542-.3724zm8.9522 0v5.7926c-.0005.4189-.1671.8204-.4632 1.1166-.2962.2962-.6978.4628-1.1166.4632h-.5266v2.1064c-.0001.1001-.0286.1981-.0823.2826-.0538.0844-.1304.1518-.2211.1943-.0906.0424-.1915.0582-.2907.0454-.0993-.0127-.1929-.0535-.2698-.1175l-3.0131-2.5112h-5.0752c-.4188-.0004-.8204-.167-1.1166-.4632-.29612-.2962-.46271-.6977-.46317-1.1166v-1.5798h-1.86416l-3.00225 3.5019c-.07002.0816-.16333.1398-.26739.1668-.10407.0269-.2139.0214-.31474-.0158-.10084-.0373-.18786-.1045-.24936-.1927s-.09455-.1931-.09469-.3006v-3.1596h-.5266c-.41885-.0004-.82041-.167-1.11658-.4632-.29616-.2962-.46275-.6977-.46321-1.1166v-7.37235c.00046-.41885.16705-.82041.46321-1.11658.29617-.29617.69773-.46276 1.11658-.46322h11.58516c.4189.00046.8204.16705 1.1166.46322s.4627.69773.4632 1.11658v3.15959h4.2128c.4188.00046.8204.16705 1.1166.46322.2961.29614.4627.69774.4632 1.11654zm-7.3724 3.1596c.1397-.0001.2735-.0556.3723-.1543.0987-.0987.1542-.2326.1543-.3723v-7.37235c-.0001-.13964-.0556-.27353-.1543-.37227-.0988-.09874-.2326-.15425-.3723-.15433h-11.58516c-.13964.00008-.27353.05559-.37227.15433s-.15424.23263-.15433.37227v7.37235c.00009.1397.05559.2736.15433.3723s.23263.1542.37227.1543h1.0532c.13966 0 .2736.0555.37236.1543.09876.0987.15424.2327.15424.3723v2.2628l2.23341-2.6051c.04933-.0577.1106-.1041.17958-.1359s.14404-.0483.22-.0484zm6.3192-3.1596c-.0001-.1396-.0556-.2735-.1543-.3722-.0988-.0988-.2327-.1543-.3723-.1544h-4.2128v3.1596c-.0005.4189-.167.8204-.4632 1.1166s-.6977.4628-1.1166.4632h-4.2128v1.5798c.0001.1397.0556.2736.1544.3723.0987.0987.2326.1542.3722.1543h5.266c.1232 0 .2426.0431.3373.1219l2.2957 1.9135v-1.5088c0-.1396.0555-.2736.1542-.3723.0988-.0988.2327-.1543.3724-.1543h1.0532c.1396-.0001.2735-.0556.3723-.1543.0987-.0987.1542-.2326.1543-.3723z" fill="#408053" stroke="#408053" stroke-width=".3"/></svg>