<svg fill="none" height="17" viewBox="0 0 16 17" width="16" xmlns="http://www.w3.org/2000/svg"><g fill="#1c8aa9"><path d="m8.40471 5.58203c-.19436 0-.38076.08123-.51819.22581-.13744.14458-.21464.34067-.21464.54514 0 .20446.0772.40056.21464.54514.13743.14458.32383.2258.51819.2258h2.93129c.1944 0 .3808-.08122.5182-.2258.1375-.14458.2147-.34068.2147-.54514 0-.20447-.0772-.40056-.2147-.54514-.1374-.14458-.3238-.22581-.5182-.22581zm0 6.93847c-.19436 0-.38076.0813-.51819.2258-.13744.1446-.21464.3407-.21464.5452 0 .2044.0772.4005.21464.5451.13743.1446.32383.2258.51819.2258h2.93129c.1944 0 .3808-.0812.5182-.2258.1375-.1446.2147-.3407.2147-.5451 0-.2045-.0772-.4006-.2147-.5452-.1374-.1445-.3238-.2258-.5182-.2258z"/><path d="m8.40471 3.26929c-.19436 0-.38076.08122-.51819.2258-.13744.14458-.21464.34067-.21464.54514s.0772.40056.21464.54514c.13743.14458.32383.22581.51819.22581h5.86269c.1943 0 .3807-.08123.5181-.22581.1375-.14458.2147-.34067.2147-.54514s-.0772-.40056-.2147-.54514c-.1374-.14458-.3238-.2258-.5181-.2258zm0 6.93851c-.19436 0-.38076.0812-.51819.2258-.13744.1446-.21464.3407-.21464.5451 0 .2045.0772.4006.21464.5452.13743.1446.32383.2258.51819.2258h5.86269c.1943 0 .3807-.0812.5181-.2258.1375-.1446.2147-.3407.2147-.5452 0-.2044-.0772-.4005-.2147-.5451-.1374-.1446-.3238-.2258-.5181-.2258z"/><path d="m1.73283 2.5c-.19436 0-.38076.08122-.51819.2258s-.21464.34068-.21464.54514v3.85473c0 .20447.07721.40056.21464.54514s.32383.2258.51819.2258h3.66415c.19436 0 .38076-.08122.51819-.2258.13744-.14458.21464-.34067.21464-.54514v-3.85473c0-.20446-.0772-.40056-.21464-.54514-.13743-.14458-.32383-.2258-.51819-.2258zm0 6.93542c-.19436 0-.38076.08122-.51819.2258s-.21464.34068-.21464.54518v3.8547c0 .2045.07721.4005.21464.5451s.32383.2258.51819.2258h3.66415c.19436 0 .38076-.0812.51819-.2258.13744-.1446.21464-.3406.21464-.5451v-3.8547c0-.2045-.0772-.4006-.21464-.54518-.13743-.14458-.32383-.2258-.51819-.2258z"/></g></svg>