<svg fill="none" height="32" viewBox="0 0 32 32" width="32" xmlns="http://www.w3.org/2000/svg"><path d="m10 16c2.9016 0 5.25-2.3484 5.25-5.25 0-2.90156-2.3484-5.25-5.25-5.25-2.90156 0-5.25 2.34844-5.25 5.25 0 2.9016 2.34844 5.25 5.25 5.25zm3.6 1.5h-.3891c-.975.4688-2.0578.75-3.2109.75-1.15313 0-2.23125-.2812-3.21094-.75h-.38906c-2.98125 0-5.4 2.4188-5.4 5.4v1.35c0 1.2422 1.00781 2.25 2.25 2.25h13.5c1.2422 0 2.25-1.0078 2.25-2.25v-1.35c0-2.9812-2.4188-5.4-5.4-5.4zm9.9-1.5c2.4844 0 4.5-2.0156 4.5-4.5 0-2.48438-2.0156-4.5-4.5-4.5s-4.5 2.01562-4.5 4.5c0 2.4844 2.0156 4.5 4.5 4.5zm2.25 1.5h-.1781c-.6516.225-1.3406.375-2.0719.375s-1.4203-.15-2.0719-.375h-.1781c-.9562 0-1.8375.2766-2.6109.7219 1.1437 1.2328 1.8609 2.8687 1.8609 4.6781v1.8c0 .1031-.0234.2016-.0281.3h8.2781c1.2422 0 2.25-1.0078 2.25-2.25 0-2.9016-2.3484-5.25-5.25-5.25z" fill="#1c8aa9"/></svg>