<svg fill="none" height="42" viewBox="0 0 42 42" width="42" xmlns="http://www.w3.org/2000/svg"><path d="m41 21c0-11.04569-8.9543-20-20-20-11.04569 0-20 8.95431-20 20 0 11.0457 8.95431 20 20 20 11.0457 0 20-8.9543 20-20z" fill="#fff"/><path d="m41.5 21c0-11.32184-9.1782-20.5-20.5-20.5-11.32184 0-20.5 9.17816-20.5 20.5 0 11.3218 9.17816 20.5 20.5 20.5 11.3218 0 20.5-9.1782 20.5-20.5z" stroke="#213551" stroke-opacity=".1"/><g clip-rule="evenodd" fill-rule="evenodd"><path d="m30.7875 21.2273c0-.7091-.0636-1.3909-.1818-2.0455h-9.4182v3.8682h5.3818c-.2318 1.25-.9363 2.3091-1.9954 3.0182v2.5091h3.2318c1.8909-1.7409 2.9818-4.3046 2.9818-7.35z" fill="#4285f4"/><path d="m21.1864 31c2.7 0 4.9636-.8955 6.6182-2.4228l-3.2318-2.509c-.8955.6-2.041.9545-3.3864.9545-2.6046 0-4.8091-1.7591-5.5955-4.1227h-3.3409v2.5909c1.6455 3.2682 5.0273 5.5091 8.9364 5.5091z" fill="#34a853"/><path d="m15.5921 22.9c-.2-.6-.3137-1.241-.3137-1.9 0-.6591.1137-1.3001.3137-1.9001v-2.5909h-3.341c-.6772 1.35-1.0636 2.8773-1.0636 4.491 0 1.6136.3864 3.1409 1.0636 4.4909z" fill="#fbbc05"/><path d="m21.1864 14.9773c1.4682 0 2.7864.5045 3.8227 1.4954l2.8682-2.8681c-1.7318-1.6137-3.9955-2.6046-6.6909-2.6046-3.9091 0-7.2909 2.2409-8.9364 5.5091l3.3409 2.5909c.7864-2.3636 2.9909-4.1227 5.5955-4.1227z" fill="#ea4335"/></g></svg>