<svg fill="none" height="17" viewBox="0 0 16 17" width="16" xmlns="http://www.w3.org/2000/svg"><path d="m3.26358 6.69336c.44229-.2867 1.52534.47327 1.52534 2.25832v.32506c.02311.16881.162.29181.32192.28495.75329 0 1.22521.70161 1.48317 1.30841.07751.1568.25193.2281.40793.1666.075-.0125.14063-.0608.17835-.1312.03772-.0703.04338-.1551.01537-.2305-.40793-.94833-1.03151-1.51836-1.76136-1.65006l.00011-.58989c0-.57-.06563-.54664-.21563-.94506l-.00011-5.21849c0-.36006.32192-.64501.73138-.64501.40947 0 .72985.28495.72985.64501v5.05003c.03053.16393.16527.28205.32203.28205.15666 0 .2915-.11812.32192-.28205v-5.67653c0-.36006.32345-.645.73138-.645s.72517.28495.72517.645v5.67653c.02877.16602.1645.28647.32267.28647.15829 0 .29401-.12045.32278-.28647v-4.57503c0-.36167.32192-.64664.72985-.64664.4079 0 .7314.28495.7314.64664v4.93516c.0304.16392.1653.28204.3219.28204.1567 0 .2915-.11812.3219-.28204v-2.45002c0-.36006.3219-.64501.7299-.64501.4079 0 .7392.28507.7392.64501v4.1783c0 2.33326-.4517 3.33336-.7814 4.05986-.1939.41-.3767.815-.3751 1.2666-.0501 1.7801-5.2339 1.5867-5.79345 0-.19383-.4866-.59076-.8333-1.00807-1.2283-.83768-.76-1.59567-1.7151-1.87539-4.08012-.12493-.9281-.34525-2.44806.09703-2.73475z" fill="#1c8aa9"/></svg>