<svg fill="none" height="16" viewBox="0 0 16 16" width="16" xmlns="http://www.w3.org/2000/svg"><path d="m8.06683 12.3667-.06667.0666-.07333-.0666c-3.16667-2.87337-5.26-4.77337-5.26-6.70003 0-1.33334 1-2.33334 2.33333-2.33334 1.02667 0 2.02667.66667 2.38 1.57334h1.24c.35334-.90667 1.35334-1.57334 2.38004-1.57334 1.3333 0 2.3333 1 2.3333 2.33334 0 1.92666-2.0933 3.82666-5.26667 6.70003zm2.93337-10.3667c-1.16004 0-2.27337.54-3.00004 1.38667-.72666-.84667-1.84-1.38667-3-1.38667-2.05333 0-3.66666 1.60667-3.66666 3.66667 0 2.51333 2.26666 4.57333 5.7 7.68663l.96666.88.96667-.88c3.43337-3.1133 5.69997-5.1733 5.69997-7.68663 0-2.06-1.6133-3.66667-3.6666-3.66667z" fill="#247aae"/></svg>