<svg fill="none" height="17" viewBox="0 0 16 17" width="16" xmlns="http://www.w3.org/2000/svg"><path d="m7.89182 6.59807 2.01727 1.99579v-.10106c0-.50251-.20113-.98445-.55916-1.33978-.35802-.35533-.84361-.55495-1.34993-.55495zm-2.73637.50526.98637.97895c-.03182.13263-.05091.26526-.05091.41052 0 .50252.20113.98445.55916 1.33979.35802.35531.84361.55491 1.34993.55491.14 0 .28-.0189.41364-.0505l.98636.979c-.42636.2084-.89727.3347-1.4.3347-.84387 0-1.65318-.3327-2.24989-.9249-.5967-.5922-.93193-1.39547-.93193-2.233 0-.49894.12727-.96631.33727-1.38947zm-3.51909-3.49263 1.45091 1.44.28637.28421c-1.05.82105-1.87728 1.89474-2.37364 3.15789 1.10091 2.7726 3.81818 4.7368 7 4.7368.98636 0 1.92818-.1894 2.7873-.5305l.2736.2653 1.8582 1.8442.8082-.8021-11.28275-11.19791m5.55545 2.52632c.84387 0 1.65318.33271 2.2499.92493.5967.59222.9319 1.39544.9319 2.23296 0 .40421-.0827.79579-.2291 1.14948l1.8646 1.85052c.9545-.7895 1.7182-1.82526 2.1827-3-1.1009-2.77263-3.8182-4.73684-7-4.73684-.89091 0-1.74364.1579-2.54545.44211l1.3809 1.35789c.36273-.13895.75091-.22105 1.16455-.22105z" fill="#008699"/></svg>