<svg fill="none" height="24" viewBox="0 0 24 24" width="24" xmlns="http://www.w3.org/2000/svg"><path d="m5.555 14.8837c.70504 1.4255 1.84849 2.5875 3.26249 3.3152 1.40391.7209 3.00451.9643 4.55921.6934 1.5595-.2742 2.9882-1.0461 4.0724-2.2001 1.0943-1.165 1.791-2.6469 1.99-4.2328.2022-1.5895-.1022-3.20227-.87-4.60865-.7605-1.39565-1.9492-2.51015-3.3908-3.17937-1.4319-.66323-3.0411-.84114-4.5833-.50669-1.54168.33418-2.80501 1.09423-3.85 2.29598-.12584.13334-.6125.67171-1.01667 1.48426m2.52166.22168-3.00749.60004-.7425-3.1002m7.5 3.33355v3.3335l2.5 1.6668" stroke="#fff" stroke-linecap="round" stroke-linejoin="round" stroke-width="1.5"/></svg>