<svg fill="none" height="21" viewBox="0 0 20 21" width="20" xmlns="http://www.w3.org/2000/svg"><path d="m10.8333 10.1667 2.0834 2.0833c.1527.1528.2291.3472.2291.5833s-.0764.4306-.2291.5834c-.1528.1527-.3473.2291-.5834.2291s-.4305-.0764-.5833-.2291l-2.33333-2.3334c-.08334-.0833-.14584-.1772-.1875-.2816-.04167-.1039-.0625-.2114-.0625-.3225v-3.31253c0-.23611.08-.43417.24-.59417.15944-.15944.35722-.23917.59333-.23917.2361 0 .4342.07973.5942.23917.1594.16.2391.35806.2391.59417zm-.8333 7.8333c-1.68056 0-3.1875-.4967-4.52083-1.49-1.33334-.9928-2.22917-2.2878-2.6875-3.885-.06945-.25-.045-.4861.07333-.7083.11778-.2223.30167-.3611.55167-.4167.23611-.0556.44805-.0036.63583.1558.18722.16.31556.3581.385.5942.36111 1.2222 1.05917 2.2083 2.09417 2.9583 1.03444.75 2.19055 1.125 3.46833 1.125 1.625 0 3.0033-.5661 4.135-1.6983 1.1322-1.1317 1.6983-2.51 1.6983-4.135s-.5661-3.00361-1.6983-4.13583c-1.1317-1.13167-2.51-1.6975-4.135-1.6975-.95833 0-1.85417.22222-2.6875.66666-.83333.44445-1.53472 1.05556-2.10417 1.83334h1.45834c.23611 0 .43416.07972.59416.23916.15945.16.23917.35806.23917.59417s-.07972.43389-.23917.59333c-.16.16-.35805.24-.59416.24h-3.33334c-.23611 0-.43389-.08-.59333-.24-.16-.15944-.24-.35722-.24-.59333v-3.33333c0-.23611.08-.43417.24-.59417.15944-.15944.35722-.23917.59333-.23917s.43417.07973.59417.23917c.15944.16.23917.35806.23917.59417v1.125c.70833-.88889 1.57305-1.57639 2.59416-2.0625 1.02056-.48611 2.10028-.72917 3.23917-.72917 1.0417 0 2.0175.19778 2.9275.59333.9094.39611 1.7011.93084 2.375 1.60417.6733.67389 1.2081 1.46556 1.6042 2.375.3955.91.5933 1.88583.5933 2.9275 0 1.0417-.1978 2.0172-.5933 2.9267-.3961.91-.9309 1.7016-1.6042 2.375-.6739.6739-1.4656 1.2089-2.375 1.605-.91.3955-1.8858.5933-2.9275.5933z" fill="#1c8aa9"/></svg>