<svg fill="none" height="17" viewBox="0 0 16 17" width="16" xmlns="http://www.w3.org/2000/svg"><path d="m8 7.3304c.15471 0 .30308.06146.41248.17086.1094.10939.17085.25777.17085.41248v3.49996c0 .1547-.06145.3031-.17085.4125s-.25777.1709-.41248.1709-.30308-.0615-.41248-.1709-.17085-.2578-.17085-.4125v-3.49996c0-.15471.06145-.30309.17085-.41248.1094-.1094.25777-.17086.41248-.17086zm0-.875c.11491 0 .22869-.02263.33485-.0666s.20262-.10843.28387-.18968.1457-.17771.18967-.28387c.04398-.10616.06661-.21994.06661-.33485 0-.1149-.02263-.22868-.06661-.33484-.04397-.10616-.10842-.20262-.18967-.28388-.08125-.08125-.17771-.1457-.28387-.18967s-.21994-.06661-.33485-.06661c-.23176 0-.45402.09207-.61789.25594-.16388.16388-.25594.38614-.25594.6179 0 .23175.09206.45402.25594.61789.16387.16388.38613.25594.61789.25594zm-7 2.04167c0-.91925.18106-1.8295.53284-2.67878.35179-.84928.8674-1.62096 1.51741-2.27097s1.42169-1.16562 2.27097-1.51741c.84928-.35178 1.75953-.53284 2.67878-.53284s1.8295.18106 2.6788.53284c.8493.35179 1.6209.8674 2.2709 1.51741.6501.65001 1.1657 1.42169 1.5175 2.27097.3517.84928.5328 1.75953.5328 2.67878 0 1.85653-.7375 3.63703-2.0503 4.94973-1.3127 1.3128-3.09319 2.0503-4.9497 2.0503-1.85652 0-3.63699-.7375-4.94975-2.0503-1.31275-1.3127-2.05025-3.0932-2.05025-4.94973zm7-5.83333c-1.5471 0-3.03083.61458-4.12479 1.70854s-1.70854 2.57769-1.70854 4.12479c0 1.54713.61458 3.03083 1.70854 4.12483 1.09396 1.0939 2.57769 1.7085 4.12479 1.7085s3.0308-.6146 4.1248-1.7085c1.094-1.094 1.7085-2.5777 1.7085-4.12483 0-1.5471-.6145-3.03083-1.7085-4.12479s-2.5777-1.70854-4.1248-1.70854z" fill="#04162c" fill-opacity=".5"/></svg>