<svg fill="none" height="32" viewBox="0 0 32 32" width="32" xmlns="http://www.w3.org/2000/svg"><path d="m15.9998 12.6937c-.654 0-1.2933.1939-1.837.5572-.5438.3634-.9677.8798-1.2179 1.484-.2503.6042-.3158 1.2691-.1882 1.9105.1276.6415.4425 1.2306.905 1.6931.4624.4624 1.0516.7774 1.693.905.6415.1275 1.3063.0621 1.9105-.1882.6043-.2503 1.1207-.6741 1.484-1.2179.3634-.5438.5573-1.1831.5573-1.8371 0-.4342-.0855-.8642-.2517-1.2654s-.4097-.7657-.7168-1.0727c-.307-.3071-.6716-.5507-1.0728-.7168-.4011-.1662-.8311-.2517-1.2654-.2517zm13.24-3.26671c-.007-1.02965-.1966-2.0499-.56-3.01333-.2676-.70499-.6817-1.34521-1.2149-1.87842s-1.1734-.94729-1.8784-1.21491c-.9634-.36339-1.9837-.55299-3.0133-.56-1.72-.09334-2.2267-.09334-6.5734-.09334-4.3466 0-4.8533 0-6.5733.09334-1.02965.00701-2.0499.19661-3.01333.56-.70499.26762-1.34521.6817-1.87842 1.21491s-.94729 1.17343-1.21491 1.87842c-.36338.96343-.55299 1.98368-.56 3.01333-.09334 1.72001-.09334 2.22671-.09334 6.57331 0 4.3467 0 4.8534.09334 6.5734.01435 1.0332.2037 2.0566.56 3.0266.26643.7018.68017 1.3383 1.21333 1.8667.53093.5364 1.17252.9505 1.88 1.2133.96343.3634 1.98368.553 3.01333.56 1.72.0934 2.2267.0934 6.5733.0934 4.3467 0 4.8534 0 6.5734-.0934 1.0296-.007 2.0499-.1966 3.0133-.56.7075-.2628 1.3491-.6769 1.88-1.2133.5332-.5284.9469-1.1649 1.2133-1.8667.3631-.9681.5526-1.9927.56-3.0266.0934-1.72.0934-2.2267.0934-6.5734 0-4.3466 0-4.8533-.0934-6.57331zm-3.3866 10.66671c-.0428.8228-.2184 1.6332-.52 2.4-.2589.6395-.6437 1.2205-1.1316 1.7084-.4878.4879-1.0689.8727-1.7084 1.1316-.774.2848-1.589.4423-2.4134.4666h-8.16c-.8243-.0243-1.6393-.1818-2.4133-.4666-.66119-.2458-1.25829-.6377-1.74666-1.1467-.48311-.4783-.85621-1.0562-1.09334-1.6933-.28592-.7732-.43919-1.5891-.45333-2.4134v-8.16c.01414-.8242.16741-1.6401.45333-2.41331.24571-.66119.6377-1.2583 1.14667-1.74666.48044-.48051 1.05769-.85321 1.69333-1.09334.774-.28479 1.589-.44238 2.4133-.46666h8.16c.8244.02428 1.6394.18187 2.4134.46666.6612.24571 1.2583.6377 1.7466 1.14667.4831.47833.8562 1.05617 1.0934 1.69333.2848.77401.4424 1.58901.4666 2.41331v4.08c0 2.7467.0934 3.0267.0534 4.08zm-2.1334-9.92" fill="#04162c" fill-opacity=".5"/></svg>