<svg fill="none" height="32" viewBox="0 0 32 32" width="32" xmlns="http://www.w3.org/2000/svg"><g fill="#008699"><path d="m21.302 7.73308h-10.3567v-2.44762c0-1.60069 1.6148-4.802062 5.1471-4.802062 3.8315 0 5.1888 3.369562 5.2096 4.970252z"/><path clip-rule="evenodd" d="m20.635 22.3865h6.537l.898 2.0876h-5.6773l-.6959 1.5384h7.0142l2.2893 5.2378h-14.1565zm.1639 5.695h6.209l.6775 1.5389h-7.5636z" fill-rule="evenodd"/><path clip-rule="evenodd" d="m1.1875 31.2724 3.85938-8.9089h6.46252l3.8669 8.9089h-2.6034l-.9321-2.1305h-7.08408l-.92193 2.1305zm5.5452-6.8189h3.10068l1.13732 2.5901h-5.37627z" fill-rule="evenodd"/><path d="m8.83337 21.3465h-3.33142l5.41325-12.52301h10.3606l5.4639 12.52301h-3.3546l-4.052-9.3699h-6.4845z"/></g></svg>