<svg fill="none" height="16" viewBox="0 0 44 16" width="44" xmlns="http://www.w3.org/2000/svg"><g fill="#008699"><path d="m.268163 15.2049c-.2346668 0-.3153335-.1173-.2420002-.352l4.5099972-13.81598c.05867-.161332.176-.241998.352-.241998h3.916c.176 0 .29334.080666.352.241998l4.53204 13.81598c.0293.1027.022.1907-.022.264-.0294.0587-.1027.088-.22.088h-3.3c-.1907 0-.30804-.0806-.35204-.242-1.19291-3.6796-1.8572-5.79814-2.948-9.4629h-.044c-1.08656 3.73658-1.71494 5.7743-2.904 9.4409-.044.176-.16133.264-.352.264z"/><path d="m15.981 15.2049c-.2347 0-.3154-.1173-.242-.352l4.576-13.81598c.0586-.161332.176-.241998.352-.241998h3.916c.176 0 .2933.080666.352.241998l4.598 13.81598c.0293.1027.022.1907-.022.264-.0294.0587-.1027.088-.22.088h-3.3c-.1907 0-.308-.0806-.352-.242-1.2601-3.6432-1.9141-5.69886-3.014-9.40626h-.044c-1.1194 3.66587-1.7735 5.73186-2.97 9.38426-.044.176-.1614.264-.352.264zm4.3827-2.574.9067-2.83798 2.6394-.0187.9328 2.85668z"/><path d="m32.715 15.2049c-.2053 0-.308-.1026-.308-.308v-13.79398c0-.205331.1027-.307998.308-.307998h9.064c.1907 0 .286.102667.286.307998v2.53c0 .20534-.0953.308-.286.308h-5.742v2.046h1.914c1.9654 0 3.3954.374 4.29 1.122.9094.73334 1.364 1.79667 1.364 3.18998 0 1.0707-.2053 1.9727-.616 2.706-.396.7334-1.0266 1.2834-1.892 1.65-.8653.3667-1.9873.55-3.366.55zm3.322-2.926h1.694c.748 0 1.3127-.1393 1.694-.418.3814-.2786.572-.7553.572-1.43 0-.64531-.1833-1.09265-.55-1.34198-.3666-.264-.924-.396-1.672-.396h-1.738z"/></g></svg>