<svg width="14" height="14" viewBox="0 0 14 14" fill="none" xmlns="http://www.w3.org/2000/svg">
<path d="M7.85441 7.0568L7.86957 0.929215L8.71478 1.1829C8.83476 1.21891 8.91692 1.32935 8.91692 1.45462V6.44645C8.91692 7.26027 9.41345 7.99172 10.1698 8.29211L11.8382 8.9547C12.0003 9.01906 12.1067 9.1758 12.1067 9.35019V10.8878C12.1067 10.9931 12.0483 11.0897 11.9551 11.1388L11.1339 11.5713V10.0021C11.1339 9.71169 10.9568 9.4506 10.687 9.34318L8.92698 8.64247C8.27795 8.38408 7.85268 7.75537 7.85441 7.0568Z" fill="white"/>
<path d="M3.09029 3.47358L1.89258 3.09989L2.96165 2.73984C3.07505 2.70165 3.19761 2.70028 3.31183 2.73594L4.34895 3.0597C4.58388 3.13303 4.74475 3.34946 4.74724 3.59556L4.79386 8.19248C4.80306 9.09954 5.35148 9.91401 6.1885 10.2637L7.8116 10.9417C8.01974 11.0286 8.15661 11.2306 8.16021 11.4562L8.18171 12.8017C8.18514 13.0161 8.06731 13.2142 7.87718 13.3136L6.96952 13.7879L6.92789 11.9646C6.92284 11.7433 6.78953 11.5451 6.58645 11.457L4.9654 10.7538C4.15358 10.4016 3.62048 9.60973 3.59967 8.72507L3.48853 4.00187C3.48281 3.7586 3.32259 3.54605 3.09029 3.47358Z" fill="white"/>
<path d="M5.31127 0.818645L4.14205 0.493587L5.08552 0.232471C5.18126 0.205973 5.28228 0.205077 5.37848 0.229871L6.64511 0.556337C6.77094 0.588769 6.85865 0.702544 6.858 0.832485L6.82492 7.39794C6.82089 8.19777 7.29708 8.92195 8.03303 9.2352L8.93638 9.61969L9.90335 9.9919C10.0693 10.0558 10.1781 10.2161 10.176 10.394L10.158 11.9453C10.1568 12.0494 10.0986 12.1446 10.0064 12.1931L9.08308 12.6786L9.06932 10.9367C9.06755 10.7115 8.93276 10.5087 8.72583 10.4198L6.98473 9.67215C6.26094 9.36134 5.78927 8.65212 5.78251 7.86445L5.72666 1.36043C5.72449 1.10742 5.55504 0.886419 5.31127 0.818645Z" fill="white"/>
</svg>
