<svg width="14" height="14" viewBox="0 0 14 14" fill="none" xmlns="http://www.w3.org/2000/svg">
<path d="M7.50859 7.52564L7.52224 2.01034L8.28299 2.23868C8.39098 2.27109 8.46493 2.37049 8.46493 2.48325V6.97628C8.46493 7.70878 8.91185 8.36714 9.59263 8.63751L11.0943 9.23389C11.2402 9.29182 11.3359 9.4329 11.3359 9.58987V10.9738C11.3359 11.0686 11.2834 11.1556 11.1996 11.1997L10.4604 11.589V10.1767C10.4604 9.91524 10.301 9.68024 10.0581 9.58355L8.47399 8.95286C7.88981 8.72029 7.50704 8.1544 7.50859 7.52564Z" fill="#213551"/>
<path d="M4.07803 3.82185L3 3.48551L3.96225 3.16143C4.06431 3.12705 4.17463 3.12583 4.27743 3.15792L5.21093 3.44933C5.42238 3.51534 5.56717 3.71014 5.56942 3.93165L5.61137 8.06922C5.61965 8.88565 6.11328 9.61874 6.86666 9.93345L8.32757 10.5437C8.51491 10.622 8.63811 10.8038 8.64135 11.0068L8.6607 12.2178C8.66379 12.4109 8.55773 12.5892 8.3866 12.6786L7.56964 13.1056L7.53217 11.4644C7.52762 11.2652 7.40763 11.0868 7.22484 11.0075L5.76577 10.3746C5.03508 10.0576 4.55524 9.34486 4.53651 8.5486L4.43648 4.29736C4.43133 4.07839 4.28712 3.88709 4.07803 3.82185Z" fill="#213551"/>
<path d="M5.67824 1.65157L4.62586 1.359L5.47505 1.12397C5.56123 1.10012 5.65215 1.09931 5.73874 1.12163L6.8788 1.41548C6.99206 1.44467 7.071 1.54707 7.07041 1.66403L7.04064 7.57344C7.03701 8.29335 7.46563 8.94517 8.12804 9.22711L8.94112 9.57319L9.81146 9.9082C9.96085 9.96571 10.0587 10.11 10.0569 10.2701L10.0407 11.6664C10.0396 11.7601 9.98719 11.8458 9.9042 11.8894L9.07316 12.3265L9.06078 10.7586C9.05918 10.5559 8.93786 10.3733 8.75161 10.2934L7.18448 9.6204C6.53302 9.34065 6.10848 8.7023 6.10239 7.99334L6.05212 2.13922C6.05017 1.91149 5.89766 1.71258 5.67824 1.65157Z" fill="#213551"/>
</svg>
