<svg width="50" height="20" viewBox="0 0 50 20" fill="none" xmlns="http://www.w3.org/2000/svg">
<g clip-path="url(#clip0_10210_67615)">
<rect width="50" height="20" rx="10" fill="#D94E4C"/>
<path fill-rule="evenodd" clip-rule="evenodd" d="M11 16C11.7879 16 12.5681 15.8448 13.2961 15.5433C14.0241 15.2417 14.6855 14.7998 15.2426 14.2426C15.7998 13.6855 16.2417 13.0241 16.5433 12.2961C16.8448 11.5681 17 10.7879 17 10C17 9.21207 16.8448 8.43185 16.5433 7.7039C16.2417 6.97595 15.7998 6.31451 15.2426 5.75736C14.6855 5.20021 14.0241 4.75825 13.2961 4.45672C12.5681 4.15519 11.7879 4 11 4C9.4087 4 7.88258 4.63214 6.75736 5.75736C5.63214 6.88258 5 8.4087 5 10C5 11.5913 5.63214 13.1174 6.75736 14.2426C7.88258 15.3679 9.4087 16 11 16ZM10.1887 7.32667L13.9513 9.41733C14.0552 9.47509 14.1418 9.55956 14.202 9.66201C14.2623 9.76445 14.2941 9.88115 14.2941 10C14.2941 10.1189 14.2623 10.2355 14.202 10.338C14.1418 10.4404 14.0552 10.5249 13.9513 10.5827L10.1887 12.6733C10.0668 12.7411 9.92942 12.7758 9.79004 12.774C9.65066 12.7723 9.51416 12.7342 9.39405 12.6634C9.27394 12.5927 9.17439 12.4918 9.10527 12.3708C9.03616 12.2497 8.99987 12.1127 9 11.9733V8.02667C8.99987 7.88728 9.03616 7.75027 9.10527 7.62923C9.17439 7.50818 9.27394 7.40729 9.39405 7.33656C9.51416 7.26583 9.65066 7.22771 9.79004 7.22597C9.92942 7.22423 10.0668 7.25895 10.1887 7.32667Z" fill="white"/>
<path d="M26.7549 12.8022V14H23.5054V12.8022H26.7549ZM23.9189 6.17969V14H22.4795V6.17969H23.9189ZM29.7256 6.17969V14H28.2969V6.17969H29.7256ZM34.0229 12.437L35.5967 6.17969H37.1489L34.8501 14H33.792L34.0229 12.437ZM32.6587 6.17969L34.2271 12.437L34.4688 14H33.4053L31.1172 6.17969H32.6587ZM42.8911 12.8022V14H39.4966V12.8022H42.8911ZM39.9102 6.17969V14H38.4707V6.17969H39.9102ZM42.4346 9.3916V10.5571H39.4966V9.3916H42.4346ZM42.8696 6.17969V7.38281H39.4966V6.17969H42.8696Z" fill="white"/>
</g>
<rect x="0.5" y="0.5" width="49" height="19" rx="9.5" stroke="white"/>
<defs>
<clipPath id="clip0_10210_67615">
<rect width="50" height="20" rx="10" fill="white"/>
</clipPath>
</defs>
</svg>
