<svg fill="none" height="16" viewBox="0 0 17 16" width="17" xmlns="http://www.w3.org/2000/svg"><path d="m2.50007 6.49134c-.00166.10135.02753.20081.0837.2852.05617.08438.13666.1497.2308.1873l4.8005 1.9205 1.9205 4.80096c.0371.0929.10119.1725.18399.2286.0828.056.18051.086.28054.0859h.008c.1012-.0016.1996-.0339.2821-.0926.0825-.0588.1452-.1412.1799-.2364l4-10.99996c.0327-.08949.0392-.18647.0187-.27952-.0206-.09306-.0672-.17831-.1346-.24571-.0673-.06741-.1526-.11416-.2456-.13476s-.19-.01419-.2795.01849l-11.00003 4c-.09522.03471-.17765.09752-.2364.1801-.05875.08259-.09104.18106-.0926.2824z" fill="#08274d" fill-opacity=".3"/></svg>