<svg fill="none" height="16" viewBox="0 0 16 16" width="16" xmlns="http://www.w3.org/2000/svg"><path clip-rule="evenodd" d="m13.522 6.46111c0 3.41963-3.78768 7.19859-5.08894 8.39589-.24773.228-.6179.228-.86563 0-1.30126-1.1973-5.08891-4.97626-5.08891-8.39589 0-3.03119 2.47216-5.488454 5.52172-5.488454s5.52176 2.457264 5.52176 5.488454zm-3.106 0c0 1.32614-1.08157 2.40119-2.41576 2.40119-1.33418 0-2.41575-1.07505-2.41575-2.40119 0-1.32615 1.08157-2.4012 2.41575-2.4012 1.33419 0 2.41576 1.07505 2.41576 2.4012z" fill="#008699" fill-rule="evenodd"/><path d="m10.5101 6.49439c0 1.38616-1.12369 2.50987-2.50986 2.50987-1.38616 0-2.50987-1.12371-2.50987-2.50987 0-1.38617 1.12371-2.50988 2.50987-2.50988 1.38617 0 2.50986 1.12371 2.50986 2.50988z" fill="#fff"/></svg>