<svg fill="none" height="16" viewBox="0 0 16 16" width="16" xmlns="http://www.w3.org/2000/svg"><path d="m12.5889 4.08006h-1.9215c0-1.44383-1.20529-2.61326-2.69336-2.61326s-2.69333 1.16943-2.69333 2.61326h-1.87154c-.74067 0-1.34667.58799-1.34667 1.30664v7.8398c0 .7186.606 1.3066 1.34667 1.3066h9.17973c.7407 0 1.3467-.588 1.3467-1.3066v-7.8398c0-.71865-.606-1.30664-1.3467-1.30664zm-5.96153 2.61327c0 .35933-.30299.65332-.67333.65332-.37033 0-.67333-.29399-.67333-.65332v-1.30663h1.34666zm1.34667-3.9199c.74067 0 1.34667.58799 1.34667 1.30663h-2.69334c0-.71864.606-1.30663 1.34667-1.30663zm2.69336 3.9199c0 .35933-.303.65332-.67336.65332-.37033 0-.67333-.29399-.67333-.65332v-1.30663h1.34669z" fill="#408053"/></svg>