<svg fill="none" height="17" viewBox="0 0 16 17" width="16" xmlns="http://www.w3.org/2000/svg" xmlns:xlink="http://www.w3.org/1999/xlink"><linearGradient id="a" gradientUnits="userSpaceOnUse" x1="4.3909" x2="13.6549" y1=".007033" y2="17.1727"><stop offset="0" stop-color="#bfcacd"/><stop offset=".395833" stop-color="#f2f9fb"/><stop offset=".708333" stop-color="#c8d4d8"/><stop offset="1" stop-color="#cae8f0"/></linearGradient><rect fill="url(#a)" height="15" rx="7.5" width="15" x=".5" y="1"/><rect height="15" rx="7.5" stroke="#c8d8dc" width="15" x=".5" y="1"/><path d="m5.48047 12v-1.0107l2.49023-2.32914c.90821-.84961 1.09864-1.19629 1.09864-1.68457v-.00977c-.00489-.57617-.44434-.98633-1.06934-.98633-.72266 0-1.21094.47363-1.23047 1.1084l-.00488.04395h-1.36719v-.03907c0-1.32812 1.10352-2.26074 2.59277-2.26074 1.48926 0 2.51467.84961 2.51467 2.05078v.00977c0 .85449-.4053 1.41113-1.62111 2.5293l-1.47461 1.34762v.0586h3.19332v1.1719z" fill="#213551"/></svg>