<svg fill="none" height="17" viewBox="0 0 16 17" width="16" xmlns="http://www.w3.org/2000/svg" xmlns:xlink="http://www.w3.org/1999/xlink"><linearGradient id="a" gradientUnits="userSpaceOnUse" x1="3.73333" x2="12.3273" y1=".5" y2="16.1744"><stop offset="0" stop-color="#d78e5d"/><stop offset=".395833" stop-color="#ecceba"/><stop offset=".6789" stop-color="#d78a56"/><stop offset="1" stop-color="#d29a73"/></linearGradient><rect fill="url(#a)" height="15" rx="7.5" width="15" x=".5" y="1"/><rect height="15" rx="7.5" stroke="#d3976e" width="15" x=".5" y="1"/><path d="m7.9707 12.1221c-1.59668 0-2.6416-.8399-2.73925-2.0557l-.00489-.0635h1.40625l.00977.0537c.06347.503.56152.8789 1.32324.8789.75684 0 1.24512-.4052 1.24512-.9814v-.00976c0-.67383-.50293-1.04493-1.35254-1.04493h-.80567v-1.0498h.78614c.7373 0 1.21582-.39063 1.21582-.96191v-.00977c0-.57129-.40528-.91309-1.09864-.91309-.68847 0-1.15722.35645-1.21582.90332l-.00488.04395h-1.35254l.00489-.05859c.09765-1.22071 1.08886-2.02149 2.56835-2.02149 1.51856 0 2.49515.74219 2.49515 1.85059v.00976c0 .87891-.64456 1.4502-1.46975 1.6211v.02929c1.04495.09766 1.72855.70313 1.72855 1.66013v.0098c0 1.2598-1.09379 2.1094-2.7393 2.1094z" fill="#213551"/></svg>