<svg fill="none" height="24" viewBox="0 0 24 24" width="24" xmlns="http://www.w3.org/2000/svg"><path d="m7.85059 9.12488h8.00001m-8.00001 4.00002h6.00001m4-9.00002c.7956 0 1.5587.31607 2.1213.87868s.8787 1.32567.8787 2.12132v8.00002c0 .7956-.3161 1.5587-.8787 2.1213s-1.3257.8787-2.1213.8787h-5l-5.00001 3v-3h-2c-.79565 0-1.55872-.3161-2.12132-.8787-.56261-.5626-.87868-1.3257-.87868-2.1213v-8.00002c0-.79565.31607-1.55871.87868-2.12132.5626-.56261 1.32567-.87868 2.12132-.87868z" stroke="#fff" stroke-linecap="round" stroke-linejoin="round" stroke-width="1.5"/></svg>