<svg width="32" height="32" viewBox="0 0 32 32" fill="none" xmlns="http://www.w3.org/2000/svg">
<rect width="32" height="32" fill="#1E1E1E"/>
<path d="M-1476 -9977C-1476 -9978.1 -1475.1 -9979 -1474 -9979H3479C3480.1 -9979 3481 -9978.1 3481 -9977V7010C3481 7011.1 3480.1 7012 3479 7012H-1474C-1475.1 7012 -1476 7011.11 -1476 7010V-9977Z" fill="#404040"/>
<path d="M-1474 -9978H3479V-9980H-1474V-9978ZM3480 -9977V7010H3482V-9977H3480ZM3479 7011H-1474V7013H3479V7011ZM-1475 7010V-9977H-1477V7010H-1475ZM-1474 7011C-1474.55 7011 -1475 7010.55 -1475 7010H-1477C-1477 7011.66 -1475.66 7013 -1474 7013V7011ZM3480 7010C3480 7010.55 3479.55 7011 3479 7011V7013C3480.66 7013 3482 7011.66 3482 7010H3480ZM3479 -9978C3479.55 -9978 3480 -9977.55 3480 -9977H3482C3482 -9978.66 3480.66 -9980 3479 -9980V-9978ZM-1474 -9980C-1475.66 -9980 -1477 -9978.66 -1477 -9977H-1475C-1475 -9977.55 -1474.55 -9978 -1474 -9978V-9980Z" fill="white" fill-opacity="0.1"/>
<path d="M-834 -2280C-834 -2281.1 -833.105 -2282 -832 -2282H1061C1062.1 -2282 1063 -2281.1 1063 -2280V6797C1063 6798.1 1062.1 6799 1061 6799H-832C-833.105 6799 -834 6798.1 -834 6797V-2280Z" fill="#696969"/>
<path d="M-832 -2281H1061V-2283H-832V-2281ZM1062 -2280V6797H1064V-2280H1062ZM1061 6798H-832V6800H1061V6798ZM-833 6797V-2280H-835V6797H-833ZM-832 6798C-832.552 6798 -833 6797.55 -833 6797H-835C-835 6798.66 -833.657 6800 -832 6800V6798ZM1062 6797C1062 6797.55 1061.55 6798 1061 6798V6800C1062.66 6800 1064 6798.66 1064 6797H1062ZM1061 -2281C1061.55 -2281 1062 -2280.55 1062 -2280H1064C1064 -2281.66 1062.66 -2283 1061 -2283V-2281ZM-832 -2283C-833.657 -2283 -835 -2281.66 -835 -2280H-833C-833 -2280.55 -832.552 -2281 -832 -2281V-2283Z" fill="white" fill-opacity="0.1"/>
<rect width="360" height="799" transform="translate(-248 -1005)" fill="#F0F1F2"/>
<g clip-path="url(#clip0_0_1)">
<g clip-path="url(#clip1_0_1)">
<rect x="-240" y="-854" width="344" height="1110" rx="8" fill="white"/>
<path d="M15.9814 16.455C12.2147 16.455 9.08403 13.327 9.08403 9.62566C9.08403 5.79633 12.2147 2.66699 15.9827 2.66699C19.8787 2.66699 22.88 5.79499 22.88 9.62566C22.8733 11.4431 22.1453 13.1834 20.8559 14.4643C19.5666 15.7451 17.8214 16.4616 16.004 16.4563L15.9814 16.455ZM15.9814 6.68966C14.3867 6.68966 13.1734 8.02966 13.1734 9.62699C13.1734 11.2217 14.3867 12.435 15.9827 12.435C17.6427 12.435 18.792 11.2217 18.792 9.62699C18.7934 8.02833 17.6427 6.68966 15.9814 6.68966ZM18.728 22.1377L22.6254 25.9043C23.392 26.7323 23.392 27.9457 22.6254 28.7123C21.796 29.5403 20.5174 29.5403 19.8787 28.7123L15.9827 24.8817L12.2147 28.7123C11.832 29.095 11.32 29.2857 10.744 29.2857C10.2974 29.2857 9.7867 29.0937 9.3387 28.7123C8.57203 27.9457 8.57203 26.7323 9.3387 25.903L13.2987 22.1363C11.8686 21.7128 10.4967 21.1131 9.2147 20.351C8.25603 19.8403 8.06537 18.5643 8.57603 17.6057C9.2147 16.6483 10.364 16.3937 11.3867 17.0323C12.7715 17.8774 14.3624 18.3245 15.9847 18.3245C17.607 18.3245 19.1979 17.8774 20.5827 17.0323C21.6054 16.3937 22.8174 16.6483 23.392 17.6057C23.968 18.5643 23.7107 19.839 22.816 20.351C21.604 21.1177 20.1987 21.6923 18.7294 22.139L18.728 22.1377Z" fill="#04162C" fill-opacity="0.5"/>
</g>
</g>
<defs>
<clipPath id="clip0_0_1">
<rect width="360" height="8359" fill="white" transform="translate(-248 -862)"/>
</clipPath>
<clipPath id="clip1_0_1">
<rect x="-240" y="-854" width="344" height="1110" rx="8" fill="white"/>
</clipPath>
</defs>
</svg>
