<svg fill="none" height="32" viewBox="0 0 32 32" width="32" xmlns="http://www.w3.org/2000/svg"><path d="m15.9814 16.455c-3.7667 0-6.89737-3.128-6.89737-6.82934 0-3.82933 3.13067-6.95867 6.89867-6.95867 3.896 0 6.8973 3.128 6.8973 6.95867-.0067 1.81744-.7347 3.55774-2.0241 4.83864-1.2893 1.2808-3.0345 1.9973-4.8519 1.992zm0-9.76534c-1.5947 0-2.808 1.34-2.808 2.93733 0 1.59471 1.2133 2.80801 2.8093 2.80801 1.66 0 2.8093-1.2133 2.8093-2.80801.0014-1.59866-1.1493-2.93733-2.8106-2.93733zm2.7466 15.44804 3.8974 3.7666c.7666.828.7666 2.0414 0 2.808-.8294.828-2.108.828-2.7467 0l-3.896-3.8306-3.768 3.8306c-.3827.3827-.8947.5734-1.4707.5734-.4466 0-.9573-.192-1.4053-.5734-.76667-.7666-.76667-1.98 0-2.8093l3.96-3.7667" fill="#04162c" fill-opacity=".5"/></svg>