<svg fill="none" height="16" viewBox="0 0 16 16" width="16" xmlns="http://www.w3.org/2000/svg"><path clip-rule="evenodd" d="m9.01396 1.48963c-.6506-.26378-1.37836-.26378-2.02896 0l-4.99861 2.02731c-.25222.10216-.4682.2773-.62027.50297s-.23331.4916-.23331.76373v6.43396c0 .2722.08124.5381.23331.7638.15206.2256.36808.4008.62027.5029l4.99861 2.0267c.6506.2638 1.37836.2638 2.02896 0l4.99864-2.0267c.2521-.1021.468-.2771.62-.5026.1521-.2255.2334-.4914.2335-.7634v-6.43532c0-.27213-.0812-.53806-.2333-.76374-.152-.22565-.368-.4008-.6202-.50297zm2.16384 3.58121 1.779-.68653-4.39431-1.78186-.00191-.00171c-.06931-.02796-.14019-.05053-.21202-.06772-.03417-.00818-.06856-.01514-.1031-.02088-.27043-.04473-.5502-.01483-.80814.0897l-1.27667.518zm-8.84382.09592 5.1655 2.00888v6.24716c-.02094-.0073-.04187-.0151-.06216-.0236l-4.99934-2.0267c-.03066-.0124-.05693-.0337-.07545-.0612-.01852-.0274-.02846-.0597-.02855-.0928zm11.33212.0162-5.16545 1.99421v6.24603c.01934-.0068.03853-.0146.05756-.0224l5.00389-2.0285c.0308-.0125.0572-.0339.0757-.0614.0185-.0276.0284-.0601.0283-.0933zm-8.85578-1.51632-1.74967.7092 4.93983 1.921 1.793-.69187z" fill="#408053" fill-rule="evenodd"/></svg>