<svg fill="none" height="16" viewBox="0 0 16 16" width="16" xmlns="http://www.w3.org/2000/svg"><g fill="#408053"><path d="m6.49672 10.38-4.54502-3.09461c-.21834-1.09069.01144-2.32088.73282-3.37859 1.32404-1.94119 3.74072-2.25826 5.46816-1.08629.05543.03778-1.3296.34656-1.92632 2.73481-.90445 3.28166 1.72044 4.19807.27036 4.82468z"/><path d="m5.96655 10.6234s-1.04595-.4914-1.8528.2787c-.80684.7701-1.89403 2.6929-1.89403 2.6929s-.2542-.0143-.71129-.3244c-.45717-.3102-.563835-.5407-.563835-.5407s1.409585-1.7144 1.831455-2.74583c.42189-1.03132-.43632-1.82121-.43632-1.82121l-.00122-.0045 3.63276 2.46464z"/><path d="m11.4482 10.6712-4.64643-3.06639c-.21834-1.0907.01144-2.32089.73282-3.37859 1.32405-1.9412 4.07991-2.31476 5.80731-1.14279 1.7276 1.17202 2.3121 3.7259.988 5.6671-.7214 1.05772-1.7843 1.72267-2.8817 1.92067z"/><path d="m10.6576 10.8969s-1.06855-.4511-1.87539.319c-.80685.7701-1.87141 2.6526-1.87141 2.6526s-.25419-.0143-.71128-.3244c-.45717-.3102-.56384-.5407-.56384-.5407s1.35911-1.7 1.78098-2.7313c.42188-1.03136-.38585-1.83575-.38585-1.83575l-.00122-.00449 3.63281 2.46464z"/></g></svg>