<svg fill="none" height="16" viewBox="0 0 16 16" width="16" xmlns="http://www.w3.org/2000/svg"><path d="m12.6967 1.98242h-9.42856c-.70983 0-1.28572.57589-1.28572 1.28572v9.42856c0 .7098.57589 1.2857 1.28572 1.2857h9.42856c.7098 0 1.2857-.5759 1.2857-1.2857v-9.42856c0-.70983-.5759-1.28572-1.2857-1.28572zm-4.28571 7.71429h-1.28571v1.28569c0 .2357-.19286.4286-.42857.4286h-.85715c-.23571 0-.42857-.1929-.42857-.4286v-5.99998c0-.23571.19286-.42857.42857-.42857h2.57143c1.41697 0 2.57141 1.15446 2.57141 2.57143 0 1.41696-1.15444 2.57143-2.57141 2.57143zm0-3.42857h-1.28571v1.71428h1.28571c.47143 0 .85715-.38571.85715-.85714s-.38572-.85714-.85715-.85714z" fill="#408053"/></svg>