<svg fill="none" height="16" viewBox="0 0 16 16" width="16" xmlns="http://www.w3.org/2000/svg"><path d="m5.74609 1.99609c-.55547 0-1.04062.30235-1.29843.75h-1.32657c-.62109 0-1.125.50391-1.125 1.125v7.50001c0 .6211.50391 1.125 1.125 1.125h3.375v-6.37501c0-1.03593.83907-1.875 1.875-1.875h1.125v-.375c0-.62109-.5039-1.125-1.125-1.125h-1.32656c-.25781-.44765-.74297-.75-1.29844-.75zm2.625 3c-.62109 0-1.125.50391-1.125 1.125v6.75001c0 .6211.50391 1.125 1.125 1.125h4.50001c.6211 0 1.125-.5039 1.125-1.125v-5.1586c0-.29766-.1195-.58359-.3305-.79453l-1.5914-1.59141c-.2109-.21093-.4969-.33047-.7945-.33047h-1.78361zm-2.625-2.0625c.14919 0 .29226.05927.39775.16476s.16475.24856.16475.39774c0 .14919-.05926.29226-.16475.39775s-.24856.16475-.39775.16475c-.14918 0-.29225-.05926-.39774-.16475s-.16476-.24856-.16476-.39775c0-.14918.05927-.29225.16476-.39774s.24856-.16476.39774-.16476z" fill="#1c8aa9"/></svg>