<svg fill="none" height="16" viewBox="0 0 16 16" width="16" xmlns="http://www.w3.org/2000/svg"><path d="m10.4066 9.62747-.3078.30652s-.73284.72811-2.73231-1.25991c-1.99948-1.98796-1.26668-2.71603-1.26668-2.71603l.19352-.19352c.47839-.475.52372-1.23825.10624-1.7958l-.85257-1.13879c-.51695-.69017-1.515-.78152-2.10706-.19284l-1.06232 1.05556c-.29299.29231-.48921.66987-.46553 1.08939.0609 1.07383.54672 3.3832 3.25599 6.07755 2.87369 2.8568 5.57012 2.9705 6.67232 2.8676.3492-.0324.6523-.2097.8966-.4533l.9608-.9554c.6496-.6449.4669-1.7512-.364-2.2025l-1.2924-.70302c-.5454-.29637-1.2085-.20909-1.6348.21449z" fill="#008699"/></svg>