<svg width="14" height="14" viewBox="0 0 14 14" fill="none" xmlns="http://www.w3.org/2000/svg">
<mask id="path-1-inside-1_10102_69301" fill="white">
<path d="M7.21362 9.99654C7.21362 9.99654 6.06308 9.51075 5.19436 10.3399C4.32564 11.1691 3.17944 13.196 3.17944 13.196C3.17944 13.196 2.90575 13.1806 2.41361 12.8467C1.92138 12.5127 1.80653 12.2646 1.80653 12.2646C1.80653 12.2646 3.26987 10.4342 3.72409 9.32373C4.17833 8.21333 3.30865 7.34724 3.30865 7.34724L3.30734 7.34241L7.2187 9.99604L7.21362 9.99654Z"/>
<path d="M7.96001 9.8109L3.30734 6.73965C3.07226 5.56531 3.31986 3.95278 4.09655 2.81397C5.52214 0.7239 8.48934 0.321687 10.3493 1.58353C12.2093 2.84544 12.8386 5.59517 11.413 7.68524C10.6363 8.82407 9.14155 9.59773 7.96001 9.8109Z"/>
</mask>
<path d="M7.21362 9.99654C7.21362 9.99654 6.06308 9.51075 5.19436 10.3399C4.32564 11.1691 3.17944 13.196 3.17944 13.196C3.17944 13.196 2.90575 13.1806 2.41361 12.8467C1.92138 12.5127 1.80653 12.2646 1.80653 12.2646C1.80653 12.2646 3.26987 10.4342 3.72409 9.32373C4.17833 8.21333 3.30865 7.34724 3.30865 7.34724L3.30734 7.34241L7.2187 9.99604L7.21362 9.99654Z" stroke="#213551" stroke-width="8" mask="url(#path-1-inside-1_10102_69301)"/>
<path d="M7.96001 9.8109L3.30734 6.73965C3.07226 5.56531 3.31986 3.95278 4.09655 2.81397C5.52214 0.7239 8.48934 0.321687 10.3493 1.58353C12.2093 2.84544 12.8386 5.59517 11.413 7.68524C10.6363 8.82407 9.14155 9.59773 7.96001 9.8109Z" stroke="#213551" stroke-width="8" mask="url(#path-1-inside-1_10102_69301)"/>
<path d="M8.67066 2.75551C8.60508 3.17812 8.20933 3.46756 7.78672 3.40198C7.36411 3.33641 7.07467 2.94066 7.14024 2.51805C7.20582 2.09544 7.60157 1.806 8.02418 1.87157C8.44679 1.93714 8.73623 2.33289 8.67066 2.75551Z" fill="white"/>
<path d="M10.9001 4.22296C10.8345 4.64557 10.4388 4.93501 10.0162 4.86943C9.59356 4.80386 9.30412 4.40811 9.36969 3.9855C9.43527 3.56289 9.83102 3.27345 10.2536 3.33902C10.6762 3.40459 10.9657 3.80034 10.9001 4.22296Z" fill="white"/>
<path d="M6.42697 3.73794C6.36139 4.16055 5.96564 4.44999 5.54303 4.38441C5.12042 4.31884 4.83098 3.92309 4.89655 3.50048C4.96213 3.07787 5.35788 2.78843 5.78049 2.854C6.2031 2.91957 6.49254 3.31532 6.42697 3.73794Z" fill="white"/>
<path d="M8.65642 5.20539C8.59084 5.628 8.19509 5.91744 7.77248 5.85186C7.34987 5.78629 7.06043 5.39054 7.126 4.96793C7.19158 4.54532 7.58733 4.25588 8.00994 4.32145C8.43255 4.38702 8.72199 4.78277 8.65642 5.20539Z" fill="white"/>
<path d="M10.8859 6.67284C10.8203 7.09545 10.4245 7.38489 10.0019 7.31931C9.57932 7.25374 9.28988 6.85799 9.35545 6.43538C9.42103 6.01277 9.81678 5.72333 10.2394 5.7889C10.662 5.85447 10.9514 6.25022 10.8859 6.67284Z" fill="white"/>
<path d="M6.41273 6.18782C6.34715 6.61043 5.9514 6.89987 5.52879 6.83429C5.10618 6.76872 4.81674 6.37297 4.88231 5.95036C4.94789 5.52775 5.34364 5.23831 5.76625 5.30388C6.18886 5.36945 6.4783 5.7652 6.41273 6.18782Z" fill="white"/>
<path d="M8.64218 7.65527C8.5766 8.07788 8.18085 8.36732 7.75824 8.30174C7.33563 8.23617 7.04619 7.84042 7.11176 7.41781C7.17734 6.9952 7.57309 6.70576 7.9957 6.77133C8.41831 6.8369 8.70775 7.23265 8.64218 7.65527Z" fill="white"/>
</svg>
