<svg width="16" height="16" viewBox="0 0 16 16" fill="none" xmlns="http://www.w3.org/2000/svg">
<mask id="path-1-inside-1_6610_67825" fill="white">
<path d="M8.21362 10.9672C8.21362 10.9672 7.06308 10.4815 6.19436 11.3107C5.32564 12.1399 4.17944 14.1667 4.17944 14.1667C4.17944 14.1667 3.90575 14.1513 3.41361 13.8174C2.92138 13.4834 2.80653 13.2353 2.80653 13.2353C2.80653 13.2353 4.26987 11.4049 4.72409 10.2944C5.17833 9.18403 4.30865 8.31795 4.30865 8.31795L4.30734 8.31311L8.2187 10.9667L8.21362 10.9672Z"/>
<path d="M8.96001 10.7816L4.30734 7.71035C4.07226 6.53601 4.31986 4.92349 5.09655 3.78467C6.52214 1.6946 9.48934 1.29239 11.3493 2.55424C13.2093 3.81614 13.8386 6.56588 12.413 8.65594C11.6363 9.79477 10.1416 10.5684 8.96001 10.7816Z"/>
</mask>
<path d="M8.21362 10.9672C8.21362 10.9672 7.06308 10.4815 6.19436 11.3107C5.32564 12.1399 4.17944 14.1667 4.17944 14.1667C4.17944 14.1667 3.90575 14.1513 3.41361 13.8174C2.92138 13.4834 2.80653 13.2353 2.80653 13.2353C2.80653 13.2353 4.26987 11.4049 4.72409 10.2944C5.17833 9.18403 4.30865 8.31795 4.30865 8.31795L4.30734 8.31311L8.2187 10.9667L8.21362 10.9672Z" stroke="#408053" stroke-width="8" mask="url(#path-1-inside-1_6610_67825)"/>
<path d="M8.96001 10.7816L4.30734 7.71035C4.07226 6.53601 4.31986 4.92349 5.09655 3.78467C6.52214 1.6946 9.48934 1.29239 11.3493 2.55424C13.2093 3.81614 13.8386 6.56588 12.413 8.65594C11.6363 9.79477 10.1416 10.5684 8.96001 10.7816Z" stroke="#408053" stroke-width="8" mask="url(#path-1-inside-1_6610_67825)"/>
<path d="M9.67066 3.72719C9.60508 4.1498 9.20933 4.43924 8.78672 4.37366C8.36411 4.30809 8.07467 3.91234 8.14024 3.48973C8.20582 3.06712 8.60157 2.77768 9.02418 2.84325C9.44679 2.90882 9.73623 3.30457 9.67066 3.72719Z" fill="white"/>
<path d="M11.9001 5.19464C11.8345 5.61725 11.4388 5.90669 11.0162 5.84111C10.5936 5.77554 10.3041 5.37979 10.3697 4.95718C10.4353 4.53457 10.831 4.24513 11.2536 4.3107C11.6762 4.37627 11.9657 4.77202 11.9001 5.19464Z" fill="white"/>
<path d="M7.42697 4.70962C7.36139 5.13223 6.96564 5.42167 6.54303 5.35609C6.12042 5.29052 5.83098 4.89477 5.89655 4.47216C5.96213 4.04955 6.35788 3.76011 6.78049 3.82568C7.2031 3.89125 7.49254 4.287 7.42697 4.70962Z" fill="white"/>
<path d="M9.65642 6.17707C9.59084 6.59968 9.19509 6.88912 8.77248 6.82354C8.34987 6.75797 8.06043 6.36222 8.126 5.93961C8.19158 5.517 8.58733 5.22756 9.00994 5.29313C9.43255 5.3587 9.72199 5.75445 9.65642 6.17707Z" fill="white"/>
<path d="M11.8859 7.64452C11.8203 8.06713 11.4245 8.35657 11.0019 8.29099C10.5793 8.22542 10.2899 7.82967 10.3555 7.40706C10.421 6.98445 10.8168 6.69501 11.2394 6.76058C11.662 6.82615 11.9514 7.2219 11.8859 7.64452Z" fill="white"/>
<path d="M7.41273 7.1595C7.34715 7.58211 6.9514 7.87155 6.52879 7.80597C6.10618 7.7404 5.81674 7.34465 5.88231 6.92204C5.94789 6.49943 6.34364 6.20999 6.76625 6.27556C7.18886 6.34113 7.4783 6.73688 7.41273 7.1595Z" fill="white"/>
<path d="M9.64218 8.62695C9.5766 9.04956 9.18085 9.339 8.75824 9.27342C8.33563 9.20785 8.04619 8.8121 8.11176 8.38949C8.17734 7.96688 8.57309 7.67744 8.9957 7.74301C9.41831 7.80858 9.70775 8.20433 9.64218 8.62695Z" fill="white"/>
</svg>
