<svg width="14" height="14" viewBox="0 0 14 14" fill="none" xmlns="http://www.w3.org/2000/svg">
<mask id="path-1-inside-1_7030_74230" fill="white">
<path fill-rule="evenodd" clip-rule="evenodd" d="M3.76828 6.74485L7.83938 9.4322C8.87322 9.24567 10.1811 8.56872 10.8608 7.57224C12.1082 5.74343 11.5575 3.33742 9.92997 2.23325C8.30254 1.12913 5.70624 1.48107 4.45885 3.30988C3.77924 4.30634 3.56259 5.7173 3.76828 6.74485ZM5.41943 9.89511C6.17956 9.16956 7.18628 9.59463 7.18628 9.59463L7.19073 9.59419L3.76828 7.27226L3.76943 7.2765C3.76943 7.2765 4.5304 8.03432 4.13294 9.00592C3.7355 9.97759 2.45508 11.5792 2.45508 11.5792C2.45508 11.5792 2.55557 11.7963 2.98627 12.0885C3.4169 12.3806 3.65638 12.3942 3.65638 12.3942C3.65638 12.3942 4.6593 10.6207 5.41943 9.89511ZM8.46119 3.25872C8.40381 3.62851 8.05753 3.88177 7.68775 3.82439C7.31796 3.76702 7.0647 3.42073 7.12208 3.05095C7.17945 2.68116 7.52574 2.42791 7.89552 2.48528C8.26531 2.54266 8.51856 2.88894 8.46119 3.25872ZM10.412 4.54274C10.3546 4.91253 10.0083 5.16579 9.63851 5.10841C9.26873 5.05104 9.01547 4.70475 9.07285 4.33497C9.13022 3.96518 9.47651 3.71192 9.84629 3.7693C10.2161 3.82668 10.4693 4.17296 10.412 4.54274ZM5.72452 4.68402C6.0943 4.74139 6.44058 4.48814 6.49796 4.11835C6.55534 3.74857 6.30208 3.40228 5.93229 3.34491C5.56251 3.28753 5.21622 3.54079 5.15885 3.91058C5.10147 4.28036 5.35473 4.62664 5.72452 4.68402ZM8.44873 5.40237C8.39135 5.77215 8.04507 6.02541 7.67529 5.96804C7.3055 5.91066 7.05224 5.56438 7.10962 5.19459C7.16699 4.82481 7.51328 4.57155 7.88306 4.62893C8.25285 4.6863 8.5061 5.03258 8.44873 5.40237ZM9.62605 7.25206C9.99584 7.30943 10.3421 7.05617 10.3995 6.68639C10.4569 6.3166 10.2036 5.97032 9.83383 5.91294C9.46405 5.85557 9.11776 6.10883 9.06039 6.47861C9.00301 6.8484 9.25627 7.19468 9.62605 7.25206ZM6.4855 6.262C6.42812 6.63178 6.08184 6.88504 5.71206 6.82766C5.34227 6.77029 5.08901 6.42401 5.14639 6.05422C5.20376 5.68444 5.55005 5.43118 5.91983 5.48855C6.28962 5.54593 6.54288 5.89221 6.4855 6.262ZM7.66283 8.11168C8.03261 8.16906 8.37889 7.9158 8.43627 7.54601C8.49364 7.17623 8.24039 6.82995 7.8706 6.77257C7.50082 6.7152 7.15453 6.96845 7.09716 7.33824C7.03978 7.70802 7.29304 8.05431 7.66283 8.11168Z"/>
</mask>
<path fill-rule="evenodd" clip-rule="evenodd" d="M3.76828 6.74485L7.83938 9.4322C8.87322 9.24567 10.1811 8.56872 10.8608 7.57224C12.1082 5.74343 11.5575 3.33742 9.92997 2.23325C8.30254 1.12913 5.70624 1.48107 4.45885 3.30988C3.77924 4.30634 3.56259 5.7173 3.76828 6.74485ZM5.41943 9.89511C6.17956 9.16956 7.18628 9.59463 7.18628 9.59463L7.19073 9.59419L3.76828 7.27226L3.76943 7.2765C3.76943 7.2765 4.5304 8.03432 4.13294 9.00592C3.7355 9.97759 2.45508 11.5792 2.45508 11.5792C2.45508 11.5792 2.55557 11.7963 2.98627 12.0885C3.4169 12.3806 3.65638 12.3942 3.65638 12.3942C3.65638 12.3942 4.6593 10.6207 5.41943 9.89511ZM8.46119 3.25872C8.40381 3.62851 8.05753 3.88177 7.68775 3.82439C7.31796 3.76702 7.0647 3.42073 7.12208 3.05095C7.17945 2.68116 7.52574 2.42791 7.89552 2.48528C8.26531 2.54266 8.51856 2.88894 8.46119 3.25872ZM10.412 4.54274C10.3546 4.91253 10.0083 5.16579 9.63851 5.10841C9.26873 5.05104 9.01547 4.70475 9.07285 4.33497C9.13022 3.96518 9.47651 3.71192 9.84629 3.7693C10.2161 3.82668 10.4693 4.17296 10.412 4.54274ZM5.72452 4.68402C6.0943 4.74139 6.44058 4.48814 6.49796 4.11835C6.55534 3.74857 6.30208 3.40228 5.93229 3.34491C5.56251 3.28753 5.21622 3.54079 5.15885 3.91058C5.10147 4.28036 5.35473 4.62664 5.72452 4.68402ZM8.44873 5.40237C8.39135 5.77215 8.04507 6.02541 7.67529 5.96804C7.3055 5.91066 7.05224 5.56438 7.10962 5.19459C7.16699 4.82481 7.51328 4.57155 7.88306 4.62893C8.25285 4.6863 8.5061 5.03258 8.44873 5.40237ZM9.62605 7.25206C9.99584 7.30943 10.3421 7.05617 10.3995 6.68639C10.4569 6.3166 10.2036 5.97032 9.83383 5.91294C9.46405 5.85557 9.11776 6.10883 9.06039 6.47861C9.00301 6.8484 9.25627 7.19468 9.62605 7.25206ZM6.4855 6.262C6.42812 6.63178 6.08184 6.88504 5.71206 6.82766C5.34227 6.77029 5.08901 6.42401 5.14639 6.05422C5.20376 5.68444 5.55005 5.43118 5.91983 5.48855C6.28962 5.54593 6.54288 5.89221 6.4855 6.262ZM7.66283 8.11168C8.03261 8.16906 8.37889 7.9158 8.43627 7.54601C8.49364 7.17623 8.24039 6.82995 7.8706 6.77257C7.50082 6.7152 7.15453 6.96845 7.09716 7.33824C7.03978 7.70802 7.29304 8.05431 7.66283 8.11168Z" fill="white"/>
<path d="M7.83938 9.4322L5.63577 12.7705L6.97289 13.6531L8.54961 13.3686L7.83938 9.4322ZM3.76828 6.74485L-0.153903 7.53L0.173333 9.1647L1.56467 10.0831L3.76828 6.74485ZM10.8608 7.57224L7.55626 5.31831L7.55626 5.31831L10.8608 7.57224ZM9.92997 2.23325L12.1757 -1.07685L12.1757 -1.07685L9.92997 2.23325ZM4.45885 3.30988L1.15434 1.05594L1.15425 1.05607L4.45885 3.30988ZM7.18628 9.59463L5.63037 13.2796L6.56538 13.6744L7.5755 13.5756L7.18628 9.59463ZM5.41943 9.89511L8.18127 12.7886L8.18127 12.7886L5.41943 9.89511ZM7.19073 9.59419L7.57995 13.5752L18.5958 12.4982L9.43644 6.28409L7.19073 9.59419ZM3.76828 7.27226L6.01399 3.96216L-2.92341 -2.10134L-0.0917892 8.321L3.76828 7.27226ZM3.76943 7.2765L-0.0906394 8.32523L0.189573 9.35661L0.946865 10.1108L3.76943 7.2765ZM4.13294 9.00592L0.430733 7.49145L0.43068 7.49158L4.13294 9.00592ZM2.45508 11.5792L-0.669189 9.08137L-2.2142 11.0139L-1.17497 13.2593L2.45508 11.5792ZM2.98627 12.0885L5.23198 8.77839H5.23198L2.98627 12.0885ZM3.65638 12.3942L3.43083 16.3878L5.91396 16.528L7.13821 14.3631L3.65638 12.3942ZM7.68775 3.82439L8.30105 -0.128311L8.30104 -0.128311L7.68775 3.82439ZM8.46119 3.25872L4.50849 2.64542L4.50849 2.64543L8.46119 3.25872ZM7.12208 3.05095L11.0748 3.66425L11.0748 3.66425L7.12208 3.05095ZM7.89552 2.48528L7.28222 6.43798L7.28222 6.43798L7.89552 2.48528ZM9.63851 5.10841L10.2518 1.15571L10.2518 1.15571L9.63851 5.10841ZM10.412 4.54274L6.45925 3.92944L6.45925 3.92945L10.412 4.54274ZM9.07285 4.33497L13.0256 4.94826L13.0256 4.94826L9.07285 4.33497ZM9.84629 3.7693L10.4596 -0.183403L10.4596 -0.183404L9.84629 3.7693ZM6.49796 4.11835L2.54526 3.50505L2.54526 3.50505L6.49796 4.11835ZM5.72452 4.68402L5.11122 8.63672H5.11122L5.72452 4.68402ZM5.93229 3.34491L6.54559 -0.607796H6.54559L5.93229 3.34491ZM5.15885 3.91058L9.11155 4.52388V4.52387L5.15885 3.91058ZM7.67529 5.96804L8.28859 2.01533L8.28858 2.01533L7.67529 5.96804ZM8.44873 5.40237L12.4014 6.01567L12.4014 6.01567L8.44873 5.40237ZM7.10962 5.19459L3.15691 4.58129L3.15691 4.5813L7.10962 5.19459ZM10.3995 6.68639L14.3522 7.29969L14.3522 7.29968L10.3995 6.68639ZM9.62605 7.25206L9.01275 11.2048L9.01276 11.2048L9.62605 7.25206ZM9.83383 5.91294L10.4471 1.96024L10.4471 1.96024L9.83383 5.91294ZM9.06039 6.47861L5.10768 5.86531L5.10768 5.86532L9.06039 6.47861ZM5.71206 6.82766L5.09876 10.7804L5.09876 10.7804L5.71206 6.82766ZM6.4855 6.262L10.4382 6.8753V6.8753L6.4855 6.262ZM5.91983 5.48855L5.30653 9.44126H5.30654L5.91983 5.48855ZM8.43627 7.54601L4.48357 6.93271L4.48357 6.93272L8.43627 7.54601ZM7.66283 8.11168L8.27612 4.15898L8.27612 4.15898L7.66283 8.11168ZM7.8706 6.77257L8.4839 2.81987L8.4839 2.81987L7.8706 6.77257ZM7.09716 7.33824L3.14446 6.72494L3.14445 6.72494L7.09716 7.33824ZM10.043 6.09392L5.97189 3.40657L1.56467 10.0831L5.63577 12.7705L10.043 6.09392ZM7.55626 5.31831C7.60156 5.25189 7.62592 5.23556 7.60276 5.25597C7.58063 5.27547 7.53366 5.312 7.46056 5.35483C7.38807 5.39732 7.31037 5.43395 7.23833 5.46117C7.16399 5.48926 7.12387 5.49671 7.12915 5.49576L8.54961 13.3686C10.3672 13.0407 12.7418 11.9132 14.1653 9.82617L7.55626 5.31831ZM7.68426 5.54335C7.61768 5.49818 7.58126 5.45261 7.56453 5.42636C7.54875 5.40162 7.54556 5.38712 7.54468 5.38251C7.54354 5.37651 7.54249 5.3658 7.54566 5.34969C7.54966 5.32937 7.55729 5.31679 7.55626 5.31831L14.1653 9.82617C16.6637 6.16317 15.6286 1.26572 12.1757 -1.07685L7.68426 5.54335ZM7.76336 5.56381C7.75346 5.57832 7.74156 5.59213 7.72937 5.60363C7.71754 5.61478 7.70857 5.62083 7.7049 5.62308C7.70153 5.62515 7.7036 5.62345 7.71207 5.62028C7.72069 5.61705 7.73338 5.61327 7.74936 5.61044C7.7654 5.6076 7.78101 5.60639 7.79455 5.60645C7.80814 5.60651 7.81538 5.60783 7.81527 5.60781C7.81514 5.60778 7.80366 5.60563 7.78207 5.59692C7.76024 5.58811 7.72619 5.5718 7.68426 5.54335L12.1757 -1.07685C8.80354 -3.36465 3.69827 -2.67373 1.15434 1.05594L7.76336 5.56381ZM7.69047 5.9597C7.69878 6.0012 7.69338 5.99515 7.69374 5.94219C7.69409 5.89194 7.69952 5.82522 7.71327 5.75177C7.72701 5.67838 7.74524 5.61859 7.7612 5.57773C7.7775 5.53598 7.78334 5.53451 7.76345 5.56368L1.15425 1.05607C-0.180846 3.01363 -0.552915 5.53674 -0.153903 7.53L7.69047 5.9597ZM7.18628 9.59463C8.74219 5.90964 8.74059 5.90896 8.73899 5.90829C8.73846 5.90806 8.73685 5.90739 8.73577 5.90693C8.73361 5.90602 8.73142 5.90511 8.72921 5.90418C8.7248 5.90234 8.72029 5.90046 8.71569 5.89856C8.7065 5.89475 8.69693 5.89083 8.68701 5.8868C8.66717 5.87875 8.64584 5.87027 8.62308 5.86143C8.57762 5.84377 8.52609 5.82455 8.46891 5.80444C8.35517 5.76443 8.21556 5.71963 8.05379 5.67622C7.73818 5.59153 7.29543 5.50053 6.76739 5.47682C5.69604 5.4287 4.05695 5.66594 2.65759 7.00163L8.18127 12.7886C7.54205 13.3987 6.78638 13.4857 6.40842 13.4688C6.22708 13.4606 6.08351 13.4305 5.98042 13.4029C5.9249 13.388 5.86988 13.3707 5.81417 13.3511C5.786 13.3412 5.75684 13.3304 5.7265 13.3186C5.71129 13.3127 5.69571 13.3065 5.67973 13.3001C5.67173 13.2968 5.66362 13.2935 5.6554 13.2901C5.65129 13.2884 5.64715 13.2867 5.64298 13.2849C5.64089 13.284 5.6388 13.2832 5.6367 13.2823C5.63565 13.2818 5.63407 13.2812 5.63354 13.281C5.63196 13.2803 5.63037 13.2796 7.18628 9.59463ZM6.8015 5.61317L6.79705 5.61361L7.5755 13.5756L7.57995 13.5752L6.8015 5.61317ZM1.52257 10.5824L4.94502 12.9043L9.43644 6.28409L6.01399 3.96216L1.52257 10.5824ZM7.6295 6.22776L7.62836 6.22353L-0.0917892 8.321L-0.0906394 8.32523L7.6295 6.22776ZM7.83515 10.5204C8.56523 8.73568 8.1955 7.12539 7.74506 6.12905C7.52521 5.64277 7.27291 5.26264 7.07393 4.99921C6.97196 4.8642 6.87687 4.75046 6.7959 4.65903C6.75519 4.61306 6.71741 4.57202 6.68335 4.53601C6.66629 4.51799 6.6501 4.50116 6.63487 4.48554C6.62725 4.47773 6.61986 4.47021 6.61271 4.463C6.60914 4.45939 6.60563 4.45585 6.60217 4.45239C6.60045 4.45066 6.59874 4.44894 6.59704 4.44725C6.59619 4.4464 6.59493 4.44514 6.59451 4.44472C6.59325 4.44347 6.592 4.44222 3.76943 7.2765C0.946865 10.1108 0.945618 10.1095 0.944374 10.1083C0.943962 10.1079 0.942718 10.1066 0.941894 10.1058C0.940245 10.1042 0.938603 10.1025 0.936969 10.1009C0.933701 10.0976 0.930463 10.0943 0.927254 10.0911C0.920837 10.0846 0.914534 10.0782 0.908341 10.0719C0.895961 10.0592 0.883994 10.0467 0.872415 10.0345C0.849302 10.01 0.827486 9.98623 0.806809 9.96288C0.765904 9.91669 0.72716 9.86975 0.690314 9.82097C0.621596 9.72999 0.5347 9.60004 0.455413 9.42467C0.286089 9.05014 0.0981078 8.30456 0.430733 7.49145L7.83515 10.5204ZM2.45508 11.5792C5.57935 14.0769 5.57953 14.0767 5.57971 14.0765C5.57978 14.0764 5.57997 14.0762 5.58011 14.076C5.58039 14.0756 5.58068 14.0753 5.581 14.0749C5.58163 14.0741 5.58234 14.0732 5.58313 14.0722C5.5847 14.0702 5.5866 14.0679 5.5888 14.0651C5.5932 14.0596 5.59883 14.0525 5.60563 14.0439C5.61921 14.0267 5.63748 14.0036 5.65989 13.975C5.70464 13.9178 5.76631 13.8384 5.84044 13.7414C5.98752 13.5488 6.18952 13.2788 6.40865 12.9696C6.77497 12.4526 7.44422 11.4762 7.83521 10.5203L0.43068 7.49158C0.450532 7.44304 0.423685 7.51414 0.29353 7.72631C0.178576 7.9137 0.0346334 8.12785 -0.118712 8.34426C-0.269366 8.55686 -0.412314 8.74805 -0.517735 8.8861C-0.569856 8.95436 -0.611325 9.00769 -0.638148 9.04193C-0.651524 9.05901 -0.661149 9.0712 -0.666516 9.07798C-0.669196 9.08137 -0.670803 9.08339 -0.671272 9.08398C-0.671507 9.08427 -0.671456 9.08421 -0.671112 9.08378C-0.670939 9.08356 -0.670694 9.08325 -0.670374 9.08285C-0.670214 9.08265 -0.670035 9.08243 -0.669838 9.08218C-0.669739 9.08206 -0.669577 9.08185 -0.669528 9.08179C-0.669361 9.08158 -0.669189 9.08137 2.45508 11.5792ZM5.23198 8.77839C5.27968 8.81075 5.41211 8.90923 5.57762 9.09957C5.65969 9.19396 5.74699 9.30762 5.83423 9.44224C5.87772 9.50934 5.92077 9.581 5.96287 9.65734C5.98391 9.69548 6.00466 9.7347 6.02506 9.77501C6.03527 9.79517 6.04538 9.81558 6.05539 9.83626C6.0604 9.8466 6.06538 9.857 6.07034 9.86747C6.07282 9.8727 6.07529 9.87795 6.07775 9.88321C6.07898 9.88585 6.08022 9.88848 6.08145 9.89112C6.08206 9.89244 6.08298 9.89443 6.08329 9.89509C6.08421 9.89707 6.08513 9.89906 2.45508 11.5792C-1.17497 13.2593 -1.17405 13.2612 -1.17313 13.2632C-1.17282 13.2639 -1.1719 13.2659 -1.17128 13.2672C-1.17004 13.2699 -1.1688 13.2725 -1.16756 13.2752C-1.16507 13.2805 -1.16256 13.2858 -1.16003 13.2912C-1.15498 13.3018 -1.14984 13.3126 -1.14463 13.3233C-1.13421 13.3448 -1.12348 13.3665 -1.11244 13.3883C-1.09035 13.432 -1.06702 13.4761 -1.0424 13.5208C-0.993118 13.6101 -0.938848 13.701 -0.879213 13.7931C-0.759665 13.9775 -0.620326 14.1637 -0.459294 14.3489C-0.135863 14.7209 0.262162 15.074 0.740563 15.3986L5.23198 8.77839ZM3.65638 12.3942C3.88192 8.40053 3.8841 8.40066 3.88627 8.40078C3.88699 8.40082 3.88916 8.40095 3.89061 8.40103C3.8935 8.4012 3.89639 8.40138 3.89928 8.40155C3.90505 8.4019 3.91081 8.40227 3.91656 8.40264C3.92806 8.40339 3.9395 8.40419 3.9509 8.40503C3.97369 8.40672 3.99627 8.40859 4.01864 8.41064C4.0634 8.41474 4.10727 8.41955 4.15025 8.42502C4.23626 8.43597 4.31831 8.4495 4.39629 8.46509C4.55276 8.49637 4.6899 8.53534 4.80734 8.57655C5.04424 8.65969 5.18415 8.74594 5.23198 8.77839L0.740563 15.3986C1.21902 15.7232 1.69398 15.9623 2.15827 16.1252C2.38942 16.2063 2.61334 16.267 2.82817 16.3099C2.93533 16.3313 3.03945 16.3482 3.14024 16.361C3.19061 16.3674 3.24005 16.3728 3.28852 16.3773C3.31275 16.3795 3.33674 16.3815 3.36046 16.3832C3.37232 16.3841 3.38412 16.3849 3.39584 16.3857C3.40171 16.3861 3.40756 16.3864 3.41339 16.3868C3.4163 16.387 3.41922 16.3871 3.42212 16.3873C3.42358 16.3874 3.42575 16.3875 3.42648 16.3876C3.42866 16.3877 3.43083 16.3878 3.65638 12.3942ZM2.65759 7.00163C1.9012 7.7236 1.23864 8.71223 0.895065 9.24296C0.688973 9.56131 0.513431 9.84907 0.38936 10.0571C0.326814 10.162 0.276057 10.2489 0.239615 10.3118C0.221365 10.3433 0.206619 10.3689 0.195689 10.3881C0.190222 10.3976 0.185702 10.4055 0.182167 10.4118C0.1804 10.4149 0.178878 10.4176 0.177607 10.4198C0.176971 10.4209 0.176398 10.4219 0.175888 10.4228C0.175633 10.4233 0.175394 10.4237 0.175171 10.4241C0.175059 10.4243 0.174903 10.4246 0.174847 10.4247C0.174696 10.4249 0.174548 10.4252 3.65638 12.3942C7.13821 14.3631 7.13807 14.3634 7.13793 14.3636C7.13789 14.3637 7.13776 14.3639 7.13768 14.3641C7.13751 14.3644 7.13737 14.3646 7.13723 14.3649C7.13697 14.3653 7.13676 14.3657 7.13661 14.366C7.13631 14.3665 7.13623 14.3666 7.13639 14.3664C7.13669 14.3658 7.1379 14.3637 7.13996 14.3601C7.1441 14.3529 7.15164 14.3397 7.1623 14.3213C7.18367 14.2844 7.21721 14.227 7.26056 14.1543C7.34829 14.0072 7.47099 13.8062 7.61064 13.5905C7.75288 13.3708 7.89606 13.1616 8.02502 12.9894C8.17147 12.7938 8.22403 12.7478 8.18127 12.7886L2.65759 7.00163ZM7.07445 7.7771C9.62725 8.17319 12.0178 6.42482 12.4139 3.87202L4.50849 2.64543C4.78982 0.832195 6.48781 -0.409652 8.30105 -0.128311L7.07445 7.7771ZM3.16938 2.43765C2.77328 4.99045 4.52164 7.38101 7.07445 7.7771L8.30104 -0.128311C10.1143 0.153028 11.3561 1.85102 11.0748 3.66425L3.16938 2.43765ZM8.50882 -1.46742C5.95602 -1.86351 3.56546 -0.115153 3.16937 2.43765L11.0748 3.66425C10.7934 5.47748 9.09546 6.71933 7.28222 6.43798L8.50882 -1.46742ZM12.4139 3.87203C12.81 1.31922 11.0616 -1.07133 8.50882 -1.46742L7.28222 6.43798C5.46899 6.15665 4.22714 4.45866 4.50849 2.64542L12.4139 3.87203ZM9.02522 9.06111C11.578 9.45721 13.9686 7.70884 14.3647 5.15604L6.45925 3.92945C6.74059 2.11621 8.43858 0.874367 10.2518 1.15571L9.02522 9.06111ZM5.12014 3.72167C4.72405 6.27447 6.47241 8.66502 9.02522 9.06111L10.2518 1.15571C12.065 1.43705 13.3069 3.13504 13.0256 4.94826L5.12014 3.72167ZM10.4596 -0.183404C7.90679 -0.579494 5.51623 1.16886 5.12014 3.72167L13.0256 4.94826C12.7442 6.7615 11.0462 8.00334 9.23299 7.722L10.4596 -0.183404ZM14.3647 5.15604C14.7608 2.60324 13.0124 0.212688 10.4596 -0.183403L9.23299 7.722C7.41976 7.44066 6.17791 5.74267 6.45925 3.92944L14.3647 5.15604ZM2.54526 3.50505C2.8266 1.69182 4.52458 0.449975 6.33782 0.731316L5.11122 8.63672C7.66402 9.03281 10.0546 7.28445 10.4507 4.73165L2.54526 3.50505ZM5.31899 7.29761C3.50576 7.01627 2.26392 5.31828 2.54526 3.50505L10.4507 4.73165C10.8468 2.17885 9.09839 -0.211704 6.54559 -0.607796L5.31899 7.29761ZM9.11155 4.52387C8.83021 6.33711 7.13223 7.57895 5.31899 7.29761L6.54559 -0.607796C3.99279 -1.00389 1.60224 0.744476 1.20615 3.29728L9.11155 4.52387ZM6.33782 0.731316C8.15105 1.01266 9.39289 2.71064 9.11155 4.52388L1.20615 3.29728C0.810054 5.85008 2.55842 8.24063 5.11122 8.63672L6.33782 0.731316ZM7.06198 9.92074C9.6148 10.3168 12.0053 8.56847 12.4014 6.01567L4.49603 4.78907C4.77737 2.97584 6.47535 1.73399 8.28859 2.01533L7.06198 9.92074ZM3.15691 4.5813C2.76082 7.1341 4.50919 9.52465 7.06199 9.92074L8.28858 2.01533C10.1018 2.29667 11.3437 3.99466 11.0623 5.80789L3.15691 4.5813ZM8.49636 0.676223C5.94355 0.280131 3.55301 2.0285 3.15691 4.58129L11.0623 5.8079C10.781 7.62112 9.083 8.86297 7.26976 8.58163L8.49636 0.676223ZM12.4014 6.01567C12.7975 3.46286 11.0492 1.07231 8.49636 0.676223L7.26976 8.58163C5.45653 8.30029 4.21469 6.60231 4.49603 4.78907L12.4014 6.01567ZM6.4468 6.07309C6.72814 4.25986 8.42612 3.01801 10.2394 3.29935L9.01276 11.2048C11.5656 11.6009 13.9561 9.85249 14.3522 7.29969L6.4468 6.07309ZM9.22053 9.86565C7.4073 9.58431 6.16546 7.88633 6.44679 6.07309L14.3522 7.29968C14.7483 4.74688 12.9999 2.35633 10.4471 1.96024L9.22053 9.86565ZM13.0131 7.09191C12.7318 8.90514 11.0338 10.147 9.22053 9.86565L10.4471 1.96024C7.89432 1.56415 5.50378 3.31251 5.10768 5.86531L13.0131 7.09191ZM10.2394 3.29935C12.0526 3.58069 13.2944 5.27868 13.0131 7.09191L5.10768 5.86532C4.71159 8.41812 6.45995 10.8087 9.01275 11.2048L10.2394 3.29935ZM5.09876 10.7804C7.65156 11.1765 10.0421 9.4281 10.4382 6.8753L2.5328 5.6487C2.81414 3.83546 4.51212 2.59362 6.32535 2.87496L5.09876 10.7804ZM1.19369 5.44092C0.797594 7.99373 2.54596 10.3843 5.09876 10.7804L6.32536 2.87496C8.13859 3.1563 9.38043 4.85428 9.09909 6.66752L1.19369 5.44092ZM6.53313 1.53585C3.98033 1.13976 1.58978 2.88812 1.19369 5.44092L9.09909 6.66752C8.81775 8.48075 7.11977 9.7226 5.30653 9.44126L6.53313 1.53585ZM10.4382 6.8753C10.8343 4.32249 9.08593 1.93194 6.53313 1.53585L5.30654 9.44126C3.4933 9.15992 2.25146 7.46193 2.5328 5.6487L10.4382 6.8753ZM4.48357 6.93272C4.7649 5.11948 6.46289 3.87764 8.27612 4.15898L7.04953 12.0644C9.60233 12.4605 11.9929 10.7121 12.389 8.15931L4.48357 6.93272ZM7.2573 10.7253C5.44408 10.4439 4.20222 8.74595 4.48357 6.93271L12.389 8.15932C12.7851 5.6065 11.0367 3.21596 8.4839 2.81987L7.2573 10.7253ZM11.0499 7.95154C10.7685 9.76477 9.07053 11.0066 7.2573 10.7253L8.4839 2.81987C5.9311 2.42378 3.54055 4.17214 3.14446 6.72494L11.0499 7.95154ZM8.27612 4.15898C10.0894 4.44032 11.3312 6.13831 11.0499 7.95154L3.14445 6.72494C2.74836 9.27774 4.49672 11.6683 7.04953 12.0644L8.27612 4.15898Z" fill="white" mask="url(#path-1-inside-1_7030_74230)"/>
</svg>
