<svg fill="none" height="12" viewBox="0 0 12 12" width="12" xmlns="http://www.w3.org/2000/svg"><rect fill="#408053" height="12" rx="6" width="12"/><path d="m7.62499 7.10403-.424.44523s-.80039.12494-1.78539-.91201c-.98499-1.03695-.8356-1.81425-.8356-1.81425l.36767-.38629c.23566-.24776.258-.64588.05233-.93671l-.20839-.19648c-.25467-.36-.74633-.40765-1.038-.10058l-.52333.55059c-.14433.15247-.24099.34941-.22933.56824.03.56012.26933 1.76472 1.60399 3.17014 1.41566 1.49013 2.74398 1.54943 3.28698 1.49578.172-.01694.32133-.10941.44166-.23647l.47333-.49836c.32-.33636.23-.91342-.17933-1.14883l-.19726-.11189c-.26867-.15459-.59533-.10906-.80533.11189z" fill="#fff"/></svg>