<svg fill="none" height="16" viewBox="0 0 16 16" width="16" xmlns="http://www.w3.org/2000/svg"><path d="m7.99945 8c.59349.00022 1.17372-.17557 1.66728-.50513.49357-.32956.87827-.79809 1.10547-1.34631.2273-.54822.2868-1.15152.171-1.73356-.1157-.58205-.4015-1.1167-.8211-1.53632-.4197-.41962-.9544-.70537-1.53649-.82109-.5821-.11572-1.18545-.05622-1.73372.17098-.54828.2272-1.01685.61189-1.34644 1.10541-.32959.49351-.50539 1.07368-.50517 1.66712 0 .79536.31598 1.55814.87843 2.12054.56246.56241 1.32531.87836 2.12074.87836zm0 1.49945c-2.00238.0011-5.99945 1.00555-5.99945 3.00115v1.4994h12v-1.4994c0-1.9956-3.9971-3.00115-6.00055-3.00115z" fill="#408053"/></svg>