<svg width="16" height="16" viewBox="0 0 16 16" fill="none" xmlns="http://www.w3.org/2000/svg">
<path d="M7.99945 8C8.59294 8.00022 9.17317 7.82443 9.66673 7.49487C10.1603 7.16531 10.545 6.69678 10.7722 6.14856C10.9995 5.60034 11.059 4.99704 10.9432 4.415C10.8275 3.83295 10.5417 3.2983 10.1221 2.87868C9.7024 2.45906 9.1677 2.17331 8.58561 2.05759C8.00351 1.94187 7.40016 2.00137 6.85189 2.22857C6.30361 2.45577 5.83504 2.84046 5.50545 3.33398C5.17586 3.82749 5.00006 4.40766 5.00028 5.0011C5.00028 5.79646 5.31626 6.55924 5.87871 7.12164C6.44117 7.68405 7.20402 8 7.99945 8ZM7.99945 9.49945C5.99707 9.50055 2 10.505 2 12.5006V14H14V12.5006C14 10.505 10.0029 9.49945 7.99945 9.49945Z" fill="#F9F9F9"/>
</svg>
