<svg fill="none" height="16" viewBox="0 0 16 16" width="16" xmlns="http://www.w3.org/2000/svg"><path clip-rule="evenodd" d="m8 15.0029c3.866 0 7-3.134 7-6.99997 0-3.86599-3.134-7-7-7-3.86599 0-7 3.13401-7 7 0 3.86597 3.13401 6.99997 7 6.99997zm-1.81543-4.1777v1.0259h1.35352v-1.0259h2.09472v-.6284h-2.09472v-.99905h1.375c.50488 0 .9471-.10205 1.32661-.30615.3796-.2041.675-.48519.8863-.84326.2112-.35807.3169-.76807.3169-1.22998v-.01074c0-.46192-.1039-.87191-.3116-1.22998-.2041-.36166-.4923-.64453-.8647-.84864-.36881-.2041-.80208-.30615-1.2998-.30615h-2.78223v4.14649h-1.04199v.62841h1.04199v.99905h-1.04199v.6284zm2.39014-2.70704h-1.03662v-2.58349h1.04199c.49414 0 .86474.11458 1.11181.34375.25066.22916.37601.54248.37601.93994v.01074c0 .40104-.12535.71615-.37601.94531-.24707.22917-.61946.34375-1.11718.34375z" fill="#008699" fill-rule="evenodd"/></svg>