<svg fill="none" height="24" viewBox="0 0 24 24" width="24" xmlns="http://www.w3.org/2000/svg"><path d="m21.7 12c0 5.3572-4.3428 9.7-9.7 9.7-5.35716 0-9.7-4.3428-9.7-9.7 0-5.35716 4.34284-9.7 9.7-9.7 5.3572 0 9.7 4.34284 9.7 9.7z" stroke="#408053" stroke-width="1.6"/><path d="m9.27686 17.7722v-3.98h-1.56299v-.9426h1.56299v-6.21972h4.17334c.7466 0 1.3965.15308 1.9497.45923.5586.30615.991.73047 1.2971 1.27295.3115.53711.4673 1.1521.4673 1.84494v.0161c0 .6929-.1584 1.3079-.4753 1.845s-.76.9588-1.3294 1.2649c-.5693.3062-1.2326.4592-1.99.4592h-2.0625v3.98zm-1.56299-1.5388v-.9426h6.73533v.9426zm3.59323-4.0605h1.555c.7465 0 1.3051-.1719 1.6757-.5157.376-.3437.564-.8164.564-1.4179v-.0162c0-.59615-.188-1.06612-.564-1.40987-.3706-.34375-.9265-.51562-1.6677-.51562h-1.563z" fill="#408053"/></svg>