<svg fill="none" height="16" viewBox="0 0 16 16" width="16" xmlns="http://www.w3.org/2000/svg"><path clip-rule="evenodd" d="m10.621 9.76578c-.1454.23892-.3194.45482-.5196.64162-.17973.1677-.38133.3128-.60039.4338l-1.47056-1.57891 1.13344-1.05783zm-3.61288-1.60115 1.13232-1.05677-1.50809-1.61589-1.13067 1.05524zm-2.60304-.59397-1.1168 1.0423c.19645.31458.43168.62267.70792.91865.25135.26931.51503.50549.78672.70979l1.12859-1.05331zm.07427-2.1211 1.12955-1.05419-1.38966-1.48899c-.24838.12864-.47571.28735-.67591.47419-.17735.16552-.33414.35381-.46874.56073zm-1.95538.10141.85877.92204-.72909.68046c-.14303-.54938-.18257-1.09288-.12968-1.6025zm5.33133 5.72413-.92146-.9894-.7633.7124c.56941.2055 1.14233.2943 1.68476.277zm3.2763-3.16067-.8711-.93342.7012-.6544c.1543.54215.2075 1.08035.1699 1.58782zm-1.89456-2.03003 1.06536-.99427c-.1851-.28513-.40253-.56446-.65387-.83377-.27624-.29599-.56738-.5519-.86767-.76956l-1.0519.98172zm-2.53153-2.71249.66307-.61884c-.49529-.16616-.99164-.24454-1.46672-.24225zm4.87339 7.64249c1.6738-2.08926 1.3616-5.4292-.8338-7.7815-2.37616-2.54604-6.05873-2.970895-8.22522-.94894-2.166484 2.02196-1.996481 5.72506.37971 8.27114 2.14821 2.3017 5.36414 2.8698 7.56231 1.4636l3.1524 3.1525c.2929.2929.7678.2929 1.0607 0s.2929-.7678 0-1.0607z" fill="#408053" fill-rule="evenodd"/></svg>