<svg width="16" height="16" viewBox="0 0 16 16" fill="none" xmlns="http://www.w3.org/2000/svg">
<path d="M12.5048 0.0411377C11.6383 0.0411377 10.9407 0.752555 10.9407 1.63572V1.84955L14.0688 1.84955V1.63572C14.0688 0.752555 13.3712 0.0411377 12.5048 0.0411377ZM10.9407 2.14281V2.63157L14.0688 2.63157V2.14281L10.9407 2.14281ZM10.8919 2.92482L9.37671 7.37254L10.1587 8.2523L10.6139 7.94988L11.3562 2.92482H10.8919ZM11.6525 2.92482L10.9041 7.96821L11.3317 8.2523L11.7777 7.95599L12.0557 2.92482H11.6525ZM12.349 2.92482L12.071 7.9621L12.5048 8.2523L12.9385 7.9621L12.6606 2.92482H12.349ZM12.9538 2.92482L13.2318 7.95599L13.6778 8.2523L14.1055 7.96821L13.357 2.92482H12.9538ZM13.6534 2.92482L14.3957 7.94988L14.8508 8.2523L15.6328 7.37254L14.1177 2.92482H13.6534Z" fill="#408053"/>
<path d="M15.2502 11.6327C14.5377 10.1177 12.7281 9.46191 11.2127 10.1742C9.6972 10.8865 9.04125 12.6954 9.75375 14.2105C10.4662 15.7368 12.2758 16.3812 13.7912 15.6689C15.3067 14.9566 15.9627 13.1477 15.2502 11.6327ZM13.8475 11.6327C13.7683 11.4631 13.8362 11.2709 14.0058 11.1917C14.1754 11.1126 14.3699 11.1804 14.4491 11.35C14.5282 11.5196 14.4604 11.7118 14.2907 11.791C14.1211 11.8701 13.9266 11.8023 13.8475 11.6327ZM14.3002 12.5259C14.221 12.3563 14.2889 12.1641 14.4585 12.0849C14.6281 12.0058 14.8204 12.0736 14.8996 12.2432C14.9787 12.4128 14.9109 12.605 14.7412 12.6841C14.5716 12.7633 14.3793 12.6841 14.3002 12.5259Z" fill="#408053"/>
<path d="M1.45252 9.40841C0.829439 10.0443 0.450449 10.8794 0.373367 11.7723C0.57892 11.8108 0.823015 11.8044 1.10565 11.7465C1.63881 11.618 2.27473 11.284 2.84001 10.7637C3.40528 10.2434 3.79069 9.64597 3.95128 9.11923C4.06049 8.77879 4.07333 8.48329 4.0091 8.25208C3.04557 8.30345 2.13341 8.71454 1.45252 9.40829V9.40841ZM0.366943 12.3247C0.476144 14.1618 1.85721 15.6649 3.67507 15.9219C3.68792 15.6842 3.73288 15.4337 3.80997 15.1832C4.03479 14.4573 4.5294 13.6929 5.24242 13.0377C5.95543 12.3825 6.75195 11.9521 7.49708 11.7851C7.68337 11.7401 7.86965 11.7209 8.05593 11.7144C7.86323 9.87732 6.4115 8.43201 4.57436 8.2586C4.62575 8.57977 4.58721 8.93304 4.47801 9.27992C4.27246 9.92229 3.83566 10.5903 3.21258 11.1685C2.58307 11.7466 1.8829 12.132 1.2277 12.2797C0.932215 12.3439 0.636733 12.3632 0.366943 12.3247ZM5.49294 13.5516C4.90839 14.1233 4.51013 14.7721 4.33028 15.3438C4.26604 15.5686 4.2275 15.7741 4.22108 15.9604C6.24449 15.9541 7.92103 14.3995 8.06877 12.3825C8.06877 12.3439 8.06877 12.299 8.06877 12.2605C7.92746 12.2668 7.7733 12.2863 7.61271 12.3183C6.98962 12.4596 6.26376 12.845 5.61498 13.4424C5.57002 13.4809 5.53148 13.5195 5.49294 13.5516Z" fill="#408053"/>
<path fill-rule="evenodd" clip-rule="evenodd" d="M4.21973 6.2361C5.89655 6.2361 7.25587 4.87677 7.25587 3.19996C7.25587 1.52314 5.89655 0.163818 4.21973 0.163818C2.54292 0.163818 1.18359 1.52314 1.18359 3.19996C1.18359 4.87677 2.54292 6.2361 4.21973 6.2361ZM4.71296 0.900963C5.60741 1.13726 6.33282 1.81146 6.4176 2.53219C6.4729 3.00221 6.07354 2.95383 5.81786 2.53219C5.50289 2.01277 5.18397 1.7003 4.67993 1.46351C3.83557 1.06683 4.47102 0.837047 4.71296 0.900963Z" fill="#408053"/>
</svg>
