<svg width="16" height="16" viewBox="0 0 16 16" fill="none" xmlns="http://www.w3.org/2000/svg">
<path d="M12.505 0.0439453C11.6386 0.0439453 10.941 0.755363 10.941 1.63852V1.85236L14.069 1.85236V1.63852C14.069 0.755363 13.3715 0.0439453 12.505 0.0439453ZM10.941 2.14561V2.63437L14.069 2.63437V2.14561L10.941 2.14561ZM10.8921 2.92763L9.37695 7.37534L10.159 8.25511L10.6141 7.95269L11.3564 2.92763H10.8921ZM11.6527 2.92763L10.9043 7.97102L11.332 8.25511L11.778 7.9588L12.056 2.92763H11.6527ZM12.3492 2.92763L12.0712 7.96491L12.505 8.25511L12.9388 7.96491L12.6608 2.92763H12.3492ZM12.9541 2.92763L13.232 7.9588L13.678 8.25511L14.1057 7.97102L13.3573 2.92763H12.9541ZM13.6536 2.92763L14.3959 7.95269L14.8511 8.25511L15.6331 7.37534L14.1179 2.92763H13.6536Z" fill="#213551"/>
<path d="M15.2511 11.636C14.5386 10.121 12.7291 9.46521 11.2137 10.1775C9.69818 10.8898 9.04223 12.6987 9.75473 14.2137C10.4672 15.7401 12.2767 16.3845 13.7922 15.6722C15.3077 14.9599 15.9636 13.151 15.2511 11.636ZM13.8484 11.636C13.7693 11.4664 13.8371 11.2742 14.0068 11.195C14.1764 11.1159 14.3709 11.1837 14.45 11.3533C14.5292 11.5229 14.4613 11.7151 14.2917 11.7943C14.1221 11.8734 13.9276 11.8056 13.8484 11.636ZM14.3011 12.5291C14.222 12.3596 14.2898 12.1674 14.4595 12.0882C14.6291 12.0091 14.8214 12.0769 14.9006 12.2465C14.9797 12.4161 14.9119 12.6083 14.7422 12.6874C14.5726 12.7666 14.3803 12.6874 14.3011 12.5291Z" fill="#213551"/>
<path d="M1.45277 9.41122C0.829683 10.0471 0.450693 10.8822 0.373611 11.7751C0.579164 11.8136 0.823259 11.8072 1.1059 11.7493C1.63905 11.6208 2.27498 11.2868 2.84025 10.7665C3.40552 10.2462 3.79094 9.64878 3.95153 9.12203C4.06073 8.78159 4.07358 8.4861 4.00934 8.25488C3.04581 8.30626 2.13366 8.71735 1.45277 9.4111V9.41122ZM0.367188 12.3275C0.476388 14.1646 1.85745 15.6677 3.67531 15.9247C3.68816 15.687 3.73313 15.4365 3.81021 15.186C4.03504 14.4601 4.52964 13.6957 5.24266 13.0405C5.95567 12.3853 6.75219 11.9549 7.49733 11.7879C7.68361 11.7429 7.8699 11.7237 8.05617 11.7172C7.86347 9.88012 6.41175 8.43481 4.57461 8.26141C4.626 8.58258 4.58745 8.93585 4.47825 9.28272C4.27271 9.9251 3.8359 10.5931 3.21282 11.1713C2.58331 11.7494 1.88315 12.1348 1.22794 12.2825C0.932459 12.3467 0.636977 12.366 0.367188 12.3275ZM5.49318 13.5544C4.90864 14.1261 4.51037 14.7749 4.33052 15.3466C4.26628 15.5714 4.22774 15.7769 4.22132 15.9632C6.24474 15.9569 7.92128 14.4023 8.06902 12.3853C8.06902 12.3467 8.06902 12.3018 8.06902 12.2633C7.9277 12.2696 7.77354 12.2891 7.61295 12.3211C6.98986 12.4624 6.26401 12.8478 5.61522 13.4452C5.57027 13.4837 5.53172 13.5223 5.49318 13.5544Z" fill="#213551"/>
<path fill-rule="evenodd" clip-rule="evenodd" d="M4.21973 6.23927C5.89655 6.23927 7.25587 4.87995 7.25587 3.20313C7.25587 1.52632 5.89655 0.166992 4.21973 0.166992C2.54292 0.166992 1.18359 1.52632 1.18359 3.20313C1.18359 4.87995 2.54292 6.23927 4.21973 6.23927ZM4.71296 0.904137C5.60741 1.14043 6.33282 1.81464 6.41761 2.53537C6.4729 3.00539 6.07354 2.95701 5.81786 2.53537C5.50289 2.01595 5.18397 1.70348 4.67993 1.46668C3.83557 1.07001 4.47102 0.840221 4.71296 0.904137Z" fill="#213551"/>
</svg>
