<svg fill="none" height="16" viewBox="0 0 16 16" width="16" xmlns="http://www.w3.org/2000/svg"><g fill="#1c8aa9"><path d="m1.50003 6.5h2.99995c.27613 0 .50003.27613.50003.50003v7.49997c0 .2761-.22381.5-.50003.5h-2.99995c-.27613 0-.50003-.2761-.50003-.5v-7.49997c0-.27613.2238-.50003.50003-.50003z"/><path d="m6.50003 1h2.99995c.27613 0 .50002.27613.50002.50003v12.99987c0 .2761-.2238.5-.50002.5h-2.99995c-.27613 0-.50003-.2761-.50003-.5v-12.99987c0-.27613.2238-.50003.50003-.50003z"/><path d="m11.5 4.99994h3c.2761 0 .5.27613.5.50003v8.99993c0 .2762-.2238.5001-.5.5001h-3c-.2761 0-.5-.2762-.5-.5001v-8.99993c0-.27613.2238-.50003.5-.50003z"/></g></svg>