<svg fill="none" height="40" viewBox="0 0 40 40" width="40" xmlns="http://www.w3.org/2000/svg"><path d="m0 8c0-4.41828 3.58172-8 8-8h24c4.4183 0 8 3.58172 8 8v24c0 4.4183-3.5817 8-8 8h-24c-4.41828 0-8-3.5817-8-8z" fill="#1c8aa9"/><path d="m25.6498 14.3499c-.8382-.8457-1.8556-1.4924-2.9772-1.8922s-2.3187-.5426-3.5028-.4178c-3.67.37-6.69 3.35-7.1 7.02-.55 4.85 3.2 8.94 7.93 8.94 1.5101 0 2.9892-.4285 4.2655-1.2357 1.2762-.8072 2.2973-1.9599 2.9445-3.3243.32-.67-.16-1.44-.9-1.44-.37 0-.72.2-.88.53-.5806 1.249-1.5737 2.26-2.8121 2.8628s-2.6467.7607-3.9879.4472c-2.22-.49-4.01-2.3-4.48-4.52-.1976-.8777-.1953-1.7887.0067-2.6654.2019-.8767.5984-1.6969 1.1601-2.3997s1.2742-1.2704 2.0848-1.6607c.8107-.3903 1.6987-.5934 2.5984-.5942 1.66 0 3.14.69 4.22 1.78l-1.51 1.51c-.63.63-.19 1.71.7 1.71h3.59c.55 0 1-.45 1-1v-3.59c0-.89-1.08-1.34-1.71-.71z" fill="#fff"/></svg>