<svg fill="none" height="16" viewBox="0 0 16 16" width="16" xmlns="http://www.w3.org/2000/svg"><path d="m13.0039 2.42435h-2.988c-.14641-.40742-.41903-.76042-.78017-1.01017s-.79297-.38391-1.23573-.38391-.87459.13416-1.23573.38391-.63376.60275-.78013 1.01017h-2.98805c-.37917 0-.74282.14686-1.01094.40827s-.41874.61596-.41874.98566v9.75752c0 .3697.15062.7242.41874.9857.26812.2614.63177.4082 1.01094.4082h10.00781c.3792 0 .7428-.1468 1.0109-.4082.2682-.2615.4188-.616.4188-.9857v-9.75752c0-.3697-.1506-.72425-.4188-.98566-.2681-.26141-.6317-.40827-1.0109-.40827zm-5.0039 0c.14138 0 .27959.04087.39715.11746.11755.07658.20917.18543.26328.31278.0541.12736.06826.26749.04068.40269s-.09567.25939-.19564.35686-.22735.16385-.36601.19075c-.13867.02689-.2824.01309-.41302-.03967-.13062-.05275-.24226-.14208-.32081-.2567-.07855-.11461-.12047-.24936-.12047-.38721.0005-.18469.07597-.36169.20992-.49229.13396-.1306.31549-.20418.50492-.20467zm-1.42969 9.75755-2.85937-2.7879 1.0084-.98318 1.85097 1.79818 4.71039-4.59255 1.0084.98969z" fill="#ffb547"/></svg>