<svg fill="none" height="16" viewBox="0 0 16 16" width="16" xmlns="http://www.w3.org/2000/svg"><path clip-rule="evenodd" d="m11.5222 1.00388h3.0404l-.0019-.00095c.0802-.00018.159.02174.2276.06335s.1245.10132.1616.1726c.037.07127.0538.15137.0485.23156-.0052.0802-.0324.1574-.0785.22316l-3.0441 4.35678c-.8289-.77695-1.8715-1.28659-2.99275-1.46288l1.89105-3.15815c.0774-.12965.187-.237.3181-.31156.1311-.07457.2793-.11381.43-.11391zm-4.40681 3.58357-1.88822-3.15816c-.07754-.12952-.18716-.23676-.31825-.3113-.13109-.07455-.27918-.11388-.42991-.11417h-3.0404c-.11617 0-.22758.04619-.30981.12841s-.12855.19375-.1288.31016c.00021.09004.02831.1778.08043.25116l3.04787 4.35772c.82665-.7771 1.86742-1.28714 2.98709-1.46382zm.89051.76655c-.95222 0-1.88305.28297-2.67479.81308s-1.40883 1.28356-1.77323 2.16511c-.3644.88154-.45973 1.85161-.27396 2.78741.18577.9359.64429 1.7955 1.31761 2.4702s1.53118 1.1341 2.4651 1.3203c.93392.1861 1.90197.0906 2.78171-.2745.87976-.3652 1.63166-.9835 2.16066-1.7769s.8114-1.7261.8114-2.6803c0-.63354-.1245-1.26089-.3665-1.84621-.2419-.58533-.5966-1.11717-1.0436-1.56515-.4471-.44799-.9778-.80334-1.56196-1.04579-.58412-.24245-1.21019-.36725-1.84244-.36725zm2.5307 4.31085-1.03808 1.01395.24408 1.4311c.00727.0406.00649.0822-.00232.1225-.0088.0403-.02543.0785-.04897.1124-.02354.0338-.05351.0627-.08819.0849-.03469.0223-.07342.0375-.11396.0447-.0706.0138-.14379.0022-.2067-.0328l-1.28309-.6757-1.28313.6757c-.07245.0395-.15746.0488-.23672.026-.07925-.0228-.14639-.0759-.18694-.1478-.03479-.0634-.04637-.137-.03273-.2081l.24596-1.4319-1.03717-1.014c-.04195-.04101-.0716-.09294-.08565-.14995-.01404-.05701-.0119-.11683.0062-.17268.01809-.05586.0514-.10555.09618-.14343.04478-.03787.09924-.06243.15723-.07092l1.43371-.20901.64436-1.3026c.01821-.03712.04356-.07026.0746-.09753.03104-.02726.06715-.04811.10626-.06134.03911-.01324.08046-.01861.12164-.01579s.08138.01376.11833.0322c.06143.03094.11128.0809.14216.14246l.64342 1.3026 1.43462.20901c.0824.0125.1565.05718.2061.12426.0496.06709.0706.15111.0586.23371-.011.06853-.0438.13166-.0935.17995z" fill="#408053" fill-rule="evenodd"/></svg>