<svg fill="none" height="139" viewBox="0 0 496 139" width="496" xmlns="http://www.w3.org/2000/svg"><path clip-rule="evenodd" d="m37.9304 27.0622c-.7123 0-1.3059.6048-1.3059 1.3607v32.142c0 .7257.5936 1.3305 1.3059 1.3305h8.3404c4.5412 0 9.1121-.121 13.5939-.8164 3.2056-.4536 6.3221-1.5119 8.9043-3.568 2.048-1.6026 3.8289-3.5378 4.9568-5.9265 1.2466-2.6306 1.5434-5.9265 1.5434-8.799s-.5046-5.7753-1.8996-8.2849c-1.4841-2.6004-4.0069-4.2635-6.6485-5.3822-2.4933-1.0281-5.1645-1.5422-7.8358-1.7236-3.5914-.2721-7.1829-.3326-10.7446-.3326zm455.0106 1.3304h-57.195c-.713 0-1.306.6048-1.306 1.3305v21.0148c0 .7559.593 1.3606 1.306 1.3606h52.743c1.692 0 3.057 1.391 3.057 3.1145v22.1335c0 1.7236-1.365 3.1447-3.057 3.1447h-52.743c-.713 0-1.306.6047-1.306 1.3304v54.0644c0 1.723-1.395 3.114-3.058 3.114h-30.482c-1.692 0-3.087-1.391-3.087-3.114v-132.77158c0-1.72352 1.395-3.11442 3.087-3.11442h92.041c1.692 0 3.057 1.3909 3.057 3.11442v22.16378c0 1.7235-1.365 3.1144-3.057 3.1144zm-115.222 0h-37.695c-.742 0-1.335.6048-1.335 1.3305v106.1629c0 1.723-1.366 3.114-3.058 3.114h-30.482c-1.692 0-3.057-1.391-3.057-3.114v-106.1629c0-.7257-.594-1.3305-1.336-1.3305h-37.695c-1.692 0-3.057-1.3909-3.057-3.1144v-22.16378c0-1.72352 1.365-3.11442 3.057-3.11442h114.658c1.692 0 3.057 1.3909 3.057 3.11442v22.16378c0 1.7235-1.365 3.1144-3.057 3.1144zm-131.873 0h-37.695c-.742 0-1.335.6048-1.335 1.3305v106.1629c0 1.723-1.366 3.114-3.058 3.114h-30.482c-1.692 0-3.057-1.391-3.057-3.114v-106.1629c0-.7257-.594-1.3305-1.306-1.3305h-37.725c-1.692 0-3.057-1.3909-3.057-3.1144v-22.16378c0-1.72352 1.365-3.11442 3.057-3.11442h114.658c1.692 0 3.087 1.3909 3.087 3.11442v22.16378c0 1.7235-1.395 3.1144-3.087 3.1144zm-159.0606 109.3374-35.3798-48.591c-.2671-.3628-.5936-.5443-1.0388-.5443h-12.4364c-.7123 0-1.3059.6048-1.3059 1.3607v45.9306c0 1.723-1.395 3.114-3.0869 3.114h-30.48241c-1.69182 0-3.05714312-1.391-3.05714312-3.114v-132.77158c0-1.72352 1.36532312-3.11442 3.05714312-3.11442h56.06751c6.9157 0 13.8314.302368 20.658 1.3909 5.8472.93735 11.3382 2.99348 16.4136 6.07767 5.0457 3.08423 9.2607 7.13593 12.3767 12.21583 3.443 5.6543 4.631 12.3065 4.631 18.8679 0 8.9502-1.781 17.9306-7.065 25.2782-4.63 6.4103-10.8628 11.2785-17.7191 14.9976-.3859.2117-.5639.4838-.653.9072-.1187.4233-.0297.7559.2375 1.0885l40.6036 53.1262c.742.968.861 2.208.327 3.296-.505 1.089-1.544 1.754-2.761 1.754h-36.923c-1.0092 0-1.87-.454-2.4636-1.27z" fill="#000" fill-rule="evenodd"/></svg>