<svg fill="none" height="279" viewBox="0 0 189 279" width="189" xmlns="http://www.w3.org/2000/svg"><path clip-rule="evenodd" d="m29.1353 105.896c14.7939 0 26.7952 12.002 26.7952 26.821 0 14.794-12.0013 26.795-26.7952 26.795-14.8191 0-26.82036-12.001-26.82036-26.795 0-14.819 12.00126-26.821 26.82036-26.821z" fill="#57b34c" fill-rule="evenodd"/><path d="m89.7037 68.5852c-26.02 0-47.1133 18.8463-47.1133 42.1038 0 7.746 2.3659 14.994 6.462 21.226.1972.3.2246.682.0662 1.004l-10.4248 21.21 25.064-7.882c.2798-.087.5862-.046.8356.108 8.3069 5.141 14.6744 6.437 25.1103 6.437 26.0203 0 47.1133-18.846 47.1133-42.103 0-23.2575-21.093-42.1038-47.1133-42.1038z" fill="#2d6645"/><path clip-rule="evenodd" d="m69.6196 269.84c0-17.713.5032-35.476.0755-53.163-.0503-3.17-.2264-7.674-1.7612-10.517-1.5851-2.944-5.6106-6.29-8.1014-8.479-7.3215-6.415-14.3914-12.705-21.2852-19.599-2.5915-2.592-3.3211-6.265-1.9122-9.636 1.3838-3.372 4.5036-5.435 8.1518-5.435h100.7651c3.648 0 6.768 2.063 8.177 5.435 1.384 3.371.654 7.044-1.937 9.636-6.894 6.894-13.964 13.184-21.286 19.624-2.49 2.164-6.516 5.51-8.101 8.454s-1.711 7.598-1.761 10.819c-.378 17.612.075 35.249.075 52.861 0 4.881-3.975 8.831-8.831 8.831-11.146 0-22.2915 0-33.4373 0-4.8558 0-8.8311-3.95-8.8311-8.831z" fill="#000" fill-rule="evenodd"/><path clip-rule="evenodd" d="m44.7871 171.842c27.3487 27.298 33.2613 24.128 33.7393 44.608.4026 16.605-.0755 36.733-.0755 53.389h33.4371c0-16.555-.427-36.532-.075-53.037.428-20.832 6.239-17.511 33.739-44.96h-46.3694-8.026z" fill="#fefefe" fill-rule="evenodd"/><path clip-rule="evenodd" d="m156.997 104.035c14.895 0 26.997 12.077 26.997 26.997 0 14.894-12.102 26.971-26.997 26.971-14.894 0-26.996-12.077-26.996-26.971 0-14.92 12.102-26.997 26.996-26.997z" fill="#367a46" fill-rule="evenodd"/><path clip-rule="evenodd" d="m61.3349 6.44376c12.8818 0 23.3231 10.44134 23.3231 23.32314s-10.4413 23.3231-23.3231 23.3231c-12.8819 0-23.3232-10.4413-23.3232-23.3231s10.4413-23.32314 23.3232-23.32314z" fill="#2d6645" fill-rule="evenodd"/><path clip-rule="evenodd" d="m46.6966 35.9786c25.7888 0 46.6966 20.9078 46.6966 46.7218 0 25.7886-20.9078 46.6966-46.6966 46.6966s-46.6966-20.908-46.6966-46.6966c0-25.814 20.9078-46.7218 46.6966-46.7218z" fill="#367a46" fill-rule="evenodd"/><path d="m83.2731.653748c-7.3389 0-13.2883 5.543012-13.2883 12.383352 0 2.1422.5899 4.1547 1.6207 5.9112.1753.2987.2029.6645.0553.9778l-2.7751 5.8874 6.7363-2.2087c.2891-.0948.6049-.0509.8639.1087 2.2022 1.3575 3.9686 1.7069 6.7872 1.7069 7.339 0 13.2884-5.543 13.2884-12.3833 0-6.84034-5.9494-12.383352-13.2884-12.383352z" fill="#bed700"/><path clip-rule="evenodd" d="m166.632 75.0258c12.353 0 22.367 10.0136 22.367 22.3419 0 12.3533-10.014 22.3673-22.367 22.3673-12.354 0-22.367-10.014-22.367-22.3673 0-12.3283 10.013-22.3419 22.367-22.3419z" fill="#bed700" fill-rule="evenodd"/><path d="m52.98 123.936c-6.0046 0-10.8723 4.434-10.8723 9.906 0 1.672.4592 3.245 1.2644 4.625.1779.305.2072.678.0539.997l-2.2175 4.6 5.4372-1.744c.2841-.091.5931-.048.8495.104 1.7702 1.053 3.2079 1.325 5.4848 1.325 6.0046 0 10.8723-4.434 10.8723-9.907 0-5.472-4.8677-9.906-10.8723-9.906z" fill="#bed700"/><path d="m134.157 130.83c6.005 0 10.873 4.434 10.873 9.907 0 1.671-.46 3.244-1.265 4.624-.178.305-.207.679-.054.997l2.218 4.6-5.438-1.743c-.284-.092-.593-.049-.849.104-1.77 1.052-3.208 1.324-5.485 1.324-6.004 0-10.872-4.434-10.872-9.906 0-5.473 4.868-9.907 10.872-9.907z" fill="#bed700"/><path d="m11.8261 101.292c6.0047 0 10.8723 4.434 10.8723 9.907 0 1.671-.4591 3.244-1.2643 4.624-.1779.305-.2072.679-.0539.997l2.2175 4.6-5.4373-1.743c-.284-.092-.593-.049-.8495.104-1.7701 1.052-3.2078 1.324-5.4848 1.324-6.00457 0-10.872262-4.434-10.872262-9.906 0-5.473 4.867692-9.907 10.872262-9.907z" fill="#bed700"/><path d="m34.4673 20.7827c6.0046 0 10.8723 4.4344 10.8723 9.9066 0 1.6716-.4592 3.2444-1.2644 4.6247-.1779.305-.2072.6784-.0539.9965l2.2175 4.6-5.4372-1.7432c-.2841-.0911-.5931-.0483-.8495.1041-1.7702 1.0521-3.2079 1.3246-5.4848 1.3246-6.0047 0-10.8723-4.4344-10.8723-9.9067 0-5.4722 4.8676-9.9066 10.8723-9.9066z" fill="#bed700"/><path clip-rule="evenodd" d="m104.767 0c4.73 0 8.579 3.84945 8.579 8.57949 0 4.73001-3.849 8.57951-8.579 8.57951-4.731 0-8.58-3.8495-8.58-8.57951 0-4.73004 3.849-8.57949 8.58-8.57949z" fill="#2d6645" fill-rule="evenodd"/><path clip-rule="evenodd" d="m176.699 68.5101c4.73 0 8.579 3.8243 8.579 8.5795 0 4.7301-3.849 8.5544-8.579 8.5544s-8.58-3.8243-8.58-8.5544c0-4.7552 3.85-8.5795 8.58-8.5795z" fill="#2d6645" fill-rule="evenodd"/><path d="m124.715 10.0629c-29.7785 0-53.9186 22.6282-53.9186 50.5523 0 9.3803 2.5567 14.512 7.3116 21.914.1567.244.202.5461.1203.8243-2.7921 9.5123-6.1697 18.2755-14.2807 27.0305-7.7625 8.379 29.9526-4.343 34.3106-5.832.2689-.092.5546-.058.8033.08 10.4355 5.771 13.6725 6.536 25.6535 6.536 29.778 0 53.918-22.6286 53.918-50.5528 0-27.9241-24.14-50.5523-53.918-50.5523z" fill="#4ba541"/><g fill="#000"><path clip-rule="evenodd" d="m72.7642 255.698h19.6749v8.101h-19.6749z" fill-rule="evenodd"/><path clip-rule="evenodd" d="m86.8779 239.373h19.7001v8.076h-19.7001z" fill-rule="evenodd"/><path clip-rule="evenodd" d="m101.242 221.834h15.121v8.101h-15.121z" fill-rule="evenodd"/><path clip-rule="evenodd" d="m73.8965 212.124h15.121v8.102h-15.121z" fill-rule="evenodd"/><path clip-rule="evenodd" d="m90.0938 198.108h18.8952v8.076h-18.8952z" fill-rule="evenodd"/><path clip-rule="evenodd" d="m82.3735 181.754h14.3411v8.102h-14.3411z" fill-rule="evenodd"/><path d="m78.6988 168.948h-8.8311v43.552h8.8311z"/><path d="m120.489 171.113h-8.831v51.351h8.831z"/></g></svg>