<svg fill="none" height="17" viewBox="0 0 17 17" width="17" xmlns="http://www.w3.org/2000/svg"><path clip-rule="evenodd" d="m11.2982 12.7772c-1.1812.8858-2.65207 1.4111-4.24654 1.4111-3.89453 0-7.05166-3.134-7.05166-7.00002 0-3.866 3.15713-7.000002 7.05166-7.000002 3.89454 0 7.05164 3.134002 7.05164 7.000002 0 1.56482-.5172 3.00972-1.3913 4.17542.0179.0135.035.0283.0513.0445l3.8712 3.8429c.1967.1952.1967.5118 0 .7071l-.7123.7071c-.1967.1952-.5156.1952-.7123 0l-3.8713-3.8429c-.0145-.0145-.028-.0296-.0404-.0452zm.7904-5.58892c0 2.76143-2.25513 5.00002-5.03694 5.00002s-5.0369-2.23859-5.0369-5.00002 2.25509-5 5.0369-5 5.03694 2.23857 5.03694 5z" fill="#23719f" fill-opacity=".5" fill-rule="evenodd"/></svg>