<svg fill="none" height="24" viewBox="0 0 24 24" width="24" xmlns="http://www.w3.org/2000/svg"><g fill="#408053"><g stroke="#408053"><g stroke-width=".2"><path d="m13.1311 18.2203c-.0487-.0487-.0873-.1064-.1136-.1699-.0264-.0635-.0399-.1316-.04-.2004 0-.0688.0135-.1369.0398-.2005.0263-.0635.0649-.1213.1135-.1699.0982-.0983.2314-.1535.3703-.1535.0688-.0001.1369.0135.2004.0398.0636.0263.1213.0648.17.1134.3661.3662.8326.6157 1.3404.7167.5079.1011 1.0344.0493 1.5128-.1488s.8873-.5337 1.1751-.9643"/><path d="m17.5858 17.1113c-.0572.0382-.1214.0647-.1889.0781-.0674.0133-.1369.0133-.2043-.0002s-.1316-.0401-.1887-.0783c-.0572-.0383-.1062-.0874-.1444-.1446-.0381-.0572-.0647-.1214-.078-.1889-.0134-.0674-.0133-.1369.0001-.2043.0135-.0674.0401-.1316.0784-.1887.0382-.0572.0873-.1062.1446-.1444l1.5708-1.0472c.1156-.0771.257-.1051.3932-.0779s.256.1074.3331.2229c.077.1156.1051.257.0779.3932s-.1074.256-.223.3331z"/><path d="m20.3484 16.9087c.0381.0572.0646.1213.078.1888s.0133.1369-.0001.2043c-.0135.0675-.0401.1316-.0784.1887-.0382.0572-.0874.1063-.1446.1444-.0572.0382-.1214.0647-.1888.0781-.0675.0133-.1369.0133-.2043-.0002-.0675-.0135-.1316-.0401-.1888-.0783-.0571-.0383-.1062-.0874-.1443-.1446l-1.0473-1.5709c-.0381-.0572-.0647-.1213-.078-.1888-.0134-.0675-.0133-.1369.0001-.2043.0272-.1362.1074-.2561.223-.3331.1155-.0771.2569-.1051.3931-.0779.0675.0135.1316.0401.1888.0783.0571.0383.1062.0874.1443.1446zm-2.0814-3.9764c.05.0483.0899.1061.1173.17.0275.0639.0419.1326.0425.2021s-.0126.1385-.039.2028c-.0263.0644-.0652.1228-.1143.172-.0492.0492-.1077.0881-.172.1144-.0644.0263-.1333.0396-.2028.039-.0696-.0007-.1383-.0151-.2021-.0425-.0639-.0275-.1217-.0674-.17-.1174-.3662-.3662-.8327-.6157-1.3406-.7167-.5079-.1011-1.0344-.0492-1.5129.149-.4784.1982-.8874.5338-1.175.9644"/><path d="m13.8123 14.0412c.1155-.0771.2569-.1051.3931-.0779s.256.1074.3331.2229.1051.257.0779.3932-.1074.256-.2229.3331l-1.5714 1.0472c-.0572.0382-.1214.0647-.1888.078-.0675.0134-.1369.0134-.2044-.0001-.0674-.0135-.1315-.0401-.1887-.0784-.0571-.0382-.1062-.0873-.1444-.1446-.077-.1155-.105-.2569-.0778-.3931s.1073-.256.2229-.3331l1.5708-1.0472z"/><path d="m11.0499 14.244c-.0381-.0572-.0646-.1214-.078-.1889-.0134-.0674-.0133-.1369.0002-.2043.0134-.0674.04-.1316.0783-.1887.0382-.0572.0874-.1062.1446-.1444.0572-.0381.1214-.0647.1888-.078.0675-.0134.1369-.0133.2044.0001.0674.0135.1315.0401.1887.0784.0571.0382.1062.0874.1443.1446l1.0473 1.5708c.0771.1156.1051.257.0779.3932s-.1074.256-.223.3331c-.1155.077-.2569.1051-.3931.0779s-.256-.1074-.3331-.223z"/></g><path clip-rule="evenodd" d="m15.723 21.3881c3.181 0 5.7598-2.5788 5.7598-5.7598s-2.5788-5.75978-5.7598-5.75978c-3.1809 0-5.75975 2.57878-5.75975 5.75978s2.57885 5.7598 5.75975 5.7598zm0 1.0472c3.7596 0 6.807-3.0474 6.807-6.807s-3.0474-6.80701-6.807-6.80701c-3.7595 0-6.80698 3.04741-6.80698 6.80701s3.04748 6.807 6.80698 6.807z" fill-rule="evenodd" stroke-width=".3"/></g><path clip-rule="evenodd" d="m10.4775 2.23437c.9759-.39567 2.0675-.39567 3.0434 0l7.4979 3.03997c.3783.15325.7024.41597.9305.75446.2281.3385.3499.7374.3499 1.14559v3.25381c-.5091-.67181-1.1162-1.26534-1.8-1.75932v-.89451l-.8777.33886c-.646-.35541-1.3433-.62899-2.0781-.80677l1.8918-.73007-6.5915-2.67279-.0028-.00256c-.104-.04194-.2103-.07579-.3181-.10158-.0512-.01227-.1028-.0227-.1546-.03132-.4057-.06709-.8253-.02224-1.2122.13455l-1.91502.777 6.14822 2.39085c-.979.01756-1.9176.20125-2.7885.52406l-5.38522-2.09471-2.6245 1.0638 5.79762 2.2546c-.44117.33893-.84805.72033-1.2145 1.13808l-5.67312-2.20629v9.07762c.00013.0496.01503.0981.04281.1392.02779.0412.06719.0731.11319.0918l4.02157 1.6303c.39046.9743.95671 1.8592 1.6595 2.6154l-6.35846-2.578c-.37829-.1532-.70232-.4159-.93041-.7544-.22811-.3385-.34996-.7374-.34996-1.1456v-9.65101c0-.40819.12185-.80709.34996-1.14559.22811-.33851.55208-.60122.93041-.75446z" fill-rule="evenodd"/></g></svg>