<svg fill="none" height="16" viewBox="0 0 16 16" width="16" xmlns="http://www.w3.org/2000/svg"><path d="m2.90482 4.50835c0-.55715.46247-1.01019 1.03123-1.01019.27289 0 .53429.10693.72962.29546l.46535.45585c-.60323 1.0946-.49982 2.46216.31311 3.46109l-.04022.03658c-.27002.26451-.27002.69222 0 .95391.27002.2617.70664.26451.97378 0l4.59891-4.49942c.27-.2645.27-.69222 0-.95391s-.7066-.2645-.9738 0l-.03733.03658c-1.01974-.79633-2.41579-.89763-3.5332-.30671l-.46822-.45585c-.53716-.52902-1.26678-.82447-2.028-.82447-1.58563 0-2.86964 1.25781-2.86964 2.81108v8.89475c0 .498.41077.9004.9192.9004.50844 0 .91921-.4024.91921-.9004zm6.51524 5.19338c.50843 0 .91924-.40238.91924-.90044s-.41081-.90045-.91924-.90045c-.50844 0-.91921.40239-.91921.90045s.41077.90044.91921.90044zm1.83844 1.80087c0-.498-.4108-.9004-.9192-.9004-.50847 0-.91924.4024-.91924.9004 0 .4981.41077.9005.91924.9005.5084 0 .9192-.4024.9192-.9005zm0-3.60176c.5084 0 .9192-.40239.9192-.90045s-.4108-.90044-.9192-.90044c-.5085 0-.9192.40238-.9192.90044s.4107.90045.9192.90045zm1.8384 1.80089c0-.49806-.4108-.90044-.9192-.90044-.5085 0-.9192.40238-.9192.90044 0 .49807.4107.90047.9192.90047.5084 0 .9192-.4024.9192-.90047zm1.8384-1.80089c0-.49806-.4108-.90045-.9192-.90045-.5085 0-.9192.40239-.9192.90045s.4107.90045.9192.90045c.5084 0 .9192-.40239.9192-.90045z" fill="#408053"/></svg>