<svg fill="none" height="32" viewBox="0 0 32 32" width="32" xmlns="http://www.w3.org/2000/svg"><path d="m21.8132 18.667c.1066-.88.1866-1.76.1866-2.6667 0-.9066-.08-1.7866-.1866-2.6666h4.5066c.2134.8533.3467 1.7466.3467 2.6666s-.1333 1.8134-.3467 2.6667m-6.8666 7.4133c.8-1.48 1.4133-3.08 1.84-4.7466h3.9333c-1.2918 2.2243-3.3412 3.9093-5.7733 4.7466zm-.3334-7.4133h-6.24c-.1333-.88-.2133-1.76-.2133-2.6667 0-.9066.08-1.8.2133-2.6666h6.24c.12.8666.2134 1.76.2134 2.6666 0 .9067-.0934 1.7867-.2134 2.6667zm-3.12 7.9467c-1.1066-1.6-2-3.3734-2.5466-5.28h5.0933c-.5467 1.9066-1.44 3.68-2.5467 5.28zm-5.3333-15.9467h-3.89333c1.27847-2.23039 3.32643-3.91803 5.76003-4.74667-.8 1.48-1.4 3.08-1.8667 4.74667zm-3.89333 10.6667h3.89333c.4667 1.6666 1.0667 3.2666 1.8667 4.7466-2.4285-.8378-4.47357-2.523-5.76003-4.7466zm-1.09333-2.6667c-.21334-.8533-.34667-1.7467-.34667-2.6667s.13333-1.8133.34667-2.6666h4.50666c-.1067.88-.18666 1.76-.18666 2.6666 0 .9067.07996 1.7867.18666 2.6667m5.8133-13.29334c1.1067 1.6 2 3.38667 2.5467 5.29334h-5.0933c.5466-1.90667 1.44-3.69334 2.5466-5.29334zm9.2267 5.29334h-3.9333c-.4173-1.6514-1.0353-3.24548-1.84-4.74667 2.4533.84 4.4933 2.53333 5.7733 4.74667zm-9.2267-8.00001c-7.3733 0-13.3333 6-13.3333 13.33331 0 3.5362 1.40476 6.9276 3.90525 9.4281 1.23811 1.2381 2.70797 2.2203 4.32565 2.8903 1.6177.6701 3.3515 1.015 5.1024 1.015 3.5363 0 6.9276-1.4048 9.4281-3.9053s3.9053-5.8919 3.9053-9.4281c0-1.7509-.3449-3.4847-1.015-5.1024-.67-1.6177-1.6522-3.08755-2.8903-4.32567-1.2381-1.23811-2.7079-2.22024-4.3256-2.8903s-3.3515-1.01494-5.1025-1.01494z" fill="#04162c" fill-opacity=".5"/></svg>