<svg width="17" height="17" viewBox="0 0 17 17" fill="none" xmlns="http://www.w3.org/2000/svg">
<path d="M13.5372 3.1608C10.7451 0.495492 6.30871 0.590183 3.64222 3.38211C0.975738 6.17403 1.06954 10.6094 3.86154 13.2747C6.66295 15.9644 11.09 15.8454 13.7565 13.0534C16.423 10.2615 16.3292 5.8261 13.5372 3.1608ZM10.5208 4.32728C10.2096 4.02843 10.1956 3.5587 10.4946 3.24744C10.7936 2.93618 11.2682 2.92035 11.5794 3.2192C11.8907 3.51804 11.9046 3.98778 11.6056 4.29904C11.3066 4.6103 10.8321 4.62613 10.5208 4.32728ZM12.2371 5.87146C11.9258 5.57262 11.9119 5.10288 12.2109 4.79163C12.5098 4.48037 12.9797 4.46635 13.291 4.7652C13.6022 5.06405 13.6161 5.53378 13.3172 5.84504C13.0182 6.1563 12.5389 6.146 12.2371 5.87146Z" fill="#04162C" fill-opacity="0.5"/>
</svg>
