<svg width="17" height="16" viewBox="0 0 17 16" fill="none" xmlns="http://www.w3.org/2000/svg">
<path d="M13.337 2.94101C10.545 0.275704 6.10851 0.370395 3.44203 3.16232C0.775543 5.95424 0.869342 10.3897 3.66135 13.055C6.46276 15.7446 10.8898 15.6256 13.5563 12.8337C16.2228 10.0417 16.129 5.60631 13.337 2.94101ZM10.3206 4.10749C10.0094 3.80865 9.99545 3.33891 10.2944 3.02765C10.5934 2.71639 11.068 2.70056 11.3792 2.99941C11.6905 3.29826 11.7044 3.76799 11.4054 4.07925C11.1065 4.39051 10.6319 4.40634 10.3206 4.10749ZM12.0369 5.65168C11.7256 5.35283 11.7117 4.8831 12.0107 4.57184C12.3097 4.26058 12.7795 4.24657 13.0908 4.54541C13.402 4.84426 13.416 5.31399 13.117 5.62525C12.818 5.93651 12.3387 5.92621 12.0369 5.65168Z" fill="white"/>
</svg>
