<svg fill="none" height="17" viewBox="0 0 16 17" width="16" xmlns="http://www.w3.org/2000/svg"><path d="m6.94378 1.98584c.33491-1.074871 1.79315-1.074871 2.12807 0l.88548 2.84193c.14977.4807.57937.80616 1.06407.80616h2.8655c1.0838 0 1.5344 1.44623.6576 2.11054l-2.3183 1.75641c-.3921.29709-.5562.82372-.4064 1.30442l.8855 2.8419c.3349 1.0749-.8448 1.9687-1.7216 1.3044l-2.31828-1.7564c-.39212-.2971-.92309-.2971-1.31521 0l-2.31825 1.7564c-.87681.6643-2.05655-.2295-1.72164-1.3044l.88549-2.8419c.14978-.4807-.0143-1.00733-.40642-1.30442l-2.31825-1.75641c-.876811-.66431-.42619-2.11054.6576-2.11054h2.86552c.48469 0 .91425-.32546 1.06403-.80616z" fill="#27899e"/></svg>