<svg fill="none" height="32" viewBox="0 0 32 32" width="32" xmlns="http://www.w3.org/2000/svg"><path clip-rule="evenodd" d="m1 16.258c0-1.1046.89543-2 2-2h1.39423c1.10457 0 2 .8954 2 2v11.742c0 1.1046-.89543 2-2 2h-1.39423c-1.10457 0-2-.8954-2-2zm24.6053 0c0-1.1046.8954-2 2-2h1.3942c1.1046 0 2 .8954 2 2v11.742c0 1.1046-.8954 2-2 2h-1.3942c-1.1046 0-2-.8954-2-2zm-8.1387 5.3427c0-1.1046.8954-2 2-2h1.2996c1.1046 0 2 .8954 2 2v6.3993c0 1.1046-.8954 2-2 2h-1.2996c-1.1046 0-2-.8954-2-2zm-8.2333-16.6007c0-1.10457.8954-2 2-2h1.3942c1.1046 0 2 .89543 2 2v23c0 1.1046-.8954 2-2 2h-1.3942c-1.1046 0-2-.8954-2-2z" fill="#408053" fill-rule="evenodd"/></svg>