<svg fill="none" height="17" viewBox="0 0 16 17" width="16" xmlns="http://www.w3.org/2000/svg"><g fill="#1c8aa9"><path d="m3.625 3.46875c.54366 0 .98438-.44072.98438-.98437 0-.54366-.44072-.98438-.98438-.98438s-.98438.44072-.98438.98438c0 .54365.44072.98437.98438.98437z"/><path d="m8 3.46875c.54366 0 .98438-.44072.98438-.98437 0-.54366-.44072-.98438-.98438-.98438s-.98438.44072-.98438.98438c0 .54365.44072.98437.98438.98437z"/><path d="m12.375 3.46875c.5437 0 .9844-.44072.9844-.98437 0-.54366-.4407-.98438-.9844-.98438s-.9844.44072-.9844.98438c0 .54365.4407.98437.9844.98437z"/><path d="m1.21875 6.85938h.4375 3.9375.4375 3.9375.43745 3.9376.4374c.1204 0 .2188-.09844.2188-.21876 0-.12031-.0984-.21874-.2188-.21874h-.4593c-.0328-.67813-.0985-1.68438-.2297-1.89219-.1531-.25156-1.0938-.73281-1.0938-.73281l-.6343.59062-.6235-.59062s-.9297.47031-1.0937.73281c-.1313.20781-.1969 1.21406-.2297 1.89219h-.48126c-.03282-.67813-.09844-1.68438-.22969-1.89219-.15313-.25156-1.09375-.73281-1.09375-.73281l-.6125.59062-.63437-.59062s-.92969.47031-1.09375.73281c-.13125.20781-.19688 1.21406-.22969 1.89219h-.48125c-.03281-.67813-.09844-1.68438-.22969-1.89219-.15313-.25156-1.09375-.73281-1.09375-.73281l-.6125.59062-.63437-.59062s-.92969.47031-1.09376.73281c-.12031.20781-.18593 1.21406-.21875 1.89219h-.45937c-.12031 0-.21875.09843-.21875.21874 0 .12032.09844.21876.21875.21876z"/><path d="m8 11.8525c.78528 0 1.42188-.6366 1.42188-1.4225"/><path d="m10.5 14.0375c0-.8475-1.02885-1.5375-2.14423-1.5375h-.71154c-1.11538 0-2.14423.69-2.14423 1.5375v1.4625h5z"/></g></svg>