<svg width="16" height="16" viewBox="0 0 16 16" fill="none" xmlns="http://www.w3.org/2000/svg">
<path d="M7.73809 2.45935L3.95403 2.45935C3.83609 2.45935 3.71815 2.59751 3.68867 2.78172L3.10914 5.08435H7.73809V2.45935Z" fill="#408053"/>
<path d="M12.4587 2.78748C12.4307 2.59998 12.3188 2.45935 12.2069 2.45935H8.28027V5.08435H13.0086L12.4587 2.78748Z" fill="#408053"/>
<path d="M13.8479 7.5719H8.28021V11.4563H12.0659L12.0939 13.3699H4.02798L4 11.4563H7.72064V7.5719H2.15291L1.31356 11.1135C1.2576 11.2849 1.39749 11.4563 1.56536 11.4563H2.6845V14.2542C2.6845 14.397 2.6845 14.9977 3.38396 14.9977C4 14.9977 4.02798 14.4256 4.02798 14.2542V13.3699H12.0939V14.0174C12.0939 14.5174 12.0939 14.9959 12.7601 14.9959C13.3723 14.9959 13.3723 14.446 13.3723 14.0174V11.4563H14.4914C14.6873 11.4563 14.8272 11.2278 14.7432 11.0564L13.8479 7.5719Z" fill="#408053"/>
<path d="M14.7083 5.39648H1.29167C1.14583 5.39648 1 5.47788 1 5.59997V6.943C1 7.04474 1.11667 7.14648 1.29167 7.14648H14.7083C14.8542 7.14648 15 7.06509 15 6.943V5.59997C15 5.47788 14.8833 5.39648 14.7083 5.39648Z" fill="#408053"/>
</svg>
