<svg width="16" height="16" viewBox="0 0 16 16" fill="none" xmlns="http://www.w3.org/2000/svg">
<path d="M10.7489 10.658C10.471 10.3871 10.1572 10.1634 9.81744 9.9891C9.3395 10.417 8.70101 10.6816 8.00904 10.6836H8.00818H8.00434C7.30755 10.6816 6.66581 10.4159 6.1848 9.98267C5.29779 10.4348 4.60478 11.2149 4.28851 12.1958C4.16893 12.5612 4.1106 12.9406 4.1106 13.3286V14.0281C4.1106 14.1839 4.24185 14.3113 4.40226 14.3113H11.5977C11.7581 14.3113 11.8893 14.1839 11.8893 14.0281V13.3286C11.8893 12.9406 11.8281 12.5612 11.7114 12.1958C11.5248 11.6181 11.1923 11.0885 10.7489 10.658Z" fill="#408053"/>
<path d="M5.48544 9.12802C5.34252 8.92412 5.22877 8.70038 5.15001 8.45966C4.96626 8.50215 4.77669 8.52196 4.58418 8.52196C3.88419 8.52196 3.24544 8.25576 2.77002 7.82812C1.53626 8.4625 0.693359 9.71708 0.693359 11.1642V11.8638C0.693359 12.0195 0.824613 12.147 0.985026 12.147H3.28918C3.32128 11.9629 3.36794 11.7816 3.42335 11.606C3.7646 10.5469 4.49668 9.67178 5.48544 9.12802Z" fill="#408053"/>
<path d="M4.58734 7.37288C4.73901 7.37288 4.89068 7.35589 5.03651 7.32475C5.02776 7.24829 5.02192 7.16899 5.02192 7.08968C5.02192 6.66488 5.12693 6.25141 5.32234 5.88891C5.32234 5.88891 5.44192 5.69068 5.46818 5.65386C5.74818 5.24321 6.13317 4.92603 6.57942 4.73062C6.3111 3.90649 5.52067 3.31177 4.58734 3.31177C3.43235 3.31177 2.49609 4.22085 2.49609 5.34233C2.49609 6.46098 3.43235 7.37288 4.58734 7.37288Z" fill="#408053"/>
<path d="M14.169 8.66835C13.889 8.39647 13.574 8.17275 13.2356 8C12.7573 8.43047 12.1215 8.69667 11.4186 8.69667C11.2261 8.69667 11.0365 8.67686 10.8527 8.63437C10.774 8.87792 10.6602 9.10448 10.5144 9.31123C10.8644 9.50097 11.1852 9.73887 11.4711 10.0164C11.9786 10.5092 12.3606 11.1209 12.5765 11.7836C12.6319 11.962 12.6756 12.1404 12.7077 12.3217H15.0177C15.1781 12.3217 15.3094 12.1942 15.3094 12.0385V11.339C15.3094 10.3308 14.904 9.38203 14.169 8.66835Z" fill="#408053"/>
<path d="M10.5723 5.72466C10.5898 5.75014 10.6131 5.78979 10.6335 5.82377L10.6539 5.85209L10.6597 5.86908C10.8698 6.24858 10.9748 6.65923 10.9748 7.08968C10.9748 7.16899 10.9718 7.24829 10.9631 7.32475C11.1089 7.35589 11.2606 7.37288 11.4123 7.37288C12.5673 7.37288 13.5035 6.46098 13.5035 5.34233C13.5035 4.22085 12.5673 3.31177 11.4123 3.31177C10.4789 3.31177 9.68559 3.90932 9.42017 4.73345C9.88976 4.94585 10.2952 5.28852 10.5723 5.72466Z" fill="#408053"/>
<path d="M8.48017 9.5163C9.6037 9.25877 10.2995 8.16562 10.0343 7.07469C9.76903 5.98375 8.64322 5.30815 7.51969 5.56568C6.39615 5.82321 5.70036 6.91636 5.96559 8.00729C6.23082 9.09823 7.35664 9.77383 8.48017 9.5163Z" fill="#408053"/>
</svg>
