<svg fill="none" height="32" viewBox="0 0 32 32" width="32" xmlns="http://www.w3.org/2000/svg"><path d="m15.9998 2.66699c-7.35996 0-13.3333 5.97334-13.3333 13.33331 0 7.36 5.97334 13.3334 13.3333 13.3334 7.36 0 13.3334-5.9734 13.3334-13.3334 0-7.35997-5.9734-13.33331-13.3334-13.33331zm6.1867 9.06671c-.2 2.1066-1.0667 7.2266-1.5067 9.5866-.1866 1-.56 1.3334-.9066 1.3734-.7734.0666-1.36-.5067-2.1067-1-1.1733-.7734-1.84-1.2534-2.9733-2-1.32-.8667-.4667-1.3467.2933-2.12.2-.2 3.6133-3.3067 3.68-3.5867.0093-.0424.008-.0864-.0036-.1283-.0116-.0418-.0333-.0802-.0631-.1117-.08-.0667-.1866-.04-.28-.0267-.12.0267-1.9866 1.2667-5.6266 3.72-.5334.36-1.0134.5467-1.44.5334-.48-.0134-1.3867-.2667-2.0667-.4934-.84-.2666-1.49333-.4133-1.44-.88.02667-.24.36-.48.98667-.7333 3.89333-1.6933 6.48003-2.8133 7.77333-3.3467 3.7067-1.5466 4.4667-1.8133 4.9733-1.8133.1067 0 .36.0267.52.16.1334.1067.1734.2533.1867.36-.0133.08.0133.32 0 .5067z" fill="#04162c" fill-opacity=".5"/></svg>