<svg width="17" height="17" viewBox="0 0 17 17" fill="none" xmlns="http://www.w3.org/2000/svg">
<path d="M2.81298 4.1048C1.86077 5.41246 1.40024 7.01335 1.49794 8.63808C1.87779 8.65288 2.31506 8.57671 2.80801 8.39774C3.7328 8.02569 4.78801 7.25704 5.66687 6.17244C6.5457 5.0878 7.0807 3.91228 7.23008 2.92328C7.33635 2.28264 7.28125 1.74829 7.10453 1.34984C5.38537 1.6974 3.85381 2.67767 2.81295 4.10459L2.81298 4.1048ZM1.63259 9.63238C2.31522 12.9045 5.19668 15.2395 8.53383 15.2196C8.49402 14.7891 8.50858 14.3271 8.5809 13.8565C8.7931 12.4927 9.48026 10.9882 10.5891 9.62206C11.6979 8.25588 13.0164 7.27161 14.3122 6.77414C14.6353 6.64398 14.9652 6.56002 15.2985 6.49911C14.4657 3.24917 11.4725 1.03675 8.12281 1.21183C8.30023 1.7753 8.32442 2.42028 8.21984 3.07248C8.02022 4.28116 7.41151 5.59722 6.44401 6.80106C5.46494 8.0066 4.30782 8.8846 3.16863 9.32361C2.65425 9.51726 2.12797 9.63016 1.63259 9.63238ZM11.1756 10.479C10.2757 11.6612 9.73123 12.9324 9.5591 14.0073C9.50309 14.4282 9.48819 14.8078 9.52594 15.1442C13.1631 14.5968 15.7666 11.3594 15.4984 7.69606C15.4882 7.62681 15.4763 7.54606 15.4661 7.47681C15.2137 7.52563 14.9416 7.60143 14.6613 7.7015C13.5782 8.12043 12.3748 9.00524 11.3662 10.2505C11.2956 10.3317 11.2364 10.4111 11.1756 10.479Z" fill="#04162C" fill-opacity="0.5"/>
</svg>
