<svg width="17" height="16" viewBox="0 0 17 16" fill="none" xmlns="http://www.w3.org/2000/svg">
<path d="M2.51293 3.88501C1.56072 5.19268 1.10019 6.79357 1.19789 8.41829C1.57774 8.43309 2.01502 8.35692 2.50796 8.17796C3.43276 7.8059 4.48796 7.03725 5.36682 5.95266C6.24565 4.86801 6.78065 3.6925 6.93003 2.70349C7.03631 2.06285 6.9812 1.5285 6.80448 1.13005C5.08532 1.47761 3.55377 2.45789 2.5129 3.8848L2.51293 3.88501ZM1.33255 9.41259C2.01517 12.6847 4.89663 15.0197 8.23378 14.9998C8.19398 14.5694 8.20853 14.1073 8.28085 13.6367C8.49305 12.2729 9.18021 10.7684 10.289 9.40227C11.3979 8.0361 12.7164 7.05182 14.0122 6.55436C14.3353 6.4242 14.6652 6.34023 14.9985 6.27933C14.1657 3.02938 11.1725 0.816967 7.82276 0.992038C8.00018 1.55551 8.02437 2.20049 7.9198 2.85269C7.72017 4.06137 7.11146 5.37743 6.14396 6.58127C5.16489 7.78681 4.00777 8.66481 2.86858 9.10383C2.3542 9.29747 1.82792 9.41038 1.33255 9.41259ZM10.8756 10.2593C9.97568 11.4414 9.43118 12.7126 9.25906 13.7875C9.20304 14.2085 9.18814 14.588 9.22589 14.9244C12.863 14.3771 15.4665 11.1396 15.1984 7.47627C15.1882 7.40702 15.1763 7.32628 15.1661 7.25702C14.9136 7.30585 14.6416 7.38165 14.3612 7.48171C13.2781 7.90065 12.0748 8.78545 11.0661 10.0307C10.9955 10.1119 10.9364 10.1914 10.8756 10.2593Z" fill="white"/>
</svg>
