<svg fill="none" height="16" viewBox="0 0 16 16" width="16" xmlns="http://www.w3.org/2000/svg"><g fill="#1c8aa9"><path d="m10.7501 13.7287c-.0139.1721-.0264.3195-.0361.4668-.0166.2424-.0347.4847-.043.7271 0 .0854-.0514.0771-.1083.0771h-2.91375c-.734 0-1.46943 0-2.20482 0-.08603 0-.11378-.0192-.11933-.1101-.0222-.4132-.05411-.8263-.08325-1.2477-.04578.0744-.08046.1377-.12347.1956-.07014.0974-.1608.1786-.26567.2378s-.22144.0951-.34168.1052c-.12023.0101-.24123-.0059-.35463-.0468s-.21646-.1058-.30208-.1902c-.55502-.5508-1.11005-1.1017-1.66507-1.6525-.16203-.1547-.28799-.3428-.36907-.5509-.05651-.1669-.0791-.3432-.06648-.5189.01262-.1756.06023-.347.14003-.5043.1837-.3692.39376-.72495.62856-1.06447.44263-.7037.87135-1.41842 1.3778-2.08081.21458-.29415.49543-.53449.82017-.70185.32473-.16736.68439-.25711 1.05026-.26212h.28583c.02318-.0031.04671.00232.06614.01526s.0334.0325.03929.05497c.32561.77577.65214 1.55063.9796 2.32456.13181.31123.26089.62382.39409.93367.01101.024.01669.05008.01669.07649 0 .0263-.00568.0524-.01669.0764-.15124.3938-.29974.7891-.44821 1.1843-.06521.1735-.02217.2561.15405.3167l.82004.2754c.03012.0165.0637.0257.09807.0268.03436.0012.06852-.0056.09972-.02.0312-.0143.05859-.0357.0799-.0625.02132-.0268.03597-.0582.04281-.0916.17668-.4636.35197-.9277.52588-1.3923.01721-.0287.02702-.0611.02862-.0945s-.00509-.0666-.01948-.0968-.036-.0564-.06301-.0764c-.027-.0199-.05856-.033-.09184-.038-.06799-.02339-.13875-.04955-.20258-.06745-.06382-.01791-.08325-.0551-.05411-.12396.1665-.38834.32746-.77805.49119-1.16777.27751-.64449.54533-1.28759.81174-1.92794.01185-.04035.03773-.07523.07305-.09843.03531-.0232.07773-.03322.11979-.02828.5938-.0326 1.1794.1494 1.6484.51229.2428.19117.452.42105.6188.68028.58.84554 1.1253 1.71312 1.6651 2.58486.1597.2405.2648.5125.308.7973.0217.1802.0035.3628-.0533.5353-.0568.1724-.1508.3305-.2755.4631-.0666.0771-.1388.1501-.2082.2231-.5078.5123-1.0166 1.0241-1.5263 1.5355-.0892.1036-.2025.1841-.3302.2345-.1276.0504-.2656.0692-.4022.0549-.1366-.0144-.2676-.0615-.3818-.1374-.1141-.0758-.2079-.1781-.2733-.298zm.401-4.30075-.0222.01103-.3095 3.47032c.0666-.0703.1097-.1198.1568-.168.4774-.4811.9552-.9617 1.4334-1.4418.0121-.0082.0222-.0189.0295-.0315.0072-.0126.0115-.0267.0125-.0412.0009-.0145-.0015-.0291-.0071-.0425s-.0142-.0254-.0252-.035c-.3108-.4131-.6175-.8386-.9269-1.25862zm-6.28836 0c-.04856.01928-.06103.05373-.08045.07989-.401.55086-.80063 1.09066-1.2044 1.63186-.0555.0744-.04301.1129.01804.1735.47037.4627.93799.931 1.40837 1.3937.05134.0495.08323.1198.1651.1652z"/><path d="m7.99363 5.3544c-.43352-.00054-.85714-.12855-1.2174-.36787-.36027-.23932-.64101-.57923-.80679-.97679-.16577-.39756-.20913-.83495-.12462-1.25696.08451-.422.29308-.80969.59943-1.11412s.69673-.51195 1.12183-.59635c.42509-.084409.86586-.04192 1.26664.1221.40078.16403.74359.44223.98518.79948.2416.35726.3711.77753.3722 1.20779.002.28697-.0534.57148-.163.83703-.10965.26555-.2713.50685-.47563.7099s-.44726.3638-.71468.47294-.55402.1645-.84316.16285z"/><path d="m7.99387 9.62311-.42319-1.00391-.79925-1.89491c-.04995-.11981-.04992-.1198.07495-.1198h2.30607c.11517 0 .11656.00001.07216.10467l-1.17802 2.80103c-.01526.03029-.02913.05921-.05272.11292z"/></g></svg>