<svg width="17" height="16" viewBox="0 0 17 16" fill="none" xmlns="http://www.w3.org/2000/svg">
<path d="M10.0054 11.0908L4.08572 7.34159C3.80756 6.00804 4.1003 4.50393 5.01935 3.21071C6.70621 0.837287 10.2172 0.380543 12.418 1.81347C14.6189 3.24646 15.3636 6.36899 13.6768 8.74241C12.7576 10.0356 11.4035 10.8487 10.0054 11.0908Z" fill="white"/>
<path d="M8.99817 11.3667C8.99817 11.3667 7.63677 10.8151 6.60883 11.7567C5.58089 12.6983 4.22463 15 4.22463 15C4.22463 15 3.90078 14.9824 3.31844 14.6033C2.736 14.2241 2.6001 13.9423 2.6001 13.9423C2.6001 13.9423 4.33163 11.8638 4.8691 10.6027C5.40659 9.34178 4.37752 8.35828 4.37752 8.35828L4.37597 8.35279L9.00419 11.3662L8.99817 11.3667Z" fill="white"/>
</svg>
