<svg width="16" height="16" viewBox="0 0 16 16" fill="none" xmlns="http://www.w3.org/2000/svg">
<path d="M6.59469 11.0908L12.5144 7.34159C12.7925 6.00804 12.4998 4.50393 11.5808 3.21071C9.89389 0.837287 6.38287 0.380543 4.18208 1.81347C1.98118 3.24646 1.23648 6.36899 2.92334 8.74241C3.84248 10.0356 5.1966 10.8487 6.59469 11.0908Z" fill="#F4980D"/>
<path d="M7.60193 11.3667C7.60193 11.3667 8.96332 10.8151 9.99126 11.7567C11.0192 12.6983 12.3755 15 12.3755 15C12.3755 15 12.6993 14.9824 13.2817 14.6033C13.8641 14.2241 14 13.9423 14 13.9423C14 13.9423 12.2685 11.8638 11.731 10.6027C11.1935 9.34178 12.2226 8.35828 12.2226 8.35828L12.2241 8.35279L7.59591 11.3662L7.60193 11.3667Z" fill="#F4980D"/>
</svg>
