<svg width="16" height="16" viewBox="0 0 16 16" fill="none" xmlns="http://www.w3.org/2000/svg">
<path d="M9.40531 11.0908L3.48562 7.34159C3.20746 6.00804 3.5002 4.50393 4.41925 3.21071C6.10611 0.837287 9.61713 0.380543 11.8179 1.81347C14.0188 3.24646 14.7635 6.36899 13.0767 8.74241C12.1575 10.0356 10.8034 10.8487 9.40531 11.0908Z" fill="#408053"/>
<path d="M8.39807 11.3667C8.39807 11.3667 7.03668 10.8151 6.00874 11.7567C4.9808 12.6983 3.62453 15 3.62453 15C3.62453 15 3.30068 14.9824 2.71834 14.6033C2.1359 14.2241 2 13.9423 2 13.9423C2 13.9423 3.73153 11.8638 4.26901 10.6027C4.80649 9.34178 3.77742 8.35828 3.77742 8.35828L3.77587 8.35279L8.40409 11.3662L8.39807 11.3667Z" fill="#408053"/>
</svg>
