<svg width="16" height="16" viewBox="0 0 16 16" fill="none" xmlns="http://www.w3.org/2000/svg">
<path d="M9.10302 10.5279L4.45656 7.46142C4.23822 6.37072 4.468 5.14051 5.18937 4.0828C6.51342 2.14158 9.26928 1.76801 10.9967 2.93999C12.7242 4.11203 13.3088 6.66594 11.9847 8.60716C11.2633 9.66489 10.2004 10.3299 9.10302 10.5279Z" fill="#04162C" fill-opacity="0.5"/>
<path d="M8.31242 10.7536C8.31242 10.7536 7.24384 10.3024 6.43699 11.0726C5.63014 11.8427 4.56559 13.7252 4.56559 13.7252C4.56559 13.7252 4.31139 13.7109 3.85431 13.4008C3.39713 13.0906 3.29046 12.8601 3.29046 12.8601C3.29046 12.8601 4.64958 11.1601 5.07145 10.1287C5.49333 9.09738 4.6856 8.29297 4.6856 8.29297L4.68438 8.28848L8.31714 10.7531L8.31242 10.7536Z" fill="#04162C" fill-opacity="0.5"/>
</svg>
