<svg fill="none" height="25" viewBox="0 0 26 25" width="26" xmlns="http://www.w3.org/2000/svg"><g fill="#408053"><path d="m23.9639 19.0667-2.0376-4.1042c-.1566-.3517-.666-.3517-.862 0l-2.0375 4.1042c-.1566.3128.0785.7035.431.7035l.7839.0002c-.0391.1955-.1175.391-.196.5862-.1566.3128-.3525.6255-.5876.8599-.2744.2738-.5485.469-.862.5862-.3919.1563-.7836.2738-1.2145.2738-.6661 0-1.2146.5082-1.2146 1.1727v.0782c0 .6645.5094 1.1727 1.1755 1.1727.431 0 .823-.039 1.254-.1562.9404-.2345 1.8415-.7035 2.586-1.4462s1.2146-1.6416 1.4497-2.5798c.0391-.1955.0784-.391.0784-.5862h.823"/><path d="m.062782 5.93336 2.037518 4.10424c.15661.3517.66605.3517.86199 0l2.03752-4.10424c.15661-.31273-.07844-.70342-.43101-.70342l-.78384-.00028c.03908-.19549.11752-.39098.19596-.58619.15661-.31273.35257-.62546.58761-.85992s.54853-.46896.862-.58619c.39193-.15623.78356-.27374 1.21456-.27374.66605 0 1.21456-.50822 1.21456-1.17269v-.07825c0-.66444-.50945-1.17268-1.17552-1.17268-.43101 0-.82295.038988-1.25395.156229-.94043.234481-1.84154.703431-2.58606 1.446151-.74452.74273-1.21456 1.64166-1.44965 2.57982-.03908.19549-.07844.39098-.07844.58619h-.822956"/><path d="m7.97736 23.9918-7.483696-7.4657c-.626969-.6254-.626969-1.6806 0-2.306l13.243436-13.21146c.6269-.625453 1.6846-.625453 2.3116 0l7.4837 7.46564c.627.62545.627 1.68062 0 2.30602l-13.2434 13.2115c-.62696.6254-1.68466.6254-2.31164 0zm-4.31012-9.4591 6.30824 6.293 11.24512-11.21797-6.308-6.25407z"/></g></svg>