<svg fill="none" height="16" viewBox="0 0 16 16" width="16" xmlns="http://www.w3.org/2000/svg"><g fill="#408053"><path d="m12.5014 1.00293h-9.00282c-.27066 0-.49858.23571-.49858.51561v4.13959c0 .26517.14245.51561.37037.63347l2.92023 1.66467.31339-.70712c.24216-.5598.79772-.92809 1.39601-.92809s1.15385.36829 1.39601.92809l.29915.70712 2.93444-1.66467c.228-.11786.3704-.3683.3704-.63347v-4.13959c0-.2799-.2137-.51561-.4986-.51561z"/><path d="m11.4035 9.94543-1.95158-.22098c-.09972-.01473-.17094-.07366-.21368-.16205l-.81196-1.85619c-.17094-.38302-.69801-.38302-.86895 0l-.81196 1.84146c-.04274.08839-.12821.14732-.21368.16205l-1.95157.22097c-.4131.0442-.5698.57451-.27065.85441l1.43874 1.3701c.07123.0736.09972.162.08547.2651l-.39886 1.9888c-.08547.4125.34188.7366.69801.5304l1.72365-1.0018c.08547-.0442.18518-.0442.27065 0l1.69516 1.0018c.35611.2062.78351-.1179.69801-.5304l-.3846-1.9888c-.0143-.1031.0142-.1915.0854-.2651l1.453-1.3553c.2992-.2947.1282-.81028-.2706-.85447z"/></g></svg>