<svg fill="none" height="16" viewBox="0 0 16 16" width="16" xmlns="http://www.w3.org/2000/svg"><path d="m8 6.2c-.50632 0-.99191.18964-1.34993.52721-.35803.33756-.55916.7954-.55916 1.27279s.20113.93523.55916 1.27279c.35802.33757.84361.52721 1.34993.52721s.99191-.18964 1.34993-.52721c.35803-.33756.55916-.7954.55916-1.27279s-.20113-.93523-.55916-1.27279c-.35802-.33757-.84361-.52721-1.34993-.52721zm0 4.8c-.84387 0-1.65318-.3161-2.24989-.8787-.5967-.56259-.93193-1.32565-.93193-2.1213s.33523-1.55871.93193-2.12132c.59671-.56261 1.40602-.87868 2.24989-.87868s1.65318.31607 2.2499.87868c.5967.56261.9319 1.32567.9319 2.12132s-.3352 1.55871-.9319 2.1213c-.59672.5626-1.40603.8787-2.2499.8787zm0-7.5c-3.18182 0-5.89909 1.866-7 4.5 1.10091 2.634 3.81818 4.5 7 4.5 3.1818 0 5.8991-1.866 7-4.5-1.1009-2.634-3.8182-4.5-7-4.5z" fill="#408053"/></svg>