<svg fill="none" height="40" viewBox="0 0 40 40" width="40" xmlns="http://www.w3.org/2000/svg"><rect fill="#07f" height="40" rx="20" width="40"/><path d="m20.9825 27c-7.5165 0-11.80386-5.2553-11.9825-14h3.7651c.1237 6.4184 2.8995 9.1371 5.0981 9.6977v-9.6977h3.5453v5.5355c2.1711-.2382 4.4522-2.7607 5.2217-5.5355h3.5453c-.29 1.4391-.868 2.8017-1.6979 4.0025s-1.8939 2.2141-3.1253 2.9765c1.3746.6966 2.5887 1.6825 3.5622 2.8927.9735 1.2103 1.6843 2.6173 2.0855 4.1283h-3.9026c-.3601-1.3124-1.092-2.4872-2.104-3.3772s-2.2591-1.4555-3.5849-1.6258v5.003z" fill="#fff"/></svg>