<svg fill="none" height="32" viewBox="0 0 32 32" width="32" xmlns="http://www.w3.org/2000/svg"><path d="m20.0972 2.66699h-8.1814c-7.47196 0-9.2493 1.77734-9.2493 9.23601v8.1813c0 7.4707 1.764 9.2494 9.236 9.2494h8.1813c7.4707 0 9.2494-1.764 9.2494-9.236v-8.1814c0-7.47197-1.764-9.24931-9.236-9.24931zm4.0973 19.02671h-1.9453c-.736 0-.9574-.596-2.2774-1.916-1.152-1.1107-1.6386-1.2494-1.9306-1.2494-.4027 0-.5134.1107-.5134.6667v1.7493c0 .4734-.1533.7507-1.3893.7507-1.1995-.0806-2.3628-.4451-3.3939-1.0633s-1.9005-1.4726-2.5368-2.4927c-1.5104-1.88-2.56137-4.0865-3.0693-6.444 0-.292.11067-.556.66667-.556h1.944c.50003 0 .68003.2227.87603.736.944 2.7787 2.5546 5.1947 3.208 5.1947.2506 0 .36-.1107.36-.736v-2.8614c-.0827-1.3053-.776-1.416-.776-1.888.0089-.1245.0659-.2406.159-.3237.0931-.0832.2149-.1268.3396-.1216h3.056c.4174 0 .556.208.556.708v3.8613c0 .4174.18.556.3054.556.2506 0 .444-.1386.9026-.5973.9852-1.2014 1.7901-2.5399 2.3894-3.9733.0612-.1722.1771-.3196.33-.4198.1529-.1001.3343-.1475.5166-.1349h1.9454c.5826 0 .7066.292.5826.708-.7073 1.5846-1.5825 3.0887-2.6106 4.4867-.2094.32-.2934.4866 0 .8613.1933.292.8746.8613 1.3333 1.4027.6665.6648 1.22 1.434 1.6387 2.2773.1666.5413-.112.8187-.6667.8187z" fill="#04162c" fill-opacity=".5"/></svg>