<svg fill="none" height="16" viewBox="0 0 16 16" width="16" xmlns="http://www.w3.org/2000/svg"><path d="m7.76189 13.6815c-1.25991 0-2.36844-.4389-3.32558-1.3166-.95754-.8782-1.43631-2.0663-1.43631-3.56432 0-.94246.35714-1.96428 1.07143-3.06547.71428-1.10119 1.79563-2.29166 3.24403-3.57142.05953-.0496.12897-.08929.20834-.11905.07936-.02976.15873-.04464.23809-.04464.07937 0 .15873.01488.2381.04464.07936.02976.14881.06945.20833.11905 1.44841 1.27976 2.52978 2.47023 3.24408 3.57142.7142 1.10119 1.0714 2.12301 1.0714 3.06547 0 1.49802-.4788 2.68612-1.4363 3.56432-.9572.8777-2.06569 1.3166-3.32561 1.3166zm.16369-1.7857c.11905-.0099.22084-.0569.30536-.1411.08413-.0845.12619-.1863.12619-.3053 0-.1389-.04464-.2504-.13393-.3345-.08929-.0846-.20337-.1219-.34226-.1119-.40675.0297-.83829-.0818-1.29464-.3346-.45635-.2531-.74405-.71207-.86309-1.37675-.01984-.10913-.07203-.19841-.15655-.26786-.08413-.06944-.18075-.10416-.28988-.10416-.13889 0-.25298.05198-.34226.15595-.08929.10436-.11905.22599-.08929.36488.16865.90274.56548 1.54764 1.19048 1.93454.62499.3869 1.25495.5605 1.88987.5208z" fill="#1c8aa9"/></svg>