<svg fill="none" height="16" viewBox="0 0 16 16" width="16" xmlns="http://www.w3.org/2000/svg"><g fill="#1c8aa9"><path d="m14.4232 5.56103c-3.6138-3.71877-9.23435-3.71741-12.84674 0-.13585.13979-.1385.37648-.00714.5215l.69841.77089c.12524.13843.32677.14138.45691.00863 2.97639-3.03366 7.57356-3.03434 10.55056 0 .1302.13275.3317.12958.4569-.00863l.6984-.77089c.1312-.14502.1285-.38171-.0073-.5215zm-2.2894 2.57639c-2.35103-2.31315-5.91957-2.31065-8.26793 0-.14074.13843-.14523.37875-.01162.52535l.70249.77135c.12238.13434.31942.14342.44976.01815 1.71237-1.64686 4.27817-1.64323 5.9865 0 .1303.12527.3273.11642.4497-.01815l.7025-.77135c.1338-.1466.1291-.38715-.0114-.52535z"/><path d="m9.65741 11.5364c0 .934-.75664 1.6912-1.69 1.6912s-1.69-.7572-1.69-1.6912c0-.9339.75664-1.6911 1.69-1.6911s1.69.7572 1.69 1.6911z"/></g></svg>