<svg fill="none" height="40" viewBox="0 0 40 40" width="40" xmlns="http://www.w3.org/2000/svg"><g clip-rule="evenodd" fill-rule="evenodd"><path d="m40 20.0004c0 11.0444-8.9552 19.9996-20.0004 19.9996-11.04436 0-19.9996-8.9552-19.9996-19.9996 0-11.04515 8.95524-20.0004 19.9996-20.0004 11.0452 0 20.0004 8.95525 20.0004 20.0004z" fill="#fb3f1c"/><path d="m23.1064 32.2677h4.3757v-24.98712h-6.3413c-6.3797 0-9.7276 3.26672-9.7276 8.09142-.0029 3.8042 1.8611 6.1396 5.1118 8.4446l-5.7008 8.4511h4.7275l6.3442-9.468-2.2093-1.4672c-2.664-1.7959-3.9688-3.1913-3.9688-6.218 0-2.6611 1.8742-4.4562 5.439-4.4562h1.9496z" fill="#fff"/></g></svg>