<svg fill="none" height="16" viewBox="0 0 16 16" width="16" xmlns="http://www.w3.org/2000/svg"><path d="m8.24034 12.2996-.24087-.1324-.24088.1324-2.82376 1.5523c-.36546.201-.80179-.1075-.73428-.519l.55059-3.35687.04103-.25015-.17752-.18094-2.37277-2.4185c-.28559-.29109-.12136-.78324.2818-.84449l3.23838-.49206.26336-.04001.1137-.2409 1.40818-2.98358c.18035-.38212.72398-.38212.90433 0l1.40818 2.98358.1137.2409.26339.04001 3.2384.49206c.4031.06125.5673.5534.2818.84449l-2.3728 2.4185-.1775.18094.041.25015.5506 3.35687c.0675.4115-.3688.72-.7343.519z" stroke="#ffb547"/></svg>