<svg fill="none" height="16" viewBox="0 0 16 16" width="16" xmlns="http://www.w3.org/2000/svg"><path clip-rule="evenodd" d="m3.69238 13.1992.54537-3.35846-2.35186-2.42137c-.58866-.60605-.25015-1.63071.58086-1.75825l3.20824-.49239 1.39347-2.9822c.37175-.79558 1.49231-.79558 1.86405 0l1.39349 2.9822 3.2082.49239c.831.12754 1.1695 1.1522.5809 1.75825l-2.3519 2.42137.5454 3.35846c.1391.8569-.7602 1.4991-1.5135 1.0808l-2.79461-1.5518-2.79459 1.5518c-.75329.4183-1.65266-.2239-1.51352-1.0808zm4.30811-1.6589-.00014-8.90914 1.62797 3.48346 3.75108.5757-2.7178 2.79811.63 3.87927z" fill="#ffb547" fill-rule="evenodd"/></svg>