<svg fill="none" height="21" viewBox="0 0 31 21" width="31" xmlns="http://www.w3.org/2000/svg"><path d="m12.4626 14.7857 7.8818-4.2857-7.8818-4.28571zm17.5556-11.1857c.1974.67143.3341 1.57143.4252 2.71429.1063 1.14285.1518 2.12857.1518 2.98571l.0912 1.2c0 3.1286-.243 5.4286-.6682 6.9-.3797 1.2857-1.2605 2.1143-2.6273 2.4714-.7138.1857-2.0198.3143-4.0244.4-1.9742.1-3.7814.1429-5.4519.1429l-2.4147.0857c-6.3631 0-10.32676-.2286-11.89097-.6286-1.36678-.3571-2.24759-1.1857-2.62725-2.4714-.197424-.6714-.334102-1.5714-.42522-2.7143-.106305-1.1428-.151865-2.1286-.151865-2.9857l-.091118-1.2c0-3.12857.242983-5.42857.668203-6.9.37966-1.28571 1.26047-2.11429 2.62725-2.47143.71377-.185713 2.0198-.314284 4.02441-.399999 1.97424-.1 3.78146-.142857 5.45196-.142857l2.4146-.085714c6.3631 0 10.3268.228572 11.891.62857 1.3668.35714 2.2476 1.18572 2.6273 2.47143z" fill="#d94e4c"/></svg>